<svg xmlns="http://www.w3.org/2000/svg" width="150" height="44" fill="none" viewBox="0 0 150 44"><rect width="150" height="40" fill="none" rx="4"/><path fill="currentColor" d="M39.769 21.73a4.948 4.948 0 0 1 2.357-4.152 5.066 5.066 0 0 0-3.992-2.158c-1.679-.176-3.307 1.005-4.163 1.005-.872 0-2.19-.987-3.608-.958a5.315 5.315 0 0 0-4.473 2.728c-1.934 3.348-.491 8.27 1.361 10.976.927 1.325 2.01 2.806 3.428 2.753 1.387-.057 1.905-.884 3.58-.884 1.658 0 2.144.884 3.59.85 1.489-.023 2.426-1.33 3.32-2.668a10.96 10.96 0 0 0 1.52-3.093 4.782 4.782 0 0 1-2.92-4.399ZM37.037 13.641a4.872 4.872 0 0 0 1.115-3.49 4.957 4.957 0 0 0-3.208 1.659 4.635 4.635 0 0 0-1.143 3.361 4.099 4.099 0 0 0 3.236-1.53ZM57.303 28.57h-4.734l-1.137 3.356h-2.005l4.484-12.418h2.083l4.483 12.418h-2.039l-1.136-3.357Zm-4.244-1.55h3.752l-1.85-5.447h-.051l-1.85 5.447ZM70.16 27.4c0 2.813-1.506 4.62-3.778 4.62a3.07 3.07 0 0 1-2.849-1.584h-.043v4.485h-1.858V22.87h1.799v1.507h.034a3.213 3.213 0 0 1 2.882-1.6c2.298 0 3.813 1.816 3.813 4.621Zm-1.91 0c0-1.834-.948-3.039-2.393-3.039-1.42 0-2.375 1.23-2.375 3.038 0 1.824.955 3.046 2.375 3.046 1.445 0 2.393-1.196 2.393-3.046ZM80.125 27.4c0 2.813-1.506 4.62-3.778 4.62a3.07 3.07 0 0 1-2.85-1.584h-.042v4.485h-1.859V22.87h1.8v1.507h.033a3.213 3.213 0 0 1 2.883-1.6c2.298 0 3.813 1.816 3.813 4.621Zm-1.91 0c0-1.834-.948-3.039-2.393-3.039-1.42 0-2.375 1.23-2.375 3.038 0 1.824.955 3.046 2.375 3.046 1.445 0 2.393-1.196 2.393-3.046ZM86.71 28.466c.138 1.231 1.335 2.04 2.97 2.04 1.566 0 2.693-.809 2.693-1.92 0-.963-.68-1.54-2.29-1.936l-1.609-.387c-2.28-.551-3.339-1.618-3.339-3.348 0-2.142 1.868-3.614 4.52-3.614 2.623 0 4.422 1.472 4.483 3.614H92.26c-.112-1.24-1.136-1.987-2.633-1.987s-2.522.757-2.522 1.858c0 .878.654 1.395 2.255 1.79l1.368.336c2.548.603 3.607 1.626 3.607 3.443 0 2.323-1.85 3.778-4.794 3.778-2.754 0-4.614-1.421-4.734-3.667h1.903ZM98.346 20.73v2.143h1.722v1.472h-1.722v4.99c0 .776.345 1.138 1.102 1.138.204-.004.408-.018.611-.043v1.462a5.1 5.1 0 0 1-1.032.087c-1.833 0-2.548-.689-2.548-2.445v-5.19h-1.316v-1.471h1.316V20.73h1.867ZM101.065 27.4c0-2.848 1.678-4.638 4.294-4.638 2.625 0 4.295 1.79 4.295 4.638 0 2.857-1.661 4.64-4.295 4.64-2.633 0-4.294-1.783-4.294-4.64Zm6.695 0c0-1.954-.895-3.107-2.401-3.107-1.506 0-2.4 1.162-2.4 3.107 0 1.962.894 3.107 2.4 3.107 1.506 0 2.401-1.145 2.401-3.107ZM111.186 22.872h1.773v1.54h.043a2.162 2.162 0 0 1 2.177-1.635c.215 0 .428.022.637.07v1.738a2.594 2.594 0 0 0-.835-.113 1.872 1.872 0 0 0-1.936 2.083v5.37h-1.859v-9.053ZM124.385 29.268c-.25 1.643-1.851 2.771-3.899 2.771-2.634 0-4.268-1.765-4.268-4.596 0-2.84 1.643-4.681 4.19-4.681 2.505 0 4.08 1.72 4.08 4.465v.637h-6.394v.113a2.353 2.353 0 0 0 1.458 2.391c.31.126.643.185.977.173a2.05 2.05 0 0 0 2.091-1.273h1.765Zm-6.283-2.703h4.527a2.184 2.184 0 0 0-1.345-2.134 2.18 2.18 0 0 0-.876-.163 2.291 2.291 0 0 0-2.306 2.297ZM51.738 12.683h.798a1.003 1.003 0 0 0 1.125-.951c0-.55-.414-.906-1.116-.906a1.065 1.065 0 0 0-1.204.935h-.876a1.872 1.872 0 0 1 2.108-1.745c1.175 0 2.002.657 2.002 1.604a1.386 1.386 0 0 1-1.084 1.365v.07a1.39 1.39 0 0 1 1.327 1.443 1.995 1.995 0 0 1-2.228 1.774 1.982 1.982 0 0 1-2.241-1.766h.89c.053.571.577.94 1.35.94.774 0 1.28-.414 1.28-.997 0-.592-.476-.956-1.307-.956h-.824v-.81ZM55.83 14.854c0-.811.604-1.278 1.674-1.345l1.22-.07v-.389c0-.475-.314-.744-.922-.744-.496 0-.84.182-.939.5h-.86c.09-.773.82-1.269 1.84-1.269 1.13 0 1.766.562 1.766 1.513v3.077h-.856v-.633h-.07a1.515 1.515 0 0 1-1.353.707 1.36 1.36 0 0 1-1.5-1.348Zm2.894-.385v-.377l-1.1.07c-.62.042-.901.253-.901.65 0 .405.351.641.835.641a1.06 1.06 0 0 0 1.166-.984ZM61.968 12.373v3.755h-.889v-4.503h2.965v.748h-2.076ZM69.43 13.873c0 1.431-.724 2.328-1.86 2.328a1.467 1.467 0 0 1-1.386-.756h-.07v2.179h-.89v-6h.856v.744h.067a1.564 1.564 0 0 1 1.414-.819c1.145 0 1.869.893 1.869 2.325Zm-.914 0c0-.95-.45-1.525-1.204-1.525-.748 0-1.215.586-1.215 1.53 0 .938.468 1.525 1.212 1.525.756 0 1.207-.574 1.207-1.53ZM70.613 17.74v-.764c.097.012.193.017.29.016a.77.77 0 0 0 .815-.628l.066-.22-1.63-4.519h.968l1.129 3.577h.07l1.125-3.577h.943l-1.679 4.689c-.385 1.096-.81 1.447-1.728 1.447-.075 0-.286-.008-.369-.02ZM75.081 14.85h.885c.087.397.459.604.98.604.591 0 .954-.26.954-.666 0-.434-.326-.64-.955-.64h-.673v-.691h.662c.537 0 .81-.207.81-.583 0-.33-.264-.583-.81-.583-.498 0-.86.21-.918.566h-.857a1.578 1.578 0 0 1 1.775-1.319c1.07 0 1.682.484 1.682 1.245a.925.925 0 0 1-.71.922v.07a1.01 1.01 0 0 1 .88 1.013c0 .856-.728 1.423-1.84 1.423-.984 0-1.783-.451-1.865-1.36ZM80.066 16.128v-4.503h.88v3.097h.071l2.075-3.097h.881v4.503h-.88v-3.114h-.067l-2.08 3.114h-.88ZM88.826 12.373h-1.418v3.755h-.89v-3.755H85.1v-.748h3.726v.748ZM93.613 14.911a1.83 1.83 0 0 1-1.952 1.303 2.043 2.043 0 0 1-2.08-2.324 2.077 2.077 0 0 1 2.076-2.353c1.253 0 2.01.856 2.01 2.27v.31h-3.18v.05a1.19 1.19 0 0 0 1.199 1.29 1.079 1.079 0 0 0 1.07-.546h.857Zm-3.126-1.451h2.273a1.085 1.085 0 0 0-1.107-1.167 1.152 1.152 0 0 0-1.166 1.167ZM97.38 11.625h2.03c.882 0 1.398.446 1.398 1.145a.967.967 0 0 1-.761.951v.07a1.028 1.028 0 0 1 .963 1.039c0 .785-.591 1.298-1.579 1.298h-2.05v-4.503Zm.881.682v1.166h.881c.537 0 .794-.206.794-.587 0-.351-.224-.579-.695-.579h-.98Zm0 1.82v1.319h1.054c.525 0 .807-.232.807-.658 0-.45-.319-.662-.918-.662h-.943Z"/></svg>
