<svg xmlns="http://www.w3.org/2000/svg" width="150" height="44" fill="none" viewBox="0 0 150 44">

    <path fill="none" d="M0 0h150v44H0z"/>
    <path fill="none" d="m30 26.543-16.1 9.075a1.857 1.857 0 0 1-2.222 0l-.078.077.078.088a1.857 1.857 0 0 0 2.222 0l16.233-9.141-.133-.099Z" opacity=".2"/>
    <path fill="none" d="M11.6 35.551A2.185 2.185 0 0 1 11.11 34v.165a2.12 2.12 0 0 0 .523 1.54l.078-.077-.111-.077ZM35.556 23.43 30 26.543l.1.099 5.456-3.058c.322-.135.6-.353.808-.632.208-.279.335-.608.37-.952a2.065 2.065 0 0 1-1.178 1.43Z" opacity=".12"/>
    <path fill="" d="M13.9 8.382 35.555 20.57A2.039 2.039 0 0 1 36.733 22a1.914 1.914 0 0 0-.369-.952 1.942 1.942 0 0 0-.809-.632L13.9 8.228c-1.545-.88-2.822-.154-2.822 1.606v.165c.033-1.76 1.277-2.486 2.822-1.617Z" opacity=".25"/>
    <path fill="#00A0FF" d="M17.44 9.54a2 2 0 0 0-.47 1.4v22.12a1.94 1.94 0 0 0 .47 1.4l.07.08L29.9 22.15v-.3L17.51 9.47l-.07.07Z"/>
    <path fill="#FFE000" d="m34 26.28-4.1-4.13v-.3l4.1-4.13.09.06L39 20.56c1.4.79 1.4 2.09 0 2.89l-4.89 2.78-.11.05Z"/>
    <path fill="#FF3A44" d="M34.12 26.22 29.9 22 17.44 34.46a1.62 1.62 0 0 0 2.07.07l14.61-8.31Z"/>
    <path fill="#32A071" d="m34.12 17.78-14.61-8.3a1.61 1.61 0 0 0-2.07.06L29.9 22l4.22-4.22Z"/>
    <path fill="currentColor" d="M75.14 23.75A4.26 4.26 0 1 0 79.41 28a4.19 4.19 0 0 0-4.27-4.25Zm0 6.83a2.58 2.58 0 1 1 2.4-2.58 2.459 2.459 0 0 1-2.4 2.58Zm-9.32-6.83A4.26 4.26 0 1 0 70.09 28a4.192 4.192 0 0 0-4.27-4.25Zm0 6.83a2.58 2.58 0 1 1 2.4-2.58 2.459 2.459 0 0 1-2.4 2.58Zm-11.08-5.52v1.8h4.32a3.77 3.77 0 0 1-1 2.27 4.418 4.418 0 0 1-3.34 1.32 4.8 4.8 0 0 1 0-9.6A4.64 4.64 0 0 1 58 22.14l1.27-1.27a6.3 6.3 0 0 0-4.53-1.82 6.61 6.61 0 1 0 0 13.21 6.07 6.07 0 0 0 4.61-1.85 6 6 0 0 0 1.56-4.23 6.264 6.264 0 0 0-.09-1.12h-6.08Zm45.31 1.4a4 4 0 0 0-3.64-2.71 4.001 4.001 0 0 0-4 4.25 4.23 4.23 0 0 0 7.76 2.37l-1.45-1a2.41 2.41 0 0 1-2.09 1.17 2.15 2.15 0 0 1-2.06-1.29l5.69-2.35-.21-.44Zm-5.8 1.42a2.339 2.339 0 0 1 2.23-2.49 1.64 1.64 0 0 1 1.57.91l-3.8 1.58ZM89.63 32h1.87V19.5h-1.87V32Zm-3.06-7.3h-.07a2.941 2.941 0 0 0-2.24-1 4.26 4.26 0 0 0 0 8.51 2.88 2.88 0 0 0 2.24-1h.07v.61c0 1.63-.87 2.5-2.27 2.5a2.36 2.36 0 0 1-2.15-1.51l-1.62.67A4 4 0 0 0 84.3 36c2.19 0 4-1.29 4-4.43V24h-1.73v.7Zm-2.15 5.88a2.58 2.58 0 0 1 0-5.15A2.389 2.389 0 0 1 86.7 28a2.381 2.381 0 0 1-2.28 2.58Zm24.39-11.08h-4.48V32h1.87v-4.74h2.61a3.89 3.89 0 1 0 0-7.76Zm0 6h-2.61v-4.26h2.65a2.143 2.143 0 0 1 2.14 2.14 2.132 2.132 0 0 1-.627 1.513 2.127 2.127 0 0 1-1.513.627l-.04-.02Zm11.54-1.79a3.49 3.49 0 0 0-3.33 1.91l1.65.69a1.783 1.783 0 0 1 1.71-.91 1.804 1.804 0 0 1 1.792.931c.114.21.184.441.208.679v.12a4.18 4.18 0 0 0-1.95-.48c-1.78 0-3.6 1-3.6 2.82a2.899 2.899 0 0 0 .973 2.034 2.889 2.889 0 0 0 2.137.716 2.649 2.649 0 0 0 2.38-1.22h.06v1h1.8v-4.81c0-2.19-1.66-3.46-3.79-3.46l-.04-.02Zm-.23 6.85c-.61 0-1.46-.31-1.46-1.06 0-1 1.06-1.34 2-1.34a3.321 3.321 0 0 1 1.7.42 2.259 2.259 0 0 1-2.2 2l-.04-.02ZM130.74 24l-2.14 5.42h-.06L126.32 24h-2l3.33 7.58-1.9 4.21h1.95L132.82 24h-2.08Zm-16.8 8h1.86V19.5h-1.86V32Z"/>
    <path fill="currentColor" stroke="currentColor" stroke-miterlimit="10" stroke-width=".2" d="M49.11 16.27h-.73v-2H49a2.841 2.841 0 0 0 .73-2.27V9h4v5.26h.67v2h-.74V15h-4.55v1.27ZM50.5 12a4 4 0 0 1-.57 2.29h3V9.74H50.5V12ZM60.41 14.22a3.1 3.1 0 0 1-4.39 0 3.21 3.21 0 0 1 0-4.44 3.099 3.099 0 0 1 4.39 0A3.082 3.082 0 0 1 61.3 12a3 3 0 0 1-.89 2.22Zm-3.83-.5a2.222 2.222 0 0 0 1.63.68 2.19 2.19 0 0 0 1.63-.68 2.54 2.54 0 0 0 0-3.44 2.19 2.19 0 0 0-1.63-.68 2.22 2.22 0 0 0-1.63.68 2.57 2.57 0 0 0 0 3.44ZM65.18 15.13a3 3 0 0 1-2.18-.89 3.24 3.24 0 0 1 0-4.48 3.001 3.001 0 0 1 2.22-.89 2.75 2.75 0 0 1 2.2 1l-.53.52a2 2 0 0 0-1.67-.77 2.25 2.25 0 0 0-1.66.67 2.57 2.57 0 0 0 0 3.46 2.252 2.252 0 0 0 1.66.67 2.36 2.36 0 0 0 1.78-.89l.54.53a2.999 2.999 0 0 1-1 .78 3.09 3.09 0 0 1-1.36.29ZM70.68 15h-.77V9.74h-1.68V9h4.12v.74h-1.67V15ZM77.65 9l-2.27 5.06a1.45 1.45 0 0 1-2 .94l.2-.71a.86.86 0 0 0 .4.11.72.72 0 0 0 .42-.11.91.91 0 0 0 .27-.38l.22-.48-2-4.43h.91l1.48 3.44L76.74 9h.91ZM78.52 15V9h4.34v6h-.77V9.74h-2.8V15h-.77ZM84.23 15V9H85v2.57h3V9h.78v6H88v-2.71h-3V15h-.77ZM95.06 14.22a3.11 3.11 0 0 1-4.4 0 3.21 3.21 0 0 1 0-4.44 3.1 3.1 0 0 1 4.39 0 3.23 3.23 0 0 1 0 4.44h.01Zm-3.83-.5a2.19 2.19 0 0 0 1.63.68 2.22 2.22 0 0 0 1.63-.68 2.57 2.57 0 0 0 0-3.44 2.219 2.219 0 0 0-1.63-.68 2.19 2.19 0 0 0-1.63.68 2.54 2.54 0 0 0 0 3.44ZM99.09 15V9h2.17a1.8 1.8 0 0 1 1.22.46 1.513 1.513 0 0 1 .52 1.17c.002.27-.074.534-.22.76a1.414 1.414 0 0 1-.59.49c.289.099.542.28.73.52a1.4 1.4 0 0 1 .28.85 1.577 1.577 0 0 1-.54 1.22 1.83 1.83 0 0 1-1.28.49l-2.29.04Zm.77-3.43h1.4a.868.868 0 0 0 .7-.29.905.905 0 0 0 .27-.63.933.933 0 0 0-.23-.65.85.85 0 0 0-.67-.28h-1.44l-.03 1.85Zm0 2.69h1.56a.925.925 0 0 0 .72-.31 1 1 0 0 0 .27-.68 1.007 1.007 0 0 0-1.03-.98h-1.52v1.97Z"/>

</svg>
