<svg xmlns="http://www.w3.org/2000/svg" width="150" height="40" fill="none" viewBox="0 0 150 44"><g clip-path="url(#a)"><path fill="none" d="M0 0h150v44H0z"/><path fill="currentColor" d="M57.413 28.606h-4.59l-1.12 3.066h-2.024l4.497-11.469h1.915l4.606 11.469H58.58l-1.167-3.066Zm-4.015-1.556h3.424l-1.23-3.283a17.18 17.18 0 0 1-.497-1.51c-.156.483-.312.98-.483 1.494l-1.214 3.3ZM61.584 25.23a33.7 33.7 0 0 0-.063-2.086h1.837c.062.358.109.716.14 1.09.762-.826 1.634-1.246 2.614-1.246.576 0 1.105.14 1.587.436.483.28.872.747 1.183 1.37.296.622.451 1.415.451 2.365 0 .996-.17 1.852-.513 2.552-.342.7-.81 1.245-1.432 1.603-.607.358-1.323.544-2.116.544a5.017 5.017 0 0 1-1.712-.295v3.532l-1.96.171V25.23h-.016Zm5.15 4.356c.405-.529.592-1.322.592-2.35 0-.949-.171-1.649-.498-2.085-.327-.435-.763-.638-1.323-.638-.373 0-.731.094-1.058.265-.327.187-.622.42-.918.716v4.575a3.253 3.253 0 0 0 1.447.311c.778.016 1.354-.249 1.759-.794ZM70.578 25.23c0-.639-.015-1.324-.062-2.086h1.836c.063.358.11.716.14 1.09.763-.826 1.634-1.246 2.615-1.246.576 0 1.105.14 1.587.436.482.28.871.747 1.183 1.37.295.622.451 1.415.451 2.365 0 .996-.171 1.852-.514 2.552-.342.7-.809 1.245-1.431 1.603-.607.358-1.323.544-2.117.544a5.017 5.017 0 0 1-1.711-.295v3.532l-1.961.171V25.23h-.016Zm5.151 4.356c.405-.529.592-1.322.592-2.35 0-.949-.172-1.649-.498-2.085-.327-.435-.763-.638-1.323-.638-.374 0-.731.094-1.058.265-.327.187-.623.42-.918.716v4.575a3.252 3.252 0 0 0 1.447.311c.778.016 1.354-.249 1.758-.794ZM82 31.144a4.748 4.748 0 0 1-1.945-2.007c-.451-.872-.684-1.899-.684-3.081 0-1.292.264-2.381.778-3.284.529-.902 1.229-1.572 2.132-2.023.902-.451 1.914-.684 3.034-.684a8.216 8.216 0 0 1 3.564.809l-.498 1.51c-1.043-.499-2.039-.748-2.972-.748-.794 0-1.494.171-2.101.514-.607.342-1.059.84-1.4 1.494-.328.653-.499 1.462-.499 2.396 0 .825.125 1.54.39 2.179a3.14 3.14 0 0 0 1.213 1.51c.545.373 1.245.56 2.085.56.374 0 .763-.032 1.136-.094a6.038 6.038 0 0 0 1.074-.28v-2.319h-2.645v-1.525h4.543v4.824a9.266 9.266 0 0 1-2.07.7 9.192 9.192 0 0 1-2.147.25c-1.136 0-2.132-.234-2.987-.7ZM96.255 31.689a10.3 10.3 0 0 1-.14-1.136c-.296.358-.7.67-1.183.918-.482.25-1.027.374-1.634.374-.498 0-.933-.094-1.338-.296a2.177 2.177 0 0 1-.965-.872c-.233-.389-.358-.855-.358-1.416 0-.824.296-1.494.903-1.976s1.587-.747 2.988-.747c.529 0 1.042.031 1.556.11v-.172c0-.763-.156-1.292-.483-1.603-.326-.311-.778-.467-1.385-.467-.42 0-.855.063-1.338.187a6.802 6.802 0 0 0-1.245.436l-.311-1.432c.342-.156.81-.311 1.385-.436a8.439 8.439 0 0 1 1.805-.202c.731 0 1.37.109 1.883.342.514.218.918.607 1.214 1.152.296.545.436 1.276.436 2.21v3.392c0 .358.015.887.062 1.603h-1.852v.031Zm-1.167-1.587c.404-.203.747-.436.996-.732v-1.587c-.53-.062-.965-.093-1.307-.093-.81 0-1.37.124-1.681.389-.311.264-.467.607-.467 1.058 0 .42.109.731.342.934.218.202.53.31.919.31.389.016.793-.093 1.198-.28ZM99.74 29.634v-10.1l1.946-.155v9.913c0 .357.062.622.187.778.124.155.326.233.591.233.124 0 .296-.031.514-.093l.233 1.4c-.187.078-.405.14-.685.172a4.306 4.306 0 0 1-.762.062c-1.339 0-2.023-.747-2.023-2.21ZM104.611 29.634v-10.1l1.946-.155v9.913c0 .357.062.622.186.778.125.155.327.233.592.233.124 0 .295-.031.513-.093l.234 1.4c-.187.078-.405.14-.685.172a4.324 4.324 0 0 1-.763.062c-1.338 0-2.023-.747-2.023-2.21ZM116.189 27.659h-5.586c.093 1.79.949 2.676 2.552 2.676.404 0 .809-.047 1.229-.14.42-.093.825-.233 1.214-.389l.42 1.338c-.949.467-2.023.7-3.221.7-.903 0-1.681-.17-2.303-.513a3.303 3.303 0 0 1-1.401-1.478c-.311-.638-.467-1.416-.467-2.334 0-.95.172-1.759.498-2.444a3.566 3.566 0 0 1 1.385-1.556c.592-.358 1.276-.544 2.055-.544.809 0 1.478.186 2.023.56a3.28 3.28 0 0 1 1.198 1.51c.264.622.389 1.322.389 2.084v.53h.015Zm-1.914-1.245c-.031-.685-.202-1.199-.513-1.525-.311-.343-.716-.514-1.23-.514a1.68 1.68 0 0 0-1.245.514c-.326.342-.544.856-.638 1.525h3.626ZM117.761 25.278c0-.467-.016-1.183-.062-2.148h1.836c.031.234.062.53.093.856.031.327.047.591.063.81a8.87 8.87 0 0 1 .669-.95c.218-.265.482-.467.762-.622.296-.156.623-.25.996-.25.296 0 .56.032.778.094l-.249 1.696a2.03 2.03 0 0 0-.638-.093c-.467 0-.856.124-1.198.358-.342.233-.716.622-1.105 1.167v5.493h-1.945v-6.411ZM124.064 35.173a4.604 4.604 0 0 1-.701-.17l.358-1.432c.125.03.296.078.498.109.202.03.389.046.576.046.871 0 1.509-.56 1.945-1.665l.125-.311-3.144-8.621h2.101l1.587 4.808c.265.825.42 1.448.498 1.899.156-.622.327-1.23.529-1.852l1.603-4.855H132l-3.143 8.652c-.296.825-.623 1.479-.965 1.976-.343.498-.747.872-1.214 1.12-.467.25-1.027.359-1.696.359a4.397 4.397 0 0 1-.918-.063Z"/><path fill="#C8102E" fill-rule="evenodd" d="M35.145 9H24.096C18.898 9 17 10.899 17 16.112V27.16c0 5.198 1.898 7.112 7.112 7.112H35.16c5.198 0 7.112-1.898 7.112-7.112V16.112C42.256 10.899 40.358 9 35.145 9Z" clip-rule="evenodd"/><path fill="currentColor" d="M21.995 21.637h.67v3.299h-.67v-1.339h-1.509v1.339h-.67v-3.3h.67v1.339h1.51v-1.338Zm3.782 1.883c0 .529-.265.824-.747.824s-.763-.295-.763-.84v-1.867h-.669v1.883c0 .933.514 1.462 1.417 1.462.902 0 1.431-.544 1.431-1.494v-1.867h-.669v1.899Zm7.734.389-.747-2.272h-.545l-.747 2.272-.73-2.272h-.717l1.152 3.299h.56l.747-2.163.747 2.163h.56l1.152-3.3h-.7l-.732 2.273Zm2.63-.405h1.214v-.607H36.14v-.669h1.774v-.607h-2.428v3.3h2.49v-.608h-1.836v-.809Zm2.63 1.432h.654v-3.3h-.654v3.3Zm-11.002-.7-.296.684h-.684l1.447-3.299h.591l1.447 3.3h-.7l-.296-.686h-1.51Zm.249-.592h1.011l-.513-1.183-.498 1.183ZM29.62 17.418a4.204 4.204 0 0 1-4.201-4.201h.591a3.613 3.613 0 0 0 3.61 3.61 3.613 3.613 0 0 0 3.61-3.61h.592c.016 2.319-1.883 4.201-4.201 4.201ZM50.753 15.847a2.344 2.344 0 0 1-.95-.996c-.217-.42-.326-.934-.326-1.494 0-.591.109-1.12.342-1.572a2.512 2.512 0 0 1 1.012-1.042c.436-.25.95-.358 1.556-.358.576 0 1.058.124 1.478.358.42.233.732.56.95.996.218.435.327.918.327 1.478 0 .607-.125 1.136-.359 1.587a2.512 2.512 0 0 1-1.011 1.043c-.436.249-.95.358-1.54.358-.576 0-1.059-.125-1.479-.358Zm2.537-.685c.28-.187.482-.436.607-.762.14-.327.202-.685.202-1.105 0-.405-.062-.763-.187-1.09a1.663 1.663 0 0 0-.576-.762c-.264-.187-.607-.28-1.011-.28-.39 0-.732.093-1.012.28-.28.187-.482.451-.622.763-.14.326-.202.669-.202 1.058 0 .404.062.778.202 1.104.14.327.327.576.591.763.265.187.607.28.996.28a1.75 1.75 0 0 0 1.012-.249ZM57.102 11.288h-1.758l.093-.81h4.404l-.093.81h-1.665v4.84h-.98v-4.84ZM65.101 16.127h-1.105l-1.68-2.49h-.67v2.49h-.98v-5.664h.98v2.334h.514l1.167-1.696c.171-.25.342-.436.514-.545.17-.109.389-.171.653-.171.218 0 .42.03.591.109l-.202.762a.741.741 0 0 0-.311-.062.479.479 0 0 0-.296.093 1.133 1.133 0 0 0-.249.28l-1.042 1.479 2.116 3.081ZM65.848 10.463h1.525c.715 0 1.26.14 1.65.436.373.295.575.715.575 1.26 0 .374-.078.7-.249.98-.171.28-.405.498-.716.639-.311.14-.653.217-1.058.217-.218 0-.467-.03-.747-.077v2.178h-.98v-5.633Zm2.458 2.536c.203-.186.312-.45.312-.793s-.11-.607-.312-.747c-.218-.156-.529-.234-.933-.234h-.53v2.008c.25.046.436.062.56.062.39-.015.685-.109.903-.296ZM71.466 15.847a2.344 2.344 0 0 1-.95-.996c-.218-.42-.327-.934-.327-1.494 0-.591.11-1.12.343-1.572a2.512 2.512 0 0 1 1.011-1.042c.436-.25.95-.358 1.556-.358.576 0 1.059.124 1.479.358.404.233.731.56.95.996.217.42.326.918.326 1.478 0 .607-.125 1.136-.358 1.587a2.512 2.512 0 0 1-1.012 1.043c-.435.249-.949.358-1.54.358-.576 0-1.058-.125-1.478-.358Zm2.536-.685c.28-.187.482-.436.607-.762.14-.327.202-.685.202-1.105 0-.405-.062-.763-.187-1.09a1.587 1.587 0 0 0-.575-.762c-.265-.187-.607-.28-1.012-.28-.389 0-.731.093-1.011.28-.28.187-.483.451-.623.763-.14.326-.202.669-.202 1.058 0 .404.062.778.202 1.104.125.327.327.576.592.763.264.187.606.28.995.28a1.75 1.75 0 0 0 1.012-.249ZM80.818 16.127v-3.112c0-.39.016-.84.047-1.338l-2.848 4.45h-1.09v-5.664h.903V13.7c0 .357-.015.731-.03 1.151l2.8-4.388h1.12v5.664h-.902Zm-2.21-6.147a1.23 1.23 0 0 1-.467-.42A1.43 1.43 0 0 1 77.94 9h.7c.078.42.327.622.732.622.404 0 .654-.202.731-.622h.7a1.43 1.43 0 0 1-.202.56 1.23 1.23 0 0 1-.467.42 1.624 1.624 0 0 1-.762.172c-.296-.016-.56-.063-.763-.172ZM84.304 11.288h-1.759l.094-.81h4.404l-.094.81h-1.665v4.84h-.98v-4.84ZM87.867 10.463h3.33l-.093.81h-2.256v1.555h2.132v.747h-2.132v1.728h2.38l-.077.809h-3.284v-5.65ZM98.044 13.326c.203.125.359.28.483.483.109.202.171.435.171.716 0 .31-.078.59-.233.84a1.443 1.443 0 0 1-.685.56c-.311.14-.67.202-1.09.202H94.84v-5.664h1.774c.607 0 1.043.109 1.354.342.311.234.451.545.451.95 0 .342-.093.622-.28.84-.187.218-.436.389-.747.482.218.047.451.125.653.25Zm-2.256-.544h.607c.202 0 .39-.047.545-.125a.814.814 0 0 0 .358-.327.893.893 0 0 0 .124-.451c0-.233-.078-.405-.249-.513-.171-.11-.404-.172-.731-.172h-.654v1.588Zm1.634 2.38c.202-.155.296-.389.296-.684 0-.312-.11-.56-.327-.716-.218-.156-.545-.249-.95-.249h-.653v1.899h.731c.405 0 .7-.094.903-.25Z"/></g><defs><clipPath id="a"><rect width="150" height="44" fill="currentColor" rx="4"/></clipPath></defs></svg>
