<svg xmlns="http://www.w3.org/2000/svg" width="138" height="80" fill="none" viewBox="0 0 138 80"><g clip-path="url(#a)"><path fill="#fff" d="M59.753 45.705c1.742-.345 2.119-3.401 2.085-4.98-.066-3.142-3.645-4.7-2.882-15.06.004-.046.014-.093.017-.14v-.032c-.242-6.65.492-12.447 2.865-12.752 2.089-.187 5.88 4.43 6.91 6.087.1.161.311.22.481.135 2.792-1.399 7.789-1.673 9.065-1.72a.343.343 0 0 0 .301-.202c.724-1.589 4.048-7.75 6.214-7.747 2.174.086 4.255 5.609 4.885 11.567a.34.34 0 0 0 .055.153c.806 1.207 1.582 2.72 1.889 3.746 2.332 7.814-1.245 10.129.756 11.953a1.1 1.1 0 0 1 .08.082c.632.714 2.503 1.886 3.717 3.887.111.183.29.319.503.353 2.546.41 5.911-.119 8.625-3.626 3.596-4.648 3.339-6.882 3.853-8.991l.121-.931c-2.492-1.365-3.15-5.032-.612-5.998 2.376-.904 4.715.787 5.628 3.13.301.77.514 2.415.514 2.825 0 2.826-.514 6.112-3.339 13.304-.707 1.798-4.624 8.991-11.56 9.505 1.999 6.304 3.093 10.85 3.15 20.123.002.416.351.75.766.715 10.073-.858 17.58-8.757 12.187-19.85-1.895-3.159-6.111-11.15 6.363-18.48 1.613-.947 4.33-2.033 5.325-.947 1.738 1.895.249 3.632-2.685 5.686-3.159 2.21-9.002 3.79-4.422 11.688 3.664 6.317 2.98 10.911 2.369 13.899-2.467 12.065-16.009 14.591-22.177 15.163H56.64c-1.919 0-3.701-1.72-2.654-3.328.61-.937 1.606-1.596 3.14-1.769.44-.05.779-.438.759-.88-.172-3.824 2.237-6.89 3.752-8.262a.856.856 0 0 0 .123-1.122c-1.834-2.558-2.132-5.653-1.959-8.015l.026-.316c-9.792 0-13.96-6.471-15.264-8.36-2.027-2.933-3.292-6.589-4.087-9.098-.233-.736 1.073-3.988 1.768-4.326l1.565-.761c.25-.122.554-.094.748.105 1.794 1.84 1.262 5.363 5.51 10.295 3.5 4.064 7.106 3.803 9.686 3.292Z"/><path stroke="#002A3A" stroke-linecap="round" stroke-linejoin="round" stroke-width="1.138" d="M59.827 54.558c-9.792 0-13.96-6.471-15.264-8.36-2.027-2.933-3.292-6.589-4.087-9.098-.233-.736 1.073-3.988 1.768-4.326l1.565-.761c.25-.122.554-.094.748.105 1.794 1.84 1.262 5.363 5.51 10.295 3.5 4.064 7.106 3.803 9.686 3.292 1.742-.345 2.119-3.401 2.085-4.98-.066-3.142-3.645-4.7-2.882-15.06.004-.046.014-.093.017-.14v-.032c-.242-6.65.492-12.447 2.865-12.752 2.089-.187 5.88 4.43 6.91 6.087.1.161.311.22.481.135 2.792-1.399 7.789-1.673 9.065-1.72a.343.343 0 0 0 .301-.202c.724-1.589 4.048-7.75 6.214-7.747 2.174.086 4.255 5.609 4.885 11.567a.34.34 0 0 0 .055.153c.806 1.207 1.582 2.72 1.889 3.746 2.332 7.814-1.245 10.129.756 11.953a1.1 1.1 0 0 1 .08.082c.632.714 2.503 1.886 3.717 3.887.111.183.29.319.503.353 2.546.41 5.911-.119 8.625-3.626 3.596-4.648 3.339-6.882 3.853-8.991l.121-.931m-49.466 27.07-.026.317c-.173 2.362.124 5.457 1.96 8.015a.856.856 0 0 1-.124 1.122c-1.515 1.371-3.924 4.438-3.752 8.262.02.442-.32.83-.76.88-1.533.173-2.53.832-3.139 1.769-1.047 1.608.735 3.328 2.654 3.328h23.218m-20.03-23.692.287-2.053m39.81-2.252c6.935-.514 10.852-7.707 11.559-9.505 2.825-7.192 3.339-10.478 3.339-13.304 0-.41-.213-2.055-.514-2.825-.913-2.343-3.252-4.034-5.628-3.13-2.538.966-1.88 4.633.612 5.998m-9.369 22.766c1.999 6.304 3.093 10.85 3.15 20.123.002.416.351.75.766.715 10.073-.858 17.58-8.757 12.187-19.85-1.895-3.159-6.111-11.15 6.363-18.48 1.613-.947 4.33-2.033 5.325-.947 1.738 1.895.249 3.632-2.685 5.686-3.159 2.21-9.002 3.79-4.422 11.688 3.664 6.317 2.98 10.911 2.369 13.899-2.467 12.065-16.009 14.591-22.177 15.163H79.858m20.066-27.997h-2.569M79.858 78.25c-2.37 0-3.285-1.484-3.159-2.37m15.876-13.912c-7.285 0-9.788 6.882-9.945 10.36-.02.423-.354.779-.777.792-2.901.09-4.863.727-5.154 2.76m0 0c-5.445-1.728-9.891-5.913-10.898-9.16m44.912-38.762a4.17 4.17 0 0 1-1.42-.471"/><path stroke="#002A3A" stroke-linecap="round" stroke-linejoin="round" stroke-width="1.138" d="M83.923 46.525c-2.185-.477-6.604-4.767-6.813-4.965.254.06 6.433 1.198 7.769 3.248.23.359.311.725.232 1.087-.073.337-.251.551-.533.636-.184.056-.404.049-.655-.006ZM77.11 41.562c-1.388.177-6.346 1.155-7.716 4.585-.265.655-.16.82-.102.858.647.464 5.09-3.037 7.818-5.443Z"/><path stroke="#002A3A" stroke-linecap="round" stroke-linejoin="round" stroke-width="1.138" d="M73.45 50.612c.3-.89 3.166-8.997 3.66-9.05 0 0 .231.41.125 1.636-.267 3.145-.676 10.508 4.546 12.766"/><path fill="#002A3A" fill-rule="evenodd" d="M91.592 24.612c-.334-1.02-1.075-2.448-1.842-3.598a.34.34 0 0 1-.056-.153c-.63-5.959-2.711-11.48-4.885-11.567-2.166-.004-5.49 6.158-6.213 7.747a.342.342 0 0 1-.302.202c-.264.01-.687.029-1.216.066.22.739.576 1.492 1.09 2.257 3.063 4.562 8.637 5.447 13.424 5.046Z" clip-rule="evenodd"/><path fill="#002A3A" d="M63.874 16.342c.9.91 1.759 2.12 2.4 3.2.314.53.103 1.201-.437 1.496l-3.172 1.73c-.702.382-1.57-.062-1.632-.86-.146-1.859-.088-3.34.046-4.453.191-1.591 1.669-2.253 2.795-1.113Z"/><path fill="#002A3A" fill-rule="evenodd" d="M123.95 31.977c-1.354.774-2.236 2.037-2.236 3.463 0 1.215.639 2.31 1.665 3.088l.082-.049c.554-.329 1.093-.648 1.57-.982 2.934-2.054 4.422-3.791 2.685-5.686-.716-.781-2.321-.44-3.766.166Z" clip-rule="evenodd"/><path stroke="#002A3A" stroke-linecap="round" stroke-linejoin="round" stroke-width="1.138" d="M55.211 75.415c-.457.269-1.267 1.004-.847 1.795M77.955 75.415c-.457.269-1.268 1.004-.847 1.795M78.903 76.044c-.458.269-1.268 1.004-.847 1.795"/><path fill="#002A3A" d="M69.437 27.479c.414-.088.969.871 1.239 2.143.27 1.271.153 2.373-.26 2.461-.415.088-.97-.871-1.24-2.143-.27-1.271-.153-2.373.261-2.461ZM80.542 25.44c.414-.088.969.871 1.239 2.143.27 1.271.153 2.373-.26 2.461-.415.088-.97-.871-1.24-2.143-.27-1.271-.153-2.373.261-2.461Z"/><path stroke="#002A3A" stroke-linecap="round" stroke-linejoin="round" stroke-width="1.138" d="M56.159 76.044c-.458.269-1.268 1.004-.847 1.795"/><path stroke="#002A3A" stroke-width="1.138" d="M76.772 33.313c.006.035.196.882.152 2.072"/><path stroke="#002A3A" stroke-linecap="round" stroke-width="1.138" d="m75.447 32.572 1.17.772a.114.114 0 0 0 .06.025c.05.007.1-.016.132-.052l.81-1.057M75.057 36.713c.006-.005.722-.24 1.732-1.523a.142.142 0 0 1 .132-.051c.05.006.092.04.109.088 0 .006.213.479 1.196 1.113"/><path stroke="#0DD149" stroke-linecap="round" stroke-linejoin="round" stroke-width="1.138" d="m66.546 30.59 7.289-1.528.727 3.47-7.289 1.528zM77.85 28.282l7.351-1.54.728 3.469-7.352 1.54zM74.319 31.056c.51-.638 1.892-1.778 3.811-.651"/><path fill="#fff" stroke="#002A3A" stroke-linecap="round" stroke-linejoin="round" stroke-width="1.138" d="m25.611 36.625-.274 38.136v3.375h23.322c3.376 0 4.143-4.91 4.143-8.285.051-6.956.123-22.525 0-29.153a321.701 321.701 0 0 1-.05-3.748c-.017-2.626-2.17-4.845-4.796-4.845H30.164a4.553 4.553 0 0 0-4.553 4.52Z"/><path stroke="#002A3A" stroke-linecap="round" stroke-linejoin="round" stroke-width="1.138" d="M29.08 38.09h20.254M29.08 43.102h20.254M29.08 47.918h20.254M29.08 52.734h20.254M29.08 57.55h10.127"/><path fill="#fff" stroke="#002A3A" stroke-linecap="round" stroke-linejoin="round" stroke-width="1.138" d="M43.141 72H18.585a6.137 6.137 0 0 0 6.138 6.137h23.936c-4.373 0-5.518-2.758-5.518-6.137ZM38.68 33.321c-.935-1.635.233-3.738 2.336-4.439 1.48-.467 4.605-.373 5.353 3.178h-1.168c-.638 2.211-5.088 3.77-6.522 1.261Z"/><path stroke="#002A3A" stroke-linecap="round" stroke-linejoin="round" stroke-width="1.138" d="M39.86 31.458c-.48.463-.947 2.099.455 3.033M41.26 31.457c-.712.93-.706 2.505.456 3.033"/><path fill="#002A3A" fill-rule="evenodd" d="M114.21 15.512a.86.86 0 0 1 1.205-.164l.595-.782a1.842 1.842 0 0 0-2.582.35l-3.907 5.133a.492.492 0 0 0 .782.596l3.907-5.133Z" clip-rule="evenodd"/><path fill="#002A3A" d="M119.198 13.827a.799.799 0 0 0-1.271-.967l-.818 1.075a.799.799 0 0 0 1.271.968l.818-1.076Z"/><path fill="#00AFFF" d="M118.594 16.037a.96.96 0 0 0-.183-1.346l-1.111-.845a.96.96 0 0 0-1.346.182l-13.64 17.953 2.64 2.008 13.64-17.952Z"/><path fill="#002A3A" d="M101.108 37.175a.542.542 0 0 1-.84-.638l2.046-4.556 2.64 2.009-3.846 3.185Z"/><path fill="#fff" d="M108.682 21.488c2.375-.904 4.714.787 5.628 3.13.211.54.379 1.513.46 2.186.044.364-.22.674-.584.72l-3.376.421a.671.671 0 0 1-.193-.003 4.172 4.172 0 0 1-1.324-.456c-2.492-1.365-3.15-5.032-.611-5.998Z"/><path stroke="#002A3A" stroke-linecap="round" stroke-linejoin="round" stroke-width="1.138" d="M110.423 22.625c-.764-.326-2.445-.662-3.049.605M110.51 24.407c-.765-.326-2.445-.662-3.05.604"/><path stroke="#002A3A" stroke-linecap="round" stroke-linejoin="round" stroke-width="1.138" d="M114.823 27.443c0-.41-.213-2.055-.513-2.825-.914-2.343-3.253-4.034-5.628-3.13-2.539.966-1.881 4.633.611 5.998.423.231.899.397 1.42.471"/><path stroke="#002A3A" stroke-linecap="round" stroke-width="1.138" d="M4.684 78.328h113.817"/><path fill="#0DD149" d="M23.396 38c6.018 0 10.896-4.925 10.896-11s-4.878-11-10.896-11C17.378 16 12.5 20.925 12.5 27s4.878 11 10.896 11Z"/><path fill="#fff" fill-rule="evenodd" d="M30.314 24.226a.326.326 0 0 1-.006.46l-7.153 7.022a.326.326 0 0 1-.457 0l-4.58-4.495a.326.326 0 0 1-.005-.46l1.426-1.468a.326.326 0 0 1 .463-.005l2.696 2.646c.127.125.33.125.457 0l5.27-5.173a.326.326 0 0 1 .462.006l1.427 1.467Z" clip-rule="evenodd"/></g><defs><clipPath id="a"><path fill="#fff" d="M.5 0h137v80H.5z"/></clipPath></defs></svg>
