<svg width="142" height="100" viewBox="0 0 142 100" fill="none" xmlns="http://www.w3.org/2000/svg">
<g id="Zaim usloviya">
<g id="Group 89103">
<g id="Group 88890">
<g id="Rectangle 5552">
<path d="M68.166 66.2633C68.166 63.3306 70.5435 60.9531 73.4762 60.9531H98.6996C101.632 60.9531 104.01 63.3306 104.01 66.2633V86.8403C104.01 89.773 101.632 92.1504 98.6996 92.1504H73.4762C70.5435 92.1504 68.166 89.773 68.166 86.8403V66.2633Z" fill="#002A3A"/>
</g>
<g id="Rectangle 5550">
<path d="M65.5117 66.2633C65.5117 63.3306 67.8892 60.9531 70.8219 60.9531H96.0453C98.978 60.9531 101.355 63.3306 101.355 66.2633V86.8403C101.355 89.773 98.978 92.1504 96.0453 92.1504H70.8219C67.8892 92.1504 65.5117 89.773 65.5117 86.8403V66.2633Z" fill="#00AFFF"/>
</g>
<g id="Rectangle 5553">
<path d="M84.4297 77.7141C84.4297 74.3231 87.1786 71.5742 90.5696 71.5742H101.938C103.083 71.5742 104.011 72.5025 104.011 73.6475V81.7807C104.011 82.9258 103.083 83.854 101.938 83.854H90.5696C87.1786 83.854 84.4297 81.1051 84.4297 77.7141Z" fill="#002A3A"/>
</g>
<g id="Rectangle 5551">
<path d="M86.0879 76.8844C86.0879 73.9517 88.4653 71.5742 91.3981 71.5742H103.893C105.057 71.5742 106.001 72.5182 106.001 73.6827V80.0861C106.001 81.2506 105.057 82.1946 103.893 82.1946H91.3981C88.4653 82.1946 86.0879 79.8171 86.0879 76.8844Z" fill="#00AFFF"/>
</g>
<circle id="Ellipse 607" cx="91.3992" cy="76.8836" r="2.65509" fill="#002A3A"/>
</g>
<g id="Group 89011">
<g id="Group 89009">
<path id="Rectangle 5621" d="M31.8027 40.2992C31.8027 35.5312 35.6679 31.666 40.4359 31.666H66.6808C71.4487 31.666 75.314 35.5312 75.314 40.2992V83.0193C75.314 87.7873 71.4487 91.6525 66.6808 91.6525H40.4359C35.6679 91.6525 31.8027 87.7873 31.8027 83.0193V40.2992Z" fill="#002A3A" stroke="#002A3A"/>
<path id="Rectangle 5613" d="M35.1289 40.2992C35.1289 35.5312 38.9941 31.666 43.7621 31.666H70.0069C74.7749 31.666 78.6401 35.5312 78.6401 40.2992V83.0193C78.6401 87.7873 74.7749 91.6525 70.0069 91.6525H43.7621C38.9941 91.6525 35.1289 87.7873 35.1289 83.0193V40.2992Z" fill="white" stroke="#002A3A"/>
<g id="Rectangle 5615">
<path d="M38.5586 39.263C38.5586 37.3293 40.0239 35.7617 41.8315 35.7617H71.942C73.7496 35.7617 75.2149 37.3293 75.2149 39.263V44.865C75.2149 46.7987 73.7496 48.3662 71.942 48.3662H41.8315C40.0239 48.3662 38.5586 46.7987 38.5586 44.865V39.263Z" fill="white"/>
<path d="M39.0586 39.263C39.0586 37.5731 40.3313 36.2617 41.8315 36.2617H71.942C73.4422 36.2617 74.7149 37.5731 74.7149 39.263V44.865C74.7149 46.5548 73.4422 47.8662 71.942 47.8662H41.8315C40.3313 47.8662 39.0586 46.5548 39.0586 44.865V39.263Z" stroke="#002A3A"/>
</g>
<g id="Rectangle 5616">
<path d="M39.8672 56.1233C39.8672 54.5763 41.0394 53.3223 42.4855 53.3223H47.7221C49.1682 53.3223 50.3404 54.5763 50.3404 56.1233V61.7253C50.3404 63.2722 49.1682 64.5263 47.7221 64.5263H42.4855C41.0394 64.5263 39.8672 63.2722 39.8672 61.7253V56.1233Z" fill="#002A3A"/>
</g>
<g id="Rectangle 5618">
<path d="M51.6484 56.1233C51.6484 54.5763 52.8207 53.3223 54.2667 53.3223H59.5034C60.9494 53.3223 62.1217 54.5763 62.1217 56.1233V61.7253C62.1217 63.2722 60.9494 64.5263 59.5034 64.5263H54.2667C52.8207 64.5263 51.6484 63.2722 51.6484 61.7253V56.1233Z" fill="#002A3A"/>
</g>
<g id="Rectangle 5620">
<path d="M64.0859 56.1233C64.0859 54.5763 65.2582 53.3223 66.7042 53.3223H71.9409C73.3869 53.3223 74.5592 54.5763 74.5592 56.1233V74.3298C74.5592 75.8767 73.3869 77.1308 71.9409 77.1308H66.7042C65.2582 77.1308 64.0859 75.8767 64.0859 74.3298V56.1233Z" fill="#0DD149"/>
</g>
<g id="Rectangle 5617">
<path d="M39.8672 68.7268C39.8672 67.1798 41.0394 65.9258 42.4855 65.9258H47.7221C49.1682 65.9258 50.3404 67.1798 50.3404 68.7268V74.3288C50.3404 75.8757 49.1682 77.1298 47.7221 77.1298H42.4855C41.0394 77.1298 39.8672 75.8757 39.8672 74.3288V68.7268Z" fill="#002A3A"/>
</g>
<g id="Rectangle 5619">
<path d="M51.6484 68.7268C51.6484 67.1798 52.8207 65.9258 54.2667 65.9258H59.5034C60.9494 65.9258 62.1217 67.1798 62.1217 68.7268V74.3288C62.1217 75.8757 60.9494 77.1298 59.5034 77.1298H54.2667C52.8207 77.1298 51.6484 75.8757 51.6484 74.3288V68.7268Z" fill="#002A3A"/>
</g>
<g id="Group 89008">
<path id="Ellipse 157" d="M64.8215 41.6113C63.7901 42.5342 62.5287 42.4532 61.9634 41.7303C61.3982 41.0073 61.5466 39.6648 62.578 38.7419C63.6094 37.819 64.8708 37.9 65.4361 38.6229C66.0013 39.3459 65.8529 40.6884 64.8215 41.6113Z" stroke="#002A3A" stroke-linecap="round"/>
<path id="Ellipse 158" d="M70.3716 45.411C69.3112 46.3187 68.0746 46.2149 67.5538 45.5187C67.0331 44.8224 67.2095 43.509 68.2699 42.6013C69.3303 41.6936 70.5669 41.7975 71.0876 42.4937C71.6084 43.1899 71.4319 44.5033 70.3716 45.411Z" stroke="#002A3A" stroke-linecap="round"/>
<path id="Vector 124" d="M70.5983 38.5734L62.2636 45.8161" stroke="#002A3A" stroke-linecap="round"/>
</g>
</g>
<path id="Vector 773" d="M26.3672 92.1484L112.367 92.1484" stroke="#002A3A" stroke-linecap="round" stroke-linejoin="round"/>
</g>
<g id="Group 88548">
<path id="Ellipse 156" d="M95.859 25.3448C91.6388 29.1782 86.6215 28.6082 83.3748 25.2322C79.5445 21.7386 80.8758 16.4335 84.3212 13.3039C87.7667 10.1742 92.8267 9.3232 96.5859 13.232C99.9431 16.7228 100.263 21.3448 95.859 25.3448Z" fill="#002A3A"/>
<ellipse id="Ellipse 155" cx="7.45283" cy="8.9238" rx="7.45283" ry="8.9238" transform="matrix(0.693173 0.720771 -0.740216 0.672369 90.8848 7.30469)" fill="#00AFFF"/>
<path id="Ellipse 157_2" d="M88.0064 18.4052C86.9645 19.2768 85.7017 19.192 85.1423 18.5231C84.5828 17.8543 84.7225 16.5964 85.7644 15.7249C86.8064 14.8534 88.0692 14.9382 88.6286 15.607C89.188 16.2758 89.0483 17.5337 88.0064 18.4052Z" stroke="white"/>
<path id="Ellipse 158_2" d="M93.2788 21.5816C92.7503 22.0044 92.1697 22.2247 91.6745 22.2591C91.177 22.2936 90.8172 22.1426 90.6175 21.8931C90.4178 21.6435 90.3494 21.2594 90.4922 20.7815C90.6343 20.3059 90.9766 19.7877 91.505 19.3648C92.0334 18.942 92.614 18.7217 93.1092 18.6873C93.6068 18.6528 93.9666 18.8038 94.1663 19.0533C94.366 19.3029 94.4344 19.6871 94.2916 20.1649C94.1495 20.6406 93.8072 21.1587 93.2788 21.5816Z" stroke="white"/>
<path id="Vector 124_2" d="M93.8438 15.5555L85.4389 22.3829" stroke="white" stroke-linecap="round"/>
</g>
<g id="Group 88549">
<path id="Ellipse 156_2" d="M71.9048 20.1358C70.3436 24.434 66.5702 25.9057 63.004 24.7242C58.9796 23.6774 57.9405 19.4152 59.2151 15.906C60.4897 12.3968 63.762 9.90077 67.8912 11.2688C71.5788 12.4905 73.5339 15.6506 71.9048 20.1358Z" fill="#002A3A"/>
<path id="Ellipse 155_2" d="M70.0598 19.5238C68.7744 23.0627 65.3823 24.9849 62.587 24.0588C59.7916 23.1327 58.3746 19.6172 59.6599 16.0783C60.9453 12.5394 64.3374 10.6172 67.1328 11.5433C69.9281 12.4694 71.3452 15.9849 70.0598 19.5238Z" fill="white" stroke="#002A3A"/>
<g id="Group 88203">
<path id="Vector 142" d="M62.1266 21.1976L65.8945 13.6445" stroke="#002A3A" stroke-linecap="round" stroke-linejoin="round"/>
<path id="Rectangle 5408" d="M62.8525 17.0794L65.4919 18.3658C66.5894 18.9007 67.9209 18.4486 68.4659 17.3561V17.3561C69.0109 16.2636 68.563 14.9443 67.4655 14.4094L65.8892 13.6411L64.609 16.2074" stroke="#002A3A" stroke-linecap="round"/>
<path id="Vector 143" d="M62.1367 18.5176L66.2253 20.5377" stroke="#002A3A" stroke-linecap="round" stroke-linejoin="round"/>
</g>
</g>
<g id="Group 88501">
<path id="Ellipse 156_3" d="M95.6176 44.9658C97.6785 50.6398 102.66 52.5825 107.367 51.0229C112.68 49.641 114.052 44.0145 112.369 39.3821C110.687 34.7497 106.367 31.4548 100.916 33.2606C96.048 34.8734 93.4671 39.0451 95.6176 44.9658Z" fill="#002A3A"/>
<path id="Ellipse 155_3" d="M97.9003 44.2108C99.6176 48.939 104.173 51.5559 107.972 50.2974C111.77 49.039 113.65 44.29 111.933 39.5618C110.215 34.8336 105.66 32.2167 101.861 33.4751C98.063 34.7336 96.1829 39.4826 97.9003 44.2108Z" fill="white" stroke="#002A3A"/>
<g id="Group 88203_2">
<path id="Vector 142_2" d="M105.86 47.5537L101.705 37.2148" stroke="#002A3A" stroke-linecap="round" stroke-linejoin="round"/>
<path id="Rectangle 5408_2" d="M102.432 43.2281L106.015 41.7498C107.505 41.1351 108.225 39.4244 107.625 37.929V37.929C107.024 36.4335 105.329 35.7195 103.839 36.3342L101.699 37.2171L103.111 40.7299" stroke="#002A3A" stroke-linecap="round"/>
<path id="Vector 143_2" d="M103.223 45.1973L108.8 42.9313" stroke="#002A3A" stroke-linecap="round" stroke-linejoin="round"/>
</g>
</g>
</g>
</g>
</svg>
