<svg viewBox="0 0 142 124" fill="none" xmlns="http://www.w3.org/2000/svg">
<g filter="url(#filter0_b_30936_461025)">
<path fill-rule="evenodd" clip-rule="evenodd" d="M117.153 109.43C111.376 109.295 109.791 116.13 109.721 119.565H92.8291H75.9376C77.4156 117.073 77.1622 111.096 71.5035 109.641C64.1135 107.741 61.4953 115.173 61.7909 119.396C59.4824 119.48 54.7387 118.974 54.2319 116.271C53.4461 113.512 53.4074 109.904 53.4863 108.444L53.4863 108.444L53.4867 108.44C53.6262 107.031 53.9152 104.112 54.1055 101.829C54.3082 99.3962 55.485 97.3805 56.048 96.6767L62.5513 88.4843C63.6999 86.9979 65.3806 86.5418 66.3941 86.5418C66.3941 86.5418 74.4976 86.417 79.8229 86.5418C80.3872 86.555 80.9963 86.567 81.6387 86.5797C87.1488 86.6884 95.1133 86.8456 98.4036 88.231C99.1224 88.5336 99.6986 88.977 99.8815 89.2022L109.763 100.33C112.538 100.529 115.809 100.906 119.391 101.702C124.186 102.767 127.094 104.114 128.368 104.858C128.501 104.936 128.474 105.131 128.325 105.174L129.083 104.954L130.757 112.13C131.375 112.229 131.868 112.73 132.102 113.399C132.306 113.981 132.144 114.582 132.06 114.793L131.257 118.382C131.088 119.269 130.244 119.691 129.61 119.691L123.783 119.86C125.388 115.806 124.374 109.599 117.153 109.43ZM97.7937 102.047L67.4898 101.502C67.1527 101.496 66.9148 101.169 67.0135 100.847L70.0856 90.8136C70.5011 89.4567 71.7585 88.5337 73.1776 88.5439L91.5388 88.6765C93.2003 88.6885 94.7575 89.4883 95.7351 90.8318L101.768 99.0728L99.5509 99.0241C98.8995 99.0098 98.3307 99.4623 98.1982 100.1L97.7937 102.047Z" fill="white"/>
<path d="M109.721 119.565L110.221 119.575C110.215 119.847 109.993 120.065 109.721 120.065V119.565ZM117.153 109.43L117.141 109.93L117.153 109.43ZM75.9376 119.565V120.065C75.7579 120.065 75.592 119.968 75.5031 119.812C75.4142 119.656 75.4159 119.464 75.5075 119.31L75.9376 119.565ZM71.5035 109.641L71.6281 109.157L71.5035 109.641ZM61.7909 119.396L62.2897 119.361C62.2991 119.496 62.2533 119.629 62.1628 119.73C62.0722 119.831 61.9446 119.891 61.8092 119.896L61.7909 119.396ZM54.2319 116.271L54.7128 116.134C54.717 116.149 54.7205 116.164 54.7234 116.179L54.2319 116.271ZM53.4863 108.444L52.987 108.417C52.9881 108.398 52.9903 108.378 52.9937 108.359L53.4863 108.444ZM53.4863 108.444L53.9838 108.494C53.9826 108.506 53.9809 108.518 53.9789 108.53L53.4863 108.444ZM53.4867 108.44L53.9842 108.49L53.9841 108.491L53.4867 108.44ZM54.1055 101.829L53.6072 101.787V101.787L54.1055 101.829ZM56.048 96.6767L56.4396 96.9876L56.4385 96.9891L56.048 96.6767ZM62.5513 88.4843L62.9469 88.7901L62.9429 88.7952L62.5513 88.4843ZM66.3941 86.5418L66.4018 87.0418H66.3941V86.5418ZM79.8229 86.5418L79.8112 87.0417L79.8229 86.5418ZM81.6387 86.5797L81.6485 86.0798L81.6387 86.5797ZM98.4036 88.231L98.5976 87.7701V87.7701L98.4036 88.231ZM99.8815 89.2022L99.5077 89.5342C99.5028 89.5288 99.4981 89.5232 99.4935 89.5175L99.8815 89.2022ZM109.763 100.33L109.727 100.828C109.597 100.819 109.476 100.759 109.389 100.662L109.763 100.33ZM119.391 101.702L119.283 102.19L119.391 101.702ZM128.368 104.858L128.62 104.426L128.62 104.426L128.368 104.858ZM128.465 105.654C128.2 105.732 127.922 105.579 127.845 105.314C127.768 105.049 127.92 104.772 128.185 104.694L128.465 105.654ZM129.083 104.954L128.943 104.474C129.075 104.435 129.217 104.453 129.335 104.522C129.454 104.591 129.539 104.706 129.57 104.84L129.083 104.954ZM130.757 112.13L130.678 112.624C130.478 112.592 130.317 112.441 130.27 112.244L130.757 112.13ZM132.102 113.399L131.63 113.565H131.63L132.102 113.399ZM132.06 114.793L131.572 114.684C131.578 114.658 131.586 114.632 131.596 114.607L132.06 114.793ZM131.257 118.382L130.766 118.289C130.767 118.284 130.768 118.278 130.769 118.273L131.257 118.382ZM129.61 119.691L129.596 119.192C129.601 119.192 129.606 119.191 129.61 119.191V119.691ZM123.783 119.86L123.797 120.36C123.629 120.365 123.47 120.285 123.373 120.147C123.277 120.01 123.256 119.833 123.318 119.676L123.783 119.86ZM67.4898 101.502L67.498 101.002L67.4988 101.002L67.4898 101.502ZM97.7937 102.047L98.2833 102.149C98.2344 102.384 98.025 102.551 97.7848 102.547L97.7937 102.047ZM67.0135 100.847L67.4916 100.993V100.993L67.0135 100.847ZM70.0856 90.8136L69.6075 90.6672V90.6672L70.0856 90.8136ZM73.1776 88.5439L73.1812 88.044L73.1776 88.5439ZM91.5388 88.6765L91.5352 89.1765L91.5388 88.6765ZM95.7351 90.8318L95.3317 91.1272L95.3308 91.126L95.7351 90.8318ZM101.768 99.0728L102.172 98.7775C102.284 98.931 102.3 99.1351 102.212 99.3039C102.124 99.4727 101.948 99.5769 101.757 99.5727L101.768 99.0728ZM99.5509 99.0241L99.5399 99.524L99.5509 99.0241ZM98.1982 100.1L98.6877 100.202V100.202L98.1982 100.1ZM104.598 98.215L104.985 97.8983L104.598 98.215ZM98.9062 91.2609L99.2931 90.9442V90.9442L98.9062 91.2609ZM109.799 99.8308C110.074 99.8506 110.282 100.09 110.262 100.365C110.242 100.641 110.003 100.848 109.727 100.828L109.799 99.8308ZM108.658 100.257L108.628 100.756L108.658 100.257ZM129.986 112.235L130.054 112.731C129.798 112.766 129.558 112.601 129.499 112.35L129.986 112.235ZM130.69 111.635C130.963 111.597 131.215 111.789 131.253 112.062C131.29 112.336 131.099 112.588 130.825 112.625L130.69 111.635ZM127.838 105.289C127.775 105.02 127.942 104.751 128.211 104.688C128.479 104.624 128.749 104.791 128.812 105.06L127.838 105.289ZM129.156 108.705L129.642 108.59L129.156 108.705ZM99.8815 88.7022C100.158 88.7022 100.382 88.9261 100.382 89.2022C100.382 89.4784 100.158 89.7022 99.8815 89.7022V88.7022ZM109.221 119.555C109.257 117.786 109.681 115.135 110.855 112.924C112.039 110.697 114.027 108.857 117.165 108.93L117.141 109.93C114.502 109.868 112.809 111.378 111.738 113.393C110.659 115.425 110.255 117.909 110.221 119.575L109.221 119.555ZM92.8291 119.065H109.721V120.065H92.8291V119.065ZM75.9376 119.065H92.8291V120.065H75.9376V119.065ZM71.6281 109.157C74.644 109.932 76.2456 111.933 76.8764 114.073C77.4969 116.178 77.1855 118.441 76.3676 119.82L75.5075 119.31C76.1676 118.197 76.4685 116.226 75.9172 114.356C75.3762 112.52 74.0218 110.805 71.379 110.125L71.6281 109.157ZM61.2921 119.431C61.1376 117.224 61.7384 114.189 63.3588 111.931C64.1746 110.794 65.2586 109.841 66.6462 109.303C68.0367 108.765 69.694 108.659 71.6281 109.157L71.379 110.125C69.618 109.672 68.1768 109.783 67.0072 110.236C65.8347 110.69 64.897 111.502 64.1714 112.514C62.7091 114.552 62.1486 117.345 62.2897 119.361L61.2921 119.431ZM54.7234 116.179C54.9203 117.229 55.9668 117.953 57.4773 118.399C58.9481 118.833 60.6539 118.937 61.7726 118.896L61.8092 119.896C60.6194 119.939 58.799 119.832 57.1942 119.358C55.629 118.896 54.0503 118.016 53.7405 116.363L54.7234 116.179ZM53.9855 108.471C53.9079 109.908 53.9491 113.453 54.7128 116.134L53.7511 116.408C52.9431 113.571 52.9069 109.899 52.987 108.417L53.9855 108.471ZM53.9789 108.53L53.9789 108.53L52.9937 108.359L52.9937 108.358L53.9789 108.53ZM53.9841 108.491L53.9838 108.494L52.9888 108.394L52.9892 108.39L53.9841 108.491ZM54.6038 101.87C54.4131 104.158 54.1237 107.081 53.9842 108.49L52.9891 108.391C53.1287 106.981 53.4174 104.066 53.6072 101.787L54.6038 101.87ZM56.4385 96.9891C55.923 97.6334 54.7965 99.5575 54.6038 101.87L53.6072 101.787C53.8199 99.235 55.0469 97.1277 55.6576 96.3644L56.4385 96.9891ZM62.9429 88.7952L56.4396 96.9876L55.6564 96.3658L62.1596 88.1734L62.9429 88.7952ZM66.3941 87.0418C65.4991 87.0418 63.9806 87.4523 62.9469 88.79L62.1556 88.1786C63.4192 86.5434 65.2621 86.0418 66.3941 86.0418V87.0418ZM79.8112 87.0417C77.1561 86.9794 73.8049 86.9794 71.1144 86.995C69.7698 87.0028 68.5914 87.0145 67.7493 87.0242C67.3282 87.0291 66.9912 87.0335 66.7595 87.0366C66.6437 87.0382 66.5542 87.0395 66.4937 87.0404C66.4634 87.0408 66.4404 87.0411 66.425 87.0414C66.4173 87.0415 66.4115 87.0416 66.4076 87.0416C66.4057 87.0417 66.4042 87.0417 66.4032 87.0417C66.4027 87.0417 66.4024 87.0417 66.4021 87.0417C66.402 87.0417 66.4019 87.0417 66.4019 87.0417C66.4018 87.0417 66.4018 87.0417 66.3941 86.5418C66.3864 86.0418 66.3864 86.0418 66.3865 86.0418C66.3866 86.0418 66.3867 86.0418 66.3868 86.0418C66.3871 86.0418 66.3874 86.0418 66.3879 86.0418C66.3889 86.0418 66.3904 86.0418 66.3924 86.0418C66.3963 86.0417 66.4022 86.0416 66.41 86.0415C66.4256 86.0413 66.4487 86.0409 66.4791 86.0405C66.5399 86.0396 66.6297 86.0383 66.7459 86.0367C66.9782 86.0335 67.3159 86.0292 67.7377 86.0243C68.5813 86.0145 69.7617 86.0028 71.1086 85.995C73.8012 85.9794 77.1643 85.9794 79.8346 86.0419L79.8112 87.0417ZM81.6288 87.0796C80.9866 87.0669 80.3766 87.0549 79.8112 87.0417L79.8346 86.0419C80.3979 86.0551 81.0059 86.0671 81.6485 86.0798L81.6288 87.0796ZM98.2095 88.6918C96.6502 88.0352 93.9152 87.6518 90.8171 87.4252C87.7415 87.2003 84.3863 87.134 81.6288 87.0796L81.6485 86.0798C84.4011 86.1341 87.7832 86.2007 90.89 86.4279C93.9742 86.6534 96.8666 87.0413 98.5976 87.7701L98.2095 88.6918ZM99.4935 89.5175C99.4458 89.4588 99.3008 89.3233 99.0599 89.1574C98.828 88.9977 98.534 88.8284 98.2095 88.6918L98.5976 87.7701C98.9919 87.9362 99.3455 88.1399 99.6271 88.3338C99.8998 88.5216 100.134 88.7204 100.27 88.8869L99.4935 89.5175ZM109.389 100.662L99.5077 89.5342L100.255 88.8702L110.137 99.9975L109.389 100.662ZM119.283 102.19C115.731 101.401 112.485 101.027 109.727 100.828L109.799 99.8308C112.591 100.032 115.887 100.411 119.5 101.214L119.283 102.19ZM128.116 105.29C126.893 104.575 124.035 103.246 119.283 102.19L119.5 101.214C124.337 102.289 127.295 103.652 128.62 104.426L128.116 105.29ZM128.185 104.694C127.936 104.767 127.849 105.134 128.116 105.29L128.62 104.426C129.154 104.738 129.011 105.495 128.465 105.654L128.185 104.694ZM129.223 105.434L128.465 105.654L128.185 104.694L128.943 104.474L129.223 105.434ZM130.27 112.244L128.596 105.067L129.57 104.84L131.244 112.016L130.27 112.244ZM131.63 113.565C131.437 113.014 131.064 112.686 130.678 112.624L130.836 111.636C131.686 111.772 132.298 112.446 132.574 113.234L131.63 113.565ZM131.596 114.607C131.659 114.45 131.777 113.984 131.63 113.565L132.574 113.234C132.834 113.978 132.63 114.714 132.524 114.979L131.596 114.607ZM130.769 118.273L131.572 114.684L132.548 114.902L131.745 118.491L130.769 118.273ZM129.61 119.191C130.08 119.191 130.655 118.872 130.766 118.289L131.749 118.476C131.522 119.666 130.408 120.191 129.61 120.191V119.191ZM123.768 119.361L129.596 119.192L129.625 120.191L123.797 120.36L123.768 119.361ZM117.165 108.93C120.943 109.018 123.187 110.706 124.232 112.979C125.256 115.21 125.088 117.92 124.248 120.044L123.318 119.676C124.082 117.746 124.21 115.326 123.323 113.397C122.457 111.511 120.584 110.01 117.141 109.93L117.165 108.93ZM67.4988 101.002L97.8027 101.547L97.7848 102.547L67.4808 102.002L67.4988 101.002ZM67.4916 100.993C67.4913 100.994 67.4912 100.995 67.4911 100.995C67.491 100.996 67.491 100.996 67.491 100.996C67.491 100.996 67.491 100.996 67.491 100.996C67.491 100.996 67.491 100.996 67.491 100.996C67.491 100.996 67.4913 100.997 67.4926 100.999C67.4939 101.001 67.4951 101.002 67.4952 101.002C67.4952 101.002 67.4952 101.002 67.4952 101.002C67.4951 101.002 67.4951 101.002 67.4952 101.002C67.4952 101.002 67.4954 101.002 67.4958 101.002C67.4962 101.002 67.4969 101.002 67.498 101.002L67.4816 102.002C66.8118 101.991 66.3393 101.341 66.5355 100.701L67.4916 100.993ZM70.5637 90.96L67.4916 100.993L66.5355 100.701L69.6075 90.6672L70.5637 90.96ZM73.174 89.0439C71.9759 89.0353 70.9145 89.8145 70.5637 90.96L69.6075 90.6672C70.0878 89.0989 71.541 88.0321 73.1812 88.044L73.174 89.0439ZM91.5352 89.1765L73.174 89.0439L73.1812 88.044L91.5424 88.1765L91.5352 89.1765ZM95.3308 91.126C94.4465 89.9108 93.038 89.1874 91.5352 89.1765L91.5424 88.1765C93.3625 88.1897 95.0684 89.0659 96.1394 90.5377L95.3308 91.126ZM101.365 99.3682L95.3317 91.1272L96.1385 90.5365L102.172 98.7775L101.365 99.3682ZM99.5619 98.5242L101.779 98.5729L101.757 99.5727L99.5399 99.524L99.5619 98.5242ZM97.7086 99.9985C97.8902 99.1246 98.6695 98.5046 99.5619 98.5242L99.5399 99.524C99.1296 99.5149 98.7712 99.8 98.6877 100.202L97.7086 99.9985ZM97.3042 101.945L97.7086 99.9985L98.6877 100.202L98.2833 102.149L97.3042 101.945ZM104.211 98.5317L98.5193 91.5776L99.2931 90.9442L104.985 97.8983L104.211 98.5317ZM109.727 100.828C109.352 100.801 108.985 100.777 108.628 100.756L108.687 99.7581C109.048 99.7794 109.419 99.8035 109.799 99.8308L109.727 100.828ZM129.918 111.74L130.69 111.635L130.825 112.625L130.054 112.731L129.918 111.74ZM128.812 105.06L129.642 108.59L128.669 108.819L127.838 105.289L128.812 105.06ZM129.642 108.59L130.473 112.121L129.499 112.35L128.669 108.819L129.642 108.59ZM98.5193 91.5776C97.5785 90.4283 98.3963 88.7022 99.8815 88.7022V89.7022C99.24 89.7022 98.8868 90.4478 99.2931 90.9442L98.5193 91.5776ZM104.985 97.8983C105.895 99.0092 107.242 99.6727 108.687 99.7581L108.628 100.756C106.916 100.655 105.305 99.8683 104.211 98.5317L104.985 97.8983Z" fill="#002A3A"/>
<path d="M132.06 114.793C132.144 114.582 132.306 113.981 132.102 113.399C131.868 112.73 131.368 112.22 130.751 112.121" stroke="#002A3A" stroke-linecap="round" stroke-linejoin="round"/>
<path d="M130.709 111.921C131.117 111.527 131.832 110.232 131.426 108.205C131.021 106.178 129.737 105.333 129.146 105.164" stroke="#002A3A" stroke-linecap="round" stroke-linejoin="round"/>
<path d="M131.384 117.539L131.258 118.383C131.089 119.27 130.244 119.692 129.611 119.692L123.783 119.861C125.388 115.807 124.374 109.6 117.153 109.431C111.376 109.296 109.791 116.131 109.721 119.566H92.8293H75.9378C77.4158 117.074 77.1624 111.097 71.5038 109.642C64.1137 107.742 61.4955 115.174 61.7911 119.397C59.4826 119.481 54.7389 118.975 54.2322 116.272C53.806 113.999 53.2596 110.815 53.4768 108.643" stroke="#002A3A" stroke-linecap="round" stroke-linejoin="round"/>
<mask id="path-6-inside-1_30936_461025" fill="white">
<path fill-rule="evenodd" clip-rule="evenodd" d="M115.166 123.36C111.752 122.281 109.915 118.46 111.064 114.827C112.212 111.193 115.911 109.123 119.325 110.202C122.739 111.281 124.576 115.101 123.427 118.735C122.279 122.368 118.58 124.439 115.166 123.36ZM115.884 120.266C114.349 119.781 113.576 117.896 114.158 116.056C114.74 114.216 116.455 113.118 117.99 113.603C119.525 114.088 120.297 115.973 119.716 117.813C119.134 119.653 117.418 120.751 115.884 120.266Z"/>
</mask>
<path fill-rule="evenodd" clip-rule="evenodd" d="M115.166 123.36C111.752 122.281 109.915 118.46 111.064 114.827C112.212 111.193 115.911 109.123 119.325 110.202C122.739 111.281 124.576 115.101 123.427 118.735C122.279 122.368 118.58 124.439 115.166 123.36ZM115.884 120.266C114.349 119.781 113.576 117.896 114.158 116.056C114.74 114.216 116.455 113.118 117.99 113.603C119.525 114.088 120.297 115.973 119.716 117.813C119.134 119.653 117.418 120.751 115.884 120.266Z" fill="#002A3A"/>
<path d="M111.064 114.827L112.017 115.128V115.128L111.064 114.827ZM115.166 123.36L115.467 122.406L115.166 123.36ZM119.325 110.202L119.626 109.248V109.248L119.325 110.202ZM123.427 118.735L124.381 119.036L123.427 118.735ZM114.158 116.056L115.111 116.358V116.358L114.158 116.056ZM115.884 120.266L116.185 119.313L116.185 119.313L115.884 120.266ZM117.99 113.603L118.291 112.649H118.291L117.99 113.603ZM119.716 117.813L118.762 117.512V117.512L119.716 117.813ZM112.017 115.128C111.017 118.292 112.635 121.511 115.467 122.406L114.865 124.313C110.869 123.05 108.813 118.629 110.11 114.525L112.017 115.128ZM119.024 111.155C116.191 110.26 113.017 111.965 112.017 115.128L110.11 114.525C111.407 110.422 115.631 107.985 119.626 109.248L119.024 111.155ZM122.474 118.434C123.474 115.27 121.856 112.051 119.024 111.155L119.626 109.248C123.622 110.511 125.678 114.933 124.381 119.036L122.474 118.434ZM115.467 122.406C118.3 123.302 121.474 121.597 122.474 118.434L124.381 119.036C123.084 123.14 118.86 125.576 114.865 124.313L115.467 122.406ZM115.111 116.358C114.643 117.84 115.332 119.043 116.185 119.313L115.582 121.22C113.366 120.519 112.51 117.952 113.204 115.755L115.111 116.358ZM117.689 114.556C116.835 114.286 115.58 114.875 115.111 116.358L113.204 115.755C113.899 113.557 116.075 111.949 118.291 112.649L117.689 114.556ZM118.762 117.512C119.231 116.029 118.542 114.826 117.689 114.556L118.291 112.649C120.507 113.35 121.364 115.917 120.669 118.114L118.762 117.512ZM116.185 119.313C117.038 119.583 118.293 118.994 118.762 117.512L120.669 118.114C119.975 120.312 117.798 121.92 115.582 121.22L116.185 119.313Z" fill="#002A3A" mask="url(#path-6-inside-1_30936_461025)"/>
<ellipse cx="2.9144" cy="3.49428" rx="2.9144" ry="3.49428" transform="matrix(-0.9535 -0.301392 -0.301392 0.9535 120.769 114.48)" fill="white"/>
<mask id="path-9-inside-2_30936_461025" fill="white">
<path fill-rule="evenodd" clip-rule="evenodd" d="M67.5878 123.36C64.1737 122.281 62.337 118.46 63.4855 114.827C64.634 111.193 68.3328 109.123 71.7469 110.202C75.1611 111.281 76.9977 115.101 75.8492 118.735C74.7007 122.368 71.002 124.439 67.5878 123.36ZM68.3053 120.266C66.7705 119.781 65.9979 117.896 66.5795 116.056C67.1612 114.216 68.8768 113.118 70.4116 113.603C71.9463 114.088 72.7189 115.973 72.1373 117.813C71.5557 119.653 69.84 120.751 68.3053 120.266Z"/>
</mask>
<path fill-rule="evenodd" clip-rule="evenodd" d="M67.5878 123.36C64.1737 122.281 62.337 118.46 63.4855 114.827C64.634 111.193 68.3328 109.123 71.7469 110.202C75.1611 111.281 76.9977 115.101 75.8492 118.735C74.7007 122.368 71.002 124.439 67.5878 123.36ZM68.3053 120.266C66.7705 119.781 65.9979 117.896 66.5795 116.056C67.1612 114.216 68.8768 113.118 70.4116 113.603C71.9463 114.088 72.7189 115.973 72.1373 117.813C71.5557 119.653 69.84 120.751 68.3053 120.266Z" fill="#002A3A"/>
<path d="M63.4855 114.827L64.439 115.128V115.128L63.4855 114.827ZM67.5878 123.36L67.8892 122.406L67.5878 123.36ZM71.7469 110.202L72.0483 109.248V109.248L71.7469 110.202ZM75.8492 118.735L76.8027 119.036L75.8492 118.735ZM66.5795 116.056L65.626 115.755V115.755L66.5795 116.056ZM68.3053 120.266L68.6067 119.313L68.6067 119.313L68.3053 120.266ZM70.4116 113.603L70.713 112.649H70.713L70.4116 113.603ZM72.1373 117.813L71.1838 117.512V117.512L72.1373 117.813ZM64.439 115.128C63.439 118.292 65.0567 121.511 67.8892 122.406L67.2864 124.313C63.2906 123.05 61.235 118.629 62.532 114.525L64.439 115.128ZM71.4455 111.155C68.6131 110.26 65.439 111.965 64.439 115.128L62.532 114.525C63.829 110.422 68.0525 107.985 72.0483 109.248L71.4455 111.155ZM74.8957 118.434C75.8957 115.27 74.278 112.051 71.4455 111.155L72.0483 109.248C76.0441 110.511 78.0997 114.933 76.8027 119.036L74.8957 118.434ZM67.8892 122.406C70.7217 123.302 73.8957 121.597 74.8957 118.434L76.8027 119.036C75.5057 123.14 71.2822 125.576 67.2864 124.313L67.8892 122.406ZM67.533 116.358C67.0643 117.84 67.7532 119.043 68.6067 119.313L68.0039 121.22C65.7878 120.519 64.9315 117.952 65.626 115.755L67.533 116.358ZM70.1102 114.556C69.2567 114.286 68.0017 114.875 67.533 116.358L65.626 115.755C66.3206 113.557 68.4969 111.949 70.713 112.649L70.1102 114.556ZM71.1838 117.512C71.6525 116.029 70.9636 114.826 70.1102 114.556L70.713 112.649C72.929 113.35 73.7854 115.917 73.0908 118.114L71.1838 117.512ZM68.6067 119.313C69.4601 119.583 70.7151 118.994 71.1838 117.512L73.0908 118.114C72.3962 120.312 70.2199 121.92 68.0039 121.22L68.6067 119.313Z" fill="#002A3A" mask="url(#path-9-inside-2_30936_461025)"/>
<path d="M132.08 115.174C132.081 115.172 132.081 115.172 132.081 115.172L132.081 115.171C132.08 115.171 132.08 115.17 132.079 115.168C132.078 115.167 132.077 115.166 132.076 115.166L132.076 115.166C132.076 115.166 132.075 115.166 132.074 115.166H126.275C126.273 115.166 126.272 115.166 126.272 115.166L126.272 115.166C126.272 115.167 126.271 115.167 126.27 115.168C126.269 115.169 126.268 115.17 126.268 115.17L126.268 115.17C126.268 115.17 126.268 115.171 126.268 115.173V117.284C126.268 117.286 126.268 117.287 126.268 117.287L126.268 117.287C126.268 117.287 126.269 117.288 126.27 117.289C126.27 117.289 126.271 117.29 126.271 117.29C126.271 117.29 126.272 117.291 126.272 117.291L126.272 117.291C126.272 117.291 126.273 117.291 126.275 117.291H131.646C131.649 117.291 131.652 117.289 131.652 117.286L132.08 115.174Z" fill="#002A3A" stroke="#002A3A" stroke-linecap="round" stroke-linejoin="round"/>
<path d="M99.8818 89.2022C99.6988 88.977 99.1226 88.5336 98.4038 88.231C94.7299 86.684 85.2284 86.6685 79.8231 86.5418C74.4979 86.417 66.3943 86.5418 66.3943 86.5418C65.3809 86.5418 63.7001 86.9979 62.5515 88.4843L56.0483 96.6767C55.4852 97.3805 54.3085 99.3963 54.1058 101.829C53.9031 104.261 53.599 107.431 53.4723 108.712" stroke="#002A3A" stroke-linecap="round" stroke-linejoin="round"/>
<path d="M54.1475 101.576H56.09C56.6964 101.576 57.188 102.068 57.188 102.674V106.306C57.188 106.912 56.6964 107.404 56.09 107.404H53.6408" stroke="#002A3A" stroke-linecap="round" stroke-linejoin="round"/>
<path d="M58.293 115.763V113.553L53.5498 113.484V115.693L58.293 115.763Z" fill="#002A3A" stroke="#002A3A" stroke-linecap="round" stroke-linejoin="round"/>
<path d="M104.738 101.406C105.287 102.293 104.935 103.067 104.738 103.349L104.147 103.011L103.409 103.704C102.989 104.099 102.431 104.312 101.854 104.299L98.6655 104.224C97.98 104.208 97.4768 103.574 97.6163 102.903L98.1986 100.1C98.3311 99.462 98.9 99.0095 99.5514 99.0238L102.27 99.0835C102.811 99.0835 103.317 99.3491 103.624 99.7939L104.738 101.406Z" stroke="#002A3A" stroke-linecap="round" stroke-linejoin="round"/>
<path d="M105.034 102.547V104.954L102.691 119.563" stroke="#002A3A" stroke-linecap="round" stroke-linejoin="round"/>
<path d="M97.8125 101.997L67.4899 101.501C67.1528 101.496 66.9149 101.168 67.0137 100.846L70.0857 90.8127C70.5012 89.4558 71.7586 88.5328 73.1777 88.5431L91.5389 88.6756C93.2004 88.6876 94.7576 89.4874 95.7352 90.831L101.74 99.083" stroke="#002A3A" stroke-linecap="round" stroke-linejoin="round"/>
<path d="M78.4717 88.5684L76.9092 101.617" stroke="#002A3A" stroke-linecap="round" stroke-linejoin="round"/>
<path d="M76.6978 88.5684L75.1353 101.617" stroke="#002A3A" stroke-linecap="round" stroke-linejoin="round"/>
</g>
<path d="M31.645 53.2953C31.645 48.5273 35.5102 44.6621 40.2782 44.6621H84.0747C88.8427 44.6621 92.7079 48.5273 92.7079 53.2953V114.517C92.7079 119.285 88.8427 123.15 84.0747 123.15H40.2782C35.5102 123.15 31.645 119.285 31.645 114.517V53.2953Z" fill="white" stroke="#002A3A"/>
<path d="M36.6211 54.7158C36.6211 52.1955 38.6642 50.1523 41.1845 50.1523H83.1683C85.6886 50.1523 87.7317 52.1955 87.7317 54.7158V62.0173C87.7317 64.5376 85.6886 66.5808 83.1683 66.5808H41.1845C38.6642 66.5808 36.6211 64.5376 36.6211 62.0173V54.7158Z" fill="white"/>
<path d="M37.1211 54.7158C37.1211 52.4716 38.9404 50.6523 41.1845 50.6523H83.1683C85.4125 50.6523 87.2317 52.4716 87.2317 54.7158V62.0173C87.2317 64.2615 85.4125 66.0808 83.1683 66.0808H41.1845C38.9404 66.0808 37.1211 64.2615 37.1211 62.0173V54.7158Z" stroke="#002A3A"/>
<path d="M38.4463 76.6898C38.4463 74.6736 40.0808 73.0391 42.097 73.0391H49.3986C51.4148 73.0391 53.0493 74.6736 53.0493 76.6898V83.9913C53.0493 86.0076 51.4148 87.6421 49.3986 87.6421H42.097C40.0808 87.6421 38.4463 86.0076 38.4463 83.9913V76.6898Z" fill="#002A3A"/>
<path d="M54.875 76.6898C54.875 74.6736 56.5095 73.0391 58.5258 73.0391H65.8273C67.8435 73.0391 69.478 74.6736 69.478 76.6898V83.9913C69.478 86.0076 67.8435 87.6421 65.8273 87.6421H58.5258C56.5095 87.6421 54.875 86.0076 54.875 83.9913V76.6898Z" fill="#002A3A"/>
<path d="M72.2158 76.6898C72.2158 74.6736 73.8503 73.0391 75.8666 73.0391H83.1681C85.1844 73.0391 86.8189 74.6736 86.8189 76.6898V100.42C86.8189 102.436 85.1844 104.071 83.1681 104.071H75.8666C73.8503 104.071 72.2158 102.436 72.2158 100.42V76.6898Z" fill="#0DD149"/>
<path d="M38.4463 93.1195C38.4463 91.1033 40.0808 89.4688 42.097 89.4688H49.3986C51.4148 89.4688 53.0493 91.1033 53.0493 93.1195V100.421C53.0493 102.437 51.4148 104.072 49.3986 104.072H42.097C40.0808 104.072 38.4463 102.437 38.4463 100.421V93.1195Z" fill="#002A3A"/>
<path d="M54.875 93.1195C54.875 91.1033 56.5095 89.4688 58.5258 89.4688H65.8273C67.8435 89.4688 69.478 91.1033 69.478 93.1195V100.421C69.478 102.437 67.8435 104.072 65.8273 104.072H58.5258C56.5095 104.072 54.875 102.437 54.875 100.421V93.1195Z" fill="#002A3A"/>
<path d="M73.3469 57.9091C71.8555 59.1566 69.9813 59.0812 69.1171 58.0481C68.253 57.015 68.51 55.157 70.0014 53.9095C71.4928 52.662 73.367 52.7374 74.2311 53.7705C75.0953 54.8036 74.8382 56.6616 73.3469 57.9091Z" stroke="#002A3A" stroke-linecap="round"/>
<path d="M81.0814 62.8648C79.5512 64.0893 77.7097 63.9866 76.9082 62.9851C76.1068 61.9836 76.4104 60.1643 77.9407 58.9398C79.471 57.7153 81.3125 57.8181 82.1139 58.8196C82.9153 59.8211 82.6117 61.6403 81.0814 62.8648Z" stroke="#002A3A" stroke-linecap="round"/>
<path d="M81.2958 53.8216L69.6746 63.2617" stroke="#002A3A" stroke-linecap="round"/>
<path fill-rule="evenodd" clip-rule="evenodd" d="M49.6791 106.963C53.7827 106.102 57.7914 108.657 58.6328 112.668C58.6854 112.919 58.7244 113.169 58.7502 113.419L78.3581 119.341L74.4819 121.949L72.1142 119.787L70.5703 120.111L69.1923 118.824L65.9114 119.512L63.7368 117.309L59.5156 119.278L57.2957 118.596C56.2224 120.025 54.6316 121.09 52.7262 121.49C48.6227 122.351 44.614 119.797 43.7725 115.785C42.9311 111.774 45.5756 107.824 49.6791 106.963ZM49.7306 113.452C49.512 112.41 48.4708 111.747 47.405 111.97C46.3391 112.194 45.6522 113.22 45.8708 114.262C46.0893 115.304 47.1306 115.967 48.1964 115.743C49.2623 115.52 49.9491 114.494 49.7306 113.452Z" fill="white" stroke="#002A3A"/>
<path d="M44.0323 116.8C44.0578 117.07 44.0988 117.341 44.1557 117.612C44.9981 121.629 49.0274 124.183 53.1554 123.317C55.0721 122.915 56.673 121.846 57.7539 120.414L59.9859 121.095L64.2331 119.12L66.4182 121.324L69.7185 120.631L71.1032 121.918L72.6563 121.593L75.0355 123.756L80.1485 119.627L78.4314 119.133L74.6987 122.15L72.3195 119.987L70.7664 120.313L69.3817 119.026L66.0814 119.718L63.8963 117.514L59.6491 119.49L57.4171 118.809C56.3362 120.24 54.7353 121.309 52.8186 121.711C48.9695 122.518 45.2062 120.352 44.0323 116.8Z" fill="#002A3A"/>
<path d="M46.4631 114.387C47.8974 113.832 47.9104 115.217 47.6689 115.481C46.14 116.413 41.0647 117.956 37.8254 119.209C36.0326 119.902 34.5854 118.825 37.2748 117.785C41.2191 116.259 43.2006 115.597 43.4994 115.481" stroke="#002A3A" stroke-linecap="round" stroke-linejoin="round"/>
<path fill-rule="evenodd" clip-rule="evenodd" d="M14.8255 123.548H34.1715C36.9424 123.548 39.1886 121.302 39.1886 118.531C39.1886 116.204 37.5882 114.182 35.3014 113.751C32.3621 113.197 28.3158 112.562 25.2069 112.562C22.0523 112.562 17.4426 113.053 14.0741 113.472C11.5704 113.784 9.72705 115.927 9.72705 118.45C9.72705 121.266 12.0097 123.548 14.8255 123.548ZM36.1578 117.331L36.4547 117.826C36.9002 118.568 36.8518 119.507 36.3323 120.199L36.1927 120.385C35.8784 120.804 35.385 121.051 34.8611 121.051C33.9419 121.051 33.1966 120.306 33.1966 119.387V118.151C33.1966 117.271 33.9104 116.557 34.7908 116.557C35.3507 116.557 35.8697 116.851 36.1578 117.331Z" fill="#00AFFF"/>
<path d="M8.51562 123.645H136.516" stroke="#002A3A" stroke-linecap="round" stroke-linejoin="round"/>
<path d="M8.51562 125H136.516" stroke="white" stroke-linecap="round" stroke-linejoin="round"/>
<defs>
<filter id="filter0_b_30936_461025" x="48.9277" y="81.9863" width="87.7729" height="45.6602" filterUnits="userSpaceOnUse" color-interpolation-filters="sRGB">
<feFlood flood-opacity="0" result="BackgroundImageFix"/>
<feGaussianBlur in="BackgroundImageFix" stdDeviation="2"/>
<feComposite in2="SourceAlpha" operator="in" result="effect1_backgroundBlur_30936_461025"/>
<feBlend mode="normal" in="SourceGraphic" in2="effect1_backgroundBlur_30936_461025" result="shape"/>
</filter>
</defs>
</svg>
