<svg width="100" height="78" viewBox="0 0 100 78" fill="none" xmlns="http://www.w3.org/2000/svg">
<g id="Frame 1077240927">
<g id="Group 1077241818">
<path id="Vector 1850" d="M14.0703 74.2344H94.3451" stroke="#002A3A" stroke-width="0.511305" stroke-linecap="round"/>
<g id="Group 1077241822">
<g id="Vector 1846">
<path d="M32.5101 48.0341C25.0513 52.9956 21.2266 67.5078 21.2266 74.2339L61.5838 74.2339L63.3233 60.7777C64.1351 58.8891 66.1066 53.6955 67.4982 48.0297C68.8898 42.364 68.078 36.6982 67.4982 34.5736C68.078 31.7407 68.8898 26.0041 67.4982 25.7208C66.1066 25.4375 61.5838 29.616 59.4963 31.7407L48.3633 29.9702C46.9717 21.4716 45.928 19.8779 44.1884 20.7635C33.9302 25.984 31.9426 39.3217 32.5101 48.0341Z" fill="white"/>
<path d="M32.5167 48.0297C25.0535 52.987 21.2266 67.5058 21.2266 74.2339L61.5838 74.2339L63.3233 60.7777C64.1351 58.8891 66.1066 53.6955 67.4982 48.0297C68.8898 42.364 68.078 36.6982 67.4982 34.5736C68.078 31.7407 68.8898 26.0041 67.4982 25.7208C66.1066 25.4375 61.5838 29.616 59.4963 31.7407L48.3633 29.9702C46.9717 21.4716 45.928 19.8779 44.1884 20.7635C33.0554 26.4292 31.6638 41.6555 32.7075 50.1542" stroke="#002A3A" stroke-width="0.511305"/>
</g>
<path id="Intersect" fill-rule="evenodd" clip-rule="evenodd" d="M32.5996 39.7929C36.7083 42.7974 43.6343 41.593 48.8308 36.7344C50.7329 34.956 52.1621 32.9135 53.0763 30.8276L48.3436 30.0882C47.9904 21.9648 46.2245 19.3159 44.4586 20.1992C36.9675 23.9447 33.6658 32.1901 32.5996 39.7929Z" fill="#002A3A"/>
<path id="Vector 1847" d="M48.8359 38.4434L51.9038 38.9547" stroke="#002A3A" stroke-width="0.511305" stroke-linecap="round"/>
<path id="Vector 1848" d="M61.6191 39.4668L64.1757 39.9781" stroke="#002A3A" stroke-width="0.511305" stroke-linecap="round"/>
<path id="Ellipse 166" d="M52.207 42.4555C51.8865 44.5248 50.8783 46.0848 49.955 45.9398C49.0318 45.7948 48.5431 43.9997 48.8636 41.9304C49.1841 39.8611 50.1847 38.5359 51.108 38.6809C52.0312 38.8259 52.5275 40.3862 52.207 42.4555Z" fill="#002A3A"/>
<ellipse id="Ellipse 783" cx="1.28347" cy="1.6992" rx="1.28347" ry="1.6992" transform="matrix(0.987889 0.155159 -0.153047 0.988219 50.6309 41.7441)" fill="white"/>
<ellipse id="Ellipse 167" cx="0.998699" cy="2.23767" rx="0.998699" ry="2.23767" transform="matrix(0.987889 0.155159 -0.153047 0.988219 62.1816 40.1387)" fill="#002A3A"/>
<path id="Vector 155" d="M57.1085 45.6735L58.1734 46.6589M58.1734 46.6589L59.1086 45.8643M58.1734 46.6589L57.9708 48.7699M57.9708 48.7699C57.9708 48.7699 57.4672 49.1849 57.0975 49.3665C56.7279 49.5481 56.0778 49.6998 56.0778 49.6998M57.9708 48.7699C57.9708 48.7699 58.2145 49.3287 58.4103 49.5598C58.6062 49.7909 58.9738 49.9535 58.9738 49.9535" stroke="#002A3A" stroke-width="0.511305" stroke-linecap="round" stroke-linejoin="round"/>
<g id="Group 1077241779">
<path id="Ellipse 764" d="M57.6892 44.8941C56.2084 50.3407 50.5927 53.5556 45.1461 52.0749C39.6995 50.5941 36.4846 44.9784 37.9653 39.5318C39.4461 34.0852 45.0618 30.8703 50.5084 32.3511C55.955 33.8318 59.1699 39.4475 57.6892 44.8941ZM40.9852 40.3528C39.9579 44.1316 42.1884 48.0277 45.9671 49.055C49.7459 50.0823 53.642 47.8519 54.6693 44.0731C55.6966 40.2943 53.4661 36.3983 49.6874 35.3709C45.9086 34.3436 42.0125 36.5741 40.9852 40.3528Z" fill="#0DD149"/>
<path id="Rectangle 5785" d="M44.1729 51.2477C44.4259 50.4699 45.2447 50.0275 46.034 50.242L46.6446 50.408C47.4193 50.6187 47.9006 51.3911 47.7482 52.1793L45.6277 63.1489C45.4584 64.0248 44.5801 64.572 43.7192 64.338L41.7781 63.8103C40.9321 63.5803 40.4507 62.6892 40.7219 61.8555L44.1729 51.2477Z" fill="#0DD149"/>
</g>
<path id="Vector 1844" d="M46.1143 57.0557C36.6723 49.692 27.1762 60.7381 24.0512 66.549L38.4412 70.1666C38.7267 67.624 40.1114 64.3839 40.7681 63.0816C45.4227 66.5456 50.4775 60.4585 46.1143 57.0557Z" fill="white"/>
<path id="Vector 1825" d="M46.5909 62.9576C47.1034 62.1005 46.4017 60.1258 45.5442 59.6135M44.5568 63.9459C45.1597 63.43 44.8735 61.2306 44.016 60.7183" stroke="#002A3A" stroke-width="0.511305" stroke-linecap="round"/>
<path id="Vector 1845" d="M24.0512 66.549C27.1762 60.7381 36.6723 49.692 46.1143 57.0557C50.4775 60.4585 45.4227 66.5456 40.7681 63.0816M39.0114 61.243C39.5763 62.0315 40.1689 62.6357 40.7681 63.0816M40.7681 63.0816C40.1114 64.3839 38.7267 67.624 38.4412 70.1666" stroke="#002A3A" stroke-width="0.511305" stroke-linecap="round"/>
<path id="Vector 1828" d="M67.0628 28.7545C67.9938 29.2195 66.9808 32.5064 66.3675 34.6527L62.5485 32.9178C63.9283 31.3847 66.3675 28.4072 67.0628 28.7545Z" fill="#002A3A"/>
</g>
<g id="Group 1077241783">
<g id="Group">
<g id="Group_2">
<g id="Group_3">
<path id="Vector" d="M1.95092 44.6715L14.7178 40.5118C14.7178 40.5118 20.3356 39.5068 23.8047 53.0171L12.6203 56.662C12.6183 56.6257 10.2333 44.2263 1.95092 44.6715Z" fill="#00AFFF"/>
</g>
</g>
</g>
<g id="Group 88618">
<path id="Vector 546" d="M9.45508 45.2539L17.8798 42.4576" stroke="#002A3A" stroke-width="0.511305" stroke-miterlimit="10" stroke-linecap="round" stroke-linejoin="round" stroke-dasharray="2.05 2.05"/>
<path id="Vector 547" d="M10.7285 47.0059L19.1532 44.2095" stroke="#002A3A" stroke-width="0.511305" stroke-miterlimit="10" stroke-linecap="round" stroke-linejoin="round" stroke-dasharray="2.05 2.05"/>
<path id="Vector 548" d="M12.7188 51.7129L21.1434 48.9165" stroke="#002A3A" stroke-width="0.511305" stroke-miterlimit="10" stroke-linecap="round" stroke-linejoin="round" stroke-dasharray="2.05 2.05"/>
<path id="Vector 549" d="M11.7129 49.1426L20.1376 46.3462" stroke="#002A3A" stroke-width="0.511305" stroke-miterlimit="10" stroke-linecap="round" stroke-linejoin="round" stroke-dasharray="2.05 2.05"/>
</g>
</g>
<g id="Group 1077241784">
<g id="Group_4">
<g id="Group_5">
<path id="Vector_2" d="M75.8616 36.4251C75.8616 36.4251 86.1729 32.935 86.2444 21.3719L96.0715 18.231C96.0715 18.231 96.4784 28.1957 91.5186 33.2574C86.5587 38.3191 84.1696 37.9692 84.1696 37.9692L75.8616 36.4251Z" fill="#00AFFF"/>
</g>
</g>
<g id="Group 88620">
<path id="Vector 550" d="M94.5215 22.5625L86.8512 24.2433" stroke="#002A3A" stroke-width="0.511305" stroke-miterlimit="10" stroke-linecap="round" stroke-linejoin="round" stroke-dasharray="2.05 2.05"/>
<path id="Vector 551" d="M94.0859 24.9629L86.4156 26.6437" stroke="#002A3A" stroke-width="0.511305" stroke-miterlimit="10" stroke-linecap="round" stroke-linejoin="round" stroke-dasharray="2.05 2.05"/>
<path id="Vector 552" d="M93.2793 27.7441L85.5082 28.8703" stroke="#002A3A" stroke-width="0.511305" stroke-miterlimit="10" stroke-linecap="round" stroke-linejoin="round" stroke-dasharray="2.05 2.05"/>
<path id="Vector 553" d="M91.8926 30.2871L84.1031 31.2785" stroke="#002A3A" stroke-width="0.511305" stroke-miterlimit="10" stroke-linecap="round" stroke-linejoin="round" stroke-dasharray="2.05 2.05"/>
</g>
</g>
<path id="Vector 661" d="M54.9735 55.7484V74.2336H85.1404C87.6819 74.2336 89.7422 72.1734 89.7422 69.6319V50.9074C89.7422 49.9532 88.9687 49.1797 88.0145 49.1797H77.8099C77.3449 49.1797 76.8996 49.3671 76.5745 49.6996L74.3817 51.9425C74.0566 52.275 73.6113 52.4624 73.1463 52.4624H58.2595C56.4447 52.4624 54.9735 53.9336 54.9735 55.7484Z" fill="#002A3A"/>
<g id="Vector 662">
<path d="M63.8461 62.8432L55.4851 74.2334H86.5695C87.6238 74.2334 88.6198 73.3694 89.2711 72.522L97.2564 62.1343C97.6289 61.6497 97.2911 60.9395 96.6882 60.9395H67.6473C66.1605 60.9395 64.7572 61.6423 63.8461 62.8432Z" fill="white"/>
<path d="M63.8461 62.8432L55.4851 74.2334H86.5695C87.6238 74.2334 88.6198 73.3694 89.2711 72.522L97.2564 62.1343C97.6289 61.6497 97.2911 60.9395 96.6882 60.9395H67.6473C66.1605 60.9395 64.7572 61.6423 63.8461 62.8432Z" stroke="#002A3A" stroke-width="0.511305" stroke-linejoin="round"/>
</g>
<g id="Group 1077241781">
<g id="Vector 1824">
<path d="M63.8869 49.8581C66.3327 46.6194 74.1258 47.7174 74.4776 52.6637L73.7741 52.6846L70.6871 52.6639C70.6871 54.0961 69.1847 55.9233 67.7718 56.215C64.6728 56.8547 61.0115 53.6658 63.8869 49.8581Z" fill="white"/>
<path d="M70.6871 52.6639L73.7741 52.6846L74.4776 52.6637C74.1258 47.7174 66.3327 46.6194 63.8869 49.8581C61.0115 53.6658 64.6728 56.8547 67.7718 56.215C69.1847 55.9233 70.6871 54.0961 70.6871 52.6639ZM70.6871 52.6639L70.6871 51.2707" stroke="#002A3A" stroke-width="0.511305" stroke-linecap="round" stroke-linejoin="round"/>
</g>
<path id="Vector 1822" d="M64.5881 55.515C63.8819 54.8088 64.2401 53.0375 64.9466 52.3314M67.0652 56.2162C66.3547 55.863 66.3588 53.7438 67.0653 53.0377" stroke="#002A3A" stroke-width="0.511305" stroke-linecap="round"/>
</g>
</g>
</g>
</svg>
