<svg width="100" height="78" viewBox="0 0 100 78" fill="none" xmlns="http://www.w3.org/2000/svg">
<g id="coins" clip-path="url(#clip0_43671_123974)">
<g id="Group 1077241516">
<g id="Group 88208">
<g id="Ellipse 155" filter="url(#filter0_b_43671_123974)">
<ellipse cx="12.225" cy="14.6463" rx="12.225" ry="14.6463" transform="matrix(-0.865164 0.502633 0.52352 0.851292 29.7129 -2.96289)" fill="white" fill-opacity="0.7"/>
<path d="M17.0924 21.2921C21.1306 27.8585 28.7243 30.3018 33.948 27.267C39.1717 24.2322 40.5535 16.5744 36.5154 10.008C32.4772 3.44159 24.8835 0.9983 19.6598 4.03309C14.4361 7.06788 13.0543 14.7257 17.0924 21.2921Z" stroke="#002A3A" stroke-width="2"/>
</g>
<path id="Subtract" fill-rule="evenodd" clip-rule="evenodd" d="M34.4735 28.1212C28.6348 31.5127 20.4669 28.6777 16.2301 21.789C12.1119 15.0933 13.2235 7.03228 18.6508 3.47161C18.4463 3.57916 18.2416 3.69235 18.0369 3.81129C11.1668 7.80181 8.56404 14.9566 13.6782 23.2717C18.5794 31.2404 26.7355 32.616 33.3795 28.7568C34.0662 28.4159 34.6936 28.0327 35.2639 27.6128C35.0104 27.7927 34.7469 27.9624 34.4735 28.1212ZM38.1757 24.4435C38.9754 23.1017 39.4976 21.5737 39.7285 19.948C39.5142 21.5408 39.0079 23.0683 38.1757 24.4435ZM34.4198 5.8869C32.4824 4.07871 30.2189 2.81612 27.8946 2.19127C30.3234 2.7845 32.5485 4.0922 34.4198 5.8869Z" fill="#002A3A"/>
<g id="Group 88203">
<path id="Vector 142" d="M30.0095 23.9627L20.4707 9.56445" stroke="#002A3A" stroke-linecap="round" stroke-linejoin="round"/>
<path id="Rectangle 5408" d="M23.4521 18.4724L28.42 15.0903C30.4865 13.6834 31.0449 10.8566 29.6672 8.77643V8.77643C28.2894 6.69626 25.4973 6.15045 23.4308 7.55732L20.4641 9.57705L23.7003 14.4633" stroke="#002A3A" stroke-linecap="round"/>
<path id="Vector 143" d="M25.2773 21.2148L33.0149 16.0092" stroke="#002A3A" stroke-linecap="round" stroke-linejoin="round"/>
</g>
</g>
<g id="Group 88209">
<path id="Ellipse 156" d="M50.1515 68.7857L50.1372 68.7776L50.1224 68.7705C44.5374 66.0833 41.6038 61.4853 40.7769 56.3519C39.9477 51.2038 41.2392 45.5095 44.1398 40.6948C47.0442 35.8738 51.2637 32.1187 56.1504 30.3663C61.0232 28.6188 66.5993 28.8469 72.2803 32.0538C77.377 34.9308 80.8714 38.9647 82.1868 43.7778C83.5012 48.5874 82.6598 54.2487 78.9393 60.4243C75.3819 66.3293 70.6239 69.7858 65.5595 71.0904C60.4915 72.3958 55.0655 71.5595 50.1515 68.7857Z" stroke="#0DD149"/>
<ellipse id="Ellipse 155_2" cx="18.3243" cy="21.9419" rx="18.3243" ry="21.9419" transform="matrix(0.870856 0.491584 -0.51602 0.856548 54.9316 21.6855)" fill="#0DD149"/>
<path id="Vector 116" d="M78.2474 40.6114L81.5803 42.3696" stroke="#0DD149" stroke-linecap="square"/>
<path id="Vector 117" d="M79.1152 45.5645L82.7328 47.7464" stroke="#0DD149" stroke-linecap="square"/>
<path id="Vector 118" d="M78.4961 50.5938L82.1137 52.7757" stroke="#0DD149" stroke-linecap="square"/>
<path id="Vector 119" d="M80.5024 57.2406L76.8848 55.0586" stroke="#0DD149" stroke-linecap="square"/>
<path id="Vector 120" d="M73.9297 60.7324L75.3053 61.5089L77.2312 62.5961" stroke="#0DD149" stroke-linecap="square"/>
<path id="Vector 121" d="M70.6484 64.1387L72.0241 64.9152L73.95 66.0023" stroke="#0DD149" stroke-linecap="square"/>
<path id="Vector 122" d="M66.3794 67.3422L69.7827 69.247" stroke="#0DD149" stroke-linecap="square"/>
<path id="Vector 123" d="M60.7969 69.5566L63.352 71.53" stroke="#0DD149" stroke-linecap="square"/>
<path id="Vector 124" d="M70.6477 38.76L56.0919 57.7066L50.3034 48.7342" stroke="white" stroke-linecap="round" stroke-linejoin="round"/>
</g>
</g>
</g>
<defs>
<filter id="filter0_b_43671_123974" x="9.74023" y="-2.25391" width="34.1289" height="35.8066" filterUnits="userSpaceOnUse" color-interpolation-filters="sRGB">
<feFlood flood-opacity="0" result="BackgroundImageFix"/>
<feGaussianBlur in="BackgroundImageFix" stdDeviation="2"/>
<feComposite in2="SourceAlpha" operator="in" result="effect1_backgroundBlur_43671_123974"/>
<feBlend mode="normal" in="SourceGraphic" in2="effect1_backgroundBlur_43671_123974" result="shape"/>
</filter>
<clipPath id="clip0_43671_123974">
<rect width="100" height="78" fill="white"/>
</clipPath>
</defs>
</svg>
