<svg viewBox="0 0 111 97" fill="none" xmlns="http://www.w3.org/2000/svg">
<path d="M92.6196 30.6239C92.6196 28.2954 90.7311 26.4083 88.4026 26.4102L58.0038 26.4338C57.2367 26.4344 56.5032 26.7487 55.9736 27.3037L43.5344 40.3402C43.0354 40.8632 42.7572 41.5584 42.7576 42.2813L42.7892 91.7218C42.7902 93.2726 44.0476 94.5292 45.5984 94.5292L89.8105 94.5292C91.3619 94.5292 92.6196 93.2715 92.6196 91.72L92.6196 30.6239Z" fill="white"/>
<path d="M92.6196 30.6239C92.6196 28.2954 90.7311 26.4083 88.4026 26.4102L58.0038 26.4338C57.2367 26.4344 56.5032 26.7487 55.9736 27.3037L43.5344 40.3402C43.0354 40.8632 42.7572 41.5584 42.7576 42.2813L42.7892 91.7218C42.7902 93.2726 44.0476 94.5292 45.5984 94.5292L89.8105 94.5292C91.3619 94.5292 92.6196 93.2715 92.6196 91.72L92.6196 30.6239Z" stroke="#002A3A"/>
<path d="M50.0905 40.6691C53.2364 40.7418 55.8396 38.2384 55.8898 35.092L56.004 27.9354L44.1338 40.5315L50.0905 40.6691Z" fill="#002A3A" stroke="#002A3A" stroke-linejoin="bevel"/>
<path d="M43.9995 41.5L56.9995 27.5" stroke="white" stroke-linecap="round"/>
<path d="M50.9541 47.793H85.7892" stroke="#002A3A" stroke-linecap="round" stroke-linejoin="round"/>
<path d="M50.9541 54.6211H85.7892" stroke="#002A3A" stroke-linecap="round" stroke-linejoin="round"/>
<path d="M50.9541 61.4531H85.7892" stroke="#002A3A" stroke-linecap="round" stroke-linejoin="round"/>
<path d="M50.9541 68.2812H85.7892" stroke="#002A3A" stroke-linecap="round" stroke-linejoin="round"/>
<path d="M50.9541 75.1133H68.3716" stroke="#002A3A" stroke-linecap="round" stroke-linejoin="round"/>
<path d="M71.4097 83.3114C71.4097 80.5549 73.6442 78.3203 76.4007 78.3203H83.3114C86.0679 78.3203 88.3025 80.5549 88.3025 83.3114C88.3025 86.0679 86.0679 88.3024 83.3114 88.3024H76.4007C73.6442 88.3024 71.4097 86.0679 71.4097 83.3114Z" fill="#00AFFF"/>
<path d="M0.503906 94.7148H105.504" stroke="#002A3A" stroke-linecap="round" stroke-linejoin="round"/>
<path d="M0.503906 96H105.504" stroke="white" stroke-linecap="round" stroke-linejoin="round"/>
<path d="M17.3751 47.8855L17.3608 47.8774L17.346 47.8703C14.4729 46.488 13.1222 44.1185 12.8527 41.452C12.581 38.7646 13.4122 35.7735 14.9354 33.2451C16.4621 30.7109 18.4997 28.7819 20.856 27.8939C23.193 27.0132 25.9078 27.1312 28.8707 28.8037C31.5327 30.3064 33.3385 32.4016 34.0169 34.8841C34.6944 37.3632 34.2678 40.3021 32.3196 43.536C30.4605 46.6219 27.986 48.4109 25.3692 49.085C22.7488 49.76 19.9344 49.3302 17.3751 47.8855Z" fill="white" stroke="#002A3A"/>
<path d="M30.277 42.3831C27.0571 47.7279 20.8642 49.8552 16.5 47.3917C12.1358 44.9282 10.9987 38.6633 14.2187 33.3185C17.4386 27.9737 23.6314 25.8464 27.9956 28.3099C32.3599 30.7734 33.4969 37.0384 30.277 42.3831Z" fill="#002A3A" stroke="white"/>
<path d="M20.4758 38.1334C19.4715 39.6562 17.7742 40.084 16.7312 39.396C15.6883 38.7079 15.4134 36.9789 16.4177 35.4561C17.4221 33.9332 19.1194 33.5054 20.1623 34.1935C21.2053 34.8816 21.4802 36.6106 20.4758 38.1334Z" stroke="white"/>
<path d="M28.2485 40.1296C27.7312 40.8779 27.0647 41.3919 26.4265 41.6324C25.7861 41.8737 25.2244 41.827 24.8288 41.5535C24.4333 41.28 24.1911 40.771 24.1906 40.0865C24.1901 39.4044 24.4353 38.5991 24.9525 37.8508C25.4697 37.1024 26.1363 36.5885 26.7745 36.348C27.4149 36.1066 27.9766 36.1534 28.3721 36.4269C28.7677 36.7003 29.0099 37.2094 29.0104 37.8939C29.0109 38.576 28.7657 39.3812 28.2485 40.1296Z" stroke="white"/>
<path d="M26.5746 32.3033L18.6303 43.9795" stroke="white" stroke-linecap="round"/>
<path fill-rule="evenodd" clip-rule="evenodd" d="M56.6399 23.096C52.6559 25.4101 47.0826 23.4757 44.1916 18.7752C41.3811 14.2057 42.1402 8.70441 45.8449 6.27531C45.7047 6.34899 45.5645 6.42655 45.4241 6.50807C40.7364 9.231 38.9603 14.1131 42.45 19.7869C45.7943 25.2243 51.3596 26.1629 55.8931 23.5296C56.358 23.2989 56.7829 23.0398 57.1695 22.756C56.9996 22.8761 56.823 22.9896 56.6399 23.096ZM59.1871 20.5511C59.7144 19.6553 60.0615 18.6394 60.2199 17.5594C60.0725 18.6181 59.7354 19.6337 59.1871 20.5511ZM56.5942 7.91595C55.2745 6.68689 53.7338 5.82842 52.1517 5.40294C53.8047 5.80694 55.3195 6.69596 56.5942 7.91595Z" fill="#002A3A"/>
<path d="M45.4241 6.50977C40.7364 9.2327 38.9604 14.1147 42.45 19.7886C45.7943 25.226 51.3597 26.1646 55.8931 23.5313" stroke="white" stroke-linecap="round"/>
<g filter="url(#filter0_b_30936_461072)">
<ellipse cx="8.34172" cy="9.99388" rx="8.34172" ry="9.99388" transform="matrix(-0.865164 0.502633 0.52352 0.851292 53.3901 1.88477)" fill="#00AFFF"/>
</g>
<path d="M53.5938 20.2583L47.085 10.4336" stroke="white" stroke-linecap="round" stroke-linejoin="round"/>
<path d="M49.1193 16.5131L52.5091 14.2054C53.9192 13.2454 54.3002 11.3165 53.3601 9.89711V9.89711C52.42 8.47771 50.5148 8.10527 49.1047 9.06525L47.0804 10.4434L49.2886 13.7775" stroke="white" stroke-linecap="round"/>
<path d="M50.3643 18.3848L55.644 14.8327" stroke="white" stroke-linecap="round" stroke-linejoin="round"/>
<path d="M95.7554 52.1032C103.896 52.1032 110.496 45.4409 110.496 37.2225C110.496 29.0041 103.896 22.3418 95.7554 22.3418C87.6146 22.3418 81.0151 29.0041 81.0151 37.2225C81.0151 45.4409 87.6146 52.1032 95.7554 52.1032Z" fill="#0DD149"/>
<path fill-rule="evenodd" clip-rule="evenodd" d="M105.114 33.4737C105.283 33.6478 105.28 33.926 105.106 34.0961L95.4288 43.5949C95.2572 43.7633 94.9823 43.7633 94.8106 43.5949L88.6156 37.5142C88.4423 37.3441 88.439 37.066 88.6082 36.8918L90.538 34.9061C90.7084 34.7307 90.989 34.7274 91.1635 34.8987L94.8106 38.4785C94.9823 38.6469 95.2572 38.6469 95.4288 38.4785L102.558 31.4805C102.733 31.3092 103.013 31.3126 103.184 31.4879L105.114 33.4737Z" fill="white"/>
<rect x="10.5635" y="59.1973" width="47.4986" height="34.999" rx="6" fill="#002A3A" stroke="#002A3A" stroke-miterlimit="10" stroke-linecap="round" stroke-linejoin="round"/>
<rect x="7.56348" y="59.1973" width="47.4986" height="35.5176" rx="6" fill="white" stroke="#002A3A" stroke-miterlimit="10" stroke-linecap="round" stroke-linejoin="round"/>
<circle cx="38.8124" cy="67.9471" r="4.37487" fill="#002A3A"/>
<circle cx="45.6874" cy="67.9471" r="4.37487" fill="#0DD149"/>
<rect x="12.5635" y="79.1973" width="10.6247" height="3.12491" rx="1.56246" fill="#002A3A"/>
<rect x="12.5635" y="64.8223" width="8.12477" height="5.62484" rx="2.81242" fill="#0DD149"/>
<rect x="12.5635" y="83.5723" width="36.249" height="3.12491" rx="1.56246" fill="#002A3A"/>
<defs>
<filter id="filter0_b_30936_461072" x="39.2449" y="1.8518" width="24.3208" height="25.4663" filterUnits="userSpaceOnUse" color-interpolation-filters="sRGB">
<feFlood flood-opacity="0" result="BackgroundImageFix"/>
<feGaussianBlur in="BackgroundImageFix" stdDeviation="1.62293"/>
<feComposite in2="SourceAlpha" operator="in" result="effect1_backgroundBlur_30936_461072"/>
<feBlend mode="normal" in="SourceGraphic" in2="effect1_backgroundBlur_30936_461072" result="shape"/>
</filter>
</defs>
</svg>
