<svg width="142" height="100" viewBox="0 0 142 100" fill="none" xmlns="http://www.w3.org/2000/svg">
<g id="Polisu odobrenu_podhodyat">
<g id="Group 88872">
<g id="Group 88709">
<path id="Vector 204" d="M57.6433 45.0915C66.7509 50.7057 69.7335 57.161 71.3405 62.2194C71.6284 63.1256 71.8721 63.987 72.099 64.7907" stroke="#002A3A" stroke-linecap="round"/>
<path id="Vector 205" d="M65.3916 51.1797C65.3769 49.7168 65.6867 46.9273 67.0433 47.4725C67.6612 47.7478 68.1959 48.8747 65.3916 51.1797Z" fill="#002A3A" stroke="#002A3A" stroke-linecap="round" stroke-linejoin="round"/>
<path id="Vector 216" d="M67.2686 53.6641C67.2539 52.2012 67.5637 49.4117 68.9203 49.9569C69.5382 50.2322 70.0728 51.359 67.2686 53.6641Z" fill="#002A3A" stroke="#002A3A" stroke-linecap="round" stroke-linejoin="round"/>
<path id="Vector 207" d="M63.694 49.6799C63.1928 48.4691 62.5286 46.042 63.8811 46.0202C64.5062 46.0327 65.3438 46.7821 63.694 49.6799Z" fill="#002A3A" stroke="#002A3A" stroke-linecap="round" stroke-linejoin="round"/>
<path id="Vector 209" d="M61.2348 47.6737C61.1199 46.2674 61.1619 43.5719 62.2481 44.04C62.7447 44.2792 63.2373 45.3408 61.2348 47.6737Z" fill="#002A3A" stroke="#002A3A" stroke-linecap="round" stroke-linejoin="round"/>
<path id="Vector 214" d="M61.1707 47.7308C59.8157 48.1244 57.3119 49.1238 58.1363 49.972C58.5367 50.3508 59.7041 50.433 61.1707 47.7308Z" fill="#002A3A" stroke="#002A3A" stroke-linecap="round" stroke-linejoin="round"/>
<path id="Vector 213" d="M58.1427 45.5493C57.1941 45.4717 55.4055 45.0962 55.8399 44.2149C56.0552 43.8152 56.8172 43.5224 58.1427 45.5493Z" fill="#002A3A" stroke="#002A3A" stroke-linecap="round" stroke-linejoin="round"/>
<path id="Vector 206" d="M65.2167 51.2883C64.4677 52.5451 62.7513 54.7656 61.8767 53.594C61.4924 53.0373 61.6224 51.7969 65.2167 51.2883Z" fill="#002A3A" stroke="#002A3A" stroke-linecap="round" stroke-linejoin="round"/>
<path id="Vector 217" d="M67.0916 53.7746C66.3427 55.0314 64.6263 57.252 63.7517 56.0803C63.3674 55.5237 63.4974 54.2832 67.0916 53.7746Z" fill="#002A3A" stroke="#002A3A" stroke-linecap="round" stroke-linejoin="round"/>
<path id="Vector 208" d="M63.5621 49.7879C62.7236 50.8061 60.8915 52.5517 60.2714 51.3884C60.0047 50.8399 60.2894 49.752 63.5621 49.7879Z" fill="#002A3A" stroke="#002A3A" stroke-linecap="round" stroke-linejoin="round"/>
<path id="Vector 212" d="M59.671 46.4896C58.5691 47.3213 56.3418 48.7254 56.2477 47.6876C56.2252 47.1997 56.8784 46.2771 59.671 46.4896Z" fill="#002A3A" stroke="#002A3A" stroke-linecap="round" stroke-linejoin="round"/>
<path id="Vector 215" d="M59.5398 46.5755C59.0364 45.29 58.2859 42.7663 59.3105 42.9559C59.7863 43.0659 60.4983 43.944 59.5398 46.5755Z" fill="#002A3A" stroke="#002A3A" stroke-linecap="round" stroke-linejoin="round"/>
</g>
<g id="Group 88710">
<path id="Rectangle 5513" d="M86.4922 38.407C86.4922 35.0915 89.1813 32.4044 92.4969 32.407L110.664 32.4212C111.756 32.422 112.801 32.8695 113.555 33.6598L121.417 41.8994C122.127 42.6441 122.524 43.634 122.523 44.6633L122.502 77.6313C122.5 79.8395 120.71 81.6288 118.502 81.6288L90.4922 81.6288C88.283 81.6288 86.4922 79.8379 86.4922 77.6288L86.4922 38.407Z" fill="white" stroke="#002A3A"/>
<path id="Polygon 11" d="M118.773 42.5345C115.721 42.605 113.195 40.1763 113.146 37.1238L113.094 33.8629L121.213 42.4782L118.773 42.5345Z" fill="#002A3A" stroke="#002A3A" stroke-linejoin="bevel"/>
<path id="Vector" d="M92.2557 60.2307L104.676 60.2784" stroke="#002A3A" stroke-miterlimit="10" stroke-linecap="round" stroke-linejoin="round"/>
<path id="Vector_2" d="M108.955 60.353L114.489 60.3502" stroke="#002A3A" stroke-miterlimit="10" stroke-linecap="round" stroke-linejoin="round"/>
<path id="Vector_3" d="M92.2401 63.59L104.661 63.6378" stroke="#002A3A" stroke-miterlimit="10" stroke-linecap="round" stroke-linejoin="round"/>
<path id="Vector_4" d="M108.933 63.7124L114.467 63.7096" stroke="#002A3A" stroke-miterlimit="10" stroke-linecap="round" stroke-linejoin="round"/>
<path id="Vector_5" d="M92.2303 66.9025L104.651 66.9503" stroke="#002A3A" stroke-miterlimit="10" stroke-linecap="round" stroke-linejoin="round"/>
<path id="Vector_6" d="M108.916 67.0249L114.45 67.0221" stroke="#002A3A" stroke-miterlimit="10" stroke-linecap="round" stroke-linejoin="round"/>
<path id="Vector_7" d="M92.2205 70.2164L104.633 70.3116" stroke="#002A3A" stroke-miterlimit="10" stroke-linecap="round" stroke-linejoin="round"/>
<path id="Vector_8" d="M108.898 70.3387L114.428 70.3834" stroke="#002A3A" stroke-miterlimit="10" stroke-linecap="round" stroke-linejoin="round"/>
</g>
<path id="Vector 612" d="M93.9277 48.6328C94.1057 47.951 94.9099 46.8847 96.6564 46.8817C98.3581 46.8788 99.0766 48.0276 99.1672 48.6238" stroke="#002A3A" stroke-linecap="round"/>
<path id="Vector 613" d="M106.455 48.3691C106.633 47.6873 107.437 46.621 109.184 46.618C110.885 46.6151 111.604 47.764 111.695 48.3602" stroke="#002A3A" stroke-linecap="round"/>
<ellipse id="Ellipse 580" cx="103.465" cy="52.3922" rx="1.28744" ry="1.28743" transform="rotate(11.4412 103.465 52.3922)" fill="#002A3A"/>
<g id="Group 88699">
<g id="Group 88834">
<path id="Rectangle 5512" d="M25.1677 81.707C21.8518 81.707 19.1646 79.0173 19.1677 75.7014L19.179 63.765C19.18 62.692 19.612 61.6644 20.3781 60.913L31.8541 49.6573C32.6026 48.9232 33.6094 48.5123 34.6579 48.513L60.1643 48.5316C62.3723 48.5333 64.1613 50.3236 64.1613 52.5316L64.1613 77.707C64.1613 79.9162 62.3705 81.707 60.1613 81.707L25.1677 81.707Z" fill="white" stroke="#002A3A"/>
<path id="Vector_9" d="M38.9352 77.1127L38.9785 65.8553" stroke="#002A3A" stroke-miterlimit="10" stroke-linecap="round" stroke-linejoin="round"/>
<path id="Vector_10" d="M39.0457 61.9784L39.0431 56.9627" stroke="#002A3A" stroke-miterlimit="10" stroke-linecap="round" stroke-linejoin="round"/>
<path id="Vector_11" d="M41.9801 77.1284L42.0234 65.8709" stroke="#002A3A" stroke-miterlimit="10" stroke-linecap="round" stroke-linejoin="round"/>
<path id="Vector_12" d="M42.0906 61.9979L42.0881 56.9822" stroke="#002A3A" stroke-miterlimit="10" stroke-linecap="round" stroke-linejoin="round"/>
<path id="Vector_13" d="M44.9821 77.1381L45.0253 65.8807" stroke="#002A3A" stroke-miterlimit="10" stroke-linecap="round" stroke-linejoin="round"/>
<path id="Vector_14" d="M45.0945 62.0135L45.092 56.9979" stroke="#002A3A" stroke-miterlimit="10" stroke-linecap="round" stroke-linejoin="round"/>
<path id="Vector_15" d="M47.984 77.1447L48.0702 65.8944" stroke="#002A3A" stroke-miterlimit="10" stroke-linecap="round" stroke-linejoin="round"/>
<path id="Vector_16" d="M48.0964 62.0297L48.1369 57.0174" stroke="#002A3A" stroke-miterlimit="10" stroke-linecap="round" stroke-linejoin="round"/>
<path id="Vector_17" d="M56.073 62.0883L56.1135 57.076" stroke="#002A3A" stroke-miterlimit="10" stroke-linecap="round" stroke-linejoin="round"/>
<path id="Vector_18" d="M56.4497 78.7901L56.4437 75.6085" stroke="#002A3A" stroke-miterlimit="10" stroke-linecap="round" stroke-linejoin="round"/>
<path id="Vector_19" d="M54.243 78.7804L54.2896 73.1337" stroke="#002A3A" stroke-miterlimit="10" stroke-linecap="round" stroke-linejoin="round"/>
</g>
<path id="Polygon 11_2" d="M32.5556 55.5479C32.5774 58.6007 30.1087 61.0872 27.0558 61.0872L20.3018 61.0873L32.5155 49.9397L32.5556 55.5479Z" fill="#002A3A" stroke="#002A3A" stroke-linejoin="bevel"/>
<g id="Group 88470">
<rect id="Rectangle 5387" x="45.9375" y="23.252" width="46.6355" height="58.658" rx="6" fill="#002A3A"/>
</g>
<path id="Rectangle 5510" d="M49.5603 33.709C49.5712 29.843 52.7141 26.7178 56.5801 26.7287L80.6574 26.7967L82.2849 26.8013C86.1508 26.8122 89.276 29.9551 89.2651 33.8211L89.2614 35.1298L89.1583 71.6478C89.1474 75.5138 86.0045 78.6389 82.1385 78.628L56.4337 78.5554C52.5677 78.5445 49.4426 75.4017 49.4535 71.5357L49.5603 33.709Z" fill="white"/>
<ellipse id="Ellipse 257" cx="61.1065" cy="37.5235" rx="0.946316" ry="2.52351" fill="#002A3A"/>
<ellipse id="Ellipse 258" cx="76.2471" cy="37.5235" rx="0.946316" ry="2.52351" fill="#002A3A"/>
<path id="Vector 495" d="M65.207 40.3633C65.4335 41.225 66.4526 42.5714 68.6607 42.5714C70.8121 42.5714 71.718 41.1173 71.8312 40.3633" stroke="#002A3A" stroke-linecap="round"/>
<path id="Vector_20" d="M55.1138 53.4179L83.9453 53.4182" stroke="#002A3A" stroke-miterlimit="10" stroke-linecap="round" stroke-linejoin="round"/>
<path id="Vector_21" d="M55.1138 59.289L83.9453 59.2893" stroke="#002A3A" stroke-miterlimit="10" stroke-linecap="round" stroke-linejoin="round"/>
<path id="Vector_22" d="M55.1138 65.2812L83.9453 65.2815" stroke="#002A3A" stroke-miterlimit="10" stroke-linecap="round" stroke-linejoin="round"/>
<g id="Group 88858">
<path id="Union" fill-rule="evenodd" clip-rule="evenodd" d="M36.6582 16.1641C33.3445 16.1641 30.6582 18.8504 30.6582 22.1641V29.099C30.6582 32.4127 33.3445 35.099 36.6582 35.099H43.2966L49.7066 40.2963C50.0334 40.5613 50.5215 40.3287 50.5215 39.9079V33.8173C50.5215 33.817 50.5215 33.8166 50.5215 33.8163C51.9171 32.7176 52.8133 31.013 52.8133 29.099V22.1641C52.8133 18.8504 50.127 16.1641 46.8133 16.1641H36.6582Z" fill="#0DD149"/>
<path id="Vector 426 (Stroke)" fill-rule="evenodd" clip-rule="evenodd" d="M48.5966 21.6895C48.7777 21.8618 48.7796 22.1501 48.6007 22.3248L40.3808 30.3538C40.2093 30.5213 39.9356 30.5213 39.7641 30.3538L34.534 25.2451C34.3568 25.0721 34.3568 24.7871 34.5339 24.614L36.4199 22.7707C36.5897 22.6047 36.8606 22.603 37.0326 22.7668L39.7617 25.3659C39.9347 25.5307 40.2074 25.5278 40.3769 25.3594L45.981 19.7926C46.1504 19.6242 46.4231 19.6213 46.5961 19.7859L48.5966 21.6895Z" fill="white"/>
</g>
</g>
<path id="Vector 469" d="M15.6094 81.7051H125.513" stroke="#002A3A" stroke-linecap="round"/>
<path id="Vector_23" d="M78.8702 22.7421V24.8784C78.8702 25.0427 78.8702 25.1249 78.8702 25.2892C78.6197 26.686 77.4505 27.8363 75.9473 27.8363H62.001C60.4978 27.8363 59.3287 26.686 59.0781 25.2892C59.0781 25.1249 59.0781 25.0427 59.0781 24.8784V22.7421C59.0781 22.4134 59.3287 22.0026 59.7462 22.0026H66.5941C66.5941 21.8383 66.5941 21.7561 66.5941 21.6739C66.5941 20.3593 67.7633 19.209 69.0994 19.209C70.4356 19.209 71.6047 20.3593 71.6047 21.6739C71.6047 21.8383 71.6047 21.9204 71.6047 22.0026H78.4526C78.6197 22.0848 78.8702 22.3312 78.8702 22.7421Z" fill="#002A3A" stroke="#002A3A" stroke-miterlimit="10" stroke-linejoin="round"/>
<rect id="Rectangle 5537" x="73.7949" y="68.4355" width="10.1498" height="5.07488" rx="1" fill="#00AFFF"/>
</g>
</g>
</svg>
