<svg viewBox="0 0 118 73" fill="none" xmlns="http://www.w3.org/2000/svg">
<path d="M75.147 70.5457C69.0516 70.7467 61.8174 70.5457 56.5258 70.4787C51.4351 70.6797 44 70.7467 37.9045 70.5457C43.933 67.1296 46.0764 60.7662 46.3444 56.6133H66.5732C67.1091 60.6992 69.1855 67.1296 75.147 70.5457Z" fill="#002A3A"/>
<path d="M75.147 70.5457L75.1635 71.0454C75.3869 71.0381 75.5783 70.8833 75.6322 70.6664C75.6862 70.4494 75.5896 70.223 75.3956 70.1119L75.147 70.5457ZM56.5258 70.4787L56.5321 69.9788C56.5234 69.9787 56.5147 69.9788 56.506 69.9791L56.5258 70.4787ZM37.9045 70.5457L37.658 70.1107C37.4632 70.2211 37.3655 70.4477 37.419 70.6652C37.4726 70.8827 37.6642 71.0381 37.8881 71.0454L37.9045 70.5457ZM46.3444 56.6133V56.1133C46.0807 56.1133 45.8624 56.318 45.8454 56.5811L46.3444 56.6133ZM66.5732 56.6133L67.069 56.5483C67.0363 56.2994 66.8242 56.1133 66.5732 56.1133V56.6133ZM75.1305 70.046C69.0502 70.2464 61.836 70.0459 56.5321 69.9788L56.5194 70.9787C61.7989 71.0455 69.0529 71.2469 75.1635 71.0454L75.1305 70.046ZM56.506 69.9791C51.4261 70.1796 44.0032 70.2465 37.921 70.046L37.8881 71.0454C43.9968 71.2468 51.444 71.1797 56.5455 70.9783L56.506 69.9791ZM38.151 70.9807C44.3745 67.4541 46.5687 60.9025 46.8433 56.6455L45.8454 56.5811C45.5842 60.63 43.4915 66.8051 37.658 70.1107L38.151 70.9807ZM46.3444 57.1133H66.5732V56.1133H46.3444V57.1133ZM66.0774 56.6783C66.622 60.8304 68.7393 67.4501 74.8984 70.9795L75.3956 70.1119C69.6318 66.8091 67.5961 60.5681 67.069 56.5483L66.0774 56.6783Z" fill="#002A3A"/>
<rect x="18.8274" y="0.933594" width="76" height="57" rx="6" fill="#002A3A"/>
<path d="M37.9048 70.5466C43.325 67.4752 45.6046 62.0213 46.2042 57.9336H24.2209C20.9072 57.9336 18.2209 55.2473 18.2209 51.9336V29.4336M75.1473 70.5466C69.7946 67.4794 67.5739 61.982 66.7883 57.9336H88.8277C92.1414 57.9336 94.8277 55.2473 94.8277 51.9336" stroke="white"/>
<path d="M19.3274 6.93359C19.3274 3.89603 21.7898 1.43359 24.8274 1.43359H88.8274C91.865 1.43359 94.3274 3.89603 94.3274 6.93359V47.4336H19.3274V6.93359Z" fill="white" stroke="#002A3A" stroke-miterlimit="10" stroke-linecap="round" stroke-linejoin="round"/>
<path d="M56.6597 55.0733C57.7314 55.0733 58.5352 54.3365 58.5352 53.1978C58.5352 52.1261 57.7984 51.3223 56.6597 51.3223C55.588 51.3223 54.7842 52.0591 54.7842 53.1978C54.7842 54.2695 55.521 55.0733 56.6597 55.0733Z" fill="white"/>
<path d="M74.2339 21.5803C74.2339 18.3873 76.8223 15.7988 80.0153 15.7988H109.639C112.832 15.7988 115.421 18.3873 115.421 21.5803V64.9329C115.421 68.1259 112.832 70.7143 109.639 70.7143H80.0153C76.8223 70.7143 74.2339 68.1259 74.2339 64.9329V21.5803Z" fill="#002A3A"/>
<path d="M77.1887 22.9333C77.1887 20.1159 79.4726 17.832 82.29 17.832H108.057C110.874 17.832 113.158 20.116 113.158 22.9333V63.253C113.158 66.0704 110.874 68.3543 108.057 68.3543H82.29C79.4726 68.3543 77.1887 66.0704 77.1887 63.253V22.9333Z" fill="white"/>
<path d="M77.6887 22.9333C77.6887 20.3921 79.7488 18.332 82.29 18.332H108.057C110.598 18.332 112.658 20.3921 112.658 22.9333V63.253C112.658 65.7942 110.598 67.8543 108.057 67.8543H82.29C79.7488 67.8543 77.6887 65.7942 77.6887 63.253V22.9333Z" stroke="#002A3A"/>
<path d="M97.9641 14.4314H102.121C102.872 14.4314 103.481 15.0404 103.481 15.7917V16.1318C103.481 18.3857 101.654 20.2128 99.4003 20.2128H90.5581C88.3042 20.2128 86.4771 18.3857 86.4771 16.1318V15.7917C86.4771 15.0404 87.0861 14.4314 87.8374 14.4314H91.9943C92.3036 13.0683 93.5225 12.0508 94.9792 12.0508C96.4358 12.0508 97.6548 13.0683 97.9641 14.4314Z" fill="#002A3A"/>
<path d="M97.9641 14.4314L97.4765 14.542L97.5649 14.9314H97.9641V14.4314ZM91.9943 14.4314V14.9314H92.3935L92.4819 14.542L91.9943 14.4314ZM86.4771 15.7995V16.2995H86.9771V15.7995H86.4771ZM103.481 15.7995H102.981V16.2995H103.481V15.7995ZM97.9641 14.9314H102.121V13.9314H97.9641V14.9314ZM94.9792 12.5508C96.1973 12.5508 97.2178 13.4017 97.4765 14.542L98.4517 14.3207C98.0919 12.7349 96.6744 11.5508 94.9792 11.5508V12.5508ZM92.4819 14.542C92.7406 13.4017 93.7611 12.5508 94.9792 12.5508V11.5508C93.284 11.5508 91.8665 12.7349 91.5067 14.3207L92.4819 14.542ZM87.8374 14.9314H91.9943V13.9314H87.8374V14.9314ZM86.9771 15.7917C86.9771 15.3166 87.3622 14.9314 87.8374 14.9314V13.9314C86.81 13.9314 85.9771 14.7643 85.9771 15.7917H86.9771ZM86.9771 15.7995V15.7917H85.9771V15.7995H86.9771ZM80.0153 16.2995H86.4771V15.2995H80.0153V16.2995ZM74.7339 21.581C74.7339 18.6641 77.0985 16.2995 80.0153 16.2995V15.2995C76.5462 15.2995 73.7339 18.1118 73.7339 21.581H74.7339ZM74.7339 64.9336V21.581H73.7339V64.9336H74.7339ZM80.0153 70.215C77.0985 70.215 74.7339 67.8504 74.7339 64.9336H73.7339C73.7339 68.4027 76.5462 71.215 80.0153 71.215V70.215ZM109.639 70.215H80.0153V71.215H109.639V70.215ZM114.921 64.9336C114.921 67.8504 112.556 70.215 109.639 70.215V71.215C113.108 71.215 115.921 68.4027 115.921 64.9336H114.921ZM114.921 21.581V64.9336H115.921V21.581H114.921ZM109.639 16.2995C112.556 16.2995 114.921 18.6641 114.921 21.581H115.921C115.921 18.1118 113.108 15.2995 109.639 15.2995V16.2995ZM103.481 16.2995H109.639V15.2995H103.481V16.2995ZM102.981 15.7917V15.7995H103.981V15.7917H102.981ZM102.121 14.9314C102.596 14.9314 102.981 15.3166 102.981 15.7917H103.981C103.981 14.7643 103.148 13.9314 102.121 13.9314V14.9314Z" fill="white"/>
<rect x="97.7742" y="24.8457" width="8.62374" height="8.62374" rx="1.40491" stroke="#002A3A"/>
<rect x="97.7742" y="37.7832" width="8.62374" height="8.62374" rx="1.40491" stroke="#002A3A"/>
<rect x="97.7742" y="50.7168" width="8.62374" height="8.62374" rx="1.40491" stroke="#002A3A"/>
<path fill-rule="evenodd" clip-rule="evenodd" d="M109.305 23.8767C109.466 24.0261 109.468 24.2809 109.308 24.4323L101.183 32.1413C101.036 32.2807 100.806 32.2807 100.659 32.1413L95.4647 27.2136C95.3066 27.0636 95.3066 26.8116 95.4647 26.6616L97.3794 24.844C97.5249 24.7059 97.7525 24.7044 97.8998 24.8406L100.657 27.3908C100.805 27.5279 101.034 27.5254 101.179 27.3853L106.753 22.0073C106.898 21.8673 107.128 21.8648 107.276 22.0017L109.305 23.8767Z" fill="#0DD149"/>
<path fill-rule="evenodd" clip-rule="evenodd" d="M109.305 36.7869C109.466 36.9362 109.468 37.191 109.308 37.3424L101.183 45.0515C101.036 45.1908 100.806 45.1908 100.659 45.0515L95.4647 40.1238C95.3066 39.9738 95.3066 39.7218 95.4647 39.5717L97.3794 37.7541C97.5249 37.616 97.7525 37.6145 97.8998 37.7508L100.657 40.301C100.805 40.438 101.034 40.4356 101.179 40.2955L106.753 34.9175C106.898 34.7774 107.128 34.775 107.276 34.9119L109.305 36.7869Z" fill="#0DD149"/>
<path fill-rule="evenodd" clip-rule="evenodd" d="M109.305 49.6971C109.466 49.8464 109.468 50.1012 109.308 50.2526L101.183 57.9617C101.036 58.101 100.806 58.101 100.659 57.9617L95.4647 53.034C95.3066 52.8839 95.3066 52.632 95.4647 52.4819L97.3794 50.6643C97.5249 50.5262 97.7525 50.5247 97.8998 50.6609L100.657 53.2111C100.805 53.3482 101.034 53.3458 101.179 53.2056L106.753 47.8277C106.898 47.6876 107.128 47.6851 107.276 47.822L109.305 49.6971Z" fill="#0DD149"/>
<path d="M15.3374 70.7148H116.663" stroke="#002A3A" stroke-linecap="round" stroke-linejoin="round"/>
<path d="M15.3374 72H116.663" stroke="white" stroke-linecap="round" stroke-linejoin="round"/>
<rect x="0.819336" y="14.4551" width="68.3481" height="17.9335" rx="2.57344" fill="#00AFFF"/>
<path d="M9.88681 18.1468H7.56234L5.94531 28.2532H7.40352L7.67784 26.4196H9.62693L9.90125 28.2532H11.5038L9.88681 18.1468ZM8.64517 19.937L9.41037 25.048H7.87997L8.64517 19.937Z" fill="white"/>
<path d="M15.467 20.5434H16.6942V28.2532H18.2823V18.1468H17.214C16.9685 18.8253 16.6942 19.4173 15.467 19.4173V20.5434Z" fill="white"/>
<path d="M23.357 20.63C23.357 23.5465 20.2096 24.0373 20.2096 27.0115V28.2532H24.8007V26.8094H21.7977C21.7833 26.7372 21.7833 26.665 21.7833 26.5928C21.7833 24.9325 24.9451 23.7486 24.9451 20.5723C24.9451 18.9553 24.1366 18.0312 22.5773 18.0312C21.0181 18.0312 20.2096 18.9553 20.2096 20.5723V21.5541H21.7111V20.4712C21.7111 19.7493 22.0287 19.475 22.534 19.475C23.0393 19.475 23.357 19.7205 23.357 20.63Z" fill="white"/>
<path d="M28.9947 21.1931C28.9947 22.0016 28.6337 22.2615 28.0418 22.2615H27.421V23.7053H27.9552C28.677 23.7053 28.9947 24.0518 28.9947 24.9902V25.7843C28.9947 26.6794 28.677 26.9249 28.1717 26.9249C27.6664 26.9249 27.3488 26.6506 27.3488 25.9287V24.9902H25.8473V25.8276C25.8473 27.4446 26.6558 28.3687 28.215 28.3687C29.7743 28.3687 30.5828 27.4446 30.5828 25.8276V25.0335C30.5828 24.0085 30.2652 23.2577 29.4711 22.9112C30.2363 22.5936 30.5828 21.915 30.5828 20.8322V20.5723C30.5828 18.9553 29.7743 18.0312 28.215 18.0312C26.6558 18.0312 25.8473 18.9553 25.8473 20.5723V21.1209H27.3488V20.4712C27.3488 19.7493 27.6664 19.475 28.1717 19.475C28.677 19.475 28.9947 19.7205 28.9947 20.63V21.1931Z" fill="white"/>
<path d="M37.4228 18.1468H35.0983L33.4813 28.2532H34.9395L35.2138 26.4196H37.1629L37.4372 28.2532H39.0398L37.4228 18.1468ZM36.1812 19.937L36.9464 25.048H35.416L36.1812 19.937Z" fill="white"/>
<path d="M43.3022 18.1468H40.9778L39.3607 28.2532H40.8189L41.0933 26.4196H43.0424L43.3167 28.2532H44.9193L43.3022 18.1468ZM42.0606 19.937L42.8258 25.048H41.2954L42.0606 19.937Z" fill="white"/>
<path d="M48.8824 20.5434H50.1096V28.2532H51.6978V18.1468H50.6294C50.3839 18.8253 50.1096 19.4173 48.8824 19.4173V20.5434Z" fill="white"/>
<path d="M58.2884 20.5723C58.2884 18.9553 57.4365 18.0312 55.8773 18.0312C54.318 18.0312 53.4662 18.9553 53.4662 20.5723V22.4203C53.4662 23.9074 54.0581 24.7304 55.2276 24.7304C55.935 24.7304 56.4259 24.4127 56.7002 23.8352V25.6832C56.7002 26.6506 56.3826 26.9249 55.8195 26.9249C55.3142 26.9249 54.9966 26.6506 54.9966 25.9287V25.5677H53.495V25.8276C53.495 27.4446 54.3036 28.3687 55.8628 28.3687C57.5087 28.3687 58.2884 27.4446 58.2884 25.741V20.5723ZM55.8773 23.2866C55.3719 23.2866 55.0543 23.0123 55.0543 22.2904V20.4712C55.0543 19.7493 55.3719 19.4895 55.8773 19.4895C56.3826 19.4895 56.7002 19.7493 56.7002 20.4712V22.2904C56.7002 23.0123 56.3826 23.2866 55.8773 23.2866Z" fill="white"/>
<path d="M60.8075 20.4712C60.8075 19.7493 61.1251 19.475 61.6305 19.475C62.1358 19.475 62.4534 19.7493 62.4534 20.4712V25.9287C62.4534 26.6506 62.1358 26.9249 61.6305 26.9249C61.1251 26.9249 60.8075 26.6506 60.8075 25.9287V20.4712ZM59.2194 25.8276C59.2194 27.4446 60.0712 28.3687 61.6305 28.3687C63.1897 28.3687 64.0416 27.4446 64.0416 25.8276V20.5723C64.0416 18.9553 63.1897 18.0312 61.6305 18.0312C60.0712 18.0312 59.2194 18.9553 59.2194 20.5723V25.8276Z" fill="white"/>
</svg>
