<svg viewBox="0 0 100 79" fill="none" xmlns="http://www.w3.org/2000/svg">
  <g clip-path="url(#clip0_36084_57020)">
    <path d="M99.5591 78.4531L11.5345 78.4531" stroke="#002A3A" stroke-width="1.18333" stroke-linecap="round" stroke-linejoin="round"/>
    <path d="M77.7183 24.7241C81.6395 24.7241 84.8183 27.9029 84.8183 31.8241V71.4976C84.8183 75.4188 81.6395 78.5976 77.7183 78.5976H26.9934C25.2102 78.5974 23.5 77.891 22.2391 76.6338C20.9782 75.3765 20.2697 73.6714 20.2695 71.8933V27.6977C20.2695 23.7764 23.4483 20.5977 27.3695 20.5977H40.7795C42.4873 20.5977 44.1077 21.353 45.2059 22.6609C46.3042 23.9688 47.9246 24.7241 49.6324 24.7241H77.7183Z" fill="#002A3A"/>
    <path fill-rule="evenodd" clip-rule="evenodd" d="M7.77578 0.652344C3.85456 0.652344 0.675781 3.83113 0.675781 7.75235V20.7873C0.675781 24.7085 3.85456 27.8873 7.77578 27.8873H16.6535L26.2932 35.5478C26.6809 35.8559 27.2529 35.5798 27.2529 35.0846V27.7924C30.6205 27.2371 33.1891 24.3121 33.1891 20.7873V7.75234C33.1891 3.83112 30.0103 0.652344 26.0891 0.652344H7.77578Z" fill="#C11D1D"/>
    <path d="M34.3104 71.8968V71.8968V39.9984C34.3104 36.404 37.2243 33.4901 40.8187 33.4901H91.1702C94.7647 33.4901 97.6786 36.404 97.6786 39.9984V71.8968C97.6784 73.5173 97.0327 75.0718 95.8829 76.2182C94.733 77.3647 93.1732 78.0092 91.5463 78.0094H30.9884C31.41 77.7354 31.8053 77.4167 32.1666 77.0565C33.5389 75.6884 34.3102 73.8325 34.3104 71.8968Z" fill="white" stroke="#002A3A" stroke-width="1.18333"/>
    <ellipse cx="1.60737" cy="3.28154" rx="1.60737" ry="3.28154" transform="matrix(-1 0 0 1 79.3882 49.5977)" fill="#002A3A"/>
    <ellipse cx="1.60736" cy="3.28154" rx="1.60736" ry="3.28154" transform="matrix(-1 0 0 1 55.9663 49.5977)" fill="#002A3A"/>
    <path d="M61.248 61.3359C61.6013 60.1718 63.191 58.3527 66.6354 58.3527C69.9914 58.3527 71.4045 60.3173 71.5811 61.3359" stroke="#002A3A" stroke-width="1.18333" stroke-linecap="round" stroke-linejoin="round"/>
    <path d="M9.30957 9.85275C10.528 8.65611 11.6957 7.40745 12.9142 6.21081C13.1681 5.95067 13.4219 6.21081 13.625 6.3669C14.2342 6.9392 14.8435 7.56353 15.4527 8.18786C15.9604 8.70814 16.5189 9.22841 17.0266 9.74869C17.2296 10.0088 17.3819 10.0088 17.6358 9.74869C18.6512 8.60408 19.8189 7.61556 20.8343 6.52298C21.3927 5.95067 21.3927 5.95067 22.002 6.52298C23.1697 7.56353 24.1343 8.81219 25.302 9.90477C24.1343 11.1014 22.9666 12.298 21.7989 13.4427C21.1897 14.067 21.1389 14.119 21.7989 14.5873C22.8651 15.6798 23.8805 16.7724 24.9466 17.865C25.0482 17.9691 25.2005 18.1251 25.302 18.2292C24.1343 19.4258 22.9158 20.6225 21.7481 21.8711C21.4435 22.1833 21.2912 22.1313 21.0374 21.8711C20.022 20.7265 18.8035 19.686 17.7881 18.4893C17.3819 17.9691 17.2804 18.0211 16.8235 18.4893C15.7065 19.6339 14.6404 20.8306 13.4727 21.9232C13.2696 22.1313 13.1681 22.0792 12.965 21.9232C12.4573 21.5069 12.1019 20.9867 11.645 20.5184C10.8834 19.738 10.1219 18.9576 9.36034 18.1772C10.528 16.9805 11.645 15.8359 12.8127 14.6393C13.5742 13.8589 13.4219 14.015 12.8127 13.3906C11.645 12.246 10.4773 11.0494 9.30957 9.85275Z" fill="white"/>
    <path d="M46.7642 65.3918C44.7281 62.8004 47.4429 58.543 48.9854 56.1367L48.9855 56.1368C49.7259 57.6177 51.2067 60.5792 51.3918 63.1706C51.5504 65.3918 48.8914 68.0992 46.7642 65.3918Z" fill="#00AFFF"/>
  </g>
  <defs>
    <clipPath id="clip0_36084_57020">
      <rect width="100" height="79" fill="white" transform="matrix(-1 0 0 1 100 0)"/>
    </clipPath>
  </defs>
</svg>
