<svg width="142" height="100" viewBox="0 0 142 100" fill="none" xmlns="http://www.w3.org/2000/svg">
<g id="Predlogeniya">
<g id="Group 88971">
<g id="Group 88520" filter="url(#filter0_b_43671_124814)">
<g id="Subtract">
<path fill-rule="evenodd" clip-rule="evenodd" d="M113.757 67.8244C107.98 67.6892 106.395 74.5247 106.325 77.9593H89.4331H72.5416C74.0196 75.4678 73.7662 69.4906 68.1075 68.0355C60.7175 66.1352 58.0993 73.5675 58.3949 77.7904C56.0864 77.8748 51.3427 77.3681 50.8359 74.6654C50.0501 71.9067 50.0114 68.2982 50.0903 66.8387L50.0903 66.8386L50.0907 66.835C50.2302 65.4258 50.5192 62.5062 50.7095 60.2232C50.9122 57.7908 52.089 55.7751 52.652 55.0712L59.1553 46.8788C60.3039 45.3924 61.9846 44.9363 62.9981 44.9363C62.9981 44.9363 71.1016 44.8115 76.4269 44.9363C76.9912 44.9496 77.6003 44.9616 78.2427 44.9742C83.7528 45.083 91.7173 45.2401 95.0076 46.6255C95.7264 46.9281 96.3026 47.3716 96.4855 47.5968L106.367 58.7241C109.142 58.9236 112.413 59.3005 115.995 60.0965C120.79 61.1619 123.698 62.5081 124.972 63.2524C125.105 63.3304 125.078 63.5257 124.929 63.5689L125.687 63.3481L127.361 70.5246C127.979 70.6235 128.472 71.1245 128.706 71.7939C128.91 72.3757 128.748 72.9763 128.664 73.1874L127.861 76.7769C127.692 77.6637 126.848 78.086 126.214 78.086L120.387 78.2549C121.992 74.2009 120.978 67.9933 113.757 67.8244ZM94.3984 60.4405L64.0944 59.8956C63.7573 59.8901 63.5194 59.563 63.6182 59.2405L66.6902 49.2073C67.1057 47.8503 68.3631 46.9273 69.7822 46.9376L88.1434 47.0702C89.8049 47.0822 91.3621 47.882 92.3397 49.2255L98.373 57.4665L96.1555 57.4177C95.5041 57.4034 94.9353 57.8559 94.8028 58.4939L94.3984 60.4405Z" fill="white"/>
<path d="M106.325 77.9593L106.825 77.9695C106.819 78.2416 106.597 78.4593 106.325 78.4593V77.9593ZM113.757 67.8244L113.745 68.3242L113.757 67.8244ZM72.5416 77.9593V78.4593C72.3619 78.4593 72.196 78.3629 72.1071 78.2067C72.0182 78.0506 72.0199 77.8587 72.1115 77.7042L72.5416 77.9593ZM68.1075 68.0355L68.2321 67.5513L68.1075 68.0355ZM58.3949 77.7904L58.8937 77.7555C58.9031 77.8906 58.8573 78.0238 58.7668 78.1246C58.6762 78.2254 58.5486 78.2851 58.4132 78.29L58.3949 77.7904ZM50.8359 74.6654L51.3168 74.5284C51.321 74.5432 51.3245 74.5582 51.3274 74.5733L50.8359 74.6654ZM50.0903 66.8387L49.591 66.8117C49.5921 66.7921 49.5943 66.7725 49.5977 66.7531L50.0903 66.8387ZM50.0903 66.8386L50.5878 66.8887C50.5866 66.9006 50.585 66.9125 50.5829 66.9243L50.0903 66.8386ZM50.0907 66.835L50.5882 66.8842L50.5881 66.8851L50.0907 66.835ZM50.7095 60.2232L50.2112 60.1816V60.1816L50.7095 60.2232ZM52.652 55.0712L53.0436 55.3821L53.0425 55.3836L52.652 55.0712ZM59.1553 46.8788L59.5509 47.1846L59.5469 47.1897L59.1553 46.8788ZM62.9981 44.9363L63.0058 45.4363H62.9981V44.9363ZM76.4269 44.9363L76.4152 45.4362L76.4269 44.9363ZM78.2427 44.9742L78.2525 44.4743L78.2427 44.9742ZM95.0076 46.6255L95.2016 46.1647V46.1647L95.0076 46.6255ZM96.4855 47.5968L96.1117 47.9288C96.1068 47.9233 96.1021 47.9177 96.0975 47.9121L96.4855 47.5968ZM106.367 58.7241L106.331 59.2228C106.201 59.2134 106.08 59.1536 105.993 59.0561L106.367 58.7241ZM115.995 60.0965L115.887 60.5846L115.995 60.0965ZM124.972 63.2524L125.224 62.8207L125.224 62.8207L124.972 63.2524ZM125.069 64.049C124.804 64.1262 124.526 63.9739 124.449 63.7088C124.372 63.4437 124.524 63.1662 124.789 63.0889L125.069 64.049ZM125.687 63.3481L125.547 62.8681C125.679 62.8296 125.821 62.8471 125.939 62.9164C126.058 62.9857 126.143 63.1007 126.174 63.2345L125.687 63.3481ZM127.361 70.5246L127.282 71.0183C127.082 70.9862 126.921 70.836 126.874 70.6382L127.361 70.5246ZM128.706 71.7939L128.234 71.959H128.234L128.706 71.7939ZM128.664 73.1874L128.176 73.0783C128.182 73.0522 128.19 73.0266 128.2 73.0017L128.664 73.1874ZM127.861 76.7769L127.37 76.6833C127.371 76.6781 127.372 76.673 127.373 76.6678L127.861 76.7769ZM126.214 78.086L126.2 77.5862C126.205 77.586 126.21 77.586 126.214 77.586V78.086ZM120.387 78.2549L120.401 78.7547C120.233 78.7596 120.074 78.6796 119.977 78.5419C119.881 78.4042 119.86 78.2272 119.922 78.0709L120.387 78.2549ZM64.0944 59.8956L64.1026 59.3956L64.1034 59.3957L64.0944 59.8956ZM94.3984 60.4405L94.8879 60.5422C94.839 60.7775 94.6297 60.9448 94.3894 60.9405L94.3984 60.4405ZM63.6182 59.2405L64.0963 59.3869V59.3869L63.6182 59.2405ZM66.6902 49.2073L66.2121 49.0609V49.0609L66.6902 49.2073ZM69.7822 46.9376L69.7858 46.4376L69.7822 46.9376ZM88.1434 47.0702L88.1398 47.5701L88.1434 47.0702ZM92.3397 49.2255L91.9363 49.5208L91.9354 49.5197L92.3397 49.2255ZM98.373 57.4665L98.7765 57.1711C98.8889 57.3247 98.9044 57.5287 98.8164 57.6975C98.7285 57.8663 98.5523 57.9705 98.3621 57.9663L98.373 57.4665ZM96.1555 57.4177L96.1445 57.9176L96.1555 57.4177ZM94.8028 58.4939L95.2923 58.5956V58.5956L94.8028 58.4939ZM101.202 56.6096L101.589 56.2929L101.202 56.6096ZM95.5102 49.6555L95.8972 49.3388V49.3388L95.5102 49.6555ZM106.403 58.2253C106.678 58.2452 106.886 58.4845 106.866 58.7599C106.846 59.0354 106.607 59.2426 106.331 59.2228L106.403 58.2253ZM105.262 58.6518L105.232 59.1509L105.262 58.6518ZM126.59 70.6299L126.658 71.1253C126.402 71.1602 126.162 70.9953 126.103 70.7444L126.59 70.6299ZM127.294 70.0292C127.567 69.9919 127.819 70.1834 127.857 70.457C127.894 70.7306 127.703 70.9827 127.429 71.02L127.294 70.0292ZM124.442 63.6834C124.379 63.4146 124.546 63.1455 124.815 63.0822C125.083 63.019 125.353 63.1856 125.416 63.4544L124.442 63.6834ZM125.76 67.0994L126.246 66.9849L125.76 67.0994ZM96.4855 47.0968C96.7617 47.0968 96.9855 47.3206 96.9855 47.5968C96.9855 47.8729 96.7617 48.0968 96.4855 48.0968V47.0968ZM105.825 77.9491C105.861 76.1801 106.285 73.5293 107.459 71.3186C108.643 69.0912 110.631 67.2511 113.769 67.3245L113.745 68.3242C111.106 68.2625 109.413 69.7726 108.342 71.7878C107.263 73.8197 106.859 76.3039 106.825 77.9695L105.825 77.9491ZM89.4331 77.4593H106.325V78.4593H89.4331V77.4593ZM72.5416 77.4593H89.4331V78.4593H72.5416V77.4593ZM68.2321 67.5513C71.248 68.3268 72.8496 70.3275 73.4804 72.4674C74.1009 74.5724 73.7896 76.8356 72.9716 78.2144L72.1115 77.7042C72.7716 76.5915 73.0725 74.6203 72.5212 72.7501C71.9802 70.9147 70.6258 69.1993 67.983 68.5198L68.2321 67.5513ZM57.8961 77.8253C57.7416 75.6183 58.3424 72.5839 59.9628 70.3253C60.7786 69.1883 61.8626 68.2351 63.2502 67.6979C64.6407 67.1596 66.2981 67.054 68.2321 67.5513L67.983 68.5198C66.222 68.0669 64.7808 68.1777 63.6112 68.6305C62.4387 69.0844 61.501 69.8968 60.7754 70.9082C59.3131 72.9463 58.7526 75.7396 58.8937 77.7555L57.8961 77.8253ZM51.3274 74.5733C51.5243 75.6234 52.5708 76.3476 54.0813 76.7935C55.5521 77.2277 57.2579 77.3316 58.3766 77.2907L58.4132 78.29C57.2234 78.3336 55.4031 78.2264 53.7982 77.7526C52.233 77.2906 50.6544 76.4101 50.3445 74.7576L51.3274 74.5733ZM50.5895 66.8657C50.5119 68.3028 50.5531 71.8475 51.3168 74.5284L50.3551 74.8024C49.5471 71.966 49.5109 68.2935 49.591 66.8117L50.5895 66.8657ZM50.5829 66.9243L50.5829 66.9244L49.5977 66.7531L49.5977 66.7529L50.5829 66.9243ZM50.5881 66.8851L50.5878 66.8887L49.5928 66.7885L49.5932 66.7848L50.5881 66.8851ZM51.2078 60.2647C51.0171 62.5523 50.7277 65.4759 50.5882 66.8842L49.5931 66.7857C49.7327 65.3758 50.0214 62.4601 50.2112 60.1816L51.2078 60.2647ZM53.0425 55.3836C52.527 56.0279 51.4005 57.952 51.2078 60.2647L50.2112 60.1816C50.4239 57.6295 51.6509 55.5222 52.2616 54.7589L53.0425 55.3836ZM59.5469 47.1897L53.0436 55.3821L52.2604 54.7604L58.7636 46.568L59.5469 47.1897ZM62.9981 45.4363C62.1031 45.4363 60.5846 45.8468 59.5509 47.1846L58.7596 46.5731C60.0232 44.938 61.8661 44.4363 62.9981 44.4363V45.4363ZM76.4152 45.4362C73.7601 45.374 70.4089 45.3739 67.7184 45.3895C66.3738 45.3973 65.1954 45.409 64.3533 45.4187C63.9322 45.4236 63.5952 45.428 63.3635 45.4312C63.2477 45.4327 63.1582 45.434 63.0977 45.4349C63.0674 45.4353 63.0444 45.4357 63.029 45.4359C63.0213 45.436 63.0155 45.4361 63.0116 45.4362C63.0097 45.4362 63.0082 45.4362 63.0072 45.4362C63.0068 45.4362 63.0064 45.4363 63.0061 45.4363C63.006 45.4363 63.0059 45.4363 63.0059 45.4363C63.0058 45.4363 63.0058 45.4363 62.9981 44.9363C62.9904 44.4364 62.9904 44.4364 62.9905 44.4364C62.9906 44.4364 62.9907 44.4364 62.9908 44.4364C62.9911 44.4364 62.9914 44.4364 62.9919 44.4364C62.9929 44.4363 62.9944 44.4363 62.9964 44.4363C63.0004 44.4362 63.0062 44.4361 63.014 44.436C63.0296 44.4358 63.0527 44.4354 63.0831 44.435C63.1439 44.4341 63.2337 44.4328 63.3499 44.4312C63.5822 44.4281 63.9199 44.4237 64.3417 44.4188C65.1853 44.409 66.3657 44.3973 67.7126 44.3895C70.4052 44.3739 73.7684 44.3739 76.4386 44.4365L76.4152 45.4362ZM78.2328 45.4742C77.5906 45.4615 76.9806 45.4494 76.4152 45.4362L76.4386 44.4365C77.0019 44.4497 77.6099 44.4617 78.2525 44.4743L78.2328 45.4742ZM94.8135 47.0863C93.2542 46.4297 90.5192 46.0463 87.4211 45.8198C84.3455 45.5949 80.9903 45.5286 78.2328 45.4742L78.2525 44.4743C81.0051 44.5287 84.3873 44.5953 87.494 44.8224C90.5783 45.048 93.4706 45.4358 95.2016 46.1647L94.8135 47.0863ZM96.0975 47.9121C96.0498 47.8534 95.9048 47.7178 95.6639 47.552C95.432 47.3922 95.138 47.2229 94.8135 47.0863L95.2016 46.1647C95.5959 46.3307 95.9495 46.5344 96.2311 46.7284C96.5038 46.9162 96.7383 47.1149 96.8736 47.2815L96.0975 47.9121ZM105.993 59.0561L96.1117 47.9288L96.8594 47.2648L106.741 58.392L105.993 59.0561ZM115.887 60.5846C112.335 59.7953 109.089 59.4211 106.331 59.2228L106.403 58.2253C109.195 58.4262 112.491 58.8057 116.104 59.6084L115.887 60.5846ZM124.72 63.6841C123.497 62.9698 120.639 61.6406 115.887 60.5846L116.104 59.6084C120.941 60.6833 123.899 62.0465 125.224 62.8207L124.72 63.6841ZM124.789 63.0889C124.54 63.1615 124.453 63.5283 124.72 63.6841L125.224 62.8207C125.758 63.1326 125.615 63.8898 125.069 64.049L124.789 63.0889ZM125.827 63.8281L125.069 64.049L124.789 63.0889L125.547 62.8681L125.827 63.8281ZM126.874 70.6382L125.2 63.4617L126.174 63.2345L127.848 70.411L126.874 70.6382ZM128.234 71.959C128.041 71.4086 127.668 71.08 127.282 71.0183L127.44 70.0309C128.29 70.1669 128.902 70.8405 129.178 71.6287L128.234 71.959ZM128.2 73.0017C128.263 72.8444 128.381 72.379 128.234 71.959L129.178 71.6287C129.438 72.3725 129.234 73.1081 129.128 73.3731L128.2 73.0017ZM127.373 76.6678L128.176 73.0783L129.152 73.2965L128.349 76.886L127.373 76.6678ZM126.214 77.586C126.684 77.586 127.259 77.2666 127.37 76.6833L128.353 76.8704C128.126 78.0608 127.012 78.586 126.214 78.586V77.586ZM120.372 77.7551L126.2 77.5862L126.229 78.5858L120.401 78.7547L120.372 77.7551ZM113.769 67.3245C117.547 67.4129 119.791 69.1001 120.836 71.374C121.86 73.6042 121.692 76.315 120.852 78.4389L119.922 78.0709C120.686 76.1408 120.814 73.7208 119.927 71.7915C119.061 69.9058 117.188 68.4048 113.745 68.3242L113.769 67.3245ZM64.1034 59.3957L94.4074 59.9406L94.3894 60.9405L64.0854 60.3955L64.1034 59.3957ZM64.0963 59.3869C64.0959 59.388 64.0958 59.3887 64.0957 59.3891C64.0956 59.3895 64.0956 59.3897 64.0956 59.3897C64.0956 59.3898 64.0956 59.3897 64.0956 59.3897C64.0956 59.3897 64.0956 59.3896 64.0956 59.3897C64.0956 59.3898 64.096 59.3911 64.0972 59.3929C64.0985 59.3946 64.0997 59.3953 64.0998 59.3954C64.0998 59.3954 64.0998 59.3954 64.0998 59.3954C64.0997 59.3954 64.0997 59.3954 64.0998 59.3954C64.0998 59.3954 64.1 59.3954 64.1004 59.3955C64.1008 59.3956 64.1015 59.3956 64.1026 59.3957L64.0863 60.3955C63.4164 60.3846 62.9439 59.7347 63.1401 59.0942L64.0963 59.3869ZM67.1683 49.3537L64.0963 59.3869L63.1401 59.0942L66.2121 49.0609L67.1683 49.3537ZM69.7786 47.4376C68.5806 47.4289 67.5191 48.2081 67.1683 49.3537L66.2121 49.0609C66.6924 47.4925 68.1456 46.4258 69.7858 46.4376L69.7786 47.4376ZM88.1398 47.5701L69.7786 47.4376L69.7858 46.4376L88.147 46.5702L88.1398 47.5701ZM91.9354 49.5197C91.0512 48.3044 89.6426 47.581 88.1398 47.5701L88.147 46.5702C89.9672 46.5833 91.6731 47.4595 92.744 48.9313L91.9354 49.5197ZM97.9696 57.7618L91.9363 49.5208L92.7431 48.9301L98.7765 57.1711L97.9696 57.7618ZM96.1665 56.9178L98.384 56.9666L98.3621 57.9663L96.1445 57.9176L96.1665 56.9178ZM94.3132 58.3922C94.4948 57.5182 95.2741 56.8982 96.1665 56.9178L96.1445 57.9176C95.7342 57.9086 95.3758 58.1937 95.2923 58.5956L94.3132 58.3922ZM93.9088 60.3388L94.3132 58.3922L95.2923 58.5956L94.8879 60.5422L93.9088 60.3388ZM100.815 56.9263L95.1233 49.9722L95.8972 49.3388L101.589 56.2929L100.815 56.9263ZM106.331 59.2228C105.956 59.1958 105.589 59.172 105.232 59.1509L105.291 58.1527C105.652 58.174 106.023 58.198 106.403 58.2253L106.331 59.2228ZM126.522 70.1345L127.294 70.0292L127.429 71.02L126.658 71.1253L126.522 70.1345ZM125.416 63.4544L126.246 66.9849L125.273 67.2139L124.442 63.6834L125.416 63.4544ZM126.246 66.9849L127.077 70.5154L126.103 70.7444L125.273 67.2139L126.246 66.9849ZM95.1233 49.9722C94.1826 48.8228 95.0003 47.0968 96.4855 47.0968V48.0968C95.844 48.0968 95.4908 48.8423 95.8972 49.3388L95.1233 49.9722ZM101.589 56.2929C102.499 57.4038 103.846 58.0672 105.291 58.1527L105.232 59.1509C103.52 59.0498 101.909 58.2628 100.815 56.9263L101.589 56.2929Z" fill="#002A3A"/>
</g>
<path id="Vector 362" d="M128.664 73.1875C128.748 72.9764 128.91 72.3759 128.706 71.794C128.472 71.1247 127.972 70.6145 127.355 70.5156" stroke="#002A3A" stroke-linecap="round" stroke-linejoin="round"/>
<path id="Vector 363" d="M127.31 70.3152C127.718 69.9211 128.433 68.6261 128.028 66.5991C127.623 64.5721 126.339 63.7275 125.748 63.5586" stroke="#002A3A" stroke-linecap="round" stroke-linejoin="round"/>
<path id="Vector 361" d="M127.988 75.9333L127.862 76.7778C127.693 77.6647 126.848 78.0869 126.215 78.0869L120.387 78.2559C121.992 74.2019 120.978 67.9942 113.757 67.8253C107.98 67.6902 106.395 74.5256 106.325 77.9603H89.4333H72.5418C74.0198 75.4687 73.7664 69.4916 68.1078 68.0365C60.7177 66.1362 58.0995 73.5684 58.3951 77.7913C56.0866 77.8758 51.3429 77.369 50.8362 74.6664C50.41 72.3936 49.8636 69.2092 50.0808 67.0371" stroke="#002A3A" stroke-linecap="round" stroke-linejoin="round"/>
<g id="Subtract_2">
<mask id="path-6-inside-1_43671_124814" fill="white">
<path fill-rule="evenodd" clip-rule="evenodd" d="M111.767 81.7544C108.353 80.6752 106.517 76.8549 107.665 73.2214C108.814 69.5879 112.512 67.5172 115.927 68.5964C119.341 69.6756 121.177 73.4959 120.029 77.1294C118.88 80.7629 115.182 82.8336 111.767 81.7544ZM112.485 78.6599C110.95 78.1747 110.178 76.2898 110.759 74.4497C111.341 72.6096 113.057 71.5111 114.591 71.9963C116.126 72.4814 116.899 74.3663 116.317 76.2064C115.735 78.0465 114.02 79.145 112.485 78.6599Z"/>
</mask>
<path fill-rule="evenodd" clip-rule="evenodd" d="M111.767 81.7544C108.353 80.6752 106.517 76.8549 107.665 73.2214C108.814 69.5879 112.512 67.5172 115.927 68.5964C119.341 69.6756 121.177 73.4959 120.029 77.1294C118.88 80.7629 115.182 82.8336 111.767 81.7544ZM112.485 78.6599C110.95 78.1747 110.178 76.2898 110.759 74.4497C111.341 72.6096 113.057 71.5111 114.591 71.9963C116.126 72.4814 116.899 74.3663 116.317 76.2064C115.735 78.0465 114.02 79.145 112.485 78.6599Z" fill="#002A3A"/>
<path d="M107.665 73.2214L106.712 72.92L107.665 73.2214ZM111.767 81.7544L111.466 82.7079H111.466L111.767 81.7544ZM115.927 68.5964L115.625 69.5499V69.5499L115.927 68.5964ZM120.029 77.1294L120.982 77.4308L120.029 77.1294ZM110.759 74.4497L109.806 74.1483V74.1483L110.759 74.4497ZM112.485 78.6599L112.184 79.6134H112.184L112.485 78.6599ZM114.591 71.9963L114.893 71.0428L114.591 71.9963ZM116.317 76.2064L115.364 75.905L116.317 76.2064ZM108.619 73.5228C107.619 76.6865 109.236 79.9056 112.069 80.8009L111.466 82.7079C107.47 81.4449 105.415 77.0233 106.712 72.92L108.619 73.5228ZM115.625 69.5499C112.793 68.6546 109.619 70.3591 108.619 73.5228L106.712 72.92C108.009 68.8167 112.232 66.3799 116.228 67.6429L115.625 69.5499ZM119.075 76.828C120.075 73.6644 118.458 70.4452 115.625 69.5499L116.228 67.6429C120.224 68.9059 122.279 73.3275 120.982 77.4308L119.075 76.828ZM112.069 80.8009C114.901 81.6962 118.075 79.9917 119.075 76.828L120.982 77.4308C119.685 81.5341 115.462 83.971 111.466 82.7079L112.069 80.8009ZM111.713 74.7511C111.244 76.2339 111.933 77.4366 112.786 77.7064L112.184 79.6134C109.968 78.9129 109.111 76.3457 109.806 74.1483L111.713 74.7511ZM114.29 72.9498C113.436 72.68 112.181 73.2682 111.713 74.7511L109.806 74.1483C110.5 71.9509 112.677 70.3423 114.893 71.0428L114.29 72.9498ZM115.364 75.905C115.832 74.4222 115.143 73.2195 114.29 72.9498L114.893 71.0428C117.109 71.7432 117.965 74.3105 117.271 76.5078L115.364 75.905ZM112.786 77.7064C113.64 77.9761 114.895 77.3879 115.364 75.905L117.271 76.5078C116.576 78.7052 114.4 80.3138 112.184 79.6134L112.786 77.7064Z" fill="#002A3A" mask="url(#path-6-inside-1_43671_124814)"/>
</g>
<g id="Subtract_3">
<mask id="path-8-inside-2_43671_124814" fill="white">
<path fill-rule="evenodd" clip-rule="evenodd" d="M64.1894 81.7544C60.7752 80.6752 58.9386 76.8549 60.0871 73.2214C61.2356 69.5879 64.9343 67.5172 68.3485 68.5964C71.7626 69.6756 73.5993 73.4959 72.4508 77.1294C71.3023 80.7629 67.6035 82.8336 64.1894 81.7544ZM64.9069 78.6599C63.3722 78.1747 62.5995 76.2898 63.1812 74.4497C63.7628 72.6096 65.4784 71.5111 67.0132 71.9963C68.5479 72.4814 69.3206 74.3663 68.7389 76.2064C68.1573 78.0465 66.4416 79.145 64.9069 78.6599Z"/>
</mask>
<path fill-rule="evenodd" clip-rule="evenodd" d="M64.1894 81.7544C60.7752 80.6752 58.9386 76.8549 60.0871 73.2214C61.2356 69.5879 64.9343 67.5172 68.3485 68.5964C71.7626 69.6756 73.5993 73.4959 72.4508 77.1294C71.3023 80.7629 67.6035 82.8336 64.1894 81.7544ZM64.9069 78.6599C63.3722 78.1747 62.5995 76.2898 63.1812 74.4497C63.7628 72.6096 65.4784 71.5111 67.0132 71.9963C68.5479 72.4814 69.3206 74.3663 68.7389 76.2064C68.1573 78.0465 66.4416 79.145 64.9069 78.6599Z" fill="#002A3A"/>
<path d="M60.0871 73.2214L59.1336 72.92L60.0871 73.2214ZM64.1894 81.7544L63.888 82.7079H63.888L64.1894 81.7544ZM68.3485 68.5964L68.0471 69.5499V69.5499L68.3485 68.5964ZM72.4508 77.1294L73.4043 77.4308L72.4508 77.1294ZM63.1812 74.4497L62.2276 74.1483V74.1483L63.1812 74.4497ZM64.9069 78.6599L64.6055 79.6134H64.6055L64.9069 78.6599ZM67.0132 71.9963L67.3146 71.0428L67.0132 71.9963ZM68.7389 76.2064L67.7854 75.905L68.7389 76.2064ZM61.0406 73.5228C60.0406 76.6865 61.6583 79.9056 64.4908 80.8009L63.888 82.7079C59.8922 81.4449 57.8366 77.0233 59.1336 72.92L61.0406 73.5228ZM68.0471 69.5499C65.2146 68.6546 62.0406 70.3591 61.0406 73.5228L59.1336 72.92C60.4306 68.8167 64.6541 66.3799 68.6499 67.6429L68.0471 69.5499ZM71.4973 76.828C72.4973 73.6644 70.8796 70.4452 68.0471 69.5499L68.6499 67.6429C72.6457 68.9059 74.7013 73.3275 73.4043 77.4308L71.4973 76.828ZM64.4908 80.8009C67.3232 81.6962 70.4973 79.9917 71.4973 76.828L73.4043 77.4308C72.1073 81.5341 67.8838 83.971 63.888 82.7079L64.4908 80.8009ZM64.1347 74.7511C63.6659 76.2339 64.3549 77.4366 65.2083 77.7064L64.6055 79.6134C62.3894 78.9129 61.5331 76.3457 62.2276 74.1483L64.1347 74.7511ZM66.7118 72.9498C65.8584 72.68 64.6034 73.2682 64.1347 74.7511L62.2276 74.1483C62.9222 71.9509 65.0985 70.3423 67.3146 71.0428L66.7118 72.9498ZM67.7854 75.905C68.2541 74.4222 67.5652 73.2195 66.7118 72.9498L67.3146 71.0428C69.5306 71.7432 70.387 74.3105 69.6924 76.5078L67.7854 75.905ZM65.2083 77.7064C66.0617 77.9761 67.3167 77.3879 67.7854 75.905L69.6924 76.5078C68.9979 78.7052 66.8215 80.3138 64.6055 79.6134L65.2083 77.7064Z" fill="#002A3A" mask="url(#path-8-inside-2_43671_124814)"/>
</g>
<path id="Rectangle 5360" d="M128.683 73.5686C128.684 73.5669 128.684 73.5662 128.684 73.5661L128.684 73.5659C128.683 73.5657 128.683 73.5645 128.682 73.563C128.681 73.5615 128.68 73.5609 128.679 73.5608L128.679 73.5607C128.679 73.5607 128.678 73.5605 128.677 73.5605H122.878C122.876 73.5605 122.875 73.5608 122.875 73.5609L122.875 73.5609C122.875 73.5611 122.874 73.5615 122.873 73.5625C122.872 73.5635 122.871 73.5644 122.871 73.5648L122.871 73.5648C122.871 73.565 122.871 73.5655 122.871 73.5673V75.6787C122.871 75.6805 122.871 75.681 122.871 75.6812L122.871 75.6812C122.871 75.6817 122.872 75.6825 122.873 75.6835C122.873 75.6839 122.874 75.6842 122.874 75.6845C122.875 75.6848 122.875 75.685 122.875 75.6852L122.875 75.6852C122.875 75.6852 122.876 75.6855 122.878 75.6855H128.249C128.252 75.6855 128.255 75.6832 128.255 75.6801L128.683 73.5686Z" fill="#002A3A" stroke="#002A3A" stroke-linecap="round" stroke-linejoin="round"/>
<path id="Vector 366" d="M96.4844 47.5968C96.3014 47.3715 95.7252 46.9281 95.0064 46.6255C91.3325 45.0786 81.831 45.063 76.4257 44.9363C71.1004 44.8115 62.9969 44.9363 62.9969 44.9363C61.9834 44.9363 60.3027 45.3924 59.1541 46.8788L52.6508 55.0712C52.0878 55.7751 50.911 57.7908 50.7083 60.2232C50.5056 62.6555 50.2015 65.8255 50.0749 67.1065" stroke="#002A3A" stroke-linecap="round" stroke-linejoin="round"/>
<path id="Rectangle 5362" d="M50.7505 59.9707H52.6931C53.2994 59.9707 53.791 60.4623 53.791 61.0687V64.7003C53.791 65.3067 53.2994 65.7983 52.6931 65.7983H50.2438" stroke="#002A3A" stroke-linecap="round" stroke-linejoin="round"/>
<path id="Rectangle 5363" d="M54.8945 74.1571V71.9479L50.1514 71.8781V74.0874L54.8945 74.1571Z" fill="#002A3A" stroke="#002A3A" stroke-linecap="round" stroke-linejoin="round"/>
<path id="Vector 369" d="M101.343 59.8006C101.892 60.6874 101.54 61.4616 101.343 61.7432L100.752 61.4053L100.014 62.0985C99.5935 62.4932 99.035 62.7069 98.4587 62.6934L95.27 62.6186C94.5845 62.6026 94.0813 61.969 94.2207 61.2976L94.8031 58.4944C94.9356 57.8565 95.5045 57.404 96.1559 57.4183L98.8746 57.4781C99.4153 57.4781 99.9216 57.7436 100.229 58.1885L101.343 59.8006Z" stroke="#002A3A" stroke-linecap="round" stroke-linejoin="round"/>
<path id="Vector 370" d="M101.637 60.9414V63.3485L99.2942 77.9575" stroke="#002A3A" stroke-linecap="round" stroke-linejoin="round"/>
<path id="Vector 372" d="M94.4165 60.3913L64.0939 59.8956C63.7568 59.8901 63.5189 59.563 63.6177 59.2405L66.6897 49.2073C67.1052 47.8503 68.3626 46.9273 69.7817 46.9376L88.1429 47.0702C89.8044 47.0822 91.3616 47.882 92.3392 49.2255L98.3438 57.4775" stroke="#002A3A" stroke-linecap="round" stroke-linejoin="round"/>
<path id="Vector 374" d="M75.0742 46.9629L73.5118 60.0116" stroke="#002A3A" stroke-linecap="round" stroke-linejoin="round"/>
<path id="Vector 375" d="M73.3008 46.9629L71.7383 60.0116" stroke="#002A3A" stroke-linecap="round" stroke-linejoin="round"/>
</g>
<path id="Vector 762" d="M13 81.834H135.304" stroke="#002A3A" stroke-linecap="round" stroke-linejoin="round"/>
</g>
<g id="Group 89036">
<g id="Group 89024">
<g id="Rectangle 5609">
<path d="M59.8105 37.1084C59.8105 33.8287 57.1518 31.1699 53.8721 31.1699H37.5413C34.2616 31.1699 31.6028 33.8287 31.6028 37.1084V75.7084C31.6028 78.9881 34.2616 81.6469 37.5413 81.6469H53.8721C57.1518 81.6469 59.8105 78.9881 59.8105 75.7084V37.1084Z" fill="#002A3A"/>
</g>
<g id="Rectangle 5610">
<path d="M57.584 38.5075C57.584 35.6847 55.2957 33.3965 52.473 33.3965H38.9411C36.1184 33.3965 33.8301 35.6847 33.8301 38.5075V74.3086C33.8301 77.1313 36.1184 79.4196 38.9411 79.4196H52.473C55.2957 79.4196 57.584 77.1313 57.584 74.3086V38.5075Z" fill="white"/>
</g>
</g>
<ellipse id="Ellipse 259" cx="1.51666" cy="3.03332" rx="1.51666" ry="3.03332" transform="matrix(-1 0 0 1 55.0605 50.6211)" fill="#002A3A"/>
<ellipse id="Ellipse 260" cx="1.51666" cy="3.03332" rx="1.51666" ry="3.03332" transform="matrix(-1 0 0 1 39.5 50.6211)" fill="#002A3A"/>
<path id="Vector 496" d="M49.6484 56.1816C49.3892 57.1681 48.2225 58.7094 45.6948 58.7094C43.2318 58.7094 42.1948 57.0448 42.0651 56.1816" stroke="#002A3A" stroke-linecap="round"/>
</g>
<g id="Group 89037">
<path id="Union" fill-rule="evenodd" clip-rule="evenodd" d="M23.3165 15C20.3803 15 18 17.3803 18 20.3165V29.3252C18 32.2614 20.3803 34.6417 23.3165 34.6417H31.1129L37.8834 40.1313C38.173 40.3662 38.6055 40.16 38.6055 39.7872V33.7556C40.038 32.8032 40.9821 31.1745 40.9821 29.3253V20.3165C40.9821 17.3803 38.6019 15 35.6657 15H23.3165Z" fill="#0DD149"/>
<path id="Vector 426 (Stroke)" fill-rule="evenodd" clip-rule="evenodd" d="M37.1129 20.8964C37.2724 21.0489 37.2741 21.3033 37.1165 21.4579L28.5701 29.8465C28.4181 29.9958 28.1745 29.9958 28.0224 29.8465L22.5518 24.4769C22.3957 24.3236 22.3956 24.0722 22.5517 23.9189L24.5822 21.9247C24.7329 21.7767 24.9739 21.7752 25.1265 21.9212L28.0202 24.6905C28.1737 24.8374 28.4164 24.8349 28.5667 24.6848L34.416 18.846C34.5664 18.696 34.8089 18.6934 34.9624 18.8401L37.1129 20.8964Z" fill="white"/>
</g>
<g id="Group 89111">
<path id="Vector 763" d="M94.088 20.9405C92.7731 42.3413 106.56 51.6146 110.744 53.9227C111.49 54.3347 112.36 54.3347 113.107 53.9227C117.29 51.6146 131.077 42.3413 129.762 20.9405C129.675 19.5185 128.556 18.4007 127.177 18.0454C122.868 16.936 117.305 14.3643 114.101 11.7534C112.932 10.8013 110.828 10.728 109.65 11.6686C106.35 14.3039 100.948 16.9147 96.6726 18.0394C95.2947 18.4019 94.1754 19.5185 94.088 20.9405Z" fill="#0DD149"/>
<path id="Vector 426 (Stroke)_2" fill-rule="evenodd" clip-rule="evenodd" d="M123.586 27.7183C123.786 27.8926 123.788 28.2025 123.591 28.3794L110.375 40.2165C110.208 40.3666 109.954 40.3666 109.786 40.2165L101.259 32.5789C101.064 32.4036 101.064 32.0971 101.259 31.9217L104.542 28.98C104.708 28.8312 104.959 28.8296 105.126 28.9762L109.784 33.044C109.953 33.1915 110.206 33.1889 110.372 33.0379L119.529 24.6965C119.695 24.5456 119.947 24.5429 120.116 24.6903L123.586 27.7183Z" fill="white"/>
</g>
</g>
<defs>
<filter id="filter0_b_43671_124814" x="45.5312" y="40.3809" width="87.7734" height="45.6602" filterUnits="userSpaceOnUse" color-interpolation-filters="sRGB">
<feFlood flood-opacity="0" result="BackgroundImageFix"/>
<feGaussianBlur in="BackgroundImageFix" stdDeviation="2"/>
<feComposite in2="SourceAlpha" operator="in" result="effect1_backgroundBlur_43671_124814"/>
<feBlend mode="normal" in="SourceGraphic" in2="effect1_backgroundBlur_43671_124814" result="shape"/>
</filter>
</defs>
</svg>
