<svg
  viewBox="0 0 95 68"
  fill="none"
  xmlns="http://www.w3.org/2000/svg"
>
  <path
    d="M39.6386 45.667H41.609C42.224 45.667 42.7227 46.1656 42.7227 46.7806V50.4642C42.7227 51.0792 42.224 51.5778 41.609 51.5778H39.1246"
    stroke="#002A3A"
    stroke-width="1.0143"
    stroke-linecap="round"
    stroke-linejoin="round"
  />
  <path
    d="M63.2227 33.2862C63.2227 32.3854 62.5154 31.6553 61.6429 31.6553H13.7477C12.8753 31.6553 12.168 32.3854 12.168 33.2862V62.1069C12.168 64.809 14.2898 66.9995 16.9073 66.9995H58.4833C61.1008 66.9995 63.2227 64.809 63.2227 62.1069V33.2862Z"
    fill="white"
    stroke="#002A3A"
    stroke-width="0.981803"
  />
  <path
    d="M12.4102 31.6699H33.2037L12.4102 48.7433V31.6699Z"
    fill="#002A3A"
  />
  <path
    d="M1.17762 40.6015C0.288322 39.4075 0.535402 37.7186 1.7295 36.8294L41.1298 7.48718C42.3239 6.5979 44.0129 6.84498 44.9022 8.03904L49.0363 13.5899C49.9256 14.7839 49.6785 16.4728 48.4844 17.362L9.0841 46.7042C7.88998 47.5935 6.20103 47.3464 5.31173 46.1524L1.17762 40.6015Z"
    fill="white"
    stroke="#002A3A"
    stroke-width="0.951459"
  />
  <path
    d="M0.765381 15.1185C6.27595 11.616 13.5694 16.1422 15.8536 18.1998L19.635 23.2771C12.1964 29.9443 5.93113 31.7301 4.04481 30.8796C-0.997027 24.11 -0.222314 15.9793 0.765381 15.1185Z"
    fill="#0DD149"
  />
  <path
    d="M20.8964 0.295941C15.9621 4.57205 18.6479 12.3645 19.965 15.1423L23.7464 20.2195C32.2653 15.0029 34.6294 9.36696 34.355 7.31613C29.3132 0.546524 22.0042 -0.403723 20.8964 0.295941Z"
    fill="#0DD149"
  />
  <path
    d="M22.1873 16.4176C21.729 12.7603 21.5483 5.57991 24.4918 6.11635C27.4354 6.65279 24.1819 13.2073 22.1873 16.4176Z"
    fill="#002A3A"
  />
  <path
    d="M15.1147 21.6393C11.4995 20.9207 4.35009 20.2272 4.67476 23.2015C4.99942 26.1758 11.77 23.3993 15.1147 21.6393Z"
    fill="#002A3A"
  />
  <path
    d="M14.538 21.9884C13.5963 20.7241 13.858 18.9359 15.1223 17.9943L18.7642 15.2821C20.0286 14.3405 21.8169 14.6021 22.7585 15.8664L23.6702 17.0905C24.6118 18.3548 24.3502 20.143 23.0858 21.0846L19.4439 23.7968C18.1795 24.7384 16.3912 24.4768 15.4496 23.2125L14.538 21.9884Z"
    fill="#002A3A"
  />
  <path
    fill-rule="evenodd"
    clip-rule="evenodd"
    d="M37.4678 53.4468C37.4678 53.4468 40.3858 50.66 35.5352 46.5947L36.7957 44.5889C36.7957 44.5889 40.8105 46.7615 40.4961 50.9699C40.4116 52.0838 39.4542 53.4933 38.1175 53.7223"
    fill="#002A3A"
  />
  <path
    fill-rule="evenodd"
    clip-rule="evenodd"
    d="M24.4648 18.927L27.3412 16.5039C27.3412 16.5039 34.9953 19.6459 32.8231 38.2385C32.8231 38.2385 30.9251 49.6099 38.1316 53.7292C38.1316 53.7292 27.9934 52.5886 29.7969 37.7115C31.8887 20.3726 24.4648 18.927 24.4648 18.927Z"
    fill="#0DD149"
  />
  <path
    d="M85.5352 28.4576C85.5352 27.8975 85.081 27.4434 84.5208 27.4434C83.9606 27.4434 83.5065 27.8975 83.5065 28.4576V32.5148C83.5065 33.0749 83.9606 33.5291 84.5208 33.5291C85.081 33.5291 85.5352 33.0749 85.5352 32.5148V28.4576Z"
    fill="white"
  />
  <path
    d="M82.4909 29.4717C81.9307 29.4717 81.4766 29.9258 81.4766 30.486C81.4766 31.0461 81.9307 31.5002 82.4909 31.5002L86.5482 31.5002C87.1084 31.5002 87.5625 31.0461 87.5625 30.486C87.5625 29.9258 87.1084 29.4717 86.5482 29.4717L82.4909 29.4717Z"
    fill="white"
  />
  <path
    d="M68.7344 12.1833C68.7344 11.5298 68.2046 11 67.551 11C66.8974 11 66.3676 11.5298 66.3676 12.1833V16.9166C66.3676 17.5702 66.8974 18.1 67.551 18.1C68.2046 18.1 68.7344 17.5702 68.7344 16.9166V12.1833Z"
    fill="white"
  />
  <path
    d="M65.1847 13.3662C64.5311 13.3662 64.0013 13.896 64.0013 14.5495C64.0013 15.2031 64.5311 15.7329 65.1847 15.7329L69.9182 15.7329C70.5717 15.7329 71.1016 15.2031 71.1016 14.5495C71.1016 13.896 70.5717 13.3662 69.9182 13.3662L65.1847 13.3662Z"
    fill="white"
  />
  <ellipse
    cx="2.11316"
    cy="2.11308"
    rx="2.11316"
    ry="2.11308"
    transform="matrix(-1 0 0 1 83.6719 0.0576172)"
    fill="white"
  />
  <ellipse
    cx="1.2679"
    cy="1.26785"
    rx="1.2679"
    ry="1.26785"
    transform="matrix(-1 0 0 1 48.5195 24.4004)"
    fill="white"
  />
  <rect
    x="78.7188"
    y="60.2617"
    width="5.41501"
    height="6.43008"
    rx="1.42204"
    fill="#002A3A"
    stroke="#002A3A"
    stroke-width="1.0143"
    stroke-linecap="round"
    stroke-linejoin="round"
  />
  <path
    d="M52.3125 61.6838C52.3125 60.8984 52.9492 60.2617 53.7345 60.2617H56.3055C57.0908 60.2617 57.7275 60.8984 57.7275 61.6838V65.5771C57.7275 66.3624 57.0908 66.9991 56.3055 66.9991H53.7345C52.9492 66.9991 52.3125 66.3624 52.3125 65.5771V61.6838Z"
    fill="#002A3A"
    stroke="#002A3A"
    stroke-width="1.0143"
    stroke-linecap="round"
    stroke-linejoin="round"
  />
  <path
    d="M57.7553 38.5481C58.3125 36.7682 59.9614 35.5566 61.8265 35.5566H74.9623C76.8274 35.5566 78.4762 36.7682 79.0335 38.5481L81.5935 46.7247H55.1953L57.7553 38.5481Z"
    fill="#0DD149"
  />
  <path
    d="M55.8876 46.2168L58.5634 37.7552H78.2404L80.9603 46.2168H55.8876Z"
    fill="white"
    stroke="#002A3A"
    stroke-width="1.0143"
    stroke-linecap="round"
    stroke-linejoin="round"
  />
  <path
    d="M81.238 45.6538C80.8883 46.2226 81.1125 46.7192 81.238 46.8998L82.1401 46.4551L82.6101 46.8998C82.8777 47.153 83.2334 47.29 83.6005 47.2813L85.6314 47.2334C86.068 47.2231 86.3885 46.8167 86.2997 46.3861L85.9288 44.588C85.8444 44.1788 85.4821 43.8885 85.0672 43.8977L83.3356 43.936C82.6603 43.936 82.2355 44.6344 81.7632 45.117L81.238 45.6538Z"
    fill="#002A3A"
  />
  <path
    d="M55.6644 45.8344C56.014 46.4033 55.7899 46.8999 55.6644 47.0804L54.7622 46.6358L54.2922 47.0804C54.0246 47.3336 53.6689 47.4706 53.3019 47.462L51.271 47.414C50.8343 47.4037 50.5138 46.9974 50.6027 46.5667L50.9736 44.7686C51.058 44.3594 51.4203 44.0691 51.8351 44.0783L53.5667 44.1167C54.242 44.1167 54.6668 44.815 55.1391 45.2977L55.6644 45.8344Z"
    fill="#002A3A"
  />
  <path
    d="M81.5988 46.7256H55.0314L52.1673 50.8393C51.8163 51.2943 51.3086 52.0368 51.3086 52.8172V61.2779H85.8293V52.8172C85.8293 51.8792 85.3216 51.1251 84.6274 50.5668L81.5988 46.7256Z"
    fill="#0DD149"
  />
  <path
    d="M52.3125 50.9551H84.8025"
    stroke="#002A3A"
    stroke-width="1.0143"
    stroke-linecap="round"
    stroke-linejoin="round"
  />
  <rect
    x="50.6289"
    y="59.2471"
    width="35.8744"
    height="3.72268"
    rx="0.948026"
    fill="#002A3A"
  />
  <path
    d="M86.8448 62.7979H50.0312"
    stroke="white"
    stroke-width="1.0143"
    stroke-linecap="round"
    stroke-linejoin="round"
  />
  <ellipse
    cx="80.5485"
    cy="55.187"
    rx="3.42347"
    ry="3.42334"
    fill="#002A3A"
  />
  <ellipse
    cx="56.5836"
    cy="55.187"
    rx="3.42347"
    ry="3.42334"
    fill="#002A3A"
  />
  <ellipse
    cx="80.1723"
    cy="54.8099"
    rx="2.7075"
    ry="2.7074"
    stroke="white"
    stroke-width="1.0143"
    stroke-linecap="round"
    stroke-linejoin="round"
  />
  <ellipse
    cx="56.2036"
    cy="54.808"
    rx="2.7075"
    ry="2.7074"
    stroke="white"
    stroke-width="1.0143"
    stroke-linecap="round"
    stroke-linejoin="round"
  />
  <path
    d="M4.28516 67H94.0524"
    stroke="#002A3A"
    stroke-width="1.0143"
    stroke-linecap="round"
    stroke-linejoin="round"
  />
</svg>
