<svg viewBox="0 0 113 73" fill="none" xmlns="http://www.w3.org/2000/svg">
<path d="M61.6719 1.33398H98.7136C105.99 1.33398 106.32 7.51742 106.32 15.1451V16.7893H61.6719V1.33398Z" fill="#002A3A" stroke="#002A3A" stroke-linecap="round" stroke-linejoin="round"/>
<path d="M61.5002 1H98.6553C105.954 1 106.5 6.96899 106.5 15.2212V17H61.7148L61.5002 1Z" stroke="white" stroke-linecap="round" stroke-linejoin="round"/>
<path d="M34.1958 59.4343L95.8323 59.2683V30.021V8.2334C95.8323 7.14402 96.1704 1.33398 99.4514 1.33398H39.1174C34.7427 1.33398 34.1958 6.05464 34.1958 9.32278V59.4343Z" fill="white" stroke="#002A3A" stroke-linecap="round" stroke-linejoin="round"/>
<path d="M43.063 7.59766H89.5625" stroke="#002A3A" stroke-linecap="round" stroke-linejoin="round"/>
<path d="M43.063 14.7148H89.5625" stroke="#002A3A" stroke-linecap="round" stroke-linejoin="round"/>
<path d="M43.063 21.8301H89.5625" stroke="#002A3A" stroke-linecap="round" stroke-linejoin="round"/>
<path d="M43.063 29.3281H66.3127" stroke="#002A3A" stroke-linecap="round" stroke-linejoin="round"/>
<rect x="74.0073" y="25.0156" width="16.5774" height="7.76316" rx="0.950938" fill="#00AFFF"/>
<path d="M58.022 48.728L33.9097 36.5718V58.1188H34.1497L33.9097 58.3085H96.017L95.7769 58.1188H96.017V36.5391L72.2108 48.728L65.1164 43.1219L58.022 48.728Z" fill="#002A3A"/>
<path d="M33.9097 35.9648L65.2601 56.867L96.1618 36.1309L96.2789 65.1443C96.2923 68.4674 93.6021 71.1685 90.2789 71.1685H39.9097C36.596 71.1685 33.9097 68.4822 33.9097 65.1685V35.9648Z" fill="white" stroke="#002A3A" stroke-linecap="round" stroke-linejoin="round"/>
<path fill-rule="evenodd" clip-rule="evenodd" d="M39.459 71.1529C38.1661 71.057 36.9872 70.5514 36.0518 69.7654L65.2491 47.6992L94.3825 69.5464C93.6408 70.2422 92.7222 70.7516 91.7012 70.9999L39.459 71.1529Z" fill="white"/>
<path d="M39.459 71.1529L39.422 71.6515C39.4348 71.6525 39.4476 71.6529 39.4605 71.6529L39.459 71.1529ZM36.0518 69.7654L35.7503 69.3665C35.6289 69.4583 35.5559 69.6003 35.5519 69.7525C35.548 69.9046 35.6136 70.0503 35.7301 70.1482L36.0518 69.7654ZM65.2491 47.6992L65.549 47.2992C65.3707 47.1655 65.1254 47.1659 64.9476 47.3003L65.2491 47.6992ZM94.3825 69.5464L94.7246 69.9111C94.8323 69.81 94.8899 69.6664 94.8817 69.5189C94.8736 69.3714 94.8007 69.235 94.6825 69.1464L94.3825 69.5464ZM91.7012 70.9999L91.7026 71.4999C91.7419 71.4998 91.7811 71.495 91.8193 71.4857L91.7012 70.9999ZM39.496 70.6543C38.3113 70.5664 37.2312 70.1033 36.3734 69.3826L35.7301 70.1482C36.7432 70.9994 38.0209 71.5476 39.422 71.6515L39.496 70.6543ZM64.9476 47.3003L35.7503 69.3665L36.3532 70.1643L65.5505 48.0981L64.9476 47.3003ZM94.6825 69.1464L65.549 47.2992L64.9491 48.0992L94.0825 69.9464L94.6825 69.1464ZM94.0404 69.1818C93.3601 69.82 92.518 70.2867 91.583 70.514L91.8193 71.4857C92.9263 71.2165 93.9216 70.6643 94.7246 69.9111L94.0404 69.1818ZM39.4605 71.6529L91.7026 71.4999L91.6997 70.4999L39.4575 70.6529L39.4605 71.6529Z" fill="#002A3A"/>
<path d="M36.3101 69.5704L65.2494 47.6992L93.8763 69.1666" stroke="#002A3A" stroke-linecap="round" stroke-linejoin="round"/>
<path d="M43.1724 27.1768C43.1724 23.897 40.5136 21.2383 37.2339 21.2383H20.9031C17.6234 21.2383 14.9646 23.897 14.9646 27.1767V65.7768C14.9646 69.0565 17.6234 71.7152 20.9031 71.7152H37.2339C40.5136 71.7152 43.1724 69.0565 43.1724 65.7768V27.1768Z" fill="#002A3A"/>
<path d="M40.9458 28.5758C40.9458 25.7531 38.6575 23.4648 35.8348 23.4648H22.3029C19.4802 23.4648 17.1919 25.7531 17.1919 28.5758V64.377C17.1919 67.1997 19.4802 69.488 22.3029 69.488H35.8348C38.6575 69.488 40.9458 67.1997 40.9458 64.377V28.5758Z" fill="white"/>
<path d="M20.9036 71.7152C17.6239 71.7152 14.9651 69.0565 14.9651 65.7768V27.1767C14.9651 23.897 17.6239 21.2383 20.9036 21.2383H33.5" stroke="white" stroke-linecap="round"/>
<ellipse cx="1.51666" cy="3.03332" rx="1.51666" ry="3.03332" transform="matrix(-1 0 0 1 38.4219 40.6895)" fill="#002A3A"/>
<ellipse cx="1.51666" cy="3.03332" rx="1.51666" ry="3.03332" transform="matrix(-1 0 0 1 22.8608 40.6895)" fill="#002A3A"/>
<path d="M33.0107 46.25C32.7515 47.2364 31.5848 48.7778 29.0571 48.7778C26.5941 48.7778 25.5571 47.1131 25.4274 46.25" stroke="#002A3A" stroke-linecap="round"/>
<path fill-rule="evenodd" clip-rule="evenodd" d="M6.6773 5.06836C3.7411 5.06836 1.36084 7.44862 1.36084 10.3848V19.3936C1.36084 22.3298 3.7411 24.7101 6.6773 24.7101H14.472L21.2434 30.2003C21.533 30.4352 21.9654 30.2291 21.9654 29.8562V23.8246C23.3984 22.8722 24.343 21.2432 24.343 19.3936V10.3848C24.343 7.44862 21.9627 5.06836 19.0265 5.06836H6.6773Z" fill="#0DD149"/>
<path fill-rule="evenodd" clip-rule="evenodd" d="M20.4737 10.9647C20.6333 11.1173 20.6349 11.3716 20.4774 11.5263L11.931 19.9148C11.7789 20.0641 11.5353 20.0641 11.3833 19.9148L5.9126 14.5452C5.7565 14.392 5.75647 14.1405 5.91252 13.9873L7.94305 11.9931C8.09374 11.8451 8.33472 11.8435 8.48731 11.9896L11.3811 14.7589C11.5345 14.9058 11.7772 14.9032 11.9276 14.7532L17.7769 8.91437C17.9272 8.76434 18.1698 8.76173 18.3233 8.9085L20.4737 10.9647Z" fill="white"/>
<path d="M0.626953 72.1797H112.373" stroke="white" stroke-linecap="round" stroke-linejoin="round"/>
<path d="M0.626953 71.1973H112.373" stroke="#002A3A" stroke-linecap="round" stroke-linejoin="round"/>
</svg>
