<svg viewBox="0 0 142 105" fill="none" xmlns="http://www.w3.org/2000/svg">
  <path
    d="M34.1719 39C34.1719 35.9624 36.6343 33.5 39.6719 33.5H103.672C106.709 33.5 109.172 35.9624 109.172 39V82C109.172 84.4853 107.157 86.5 104.672 86.5H38.6719C36.1866 86.5 34.1719 84.4853 34.1719 82V39Z"
    stroke="#002A3A"/>
  <path
    d="M117.835 82.8672V84.4019C117.835 86.1226 116.3 87.6573 114.579 87.6573H28.0318C26.3111 87.6573 24.7764 86.1226 24.7764 84.4019V82.8672H117.835Z"
    fill="white" stroke="#002A3A" stroke-miterlimit="10" stroke-linecap="round" stroke-linejoin="round"/>
  <path d="M124.079 87.7812L17.9197 87.7813" stroke="#002A3A" stroke-linecap="round" stroke-linejoin="round"/>
  <path
    d="M80.2117 82.8672V83.4253C80.2117 84.4019 79.4676 85.332 78.3049 85.332H64.1206C63.144 85.332 62.2139 84.5879 62.2139 83.4253V82.8672H80.2117Z"
    fill="white" stroke="#002A3A" stroke-miterlimit="10" stroke-linecap="round" stroke-linejoin="round"/>
  <path
    d="M105.672 82.5677H37.6719L37.6719 42.0156C37.6719 39.2542 39.9105 37.0156 42.6719 37.0156L100.672 37.0156C103.433 37.0156 105.672 39.2542 105.672 42.0156V82.5677Z"
    fill="#002A3A"/>
  <path
    d="M41.7975 41.476C42.3556 41.476 42.8207 41.0109 42.8207 40.4528C42.8207 39.8947 42.3556 39.4297 41.7975 39.4297C41.2395 39.4297 40.7744 39.8947 40.7744 40.4528C40.7744 41.0109 41.2395 41.476 41.7975 41.476Z"
    fill="#002A3A"/>
  <path
    d="M44.82 41.476C45.3781 41.476 45.8431 41.0109 45.8431 40.4528C45.8431 39.8947 45.3781 39.4297 44.82 39.4297C44.2619 39.4297 43.7969 39.8947 43.7969 40.4528C43.7969 41.0109 44.2619 41.476 44.82 41.476Z"
    fill="#002A3A"/>
  <path
    d="M47.9362 41.476C48.4943 41.476 48.9594 41.0109 48.9594 40.4528C48.9594 39.8947 48.4943 39.4297 47.9362 39.4297C47.3781 39.4297 46.9131 39.8947 46.9131 40.4528C46.9131 41.0109 47.3781 41.476 47.9362 41.476Z"
    fill="white"/>
  <path
    d="M114.589 70.8183C114.56 72.6344 113.079 74.0912 111.263 74.0912H49.7978C46.4841 74.0912 43.7979 71.4049 43.7979 68.0912L43.7979 30.3633C43.7979 27.0496 46.4841 24.3633 49.7979 24.3633L108.589 24.3633C111.903 24.3633 114.589 27.0496 114.589 30.3633V70.8183Z"
    fill="white" stroke="#002A3A" stroke-miterlimit="10" stroke-linecap="round" stroke-linejoin="round"/>
  <path d="M43.7979 31.9102H114.43" stroke="#002A3A" stroke-miterlimit="10" stroke-linecap="round"
        stroke-linejoin="round"/>
  <path
    d="M47.6516 29.3794C48.2851 29.3794 48.813 28.8515 48.813 28.2181C48.813 27.5846 48.2851 27.0039 47.6516 27.0039C47.0181 27.0039 46.4902 27.5318 46.4902 28.1653C46.4902 28.7988 47.0181 29.3794 47.6516 29.3794Z"
    fill="#002A3A"/>
  <path
    d="M51.0823 29.3794C51.7157 29.3794 52.2436 28.8515 52.2436 28.2181C52.2436 27.5846 51.7157 27.0039 51.0823 27.0039C50.4488 27.0039 49.9209 27.5318 49.9209 28.1653C49.9209 28.7988 50.4488 29.3794 51.0823 29.3794Z"
    fill="#002A3A"/>
  <path
    d="M54.6204 29.3794C55.2538 29.3794 55.7817 28.8515 55.7817 28.2181C55.7817 27.5846 55.2538 27.0039 54.6204 27.0039C53.9869 27.0039 53.459 27.5318 53.459 28.1653C53.459 28.7988 53.9341 29.3794 54.6204 29.3794Z"
    fill="#002A3A"/>
  <path
    d="M74.283 46.4813C74.283 47.6921 73.3015 48.6736 72.0907 48.6736C70.88 48.6736 69.8984 47.6921 69.8984 46.4813C69.8984 45.2706 70.88 44.2891 72.0907 44.2891C73.3015 44.2891 74.283 45.2706 74.283 46.4813Z"
    fill="#002A3A" stroke="white" stroke-linecap="round" stroke-linejoin="round"/>
  <path
    d="M87.1639 46.4813C87.1639 47.6921 86.1823 48.6736 84.9716 48.6736C83.7608 48.6736 82.7793 47.6921 82.7793 46.4813C82.7793 45.2706 83.7608 44.2891 84.9716 44.2891C86.1823 44.2891 87.1639 45.2706 87.1639 46.4813Z"
    fill="#002A3A" stroke="white" stroke-linecap="round" stroke-linejoin="round"/>
  <path
    d="M84.1795 60.3143H72.8825C71.0876 60.3143 70.0846 58.3083 71.1404 56.8302C71.9323 55.7216 72.9353 54.8242 74.0966 54.1379C75.4164 53.3989 76.9473 52.9766 78.531 52.9766C80.4314 52.9766 82.1735 53.5572 83.6516 54.5603C84.549 55.1937 85.3408 55.9328 85.9743 56.8302C86.9773 58.3083 85.9743 60.3143 84.1795 60.3143Z"
    fill="#002A3A" stroke="#002A3A" stroke-miterlimit="10" stroke-linecap="round" stroke-linejoin="round"/>
  <path
    d="M82.4902 60.3138H74.6246C74.5718 60.2082 74.5718 60.1027 74.6246 59.9971C75.2052 58.3606 76.7361 57.1992 78.5838 57.1992C80.4314 57.1992 81.9623 58.3606 82.543 59.9971C82.543 60.1027 82.543 60.2082 82.4902 60.3138Z"
    fill="#002A3A"/>
  <path
    d="M83.6516 55.0876V55.5099C83.6516 55.8267 83.3876 56.0378 83.1237 56.0378H74.6773C74.3606 56.0378 74.1494 55.7739 74.1494 55.5099V54.6653C75.4692 53.9262 77.0001 53.5039 78.5837 53.5039C80.4314 53.5039 82.1734 54.0846 83.6516 55.0876Z"
    fill="white"/>
  <path
    d="M58.9333 45.6341C58.9333 46.7242 58.0961 47.5963 57.0497 47.5963C56.0032 47.5963 55.166 46.7242 55.166 45.6341C55.166 44.8056 56.2962 42.3201 56.7985 41.2299C56.8822 41.0119 57.1752 41.0119 57.3008 41.2299C57.8031 42.2765 58.9333 44.762 58.9333 45.6341Z"
    fill="#00AFFF"/>
  <path
    d="M54.6636 50.4818C54.6636 51.5301 53.8822 52.3686 52.9055 52.3686C51.9288 52.3686 51.1475 51.5301 51.1475 50.4818C51.1475 49.6852 52.2023 47.2953 52.6711 46.2471C52.7492 46.0374 53.0227 46.0374 53.1399 46.2471C53.6087 47.2953 54.6636 49.6852 54.6636 50.4818Z"
    fill="#00AFFF"/>
  <path
    d="M103.994 16.7617H113.853C114.457 16.7617 115.016 16.9942 115.434 17.4128L122.41 24.3887C122.829 24.8073 123.061 25.3653 123.061 25.9699V35.7827C123.061 36.3873 122.829 36.9453 122.41 37.3639L115.527 44.2468C115.109 44.6653 114.55 44.8979 113.946 44.8979H103.994C103.389 44.8979 102.831 44.6653 102.412 44.2468L95.3435 37.1779C94.9249 36.7593 94.6924 36.2012 94.6924 35.5966V25.9699C94.6924 25.3653 94.9249 24.8073 95.3435 24.3887L102.366 17.4128C102.831 16.9942 103.389 16.7617 103.994 16.7617Z"
    fill="#FF9500"/>
  <path
    d="M110.552 22.363V27.03C110.552 27.3412 110.552 27.6523 110.505 28.0079L109.993 31.3415C109.947 31.6082 109.714 31.8305 109.389 31.8305H108.366C108.087 31.8305 107.808 31.6082 107.761 31.3415L107.25 28.0079C107.203 27.6968 107.203 27.3856 107.203 27.03V22.363C107.203 22.0518 107.482 21.7852 107.808 21.7852H109.993C110.273 21.8296 110.552 22.0518 110.552 22.363Z"
    fill="white"/>
  <path
    d="M109.993 38.8537H107.714C107.342 38.8537 107.017 38.5281 107.017 38.1561V35.8773C107.017 35.5052 107.342 35.1797 107.714 35.1797H109.993C110.365 35.1797 110.691 35.5052 110.691 35.8773V38.1561C110.691 38.5281 110.365 38.8537 109.993 38.8537Z"
    fill="white"/>
</svg>
