<svg viewBox="0 0 82 55" fill="none" xmlns="http://www.w3.org/2000/svg">
<path d="M50.7676 15.7459L52.0736 15.8684L53.1718 16.8832L49.5071 54.3017L46.9426 54.3017L50.7676 15.7459Z" fill="#002A3A"/>
<path d="M29.5924 0.832399L30.8147 0.445513L32.1587 1.58269L35.8143 54.3091L33.1144 54.3091L29.5924 0.832399Z" fill="#002A3A"/>
<path d="M28.2109 0.617188L30.8287 0.444782L34.4329 54.0939L31.7329 54.0939L28.2109 0.617188Z" fill="#002A3A"/>
<path d="M49.894 16.1519L51.5094 16.3035L47.9356 53.6651L46.3747 53.6651L49.894 16.1519Z" fill="#002A3A" stroke="#002A3A" stroke-linecap="round" stroke-linejoin="round"/>
<path fill-rule="evenodd" clip-rule="evenodd" d="M79.2357 32.7274L70.8807 26.8943L39.0416 21.8949C38.6926 21.8401 38.3406 21.9736 38.1156 22.2459L37.4735 23.0232C37.3505 23.172 37.2733 23.3532 37.251 23.5449L37.1071 24.7874L37.9113 25.27L37.0052 25.6664L36.2011 32.6053L37.1618 33.3978L36.0304 34.0784L35.8413 35.7096C35.7706 36.3197 36.2548 36.8491 36.8689 36.8391C44.9155 36.7083 60.1412 38.1563 69.2392 39.1734C71.2435 39.3975 73.2563 38.8732 74.8875 37.6871L75.7376 37.069L79.1741 34.0376L79.2357 32.7274Z" fill="#002A3A"/>
<path d="M80.0152 31.0659L73.5932 26.5824C72.7135 25.9683 71.6933 25.5857 70.6267 25.47L38.6568 22.0032L37.0784 35.6233C44.9236 35.3053 61.867 36.9345 71.3081 38.0039C72.8556 38.1791 74.4055 37.7336 75.6186 36.7569L80.0868 33.1593C80.3787 32.9242 80.5559 32.5753 80.5735 32.2009C80.5946 31.7518 80.3838 31.3233 80.0152 31.0659Z" fill="white" stroke="#002A3A" stroke-linecap="round" stroke-linejoin="round"/>
<path d="M40.3473 25.2705L37.5365 23.584L38.2861 25.2705L37.3491 26.5822L40.3473 25.2705Z" fill="#002A3A"/>
<path d="M38.286 33.5146L36.5995 31.8281L37.349 33.5146L36.4121 34.8263L38.286 33.5146Z" fill="#002A3A"/>
<path d="M10.8892 54.2051L68.5497 54.2051" stroke="#002A3A" stroke-linecap="round" stroke-linejoin="round"/>
<path fill-rule="evenodd" clip-rule="evenodd" d="M10.9713 8.50245L2.35156 13.9367V15.2484L7.64995 19.9412C8.45582 20.655 9.51329 21.0131 10.5874 20.9405C19.4707 20.3404 36.006 19.4972 44.4785 20.0337C45.0914 20.0725 45.5999 19.5665 45.558 18.9537L44.8284 8.30259L43.9515 7.81539L44.7793 7.58544L44.7212 6.73626C44.708 6.54367 44.6393 6.35902 44.5235 6.20459L43.9186 5.39806C43.7066 5.11543 43.3613 4.96562 43.0101 5.00397L10.9713 8.50245Z" fill="#002A3A"/>
<path d="M1.65109 12.2391L8.84197 7.70577C9.37855 7.36749 9.99172 7.16988 10.6249 7.13119L43.3894 5.12891L44.3264 18.8081C36.2489 18.0996 18.3812 19.0097 9.11671 19.639C8.14231 19.7052 7.18644 19.38 6.45534 18.7325L1.48123 14.3268C1.20066 14.0783 1.04004 13.7215 1.04004 13.3467C1.04004 12.8971 1.27075 12.4789 1.65109 12.2391Z" fill="white" stroke="#002A3A" stroke-linecap="round" stroke-linejoin="round"/>
<path d="M41.7026 7.56607L43.7639 7.00391L43.3891 7.75345L43.7639 8.69038L41.7026 7.56607Z" fill="#002A3A"/>
<path d="M44.4893 26.4922C45.1658 26.5514 45.6817 26.7594 46.037 27.1161C46.3924 27.4728 46.5453 27.9338 46.4958 28.4992C46.4462 29.0646 46.2155 29.492 45.8035 29.7815C45.392 30.0659 44.848 30.1785 44.1716 30.1193L42.748 29.9946L42.6014 31.668L42.041 31.6189L42.5054 26.3184L44.4893 26.4922ZM44.1995 29.6257C44.7246 29.6717 45.1358 29.5933 45.4334 29.3905C45.7314 29.1826 45.8987 28.8691 45.9354 28.4501C45.973 28.021 45.8629 27.6807 45.6052 27.4292C45.3479 27.1727 44.9567 27.0214 44.4317 26.9755L43.0233 26.8521L42.7911 29.5024L44.1995 29.6257Z" fill="#002A3A"/>
<path d="M47.8666 26.788L48.4269 26.8371L48.0051 31.653L50.9734 31.9131L50.9309 32.3977L47.4023 32.0886L47.8666 26.788Z" fill="#002A3A"/>
<path d="M55.3244 31.3557L52.3712 31.097L51.6111 32.4573L51.028 32.4062L53.9155 27.3179L54.4682 27.3663L56.427 32.8792L55.8364 32.8274L55.3244 31.3557ZM55.1597 30.8834L54.137 27.9248L52.6154 30.6606L55.1597 30.8834Z" fill="#002A3A"/>
<path d="M62.198 28.0434L61.7337 33.344L61.2717 33.3036L58.241 28.704L57.8642 33.0051L57.3039 32.956L57.7682 27.6554L58.2301 27.6958L61.2684 32.2961L61.6452 27.995L62.198 28.0434Z" fill="#002A3A"/>
<path d="M69.3444 31.2333C69.6389 31.3557 69.862 31.538 70.0137 31.7802C70.1659 32.0174 70.2276 32.3 70.1989 32.6282C70.1582 33.0926 69.9451 33.4351 69.5595 33.6557C69.1794 33.8716 68.6436 33.9493 67.952 33.8887L65.2108 33.6486L65.6751 28.348L68.2649 28.5749C68.911 28.6315 69.3949 28.7985 69.7165 29.0759C70.0432 29.3538 70.1879 29.7048 70.1508 30.1288C70.1282 30.3863 70.045 30.6104 69.9011 30.8013C69.7623 30.9926 69.5767 31.1366 69.3444 31.2333ZM66.8133 29.3786L66.7039 30.6281L67.923 30.7349C68.2259 30.7614 68.4603 30.7285 68.626 30.6362C68.7918 30.5439 68.8838 30.3943 68.9019 30.1873C68.92 29.9803 68.8553 29.8195 68.7076 29.7048C68.5604 29.5851 68.3354 29.512 68.0325 29.4854L66.8133 29.3786ZM67.942 32.957C68.2651 32.9853 68.5121 32.9535 68.6829 32.8616C68.8588 32.7702 68.9564 32.6134 68.9759 32.3913C69.0144 31.9521 68.708 31.704 68.0568 31.647L66.6256 31.5216L66.5109 32.8316L67.942 32.957Z" fill="#002A3A"/>
<path d="M69.3441 31.2329C69.6386 31.3553 69.8617 31.5377 70.0134 31.7799C70.1656 32.017 70.2273 32.2997 70.1986 32.6278C70.1579 33.0922 69.9447 33.4347 69.5592 33.6553C69.1791 33.8713 68.6432 33.9489 67.9516 33.8884L65.2105 33.6482L65.6748 28.3477L68.2645 28.5745C68.9107 28.6311 69.3946 28.7981 69.7162 29.0756C70.0428 29.3534 70.1876 29.7044 70.1504 30.1285C70.1279 30.3859 70.0447 30.6101 69.9008 30.8009C69.7619 30.9923 69.5764 31.1362 69.3441 31.2329ZM66.813 29.3783L66.7036 30.6277L67.9227 30.7345C68.2256 30.761 68.4599 30.7281 68.6257 30.6358C68.7915 30.5435 68.8834 30.3939 68.9016 30.1869C68.9197 29.9799 68.8549 29.8191 68.7073 29.7044C68.5601 29.5847 68.335 29.5116 68.0321 29.4851L66.813 29.3783ZM67.9417 32.9566C68.2648 32.9849 68.5117 32.9531 68.6826 32.8613C68.8584 32.7698 68.9561 32.6131 68.9756 32.3909C69.014 31.9518 68.7077 31.7036 68.0564 31.6466L66.6253 31.5212L66.5105 32.8312L67.9417 32.9566Z" fill="#00AFFF"/>
<path d="M11.2544 10.2252C11.9321 10.1834 12.4732 10.3125 12.8775 10.6125C13.2819 10.9125 13.5015 11.3458 13.5364 11.9123C13.5713 12.4788 13.4066 12.9357 13.0421 13.2831C12.6773 13.6254 12.1561 13.8175 11.4783 13.8593L10.052 13.9472L10.1553 15.6239L9.5939 15.6585L9.2666 10.3477L11.2544 10.2252ZM11.4328 13.3671C11.9588 13.3346 12.3539 13.196 12.618 12.9513C12.8819 12.7015 13.0009 12.3667 12.975 11.9469C12.9485 11.517 12.7891 11.1968 12.4969 10.9863C12.2044 10.7708 11.7951 10.6792 11.2691 10.7116L9.85795 10.7986L10.0216 13.454L11.4328 13.3671Z" fill="#002A3A"/>
<path d="M14.6382 10.0166L15.1996 9.98202L15.497 14.8073L18.471 14.624L18.5009 15.1095L14.9655 15.3274L14.6382 10.0166Z" fill="#002A3A"/>
<path d="M22.6911 13.4272L19.7323 13.6095L19.1824 15.0675L18.5982 15.1035L20.6987 9.64312L21.2525 9.60898L24.0076 14.7702L23.4159 14.8066L22.6911 13.4272ZM22.4582 12.9846L21.0078 10.2105L19.909 13.1417L22.4582 12.9846Z" fill="#002A3A"/>
<path d="M28.9972 9.13169L29.3245 14.4425L28.8617 14.471L25.182 10.3721L25.4476 14.6814L24.8862 14.716L24.5589 9.40522L25.0217 9.3767L28.7089 13.4752L28.4434 9.16583L28.9972 9.13169Z" fill="#002A3A"/>
<path d="M36.2358 12.8742L33.77 13.0262L33.3698 14.1932L32.1104 14.2708L34.1502 8.81413L35.3641 8.73932L38.066 13.9038L36.7763 13.9833L36.2358 12.8742ZM35.7913 11.9649L34.8239 9.9835L34.107 12.0687L35.7913 11.9649Z" fill="#002A3A"/>
<path d="M36.2359 12.8752L33.7702 13.0271L33.3699 14.1941L32.1105 14.2717L34.1503 8.81506L35.3642 8.74025L38.0662 13.9047L36.7764 13.9842L36.2359 12.8752ZM35.7915 11.9658L34.824 9.98443L34.1072 12.0696L35.7915 11.9658Z" fill="#0DD149"/>
</svg>
