<svg width="192" height="84" viewBox="0 0 192 84" fill="none" xmlns="http://www.w3.org/2000/svg">
<path d="M109.364 30.0413C110.202 26.1345 107.224 22.4495 103.228 22.4495H40.4565C37.4984 22.4495 34.9419 24.5154 34.3212 27.4077L22.3495 83.1868H94.3344C96.4478 83.1868 98.2741 81.7108 98.7176 79.6445L109.364 30.0413Z" fill="#002A3A"/>
<path d="M104.424 30.588C104.85 28.5038 103.257 26.5532 101.13 26.5532H42.8141C40.6838 26.5532 38.8477 28.0523 38.4217 30.1396L28.0952 80.7243H94.1895L104.424 30.588Z" fill="white" stroke="#002A3A"/>
<path d="M98.9121 78.052H6.48182C6.38739 78.052 6.31084 78.1286 6.31084 78.223C6.31084 80.8666 8.4539 83.0096 11.0975 83.0096H93.9545C96.6925 83.0096 98.9121 80.79 98.9121 78.052Z" fill="#002A3A"/>
<path fill-rule="evenodd" clip-rule="evenodd" d="M63.046 39.2754C70.6382 39.2754 76.793 45.4304 76.793 53.023C76.793 60.6156 70.6382 66.7706 63.046 66.7706C55.4537 66.7706 49.299 60.6156 49.299 53.023C49.299 45.4304 55.4537 39.2754 63.046 39.2754ZM68.6291 52.1575C69.2957 52.5424 69.2957 53.5046 68.6291 53.8895L59.7566 59.0123C59.09 59.3972 58.2566 58.9161 58.2566 58.1463V47.9008C58.2566 47.131 59.09 46.6498 59.7566 47.0347L68.6291 52.1575Z" fill="#321069"/>
<path fill-rule="evenodd" clip-rule="evenodd" d="M66.4783 16.1965L63.8032 15.4864C62.1389 15.0445 60.3404 16.3275 59.7865 18.3518C59.2326 20.3761 60.1321 22.3754 61.7965 22.8173L64.3591 23.4976C64.86 22.1885 65.3203 20.7927 65.7244 19.3327C66.0187 18.2693 66.2698 17.2204 66.4783 16.1965Z" fill="#0DD149"/>
<path d="M175.97 83.1934H1" stroke="#002A3A" stroke-linecap="round"/>
<path d="M101.63 37.0027C100.215 32.0987 98.8694 20.5965 104.722 13.9687C104.956 13.7039 105.087 13.3634 105.074 13.0104C104.938 9.13804 105.199 2.30043 107.264 2.09225C109.279 1.88912 113.012 7.33719 114.977 10.6636C115.233 11.0966 115.709 11.3474 116.211 11.3143C119.13 11.1215 124.031 11.0732 127.023 11.933C127.772 12.1483 128.636 11.821 128.933 11.1005C130.595 7.07318 133.658 1 135.976 1C139.226 1 142.747 11.6494 143.289 16.5645C143.709 20.3718 144.128 25.6535 143.289 30.3793C151.054 32.4189 165.5 40.8671 167.667 55.3394C168.79 62.8417 168.923 68.4162 168.574 72.5423C171.505 69.7645 174.44 62.4253 173.745 55.1966C172.695 44.2708 169.753 31.7009 182.226 27.0969C184.938 26.0961 190.725 25.7717 191.427 29.8556C192.226 34.5002 185.187 33.2499 182.746 34.4712C181.118 35.2854 177.141 38.8368 179.452 48.9335C182.293 61.3467 179.314 71.177 173.95 77.1844C171.871 79.5138 169.385 80.4994 167.903 80.8542C167.205 81.0213 166.376 81.5464 166.006 82.1614C165.958 82.2398 165.912 82.3148 165.866 82.3867C165.647 82.7293 165.26 82.9187 164.854 82.9187H128.697C128.496 82.9187 128.295 82.8765 128.133 82.7569C127.58 82.3474 126.852 81.4115 127.037 79.915C127.188 78.7023 128.216 78.0331 129.163 77.7066C129.784 77.4927 130.291 76.9589 130.358 76.3058C130.405 75.8535 130.476 75.3766 130.574 74.8836C129.708 74.5569 127.977 73.7077 127.787 73.3245C126.107 78.0139 123.835 81.4456 122.552 82.9186H115.23C115.029 82.9186 114.829 82.8767 114.667 82.7581C114.111 82.3488 113.376 81.4113 113.563 79.9109C113.694 78.8602 114.486 78.2169 115.314 77.8509C116.059 77.5219 116.611 76.7228 116.352 75.9511C115.217 72.565 113.081 67.1388 110.84 64.3256C110.059 63.3463 109.324 62.1966 108.657 61.0072C108.226 60.2372 107.089 59.9955 106.253 60.2786C102.986 61.3852 96.3706 61.2237 92.5154 59.3705C84.5792 55.5554 83.64 48.7258 82.6335 43.6839C80.0652 42.5821 80.1766 38.4964 80.5069 37.5965C80.8373 36.6966 81.81 34.078 83.7315 35.2557C88.398 38.1158 90.5939 47.0327 96.0839 48.7151C100.106 49.9476 102.381 48.0079 102.672 45.6306C102.946 43.3874 102.454 40.0872 101.63 37.0027Z" fill="white"/>
<path d="M142.206 34.3136C142.694 33.0826 143.045 31.7545 143.289 30.3793M143.289 30.3793C144.128 25.6535 143.709 20.3718 143.289 16.5645C142.747 11.6494 139.226 1 135.976 1C133.658 1 130.595 7.07318 128.933 11.1005C128.636 11.821 127.772 12.1483 127.023 11.933C124.031 11.0732 119.13 11.1215 116.211 11.3143C115.709 11.3474 115.233 11.0966 114.977 10.6636C113.012 7.33719 109.279 1.88912 107.264 2.09225C105.199 2.30043 104.938 9.13804 105.074 13.0104C105.087 13.3634 104.956 13.7039 104.722 13.9687C98.8694 20.5965 100.215 32.0987 101.63 37.0027C102.454 40.0872 102.946 43.3874 102.672 45.6306C102.381 48.0079 100.106 49.9476 96.0839 48.7151C90.5939 47.0327 88.398 38.1158 83.7315 35.2557C81.81 34.078 80.8373 36.6966 80.5069 37.5965C80.1766 38.4964 80.0652 42.5821 82.6335 43.6839M143.289 30.3793C151.054 32.4189 165.5 40.8671 167.667 55.3394C168.79 62.8417 168.923 68.4162 168.574 72.5423C171.505 69.7645 174.44 62.4252 173.745 55.1966C172.695 44.2708 169.753 31.7009 182.226 27.0969C184.938 26.0961 190.725 25.7717 191.427 29.8556C192.226 34.5002 185.187 33.2499 182.746 34.4712C181.118 35.2854 177.141 38.8368 179.452 48.9335C182.293 61.3467 179.314 71.177 173.95 77.1844C171.871 79.5138 169.385 80.4994 167.903 80.8542C167.205 81.0213 166.376 81.5464 166.006 82.1614C165.958 82.2398 165.912 82.3148 165.866 82.3867C165.647 82.7293 165.26 82.9187 164.854 82.9187H128.697C128.496 82.9187 128.295 82.8765 128.133 82.7569C127.58 82.3474 126.852 81.4115 127.037 79.915C127.188 78.7023 128.216 78.0331 129.163 77.7066C129.784 77.4927 130.291 76.9589 130.358 76.3058C130.405 75.8535 130.476 75.3766 130.574 74.8836M82.6335 43.6839C83.0287 43.8535 83.402 43.9482 83.7315 43.9482M82.6335 43.6839C83.64 48.7258 84.5792 55.5554 92.5154 59.3705C96.3706 61.2237 102.986 61.3852 106.253 60.2786C107.089 59.9955 108.226 60.2372 108.657 61.0072C109.324 62.1966 110.059 63.3463 110.84 64.3256M145.419 63.7129C135.377 63.1843 131.57 69.8695 130.574 74.8836M130.574 74.8836C129.708 74.5569 127.977 73.7077 127.787 73.3245C126.107 78.0139 123.835 81.4456 122.552 82.9186M105.392 53.6619C106.118 55.8493 108.225 61.0444 110.84 64.3256M110.84 64.3256C113.081 67.1388 115.217 72.565 116.352 75.9511C116.611 76.7228 116.059 77.5219 115.314 77.8509C114.486 78.217 113.694 78.8602 113.563 79.9109C113.376 81.4113 114.111 82.3488 114.667 82.7581C114.829 82.8767 115.029 82.9186 115.23 82.9186H122.552M122.552 82.9186C124.458 80.7312 128.544 74.2236 129.633 65.6927" stroke="#002A3A" stroke-linecap="round" stroke-linejoin="round"/>
<path d="M117.095 79.5752C117.095 80.4871 117.429 82.4325 118.767 82.9188" stroke="#002A3A" stroke-linecap="round"/>
<path fill-rule="evenodd" clip-rule="evenodd" d="M184.672 34.0081C182.618 32.9618 181.291 31.2973 181.291 29.4228C181.291 28.6645 181.508 27.9407 181.902 27.2782C182.038 27.225 182.176 27.1728 182.316 27.1216C185.05 26.1208 190.884 25.7965 191.592 29.8804C192.15 33.1004 188.91 33.487 186.051 33.8283C185.574 33.8852 185.108 33.9408 184.672 34.0081Z" fill="#002A3A"/>
<path d="M130.47 79.5752C130.47 80.4871 130.804 82.4325 132.142 82.9188" stroke="#002A3A" stroke-linecap="round"/>
<path d="M128.798 79.5752C128.798 80.4871 129.132 82.4325 130.47 82.9188" stroke="#002A3A" stroke-linecap="round"/>
<path d="M115.423 79.5752C115.423 80.4871 115.757 82.4325 117.095 82.9188" stroke="#002A3A" stroke-linecap="round"/>
<path d="M122.946 11.3095C127.889 25.2002 138.332 30.8433 142.988 31.9285L143.03 31.7622C144.29 26.703 143.827 20.6757 143.363 16.4642C142.826 11.5808 139.334 1 136.11 1C133.655 1 130.356 7.88287 128.809 11.8212C128.689 12.1257 128.334 12.2571 128.033 12.1355C126.932 11.6913 125.413 11.4266 123.782 11.2816L122.946 11.3095Z" fill="#002A3A"/>
<path d="M109.92 6.50718L112.371 10.088C112.956 10.9425 112.341 12.1199 111.311 12.2319C110.947 12.2716 110.588 12.3238 110.275 12.3923C109.909 12.4721 109.495 12.5981 109.087 12.7379C108.162 13.0557 107.16 12.3447 107.238 11.3695L107.577 7.13087C107.674 5.92272 109.236 5.507 109.92 6.50718Z" fill="#002A3A"/>
<ellipse cx="1.09225" cy="2.45756" rx="1.09225" ry="2.45756" transform="matrix(-0.972344 -0.233554 -0.233554 0.972344 123.782 22.5371)" fill="#002A3A"/>
<ellipse cx="1.09225" cy="2.45756" rx="1.09225" ry="2.45756" transform="matrix(-0.972344 -0.233554 -0.233554 0.972344 110.675 20.3516)" fill="#002A3A"/>
<path d="M112.676 30.3327C112.437 31.2969 112.125 33.6966 114.103 33.6966C115.603 33.6966 114.848 32.0683 112.676 30.3327Z" fill="#002A3A"/>
<path d="M114.587 27.369L113.154 28.053M113.154 28.053L112.437 26.9131M113.154 28.053L112.676 30.3327M112.676 30.3327C112.437 31.2969 112.125 33.6966 114.103 33.6966C115.603 33.6966 114.848 32.0683 112.676 30.3327Z" stroke="#002A3A" stroke-linecap="round" stroke-linejoin="round"/>
<path d="M152.377 34.542C140.09 39.8602 140.09 68.4687 168.699 69.3857C169.616 59.9106 168.699 44.0782 152.377 34.542Z" fill="#002A3A"/>
<path d="M92.7041 28.6198L95.5697 29.3972C96.9699 29.7771 98.4321 28.8731 98.8357 27.3773L98.9878 26.8135C99.3914 25.3177 98.5836 23.7979 97.1836 23.4181L94.3179 22.6406L92.7041 28.6198Z" fill="#002A3A"/>
<path d="M96.2159 29.5816C95.9891 29.5817 95.7634 29.5516 95.5445 29.4921L92.6789 28.7147C92.6541 28.708 92.633 28.6917 92.6203 28.6694C92.6075 28.6471 92.6041 28.6206 92.6108 28.5958L94.2246 22.6165C94.2313 22.5917 94.2476 22.5706 94.2698 22.5578C94.2921 22.545 94.3184 22.5416 94.3432 22.5482L97.2088 23.3257C97.5585 23.4216 97.8847 23.589 98.1667 23.8175C98.4487 24.0459 98.6804 24.3304 98.8474 24.6531C99.2008 25.3255 99.2844 26.1079 99.0811 26.8401L98.929 27.4039C98.5764 28.7102 97.4359 29.5819 96.2159 29.5819V29.5816ZM92.8228 28.5529L95.5951 29.305C96.9408 29.6702 98.3533 28.7946 98.7423 27.3533L98.8945 26.7895C99.0849 26.1048 99.0069 25.373 98.6767 24.744C98.522 24.4447 98.3073 24.1809 98.046 23.9689C97.7847 23.757 97.4824 23.6016 97.1582 23.5126L94.3858 22.7599L92.8228 28.5529Z" fill="#002A3A"/>
<path d="M81.4368 53.1544C82.8895 53.5486 84.4397 52.4886 84.899 50.7869L89.3899 34.1476C89.8489 32.4459 89.0437 30.7469 87.5909 30.3528C86.1381 29.9586 84.5879 31.0186 84.1286 32.7203L79.6378 49.3589C79.1787 51.0606 79.9838 52.7595 81.4368 53.1538" fill="#002A3A"/>
<path d="M82.057 53.3348C81.8388 53.3347 81.6215 53.3057 81.411 53.2485C79.9091 52.8411 79.0714 51.0854 79.544 49.3346L84.0348 32.6955C84.2454 31.8754 84.7409 31.1576 85.4322 30.6709C85.7418 30.442 86.0989 30.2861 86.4771 30.2149C86.8552 30.1437 87.2444 30.1591 87.6158 30.2599C87.9872 30.3607 88.331 30.5443 88.6216 30.797C88.9123 31.0497 89.1423 31.365 89.2943 31.7193C89.6466 32.4889 89.7134 33.3593 89.4828 34.1739L84.992 50.8122C84.7813 51.6321 84.2858 52.3498 83.5945 52.8362C83.1439 53.154 82.6079 53.3275 82.057 53.3338V53.3348ZM81.4616 53.0603C81.8064 53.1485 82.1664 53.1598 82.5161 53.0934C82.8658 53.027 83.1967 52.8845 83.4855 52.676C84.1388 52.2155 84.6068 51.5364 84.8053 50.7609L89.2961 34.1216C89.5146 33.3516 89.452 32.5287 89.1196 31.8008C88.9795 31.4719 88.7668 31.1791 88.4976 30.9444C88.2284 30.7097 87.9096 30.5392 87.5652 30.4458C87.2208 30.3524 86.8598 30.3384 86.5092 30.405C86.1587 30.4715 85.8278 30.6169 85.5413 30.8301C84.888 31.2906 84.4201 31.9697 84.2215 32.7452L79.7307 49.3844C79.2862 51.0317 80.0622 52.6807 81.4616 53.0603Z" fill="#002A3A"/>
<mask id="path-25-inside-1_41641_72988" fill="white">
<path d="M83.9773 32.0394L89.2189 33.4614C89.746 33.6043 90.308 33.5315 90.7815 33.2589C91.255 32.9863 91.6011 32.5364 91.7437 32.008L92.0599 30.8364C92.2024 30.308 92.1297 29.7445 91.8579 29.2698C91.586 28.7951 91.1372 28.4481 90.6102 28.3051L85.3684 26.883C84.8414 26.7402 84.2794 26.8131 83.8059 27.0857C83.3324 27.3582 82.9863 27.8081 82.8436 28.3365L82.5274 29.5076C82.3849 30.036 82.4576 30.5995 82.7295 31.0742C83.0013 31.5489 83.4501 31.8959 83.9771 32.0389"/>
</mask>
<path d="M83.9773 32.0394L89.2189 33.4614C89.746 33.6043 90.308 33.5315 90.7815 33.2589C91.255 32.9863 91.6011 32.5364 91.7437 32.008L92.0599 30.8364C92.2024 30.308 92.1297 29.7445 91.8579 29.2698C91.586 28.7951 91.1372 28.4481 90.6102 28.3051L85.3684 26.883C84.8414 26.7402 84.2794 26.8131 83.8059 27.0857C83.3324 27.3582 82.9863 27.8081 82.8436 28.3365L82.5274 29.5076C82.3849 30.036 82.4576 30.5995 82.7295 31.0742C83.0013 31.5489 83.4501 31.8959 83.9771 32.0389" fill="white"/>
<path d="M89.2189 33.4614L88.9571 34.4265L88.9572 34.4266L89.2189 33.4614ZM91.7437 32.008L90.7783 31.7474L90.7782 31.7474L91.7437 32.008ZM92.0599 30.8364L93.0254 31.097L93.0255 31.0967L92.0599 30.8364ZM90.6102 28.3051L90.8721 27.34L90.872 27.3399L90.6102 28.3051ZM85.3684 26.883L85.6303 25.9179L85.63 25.9178L85.3684 26.883ZM82.8436 28.3365L83.8091 28.5972L83.8091 28.5972L82.8436 28.3365ZM82.5274 29.5076L81.562 29.2469L81.5619 29.2472L82.5274 29.5076ZM83.7154 33.0045L88.9571 34.4265L89.4807 32.4963L84.2391 31.0743L83.7154 33.0045ZM88.9572 34.4266C89.741 34.6391 90.5767 34.5307 91.2804 34.1255L90.2826 32.3922C90.0394 32.5323 89.7509 32.5696 89.4806 32.4963L88.9572 34.4266ZM91.2804 34.1255C91.984 33.7205 92.4976 33.0523 92.7092 32.2685L90.7782 31.7474C90.7046 32.0204 90.5259 32.2522 90.2826 32.3922L91.2804 34.1255ZM92.7091 32.2686L93.0254 31.097L91.0945 30.5758L90.7783 31.7474L92.7091 32.2686ZM93.0255 31.0967C93.2368 30.313 93.129 29.4772 92.7256 28.7728L90.9901 29.7667C91.1304 30.0117 91.1681 30.3029 91.0944 30.5761L93.0255 31.0967ZM92.7256 28.7728C92.3222 28.0683 91.6557 27.5526 90.8721 27.34L90.3483 29.2702C90.6188 29.3435 90.8498 29.5218 90.9901 29.7667L92.7256 28.7728ZM90.872 27.3399L85.6303 25.9179L85.1066 27.8481L90.3484 29.2702L90.872 27.3399ZM85.63 25.9178C84.8463 25.7055 84.0106 25.8139 83.307 26.219L84.3048 27.9523C84.5481 27.8123 84.8365 27.775 85.1069 27.8482L85.63 25.9178ZM83.307 26.219C82.6034 26.624 82.0898 27.2922 81.8782 28.0758L83.8091 28.5972C83.8828 28.3241 84.0614 28.0924 84.3048 27.9523L83.307 26.219ZM81.8782 28.0758L81.562 29.2469L83.4928 29.7683L83.8091 28.5972L81.8782 28.0758ZM81.5619 29.2472C81.3506 30.0309 81.4583 30.8668 81.8617 31.5712L83.5972 30.5772C83.4569 30.3322 83.4193 30.041 83.4929 29.7679L81.5619 29.2472ZM81.8617 31.5712C82.2652 32.2756 82.9317 32.7914 83.7152 33.004L84.239 31.0738C83.9686 31.0004 83.7375 30.8221 83.5972 30.5772L81.8617 31.5712Z" fill="#002A3A" mask="url(#path-25-inside-1_41641_72988)"/>
<path d="M84.2803 29.5043L90.3037 31.1384C93.2465 31.9368 96.32 30.0359 97.1681 26.8927L97.488 25.7076C98.3364 22.5644 96.6384 19.369 93.6956 18.5706L87.6722 16.9365L84.2803 29.5043Z" fill="#0DD149"/>
<path d="M87.673 16.9364L84.2811 29.5036C79.7442 28.2728 74.8914 28.6487 70.3801 30.5805L63.2246 33.516L71.635 2.4375L76.2105 8.97856C79.1346 12.9276 83.1361 15.7055 87.673 16.9364Z" fill="white"/>
<path d="M63.9718 32.669L71.8383 3.60041L75.8008 9.26515L75.8006 9.26526L75.8087 9.2761C78.6931 13.1716 82.6096 15.959 87.0617 17.2824L83.9272 28.8957C79.4185 27.7884 74.6359 28.215 70.1868 30.1194L63.9718 32.669Z" fill="white" stroke="#002A3A"/>
<path d="M60.5168 16.1361C58.076 24.9551 58.6101 32.7777 61.7098 33.6085C64.8096 34.4392 69.3011 27.9633 71.742 19.1443C74.1829 10.3253 73.6487 2.5034 70.5489 1.67241C67.4492 0.841416 62.9576 7.31714 60.5168 16.1361Z" fill="#002A3A"/>
<path d="M60.5168 16.1361C58.076 24.9551 58.6101 32.7777 61.7098 33.6085C64.8096 34.4392 69.3011 27.9633 71.742 19.1443C74.1829 10.3253 73.6487 2.5034 70.5489 1.67241C67.4492 0.841416 62.9576 7.31714 60.5168 16.1361Z" fill="#002A3A"/>
<path d="M60.5168 16.1361C58.076 24.9551 58.6101 32.7777 61.7098 33.6085C64.8096 34.4392 69.3011 27.9633 71.742 19.1443C74.1829 10.3253 73.6487 2.5034 70.5489 1.67241C67.4492 0.841416 62.9576 7.31714 60.5168 16.1361Z" fill="#002A3A" stroke="#002A3A"/>
<path d="M87.4203 35.601C86.0705 33.82 83.2322 34.1162 81.4888 36.0849C80.2903 37.4822 78.9381 40.9373 82.4657 43.4058L83.0093 42.131C85.7188 42.4636 89.4913 38.3333 87.4203 35.601Z" fill="white" stroke="#002A3A" stroke-linecap="round" stroke-linejoin="round"/>
<path d="M84.8365 36.0213C85.5645 35.7144 87.5667 35.9655 87.9343 37.9302" stroke="#002A3A" stroke-linecap="round" stroke-linejoin="round"/>
<path d="M84.1835 37.55C85.5302 37.2055 87.2453 37.9448 87.2813 39.4588" stroke="#002A3A" stroke-linecap="round" stroke-linejoin="round"/>
</svg>
