<svg xmlns="http://www.w3.org/2000/svg" width="306" height="149" viewBox="0 0 306 149" fill="none">
<mask id="mask0_37761_9810" style="mask-type:alpha" maskUnits="userSpaceOnUse" x="0" y="22" width="198" height="126">
<rect x="0.513733" y="22.7539" width="197.325" height="125.21" fill="#C4C4C4"/>
</mask>
<g mask="url(#mask0_37761_9810)">
<g filter="url(#filter0_b_37761_9810)">
<path d="M57.9296 191.1C56.2478 182.128 54.6662 151.822 54.2293 141.338C53.3608 128.889 57.084 102.986 60.7816 102.024C68.8519 99.9257 90.0784 101.998 103.926 103.202C112.528 103.95 115.772 109.901 118.174 116.439C119.912 121.171 120.788 126.44 121.063 130.199C120.014 149.07 115.662 182.518 115.662 192.66C96.2669 201.571 66.0107 194.813 57.9296 191.1Z" fill="#002A3A"/>
</g>
<path d="M98.7465 35.1741C104.44 39.8667 101.29 48.5315 98.6485 52.7716L75.1686 85.0047C73.7034 85.9028 69.4031 86.8457 63.9237 83.4315C57.0744 79.1638 57.9814 72.258 55.046 70.429C52.1105 68.6 48.1402 69.522 47.6435 63.7791C47.2461 59.1848 51.1359 55.994 53.1305 54.9729C48.607 53.5126 46.3377 47.3445 48.592 42.6365C50.3954 38.8701 56.6318 38.8167 59.5246 39.2608C58.8297 37.4695 59.0091 34.0558 64.5864 32.2271C70.404 30.3197 72.0027 33.7738 82.3138 33.6757C87.3115 33.6282 90.5549 28.4228 98.7465 35.1741Z" fill="#002A3A"/>
<path d="M93.0802 90.0536C77.0513 93.1064 69.9707 80.635 68.434 74.0178C62.3223 72.9264 57.8993 69.6217 60.2939 64.1915C61.9385 60.462 66.0556 62.5745 68.7878 64.7297C66.6227 60.2112 63.6848 50.6833 69.2546 48.7204C76.2168 46.2667 86.3703 53.9515 89.9719 51.4414C92.3647 49.7738 93.8143 46.3647 96.7498 48.1937C102.205 60.8751 109.109 87.0009 93.0802 90.0536Z" fill="white" stroke="#002A3A" stroke-width="0.688182" stroke-linejoin="round"/>
<path d="M71.2543 82.5673C78.6224 93.0853 90.8362 91.325 96.022 89.1301L96.6344 97.3881L72.823 99.9175L71.2543 82.5673Z" fill="white" stroke="#002A3A" stroke-width="0.688182" stroke-linejoin="round"/>
<ellipse cx="81.0342" cy="58.4284" rx="4.07601" ry="1.6304" transform="rotate(-37.196 81.0342 58.4284)" fill="#002A3A"/>
<ellipse cx="95.352" cy="55.4573" rx="4.07601" ry="1.6304" transform="rotate(18.0437 95.352 55.4573)" fill="#002A3A"/>
<ellipse cx="84.787" cy="65.733" rx="1.6304" ry="2.4456" transform="rotate(-28.7054 84.787 65.733)" fill="#002A3A"/>
<ellipse cx="98.1129" cy="61.6938" rx="1.6304" ry="2.44561" transform="rotate(-19.8998 98.1129 61.6938)" fill="#002A3A"/>
<path d="M92.3676 61.7624C93.3891 65.0076 95.2006 71.8765 94.6098 74.366C94.5643 74.5579 94.4481 74.7267 94.2711 74.8137C93.7028 75.0931 92.6915 75.1156 91.7729 73.617" stroke="#002A3A" stroke-width="0.688182" stroke-linecap="round"/>
<path d="M88.5958 79.0755C88.5958 79.0755 86.9886 80.7936 84.7056 79.9153C82.5224 79.0755 82.3964 76.8928 82.3964 76.8928" stroke="#002A3A" stroke-width="0.688182" stroke-linecap="round"/>
<path d="M96.327 96.833C80.9785 97.0497 72.8486 85.8263 70.7023 80.1875C77.4643 92.0075 90.0259 91.3222 95.4614 89.502L96.327 96.833Z" fill="#002A3A"/>
<g filter="url(#filter1_b_37761_9810)">
<path d="M71.2872 95.5697L70.0048 103.264C69.9424 103.639 70.1981 103.993 70.5726 104.055C84.9946 106.424 95.8453 106.211 99.5914 105.445C99.8961 105.382 100.099 105.11 100.099 104.799V97.0572C100.099 96.6905 99.8115 96.3883 99.4453 96.3699L72.0004 94.9955C71.6514 94.978 71.3447 95.225 71.2872 95.5697Z" fill="#002A3A"/>
</g>
<g filter="url(#filter2_b_37761_9810)">
<path d="M113.666 99.9629C104.324 97.7554 95.3829 98.0129 88.7698 99.9628C88.7698 99.9628 120.203 126.345 118.142 127.264L119.112 137.015C133.506 159.246 151.667 152.308 153.738 149.188C156.486 145.049 152.637 133.731 144.929 130.419C144.929 130.419 125.344 102.722 113.666 99.9629Z" fill="#002A3A"/>
</g>
<path d="M85.9085 85.8135C86.9672 84.7548 90.1436 85.8135 94.8687 90.0486L99.6726 86.8723L104.966 96.1291C107.084 100.636 109.451 104.458 109.202 108.048C109.118 109.246 108.143 110.165 106.924 111.346C105.456 112.769 102.365 114.593 99.6726 113.342C97.7639 112.454 94.919 111.224 90.1437 108.048C84.0099 103.968 83.6768 99.3054 84.7356 96.1291C84.1464 94.4639 83.9012 92.9811 83.8222 92.4126C81.5995 90.0579 79.7985 87.6885 80.6148 86.8723C82.7323 84.7548 91.8886 93.2775 94.8687 96.1291C93.32 94.2837 84.3671 87.355 85.9085 85.8135Z" fill="white"/>
<path d="M94.8687 90.0486C90.1436 85.8135 86.9672 84.7548 85.9085 85.8135C84.3671 87.355 93.32 94.2837 94.8687 96.1291C91.8886 93.2775 82.7323 84.7548 80.6148 86.8723C78.8057 88.6814 89.8533 98.1198 89.8533 98.1198M94.8687 90.0486L99.6726 86.8723L104.966 96.1291M94.8687 90.0486L100.308 95.2941M90.6622 98.8608C90.5455 98.7664 90.2553 98.5034 89.8533 98.1198M89.8533 98.1198L83.791 92.1662C83.791 92.1662 84.516 99.1297 88.7256 101.695C84.5184 98.8608 84.9955 95.3492 84.7356 96.1291C83.6768 99.3054 84.0099 103.968 90.1437 108.048C94.919 111.224 97.7639 112.454 99.6726 113.342C102.365 114.593 105.456 112.769 106.924 111.346C108.143 110.165 109.118 109.246 109.202 108.048C109.451 104.458 107.084 100.636 104.966 96.1291M104.966 96.1291C104.324 95.3757 105.754 96.8827 104.966 96.1291Z" stroke="#002A3A" stroke-width="0.688182" stroke-linecap="round" stroke-linejoin="round"/>
<path d="M22.5414 155.843C35.015 120.372 49.6986 107.769 59.9633 102.441L62.6323 138.457L44.7612 160.131L65.0288 196.772L53.7247 204.178C20.9817 178.841 19.9371 163.25 22.5414 155.843Z" fill="#002A3A"/>
<path d="M101.791 115.457C107.085 122.868 119.492 137.95 120.339 138.797" stroke="white" stroke-width="0.688182" stroke-linecap="round"/>
</g>
<circle cx="123.234" cy="57.8531" r="6.24761" stroke="#002A3A" stroke-width="0.688182" stroke-linejoin="round"/>
<circle cx="115.035" cy="69.8188" r="3.90475" stroke="#002A3A" stroke-width="0.688182" stroke-linejoin="round"/>
<path d="M142.874 3.47553C152.747 2.93175 157.273 10.9525 158.301 15.0309C164.815 13.4448 177.499 19.4015 177.499 32.7038C177.499 45.9585 162.415 48.6774 158.301 47.3179C158.301 47.3179 154.53 56.1544 142.874 56.1544C131.218 56.1544 127.104 47.3179 127.104 47.3179C123.676 48.6774 112.706 50.3766 107.562 42.22C101.562 32.7038 108.819 24.4337 112.705 22.168C112.019 19.7889 112.815 15.4948 115.79 13.3315C120.932 9.59299 125.046 10.9525 127.104 12.3119C128.246 9.59302 133 4.01931 142.874 3.47553Z" stroke="#002A3A" stroke-width="0.650681"/>
<rect x="129.836" y="22.8047" width="28.5755" height="21.0556" rx="3.90409" fill="white" stroke="#002A3A" stroke-width="0.650681" stroke-miterlimit="10" stroke-linecap="round" stroke-linejoin="round"/>
<ellipse cx="148.635" cy="28.0695" rx="2.63195" ry="2.63196" fill="#002A3A"/>
<ellipse cx="152.771" cy="28.0695" rx="2.63195" ry="2.63196" fill="#0DD149"/>
<rect x="132.844" y="34.8398" width="6.39189" height="1.87997" rx="0.939985" fill="#002A3A"/>
<rect x="132.843" y="37.4727" width="21.8076" height="1.87997" rx="0.939985" fill="#002A3A"/>
<path d="M122.597 34.0377L122.588 34.0324L122.578 34.0278C120.197 32.8819 118.947 30.9238 118.595 28.734C118.24 26.5345 118.792 24.0963 120.035 22.0323C121.281 19.9643 123.088 18.3593 125.173 17.6115C127.249 16.867 129.628 16.962 132.058 18.3339C134.244 19.5677 135.733 21.2921 136.293 23.3415C136.853 25.3887 136.498 27.8081 134.9 30.4603C133.374 32.9933 131.339 34.468 129.18 35.024C127.019 35.5807 124.701 35.2253 122.597 34.0377Z" fill="white" stroke="#002A3A" stroke-width="0.650681"/>
<ellipse cx="7.92724" cy="9.49225" rx="7.92724" ry="9.49225" transform="matrix(0.870856 0.491584 -0.51602 0.856548 124.609 13.75)" fill="#002A3A"/>
<path d="M134.277 21.7412L136.138 22.6934" stroke="#002A3A" stroke-width="0.650681"/>
<path d="M134.619 23.793L136.637 25.017" stroke="#002A3A" stroke-width="0.650681"/>
<path d="M134.276 26.1873L136.367 27.1901" stroke="#002A3A" stroke-width="0.650681"/>
<path d="M135.669 29.1275L134.104 28.1836" stroke="#002A3A" stroke-width="0.650681"/>
<path d="M132.828 30.6328L133.423 30.9687L134.256 31.439" stroke="#002A3A" stroke-width="0.650681"/>
<path d="M131.408 32.1133L132.003 32.4492L132.836 32.9195" stroke="#002A3A" stroke-width="0.650681"/>
<path d="M129.14 33.0391L131.033 34.3197" stroke="#002A3A" stroke-width="0.650681"/>
<path d="M126.743 34.0703L128.251 35.3112" stroke="#002A3A" stroke-width="0.650681"/>
<path d="M125.238 26.0521C124.403 27.3179 122.971 27.7 122.07 27.1053C121.169 26.5105 120.956 25.0435 121.791 23.7778C122.626 22.512 124.058 22.1299 124.959 22.7247C125.86 23.3194 126.073 24.7864 125.238 26.0521Z" stroke="white" stroke-width="0.650681"/>
<path d="M131.577 27.6844C131.147 28.3068 130.59 28.7376 130.052 28.9404C129.513 29.1437 129.024 29.1095 128.673 28.8667C128.322 28.6239 128.118 28.1791 128.117 27.6025C128.117 27.0274 128.323 26.3545 128.753 25.7321C129.183 25.1098 129.74 24.679 130.278 24.4762C130.817 24.2729 131.306 24.3071 131.657 24.5499C132.008 24.7927 132.212 25.2375 132.213 25.8141C132.213 26.3892 132.007 27.0621 131.577 27.6844Z" stroke="white" stroke-width="0.650681"/>
<path d="M130.143 21.2515L123.664 30.7742" stroke="white" stroke-width="0.650681" stroke-linecap="round"/>
<g filter="url(#filter3_b_37761_9810)">
<ellipse cx="5.7149" cy="6.84679" rx="5.7149" ry="6.84679" transform="matrix(-0.865164 0.502633 0.52352 0.851292 157.841 1.79688)" fill="#00AFFF"/>
</g>
<path fill-rule="evenodd" clip-rule="evenodd" d="M160.07 16.3335C157.341 17.9189 153.522 16.5936 151.542 13.3734C149.596 10.2094 150.148 6.39331 152.756 4.7571C152.634 4.81978 152.511 4.88679 152.388 4.95823C149.176 6.8237 147.959 10.1684 150.35 14.0555C152.641 17.7807 156.454 18.4237 159.56 16.6197C159.761 16.5199 159.951 16.4124 160.131 16.2977C160.111 16.3098 160.09 16.3217 160.07 16.3335ZM162.078 14.0824C162.295 13.6008 162.444 13.0802 162.523 12.5359C162.448 13.0728 162.301 13.5934 162.078 14.0824ZM160.485 6.38324C159.383 5.18096 157.991 4.39374 156.579 4.11489C158.076 4.36684 159.429 5.19978 160.485 6.38324Z" fill="#002A3A"/>
<path d="M157.984 14.4184L153.525 7.6875" stroke="white" stroke-width="0.650681" stroke-linecap="round" stroke-linejoin="round"/>
<path d="M154.918 11.8652L157.24 10.2842C158.206 9.62648 158.467 8.30502 157.823 7.33259V7.33259C157.179 6.36016 155.874 6.10501 154.908 6.76268L153.521 7.70686L155.034 9.99106" stroke="white" stroke-width="0.650681" stroke-linecap="round"/>
<path d="M155.772 13.1328L159.389 10.6993" stroke="white" stroke-width="0.650681" stroke-linecap="round" stroke-linejoin="round"/>
<path fill-rule="evenodd" clip-rule="evenodd" d="M137.227 15.8666C138.414 12.7247 142.535 9.91222 147.314 11.7228C147.57 11.8196 147.855 11.6909 147.952 11.4354C148.049 11.1798 147.92 10.8942 147.665 10.7974C142.319 8.77209 137.66 11.9206 136.302 15.5169C136.205 15.7725 136.334 16.0581 136.59 16.1546C136.845 16.2512 137.131 16.1223 137.227 15.8666Z" fill="#002A3A"/>
<path d="M136.621 17.2968C136.277 17.4377 135.885 17.2616 135.761 16.9106L135.204 15.3282C135.014 14.7888 135.563 14.2843 136.084 14.5186L138.194 15.4659C138.716 15.7002 138.703 16.4453 138.174 16.6618L136.621 17.2968Z" fill="#002A3A"/>
<mask id="mask1_37761_9810" style="mask-type:alpha" maskUnits="userSpaceOnUse" x="119" y="23" width="187" height="126">
<rect width="185.712" height="125.071" transform="matrix(-1 0 0 1 305.032 23.0508)" fill="#C4C4C4"/>
</mask>
<g mask="url(#mask1_37761_9810)">
<g filter="url(#filter4_b_37761_9810)">
<path d="M245.202 100.924L238.354 100.102L237.041 93.9648L219.506 97.4717V101.417L205.479 104.485C202.556 105.216 196.361 108.957 194.958 118.075L193.204 125.527C191.802 121.669 187.652 113.983 185.752 110.622L173.478 111.061C174.209 121.435 175.845 142.71 176.547 144.815C177.423 147.445 181.369 151.39 184.437 154.02C186.892 156.124 189.844 155.773 191.013 155.335C198.377 153.582 203.138 139.7 204.602 132.979C206.457 137.823 209.092 145.81 210.551 147.869L239.482 148.746L248.29 129.472C252.58 133.346 255.314 135.437 258.433 137.48C255.012 138.596 250.366 140.889 243.272 145.588C244.587 147.633 248.223 157.065 252.432 159.169C275.928 151.454 283.191 144.927 282.752 139.959C282.753 129.123 263.186 110.458 252.867 103.516C250.592 101.985 247.925 101.25 245.202 100.924Z" fill="white"/>
<path d="M258.433 137.48C255.314 135.437 252.58 133.346 248.29 129.472M248.29 129.472C246.751 128.082 245.418 126.73 244.492 125.527M248.29 129.472L239.482 148.746L210.551 147.869C209.092 145.81 206.457 137.823 204.602 132.979M201.972 122.02C202.261 125.783 203.298 129.575 204.602 132.979M265.381 136.429C261.245 136.429 256.538 136.8 243.272 145.588C244.587 147.633 248.224 157.065 252.432 159.169C275.928 151.454 283.191 144.927 282.752 139.959C282.753 129.123 263.186 110.458 252.867 103.516C250.592 101.985 247.925 101.25 245.202 100.924L238.354 100.102L237.041 93.9648L219.506 97.4717V101.417L205.479 104.485C202.556 105.216 196.361 108.957 194.958 118.075L193.204 125.527M193.204 125.527C191.802 121.669 187.652 113.983 185.752 110.622L173.478 111.061C174.209 121.435 175.845 142.71 176.547 144.815C177.423 147.445 181.369 151.39 184.437 154.02C186.892 156.124 189.844 155.773 191.013 155.335C198.377 153.582 203.138 139.7 204.602 132.979M193.204 125.527C194.738 129.034 196.473 137.801 197.15 141.746" stroke="#002A3A" stroke-width="0.605417" stroke-linecap="round" stroke-linejoin="round"/>
</g>
<path d="M164.214 88.555L173.708 106.717C173.832 106.954 174.096 107.082 174.359 107.031L184.53 105.075C184.923 105 185.136 104.569 184.957 104.21L175.874 86.0442C175.753 85.8029 175.487 85.6706 175.222 85.7197L164.64 87.6792C164.24 87.7534 164.025 88.194 164.214 88.555Z" fill="#002A3A" stroke="#002A3A" stroke-width="0.605417" stroke-linejoin="round"/>
<g filter="url(#filter5_b_37761_9810)">
<path d="M180.931 96.5958L179.178 93.0889C179.908 92.5044 181.106 91.9492 181.808 92.6505C182.684 93.5273 182.246 95.2807 180.931 96.5958Z" fill="white"/>
<path d="M174.356 111.062C172.456 109.454 168.482 106.064 167.78 105.363C166.904 104.486 167.78 100.541 166.904 99.6643C166.027 98.7876 164.712 98.3492 165.15 95.7191C165.501 93.6149 167.926 90.751 169.095 89.582C169.68 89.582 170.586 90.3711 169.534 93.5273L168.219 97.9109C170.557 95.7191 175.495 91.6862 176.547 93.0889C177.863 94.8423 173.479 97.9109 173.041 98.3492L170.849 100.541C173.187 99.0798 178.038 96.5081 178.739 97.9109C179.441 99.3136 175.817 101.71 173.917 102.733C175.525 102.294 178.827 101.593 179.178 102.294C179.528 102.996 175.817 105.509 173.917 106.678L181.369 105.801L182.684 110.623L174.356 111.062Z" fill="white"/>
<path d="M173.041 98.3492C173.479 97.9109 177.863 94.8423 176.547 93.0889C175.495 91.6862 170.557 95.7191 168.219 97.9109L169.534 93.5273C170.586 90.3711 169.68 89.582 169.095 89.582C167.926 90.751 165.501 93.6149 165.15 95.7191C164.712 98.3492 166.027 98.7876 166.904 99.6643C167.78 100.541 166.904 104.486 167.78 105.363C168.482 106.064 172.456 109.454 174.356 111.062L182.684 110.623L181.369 105.801L173.917 106.678C175.817 105.509 179.528 102.996 179.178 102.294C178.827 101.593 175.525 102.294 173.917 102.733C175.817 101.71 179.441 99.3136 178.739 97.9109C178.038 96.5081 173.187 99.0798 170.849 100.541M173.041 98.3492C172.69 98.6999 171.433 99.9565 170.849 100.541M173.041 98.3492L170.849 100.541M180.931 96.5958L179.178 93.0889C179.908 92.5044 181.106 91.9492 181.808 92.6505C182.684 93.5273 182.246 95.2807 180.931 96.5958Z" stroke="#002A3A" stroke-width="0.605417" stroke-linejoin="round"/>
</g>
<path d="M219.348 48.1728C224.534 44.8859 228.934 45.4743 230.998 47.0651C248.67 44.5627 252.902 63.4493 250.704 71.912C249.295 77.3417 250.831 87.3339 252.383 91.3362C246.181 93.9206 237.479 94.727 225.643 93.528C214.73 92.4225 209.504 88.2001 206.703 85.8021L210.512 78.5873L213.111 59.1775C214.077 54.5516 214.162 51.4597 219.348 48.1728Z" fill="#002A3A" stroke="#002A3A" stroke-width="0.605417" stroke-linecap="round" stroke-linejoin="round"/>
<path d="M219.208 89.6521C205.64 86.2929 211.478 66.1581 214.244 56.0529C218.611 52.4819 221.631 51.7505 222.596 51.8312C225.259 58.9196 235.384 67.5096 240.115 70.9185C241.643 69.7495 244.874 68.4331 245.573 72.5194C246.271 76.6056 241.879 77.7073 239.66 77.8649C237.221 82.8102 229.819 92.279 219.208 89.6521Z" fill="white" stroke="#002A3A" stroke-width="0.605417" stroke-linecap="round" stroke-linejoin="round"/>
<path d="M219.913 66.1484L217.101 75.7331C216.947 76.2604 216.821 76.9299 217.293 77.212C217.597 77.3938 218.089 77.4384 218.853 77.1141" stroke="#002A3A" stroke-width="0.605417" stroke-linecap="round" stroke-linejoin="round"/>
<path d="M224.69 80.3429C224.152 81.4151 222.414 83.2191 219.773 81.8566" stroke="#002A3A" stroke-width="0.605417" stroke-linecap="round" stroke-linejoin="round"/>
<path d="M225.555 68.9707C226.266 68.9993 227.798 69.4128 228.243 70.8374" stroke="#002A3A" stroke-width="0.605417" stroke-linecap="round" stroke-linejoin="round"/>
<path d="M213.639 65.4746C214.349 65.5032 215.881 65.9167 216.326 67.3413" stroke="#002A3A" stroke-width="0.605417" stroke-linecap="round" stroke-linejoin="round"/>
<path d="M224.314 63.9736C225.583 63.4221 229.071 63.1678 231.375 65.5891" stroke="#002A3A" stroke-width="0.605417" stroke-linecap="round" stroke-linejoin="round"/>
<path d="M218.431 63.1887C217.515 61.3229 215.852 60.3072 214.395 59.8409" stroke="#002A3A" stroke-width="0.605417" stroke-linecap="round" stroke-linejoin="round"/>
<circle cx="227.274" cy="70.4563" r="4.87133" transform="rotate(16.3466 227.274 70.4563)" stroke="#002A3A" stroke-width="0.605417" stroke-linecap="round" stroke-linejoin="round"/>
<circle cx="213.372" cy="66.382" r="4.87133" transform="rotate(16.3466 213.372 66.382)" stroke="#002A3A" stroke-width="0.605417" stroke-linecap="round" stroke-linejoin="round"/>
<path d="M222.308 69.0083C220.802 67.6076 219.457 67.1069 217.926 67.4038M232.179 70.2856L240.063 70.9805" stroke="#002A3A" stroke-width="0.605417" stroke-linecap="round" stroke-linejoin="round"/>
<path d="M214.272 66.9318C214.244 67.3364 214.117 67.6728 213.95 67.8913C213.781 68.1136 213.602 68.1802 213.461 68.1589C213.32 68.1375 213.154 68.0186 213.019 67.7502C212.885 67.4863 212.807 67.1189 212.835 66.7143C212.863 66.3098 212.99 65.9734 213.156 65.7549C213.326 65.5326 213.505 65.466 213.646 65.4873C213.787 65.5086 213.953 65.6275 214.088 65.8959C214.221 66.1598 214.3 66.5273 214.272 66.9318Z" fill="#002A3A" stroke="#002A3A" stroke-width="0.605417" stroke-linecap="round" stroke-linejoin="round"/>
<path d="M226.545 70.4435C226.517 70.8481 226.39 71.1845 226.223 71.403C226.054 71.6253 225.875 71.6919 225.734 71.6706C225.593 71.6492 225.427 71.5304 225.292 71.2619C225.158 70.9981 225.08 70.6306 225.108 70.2261C225.136 69.8215 225.263 69.4851 225.429 69.2666C225.599 69.0443 225.778 68.9777 225.919 68.999C226.06 69.0204 226.226 69.1392 226.361 69.4076C226.494 69.6715 226.572 70.039 226.545 70.4435Z" fill="#002A3A" stroke="#002A3A" stroke-width="0.605417" stroke-linecap="round" stroke-linejoin="round"/>
<path d="M236.602 94.843L237.479 81.2539C233.271 91.0732 224.328 92.6512 220.383 92.2129V97.0348L236.602 94.843Z" fill="white" stroke="#002A3A" stroke-width="0.605417" stroke-linecap="round" stroke-linejoin="round"/>
</g>
<path d="M290.718 148.117L12.7337 148.117" stroke="#002A3A" stroke-width="0.605417"/>
<path d="M251.023 142.454C255.534 142.152 260.171 146.107 261.926 148.123H240.496C239.368 148.123 238.616 147.367 239.744 146.611C240.872 145.855 245.383 142.832 251.023 142.454Z" fill="white"/>
<path d="M240.496 148.123C239.368 148.123 238.616 147.367 239.744 146.611C240.872 145.855 245.383 142.832 251.023 142.454C255.534 142.152 260.171 146.107 261.926 148.123H240.496ZM240.496 148.123C241.398 148.123 246.636 146.359 249.143 145.477" stroke="#002A3A" stroke-width="0.605417" stroke-linecap="round" stroke-linejoin="round"/>
<path fill-rule="evenodd" clip-rule="evenodd" d="M147.947 63.3164C145.94 63.3164 144.314 64.9427 144.314 66.9489V75.1807C144.314 77.1869 145.94 78.8132 147.947 78.8132H168.235L175.383 83.5748C175.583 83.7085 175.852 83.5653 175.853 83.3242L175.872 78.8132H177.553C179.559 78.8132 181.186 77.1869 181.186 75.1807V66.9489C181.186 64.9427 179.559 63.3164 177.553 63.3164H147.947Z" fill="white"/>
<path d="M168.235 78.8132L168.415 78.5424C168.362 78.5068 168.299 78.4879 168.235 78.4879V78.8132ZM175.383 83.5748L175.202 83.8456V83.8456L175.383 83.5748ZM175.853 83.3242L175.528 83.3228L175.853 83.3242ZM175.872 78.8132V78.4879C175.693 78.4879 175.547 78.6327 175.547 78.8118L175.872 78.8132ZM144.639 66.9489C144.639 65.1224 146.12 63.6417 147.947 63.6417V62.9911C145.761 62.9911 143.989 64.763 143.989 66.9489H144.639ZM144.639 75.1807V66.9489H143.989V75.1807H144.639ZM147.947 78.4879C146.12 78.4879 144.639 77.0072 144.639 75.1807H143.989C143.989 77.3665 145.761 79.1385 147.947 79.1385V78.4879ZM168.235 78.4879H147.947V79.1385H168.235V78.4879ZM175.563 83.3041L168.415 78.5424L168.055 79.084L175.202 83.8456L175.563 83.3041ZM175.528 83.3228C175.528 83.3212 175.529 83.3159 175.532 83.3106C175.535 83.3061 175.538 83.304 175.54 83.3029C175.542 83.3019 175.545 83.3006 175.55 83.3008C175.557 83.301 175.562 83.3032 175.563 83.3041L175.202 83.8456C175.619 84.123 176.176 83.8258 176.178 83.3255L175.528 83.3228ZM175.547 78.8118L175.528 83.3228L176.178 83.3255L176.197 78.8146L175.547 78.8118ZM177.553 78.4879H175.872V79.1385H177.553V78.4879ZM180.86 75.1807C180.86 77.0072 179.38 78.4879 177.553 78.4879V79.1385C179.739 79.1385 181.511 77.3666 181.511 75.1807H180.86ZM180.86 66.9489V75.1807H181.511V66.9489H180.86ZM177.553 63.6417C179.38 63.6417 180.86 65.1224 180.86 66.9489H181.511C181.511 64.7631 179.739 62.9911 177.553 62.9911V63.6417ZM147.947 63.6417H177.553V62.9911H147.947V63.6417Z" fill="#002A3A"/>
<path d="M159.276 68.1328H176.91" stroke="#002A3A" stroke-width="0.650681" stroke-linecap="round"/>
<path d="M159.276 71.0742H176.91" stroke="#002A3A" stroke-width="0.650681" stroke-linecap="round"/>
<path d="M159.276 74.2773H168.093" stroke="#002A3A" stroke-width="0.650681" stroke-linecap="round"/>
<mask id="mask2_37761_9810" style="mask-type:alpha" maskUnits="userSpaceOnUse" x="147" y="67" width="8" height="8">
<path d="M148.867 74.9497C148.086 74.1588 147.602 73.1224 147.497 72.0156C147.429 71.3225 147.522 70.6231 147.769 69.9718C148.09 69.0971 148.682 68.3472 149.457 67.8305C150.229 67.3019 151.154 67.0438 152.087 67.0966C152.908 67.1342 153.698 67.4185 154.354 67.9122L154.392 67.9412C154.395 67.9409 154.397 67.9484 154.392 67.945L148.867 74.9497Z" fill="#002A3A"/>
</mask>
<g mask="url(#mask2_37761_9810)">
<rect x="141.372" y="62.6602" width="19.6025" height="19.6025" transform="rotate(-6.61128 141.372 62.6602)" fill="#00AFFF"/>
</g>
<mask id="mask3_37761_9810" style="mask-type:alpha" maskUnits="userSpaceOnUse" x="150" y="67" width="8" height="9">
<path d="M155.614 67.5283C156.396 68.3205 156.881 69.3582 156.987 70.4664C157.055 71.1606 156.961 71.861 156.714 72.5131C156.392 73.3878 155.801 74.1376 155.025 74.6544C154.253 75.1839 153.327 75.4423 152.392 75.3894C151.57 75.3516 150.779 75.0671 150.122 74.5729L150.085 74.5439C150.081 74.5443 150.079 74.5367 150.084 74.5401L155.614 67.5283Z" fill="#002A3A"/>
</mask>
<g mask="url(#mask3_37761_9810)">
<rect x="146.459" y="66.1016" width="10.867" height="10.867" transform="rotate(-6.61128 146.459 66.1016)" fill="#0DD149"/>
</g>
<defs>
<filter id="filter0_b_37761_9810" x="48.3877" y="95.4108" width="78.3892" height="107.368" filterUnits="userSpaceOnUse" color-interpolation-filters="sRGB">
<feFlood flood-opacity="0" result="BackgroundImageFix"/>
<feGaussianBlur in="BackgroundImageFix" stdDeviation="2.85712"/>
<feComposite in2="SourceAlpha" operator="in" result="effect1_backgroundBlur_37761_9810"/>
<feBlend mode="normal" in="SourceGraphic" in2="effect1_backgroundBlur_37761_9810" result="shape"/>
</filter>
<filter id="filter1_b_37761_9810" x="64.2812" y="89.2799" width="41.5321" height="22.4031" filterUnits="userSpaceOnUse" color-interpolation-filters="sRGB">
<feFlood flood-opacity="0" result="BackgroundImageFix"/>
<feGaussianBlur in="BackgroundImageFix" stdDeviation="2.85712"/>
<feComposite in2="SourceAlpha" operator="in" result="effect1_backgroundBlur_37761_9810"/>
<feBlend mode="normal" in="SourceGraphic" in2="effect1_backgroundBlur_37761_9810" result="shape"/>
</filter>
<filter id="filter2_b_37761_9810" x="83.0556" y="92.6881" width="77.2819" height="65.741" filterUnits="userSpaceOnUse" color-interpolation-filters="sRGB">
<feFlood flood-opacity="0" result="BackgroundImageFix"/>
<feGaussianBlur in="BackgroundImageFix" stdDeviation="2.85712"/>
<feComposite in2="SourceAlpha" operator="in" result="effect1_backgroundBlur_37761_9810"/>
<feBlend mode="normal" in="SourceGraphic" in2="effect1_backgroundBlur_37761_9810" result="shape"/>
</filter>
<filter id="filter3_b_37761_9810" x="147.771" y="1.39532" width="17.4202" height="18.2054" filterUnits="userSpaceOnUse" color-interpolation-filters="sRGB">
<feFlood flood-opacity="0" result="BackgroundImageFix"/>
<feGaussianBlur in="BackgroundImageFix" stdDeviation="1.30136"/>
<feComposite in2="SourceAlpha" operator="in" result="effect1_backgroundBlur_37761_9810"/>
<feBlend mode="normal" in="SourceGraphic" in2="effect1_backgroundBlur_37761_9810" result="shape"/>
</filter>
<filter id="filter4_b_37761_9810" x="168.938" y="89.4242" width="118.374" height="74.2844" filterUnits="userSpaceOnUse" color-interpolation-filters="sRGB">
<feFlood flood-opacity="0" result="BackgroundImageFix"/>
<feGaussianBlur in="BackgroundImageFix" stdDeviation="2.11896"/>
<feComposite in2="SourceAlpha" operator="in" result="effect1_backgroundBlur_37761_9810"/>
<feBlend mode="normal" in="SourceGraphic" in2="effect1_backgroundBlur_37761_9810" result="shape"/>
</filter>
<filter id="filter5_b_37761_9810" x="162.339" y="86.8576" width="23.0701" height="26.9293" filterUnits="userSpaceOnUse" color-interpolation-filters="sRGB">
<feFlood flood-opacity="0" result="BackgroundImageFix"/>
<feGaussianBlur in="BackgroundImageFix" stdDeviation="1.21083"/>
<feComposite in2="SourceAlpha" operator="in" result="effect1_backgroundBlur_37761_9810"/>
<feBlend mode="normal" in="SourceGraphic" in2="effect1_backgroundBlur_37761_9810" result="shape"/>
</filter>
</defs>
</svg>
