<svg width="24" height="24" viewBox="0 0 24 24" fill="none" xmlns="http://www.w3.org/2000/svg">
<path fill-rule="evenodd" clip-rule="evenodd" d="M15.6326 -0.00390625C18.042 -0.00390625 19.2464 -0.00390625 20.5434 0.406094C21.9594 0.921494 23.0746 2.03669 23.59 3.45269C24 4.74949 24 5.95429 24 8.36349V15.6287C24 18.0381 24 19.2425 23.59 20.5395C23.0746 21.9555 21.9594 23.0707 20.5434 23.5859C19.2464 23.9961 18.042 23.9961 15.6326 23.9961H8.3674C5.958 23.9961 4.7534 23.9961 3.4566 23.5859C2.0406 23.0707 0.9254 21.9555 0.41 20.5395C0 19.2425 0 18.0381 0 15.6287V8.36349C0 5.95429 0 4.74949 0.41 3.45269C0.9254 2.03669 2.0406 0.921494 3.4566 0.406094C4.7534 -0.00390625 5.958 -0.00390625 8.3674 -0.00390625H15.6326Z" fill="url(#paint0_linear_36341_39567)"/>
<path d="M5.09573 12.1604C6.37916 11.4181 7.81182 10.7986 9.15043 10.1759C11.4534 9.15605 13.7654 8.15384 16.1008 7.2208C16.5552 7.06182 17.3716 6.90634 17.4517 7.61335C17.4079 8.61412 17.2276 9.60902 17.1039 10.6039C16.7899 12.7918 16.427 14.9722 16.0732 17.1529C15.9513 17.8793 15.0846 18.2553 14.5301 17.7904C13.1975 16.8453 11.8545 15.9094 10.5389 14.9423C10.1079 14.4825 10.5076 13.8223 10.8925 13.4939C11.9901 12.3582 13.1541 11.3933 14.1944 10.1988C14.475 9.48736 13.6459 10.087 13.3724 10.2707C11.8698 11.3579 10.4039 12.5115 8.81964 13.467C8.0104 13.9347 7.06722 13.535 6.25835 13.274C5.53309 12.9588 4.47031 12.6411 5.09566 12.1604L5.09573 12.1604Z" fill="white"/>
<defs>
<linearGradient id="paint0_linear_36341_39567" x1="12" y1="-0.00390625" x2="12" y2="23.9961" gradientUnits="userSpaceOnUse">
<stop stop-color="#37BBFE"/>
<stop offset="1" stop-color="#007DBB"/>
</linearGradient>
</defs>
</svg>
