<svg width="24" height="24" viewBox="0 0 24 24" fill="none" xmlns="http://www.w3.org/2000/svg">
<path fill-rule="evenodd" clip-rule="evenodd" d="M15.6326 0C18.042 0 19.2464 0 20.5434 0.41C21.9594 0.9254 23.0746 2.0406 23.59 3.4566C24 4.7534 24 5.9582 24 8.3674V15.6326C24 18.042 24 19.2464 23.59 20.5434C23.0746 21.9594 21.9594 23.0746 20.5434 23.5898C19.2464 24 18.042 24 15.6326 24H8.3674C5.958 24 4.7534 24 3.4566 23.5898C2.0406 23.0746 0.9254 21.9594 0.41 20.5434C0 19.2464 0 18.042 0 15.6326V8.3674C0 5.9582 0 4.7534 0.41 3.4566C0.9254 2.0406 2.0406 0.9254 3.4566 0.41C4.7534 0 5.958 0 8.3674 0H15.6326Z" fill="url(#gradient1222)"/>
<path fill-rule="evenodd" clip-rule="evenodd" d="M12.3987 18.6747H12.3957C11.2015 18.6743 10.028 18.3747 8.9858 17.8062L5.20312 18.7984L6.21543 15.1009C5.59099 14.0187 5.26241 12.7912 5.26295 11.5336C5.26452 7.59928 8.46553 4.39844 12.3986 4.39844C14.3074 4.39926 16.099 5.14237 17.4462 6.49114C18.7934 7.83985 19.535 9.6326 19.5342 11.5392C19.5326 15.4726 16.3329 18.6731 12.3987 18.6747ZM9.16209 16.5123L9.37866 16.6408C10.2893 17.1812 11.3331 17.4671 12.3973 17.4675H12.3997C15.6686 17.4675 18.3291 14.8069 18.3304 11.5367C18.331 9.95195 17.7147 8.46189 16.595 7.34084C15.4753 6.21979 13.9862 5.60211 12.402 5.60156C9.13062 5.60156 6.47005 8.2619 6.46875 11.5319C6.46829 12.6525 6.78185 13.7439 7.37553 14.6882L7.51654 14.9126L6.9174 17.1011L9.16209 16.5123ZM15.7499 13.0754C15.8742 13.1355 15.9582 13.1761 15.9941 13.236C16.0386 13.3103 16.0386 13.6673 15.8901 14.0838C15.7415 14.5003 15.0292 14.8804 14.6866 14.9316C14.3795 14.9775 13.9908 14.9967 13.5637 14.8609C13.3047 14.7788 12.9726 14.6691 12.5472 14.4853C10.8758 13.7636 9.7462 12.1436 9.53271 11.8374C9.51775 11.816 9.50729 11.801 9.50146 11.7932L9.50002 11.7913C9.40566 11.6654 8.77344 10.8218 8.77344 9.94879C8.77344 9.12752 9.17686 8.69706 9.36255 8.49891C9.37527 8.48534 9.38697 8.47285 9.39745 8.46141C9.56088 8.28291 9.75405 8.23828 9.8729 8.23828C9.99175 8.23828 10.1107 8.23938 10.2146 8.2446C10.2274 8.24524 10.2408 8.24516 10.2546 8.24508C10.3585 8.24447 10.488 8.24371 10.6158 8.55066C10.6649 8.66878 10.7369 8.84391 10.8127 9.02862C10.9662 9.40212 11.1357 9.81479 11.1655 9.87451C11.2101 9.96376 11.2398 10.0678 11.1803 10.1869C11.1714 10.2047 11.1632 10.2216 11.1553 10.2377C11.1107 10.3288 11.0778 10.3958 11.0021 10.4843C10.9723 10.5191 10.9415 10.5566 10.9107 10.5941C10.8494 10.6688 10.788 10.7435 10.7346 10.7967C10.6454 10.8856 10.5524 10.982 10.6564 11.1605C10.7604 11.339 11.1183 11.9229 11.6483 12.3956C12.2181 12.9039 12.7133 13.1187 12.9643 13.2275C13.0133 13.2488 13.053 13.266 13.0821 13.2806C13.2603 13.3699 13.3644 13.3549 13.4684 13.236C13.5724 13.117 13.9141 12.7153 14.0329 12.5369C14.1517 12.3584 14.2707 12.3882 14.434 12.4476C14.5975 12.5072 15.4741 12.9385 15.6524 13.0277C15.6872 13.0451 15.7197 13.0609 15.7499 13.0754Z" fill="#FDFDFD"/>
<defs>
<linearGradient id="gradient1222" x1="22.5" y1="3" x2="-5.81145e-07" y2="24" gradientUnits="userSpaceOnUse">
<stop stop-color="#5BD066"/>
<stop offset="1" stop-color="#27B43E"/>
</linearGradient>
</defs>
</svg>
