<svg width="261" height="219" viewBox="0 0 261 219" fill="none" xmlns="http://www.w3.org/2000/svg">
<g filter="url(#filter0_dii_1029_34303)">
<rect x="134.92" y="129.54" width="62.519" height="62.2518" rx="16.7808" fill="#9E0918"/>
</g>
<g clip-path="url(#clip0_1029_34303)">
<path d="M183.559 129.54H149.38C141.394 129.54 134.92 136.014 134.92 144V178.179C134.92 186.165 141.394 192.639 149.38 192.639H183.559C191.545 192.639 198.019 186.165 198.019 178.179V144C198.019 136.014 191.545 129.54 183.559 129.54Z" fill="#990032"/>
<path d="M141.23 146.899V175.287H147.233V168.075H155.044L159.563 163.972V151.004L155.247 146.899H141.23ZM153.431 162.605H147.233V152.378H153.431V162.605Z" fill="white"/>
<path d="M193.236 152.378H184.538L184.54 169.803H193.287V175.287H182.716L178.399 171.175V151.005L182.715 146.901H193.236V152.378Z" fill="white"/>
<path d="M168.192 175.273H162.053V146.892H175.997V152.373H168.192V175.273Z" fill="white"/>
</g>
<g filter="url(#filter1_dii_1029_34303)">
<rect x="157.672" y="6.69" width="73.2338" height="72.9208" rx="19.6567" fill="#0047BB"/>
</g>
<path d="M208.155 58.4294H201.792V39.0296L187.824 58.4294H181.694V28.864H188.134V48.2639L202.18 28.864H208.155V58.4294Z" fill="white"/>
<g filter="url(#filter2_dii_1029_34303)">
<rect x="119.45" y="50.8961" width="51.6378" height="51.4171" rx="13.8601" fill="#CE253D"/>
</g>
<path d="M154.9 81.1166V81.2165C154.9 81.8114 154.503 82.308 153.908 82.308C153.511 82.308 153.115 82.308 152.817 81.8114C152.518 81.4148 152.122 80.9183 151.825 80.0252L155.496 66.8297H150.039L149.047 71.2938C148.749 70.3023 148.056 69.2108 147.163 68.516C145.833 67.2295 144.052 66.5156 142.202 66.5314C139.424 66.5314 137.143 67.5229 135.257 69.5075C133.471 71.492 132.479 73.9716 132.479 76.7493C132.479 79.9236 133.471 82.4047 135.257 84.3893C137.062 86.4151 139.691 87.5097 142.4 87.3653C144.087 87.3653 145.773 86.7704 147.163 85.7774C148.154 85.1825 149.047 84.2894 149.941 82.9996C150.239 84.1894 150.635 84.9842 151.032 85.5791C151.727 86.5706 152.818 87.0671 154.008 87.0671C155.198 87.0671 156.191 86.4722 156.687 85.5791C157.184 84.7859 157.382 83.7928 157.382 81.9082V80.9167L154.803 81.0167L154.9 81.1166ZM145.97 83.1011C145.077 84.3909 144.085 84.9858 142.894 84.9858C141.406 84.9858 140.414 84.3909 139.62 83.0012C138.726 81.7115 138.33 79.7269 138.33 77.0491C138.33 74.668 138.726 72.6834 139.719 71.3937C140.356 70.2467 141.583 69.5551 142.894 69.6074C144.084 69.6074 144.977 70.104 145.87 71.1954C146.763 72.2868 147.458 74.1714 147.953 76.7509C147.748 78.9845 147.072 81.1483 145.97 83.1011Z" fill="white"/>
<g filter="url(#filter3_dii_1029_34303)">
<rect x="32.4456" y="82.2342" width="71.1382" height="70.8342" rx="19.0943" fill="#FFDD2D"/>
</g>
<path fill-rule="evenodd" clip-rule="evenodd" d="M92.586 115.732L93.235 113.651L91.0868 113.72C90.9064 113.72 89.5862 113.68 88.308 112.752C88.4041 112.76 88.4976 112.774 88.5976 112.774C89.9139 112.774 91.1894 111.979 91.6988 110.842L92.6229 108.789C91.4645 108.804 90.4049 108.658 90.4049 108.658C90.3957 108.658 89.5612 108.549 88.5963 107.561C87.9039 106.854 87.047 106.479 86.119 106.479C85.7516 106.48 85.3866 106.538 85.037 106.651C85.0857 106.485 85.1318 106.315 85.1594 106.142C85.453 104.22 84.2196 102.756 84.2196 102.756L82.6045 100.753L81.6028 103.106C81.5988 103.114 81.3461 103.667 80.8946 103.935C80.7577 103.243 80.422 102.465 79.706 101.721C78.3541 100.321 76.7101 100.11 75.8492 100.11C75.4504 100.11 75.1647 100.155 75.0963 100.166L73.1468 100.55C73.2587 100.114 73.4996 99.3521 73.9366 98.6689L75.0133 96.9906L72.3057 97.2999L71.4435 95.465L69.7731 96.3272L68.2291 94.799L66.689 96.3259L65.016 95.465L64.1551 97.2986L61.4488 96.9893L62.5269 98.6702C62.9652 99.3534 63.2035 100.112 63.3153 100.547L61.4554 100.179L61.3909 100.169C61.134 100.129 60.8743 100.109 60.6143 100.11C59.7534 100.11 58.1094 100.321 56.7615 101.721C56.0441 102.464 55.7071 103.243 55.5702 103.935C55.1213 103.668 54.8699 103.126 54.8699 103.126L53.8669 100.757L52.2255 102.776C52.0254 103.035 51.0368 104.412 51.3041 106.146C51.333 106.318 51.3778 106.486 51.4265 106.652C51.0778 106.539 50.7137 106.481 50.3471 106.48C49.4178 106.48 48.5609 106.855 47.8672 107.562C46.9063 108.546 46.0757 108.658 46.0823 108.658C46.0823 108.658 45.2043 108.816 43.8446 108.79L44.7647 110.843C45.2754 111.981 46.5522 112.776 47.8659 112.776C47.9659 112.776 48.0594 112.761 48.1568 112.753C46.88 113.683 45.561 113.721 45.4017 113.721L43.2154 113.651L43.8775 115.731C44.2118 116.805 45.3254 118.581 47.4578 118.772C47.2261 119.746 46.7115 120.838 45.5821 121.309L43.9525 121.981L44.841 123.531C45.3425 124.367 46.5206 125.345 48.1963 125.345C48.5582 125.345 48.9084 125.307 49.2467 125.236C49.3322 125.618 49.4402 125.999 49.5679 126.381C50.0654 127.868 49.6363 128.906 49.631 128.918L48.8281 130.605L50.6222 131.079C50.6446 131.087 51.1882 131.237 51.8661 131.237C52.3742 131.24 52.8778 131.141 53.347 130.946C53.58 131.363 53.8616 131.745 54.1907 132.086C55.3412 133.269 56.9734 133.868 59.0374 133.868H59.0439L60.5182 133.848L57.4723 135.117L59.785 136.238C60.6261 136.648 61.6213 137.133 62.6374 137.504L62.3479 138.295L63.1442 138.66C63.2153 138.692 64.7501 139.378 67.2972 139.524C67.2972 139.524 67.9119 139.553 68.2502 139.553C68.5898 139.553 69.1979 139.523 69.1979 139.523C71.7279 139.373 73.2495 138.692 73.3206 138.66L74.1196 138.295L73.8287 137.503C74.8712 137.121 75.9045 136.615 76.7114 136.222L78.9807 135.116L75.944 133.848L77.4248 133.868C79.4914 133.868 81.1236 133.268 82.2728 132.085C82.6005 131.745 82.8809 131.365 83.1152 130.946C83.585 131.14 84.089 131.239 84.5974 131.236C85.2647 131.236 85.8136 131.088 85.8281 131.083L87.6315 130.605L86.8456 128.948C86.8272 128.906 86.3981 127.868 86.8956 126.378C87.0233 125.999 87.1299 125.616 87.2168 125.236C87.5551 125.307 87.9092 125.344 88.2738 125.345C90.4089 125.345 91.4329 123.841 91.6304 123.514L92.511 121.979L90.8814 121.309C89.7494 120.839 89.236 119.747 89.007 118.774C91.1118 118.59 92.2398 116.813 92.5873 115.733L92.586 115.732Z" fill="white"/>
<path fill-rule="evenodd" clip-rule="evenodd" d="M68.2291 101.174C66.5047 101.175 65.2108 101.741 64.9291 102.409L68.2291 103.712L71.5304 102.409C71.2513 101.741 69.9574 101.175 68.2291 101.174ZM68.2646 135.712H68.1988C67.1536 135.719 65.7123 135.504 65.0199 135.3L64.1854 137.563C64.7356 137.759 66.5995 138.136 68.233 138.136C69.8639 138.136 71.7291 137.759 72.278 137.563L71.4448 135.302C70.7485 135.504 69.3098 135.719 68.2646 135.712ZM74.5789 133.461C73.9576 133.814 72.5716 134.343 71.7647 134.588L72.4412 136.457C73.5202 136.172 74.5683 135.78 75.5701 135.289L74.1643 134.821L74.5789 133.461V133.461ZM61.8832 133.461L62.2991 134.821L60.892 135.289C61.741 135.716 62.7756 136.115 64.0195 136.456L64.6974 134.587C63.8918 134.342 62.5031 133.814 61.8832 133.461V133.461ZM68.2291 99.0111C69.5309 99.0111 70.8051 99.3231 71.787 99.8694C71.8766 99.5692 72.0016 99.2033 72.1714 98.8203L71.8002 98.865L71.4119 98.9045L71.2474 98.5504L70.7498 97.5013L69.8468 97.9726L69.494 98.1516L69.2124 97.8752L68.2291 96.9011L67.2484 97.8752L66.9681 98.1516L66.6166 97.9726L65.7083 97.5013L65.2174 98.5504L65.0502 98.9058L64.6606 98.865L64.292 98.8203C64.4415 99.1617 64.5699 99.5121 64.6764 99.8694C65.661 99.3231 66.9351 99.0111 68.2304 99.0111H68.2291ZM88.0855 111.144C88.2553 111.201 88.4265 111.228 88.5963 111.228C89.3334 111.228 90.0442 110.75 90.2877 110.205C90.2877 110.205 88.9385 110.123 87.4879 108.648C87.0272 108.171 86.5376 108.028 86.119 108.028C85.4674 108.028 84.9777 108.371 84.9777 108.371C86.7311 109.306 87.0878 110.807 88.0855 111.144V111.144ZM47.8658 111.226C48.0369 111.226 48.2081 111.201 48.3726 111.142C49.373 110.805 49.7337 109.306 51.483 108.373C51.483 108.373 50.9934 108.028 50.3457 108.028C49.9245 108.028 49.4362 108.17 48.9728 108.649C47.5236 110.123 46.1757 110.206 46.1757 110.206C46.4179 110.75 47.13 111.228 47.8658 111.228V111.226Z" fill="white"/>
<path fill-rule="evenodd" clip-rule="evenodd" d="M87.5577 121.908C86.2019 121.237 85.3463 119.46 85.1384 118.82C84.9146 122.345 83.1968 124.791 81.1894 127.145C80.1469 128.366 79.7836 129.553 79.7836 129.553C79.7836 129.553 79.985 128.208 80.8854 127.113C82.7585 124.859 84.5381 122.053 84.6711 118.807C84.7619 116.543 84.1814 114.707 83.2731 113.193C83.7812 114.769 83.7088 116.7 81.9858 118.502C81.9858 118.502 85.4174 114.384 80.6208 110.162C78.7016 108.556 76.6008 107.563 75.5201 106.86C79.4256 108.137 81.3342 106.731 81.3342 106.731C80.0864 107.815 78.4713 107.796 77.4696 107.64C77.742 107.772 78.025 107.912 78.3278 108.074C81.6225 109.867 84.5816 112.817 85.087 116.9V116.868C85.8518 120.879 87.5577 121.908 87.5577 121.908ZM88.5607 117.235C88.5897 117.238 88.6186 117.238 88.6476 117.238C90.4839 117.238 91.1052 115.268 91.1052 115.268H91.0696C90.7327 115.268 88.0026 115.189 86.0729 112.731C84.804 111.116 83.7628 109.696 81.7067 109.137L81.504 109.101L81.4606 108.894C81.404 108.579 81.6186 108.285 82.1082 107.967C84.9449 106.106 83.0165 103.731 83.0165 103.731C83.0165 103.731 82.2083 105.63 80.3957 105.63L80.2601 105.627C80.0548 105.616 79.856 105.61 79.6559 105.566L79.3216 105.501C79.3216 105.501 79.8389 104.092 78.5911 102.801C77.6525 101.824 76.5087 101.658 75.8492 101.658C75.5162 101.658 75.3056 101.702 75.3056 101.702C75.9321 102.522 76.3849 103.884 75.661 104.724C75.0357 105.445 73.5088 105.481 73.5088 106.558C73.5088 107.013 73.934 107.545 74.6974 108.023C76.9931 109.471 79.2716 111.392 80.2193 113.968C81.404 117.18 80.0693 119.313 78.1659 120.535C78.1659 120.535 78.7635 121.086 79.6283 121.157C79.8047 121.174 79.9771 121.182 80.1377 121.182C81.9661 121.182 82.9112 120.322 82.9112 120.322C82.9112 120.322 82.7545 121.509 81.8055 122.611C80.9262 123.627 79.7744 124.228 78.0171 124.253C78.0171 124.253 77.9619 125.069 78.7398 125.777C79.2387 126.223 80.3878 126.369 80.3878 126.369C80.3878 126.369 78.2343 126.805 77.9961 129.992C77.8671 131.719 77.4274 132.318 77.4274 132.318H77.4656C82.4623 132.318 82.3346 128.024 82.3346 128.024C82.3346 128.024 82.6821 129.295 84.0761 129.627C84.2446 129.672 84.4249 129.689 84.596 129.689C85.0436 129.689 85.4345 129.584 85.4345 129.584C85.4345 129.584 84.704 128.041 85.4279 125.884C86.0295 124.092 85.9321 122.765 85.9321 122.765C85.9321 122.765 86.6047 123.785 88.2751 123.795H88.2922C88.6868 123.801 89.0765 123.707 89.4253 123.523C89.7741 123.338 90.0708 123.068 90.2877 122.739C86.9562 121.353 87.2852 116.881 87.2852 116.881C87.2852 116.881 87.717 117.205 88.5607 117.237V117.235ZM55.2727 127.145C53.2653 124.791 51.5476 122.345 51.3212 118.82C51.1145 119.461 50.2602 121.238 48.9057 121.908C48.9057 121.908 50.609 120.879 51.3738 116.868V116.9C51.8806 112.817 54.8396 109.867 58.1343 108.075C58.4371 107.911 58.7214 107.772 58.9913 107.641C57.9909 107.796 56.3744 107.815 55.1279 106.733C55.1279 106.733 57.0365 108.137 60.9407 106.86C59.8613 107.563 57.7605 108.556 55.8427 110.162C51.0447 114.384 54.4763 118.502 54.4763 118.502C52.752 116.698 52.6809 114.77 53.189 113.193C52.2807 114.707 51.6989 116.543 51.7937 118.808C51.924 122.053 53.7023 124.859 55.5715 127.114C56.4771 128.207 56.6811 129.552 56.6811 129.552C56.6811 129.552 56.3126 128.366 55.2727 127.145ZM56.0756 126.368C56.0756 126.368 57.2248 126.223 57.7237 125.776C58.5003 125.069 58.4463 124.253 58.4463 124.253C56.6877 124.228 55.5373 123.627 54.654 122.611C53.7089 121.509 53.551 120.322 53.551 120.322C53.551 120.322 54.4961 121.182 56.3218 121.182C56.4863 121.182 56.6575 121.174 56.8325 121.157C57.3727 121.102 57.8838 120.885 58.2989 120.535C56.3929 119.313 55.0581 117.18 56.2415 113.967C57.1892 111.394 59.4664 109.471 61.7647 108.021C62.5269 107.545 62.9507 107.013 62.9507 106.558C62.9507 105.481 61.4264 105.445 60.8012 104.724C60.0772 103.884 60.5313 102.522 61.1566 101.702C61.1566 101.702 60.9473 101.658 60.613 101.658C59.9548 101.658 58.8109 101.824 57.8711 102.801C56.6206 104.093 57.1405 105.502 57.1405 105.502L56.8062 105.568C56.6074 105.608 56.406 105.616 56.2007 105.628L56.0691 105.63C54.2526 105.63 53.4457 103.733 53.4457 103.733C53.4457 103.733 51.5199 106.106 54.3566 107.967C54.8436 108.285 55.0581 108.581 55.0015 108.894L54.9581 109.099L54.7514 109.136C52.6993 109.696 51.6581 111.116 50.3866 112.731C48.4569 115.189 45.7295 115.268 45.3912 115.268H45.3543C45.3543 115.268 45.977 117.238 47.8145 117.238C47.8435 117.238 47.8698 117.238 47.9014 117.235C48.7451 117.205 49.1782 116.881 49.1782 116.881C49.1782 116.881 49.5047 121.353 46.1744 122.739C46.1744 122.739 46.7812 123.796 48.1712 123.796H48.187C49.8587 123.785 50.5301 122.765 50.5301 122.765C50.5301 122.765 50.4326 124.093 51.0316 125.884C51.7555 128.042 51.0289 129.582 51.0289 129.582C51.0289 129.582 51.4172 129.688 51.8661 129.688C52.0399 129.688 52.2176 129.672 52.3847 129.627C53.7774 129.295 54.1262 128.024 54.1262 128.024C54.1262 128.024 53.9985 132.318 58.9965 132.318H59.0334C59.0334 132.318 58.5951 131.719 58.4674 129.992C58.2304 126.806 56.0743 126.368 56.0743 126.368H56.0756ZM67.1023 110.546H69.4585V111.355C69.1821 111.016 68.6424 111.086 68.6424 111.086V112.253C68.6424 112.253 68.6608 112.827 68.8636 113.076H67.6973C67.9013 112.827 67.9184 112.253 67.9184 112.253V111.086C67.9184 111.086 67.3814 111.016 67.1023 111.355V110.546V110.546ZM64.5355 110.667C64.6172 110.755 64.6974 110.851 64.7751 110.947C64.7935 110.97 64.8106 110.99 64.8291 111.016C64.9015 111.111 64.9739 111.213 65.0436 111.316L65.091 111.386C65.1739 111.512 65.2529 111.642 65.3319 111.778C66.0532 113.025 67.2063 113.77 68.2291 113.771C69.2545 113.77 70.4063 113.025 71.1289 111.778C71.2064 111.643 71.2881 111.51 71.3737 111.379C71.4698 111.232 71.5726 111.089 71.6818 110.951C71.7621 110.851 71.845 110.754 71.9292 110.664C71.9437 110.651 71.9556 110.637 71.97 110.625C72.3386 110.248 72.7743 109.961 73.3482 109.802L73.0928 109.653H73.0797L72.0635 109.064L71.0223 108.465L68.237 109.984L68.2291 109.977L68.2251 109.984L65.4398 108.465L64.3973 109.064L63.3811 109.653H63.3693L63.1126 109.802C63.6852 109.96 64.1222 110.244 64.4908 110.622C64.5066 110.635 64.5171 110.654 64.5355 110.667V110.667Z" fill="white"/>
<path fill-rule="evenodd" clip-rule="evenodd" d="M67.3432 105.399V106.163L67.1971 106.094C67.1905 106.089 66.9747 106.042 66.6021 105.744C65.9848 105.265 65.9729 104.823 65.9729 104.823L67.3419 105.399H67.3432ZM67.9882 108.976V104.234L64.9765 103.21L65.7715 107.804L67.9895 108.976H67.9882ZM69.1202 105.399L70.4892 104.823C70.4892 104.823 70.4787 105.265 69.8587 105.744C69.4862 106.04 69.2716 106.089 69.265 106.094L69.1202 106.161V105.399ZM70.6906 107.805L71.4817 103.211L68.4713 104.234V108.976L70.6906 107.804V107.805ZM63.7286 119.967C64.0222 120.072 64.3776 120.094 64.5605 120.094C64.5671 120.072 64.5777 120.044 64.5869 120.01C64.6014 119.957 64.6171 119.902 64.629 119.844C64.6803 119.581 64.6974 119.285 64.7027 119.093C64.5344 118.993 64.3972 118.848 64.3065 118.674C64.1946 118.438 64.0353 118.328 63.8024 118.328C63.4996 118.328 63.1745 118.512 63.0336 118.596C62.9231 119.252 63.4061 119.847 63.7286 119.965V119.967ZM70.3918 117.451C69.8337 118.061 68.7372 119.123 68.6845 119.176L68.6187 119.241L65.1568 119.187C65.1539 119.474 65.1168 119.759 65.0463 120.036L65.0186 120.146L69.1347 120.888C69.5625 120.588 70.7406 119.726 71.1987 119.388C70.8657 118.901 70.8341 118.323 70.9091 117.917C70.7115 117.792 70.5365 117.635 70.3918 117.451V117.451Z" fill="white"/>
<path fill-rule="evenodd" clip-rule="evenodd" d="M70.8616 113.281C70.064 114.074 69.2992 114.367 68.616 114.436C68.491 114.449 68.3653 114.456 68.2396 114.457H68.2224C67.9711 114.457 67.7205 114.43 67.4748 114.378C67.43 114.555 67.3734 114.928 67.5353 115.281C67.6801 115.601 67.9737 115.839 68.4028 115.998L68.5476 116.055L68.5489 116.21C68.5489 116.256 68.5831 117.264 69.6809 117.545C69.8599 117.36 70.0231 117.193 70.1416 117.052C69.9178 116.525 70.0363 115.985 70.3614 115.72C70.3483 115.777 70.2035 117.1 71.2631 117.592L71.4382 117.675L71.3855 117.861C71.3684 117.917 71.0156 119.198 72.299 119.674L72.5254 119.761L72.4241 119.981C72.4017 120.03 71.8989 121.192 73.0836 121.853H75.6517V119.809C74.7382 119.697 74.3525 118.961 74.2524 118.44C73.8273 118.367 73.4995 118.184 73.2744 117.886C72.7347 117.175 73.1981 116.523 73.2047 116.488C73.2033 116.493 73.2047 117.185 73.6311 117.614C73.8431 117.82 74.0932 117.98 74.4736 118.016L74.6592 118.033L74.675 118.224C74.6789 118.265 74.7803 119.203 75.6517 119.351L75.6504 115.178C75.6504 114.53 75.8386 113.88 76.065 113.28H70.8616V113.281ZM63.9471 115.194L63.8786 117.85L64.1814 117.897L64.9185 115.348L64.5434 114.563L63.9484 115.194H63.9471ZM65.5451 125.032C65.5248 125.031 65.5049 125.026 65.4866 125.018C65.4683 125.009 65.4519 124.997 65.4384 124.982C65.425 124.967 65.4148 124.949 65.4085 124.93C65.4021 124.91 65.3998 124.89 65.4016 124.87C65.4028 124.85 65.4079 124.83 65.4167 124.813C65.4255 124.795 65.4378 124.779 65.4529 124.765C65.468 124.752 65.4856 124.742 65.5045 124.736C65.5235 124.73 65.5436 124.727 65.5635 124.729C65.6504 124.733 65.7109 124.808 65.7083 124.89C65.7053 124.93 65.6864 124.968 65.6559 124.994C65.6253 125.021 65.5855 125.034 65.5451 125.032ZM72.0766 127.384C72.099 127.384 72.1253 127.387 72.149 127.393C72.6097 127.525 72.7242 129.181 73.5285 129.328C73.6074 129.345 73.6812 129.349 73.7443 129.349C73.9773 129.349 74.1155 129.251 74.2656 129.073C74.2656 129.073 73.8602 128.437 73.5574 128.007C73.156 127.443 72.844 126.763 72.095 126.763C72.0766 126.763 72.0555 126.763 72.0358 126.765C71.8931 126.771 71.7552 126.818 71.6383 126.9C71.3883 126.734 71.0956 126.645 70.7958 126.643C70.3285 126.643 69.9626 126.859 69.7796 126.859H69.7731L68.1013 126.693C67.8394 126.667 67.6327 126.403 67.5577 126.301L67.5288 126.256C67.5288 126.21 67.5288 126.164 67.5261 126.123C67.4695 124.753 66.4112 124.167 66.0334 124.157C66.0334 124.157 66.0782 123.896 65.9768 123.797L65.6083 124.245L64.3973 123.637L65.2608 124.647L64.5302 125.47C64.4381 125.564 64.4499 125.69 64.4881 125.744L64.804 126.023L65.2042 125.78C65.2239 125.765 65.2608 125.76 65.3055 125.76C65.4161 125.76 65.5819 125.789 65.7307 125.789C65.8952 125.789 66.0361 125.754 66.0532 125.6C66.0032 126.109 65.5319 126.992 65.8412 127.686L66.0703 128.209L64.5921 127.996L63.8997 129.166C63.6865 129.556 63.6522 129.977 63.8576 130.206L64.1169 130.531C64.1169 130.531 64.4802 130.146 64.5605 129.892L64.4433 129.763C64.3446 129.653 64.3499 129.556 64.4104 129.439L64.8448 128.718L66.5889 129.13L66.681 128.972C66.7995 128.774 66.9706 128.716 67.1576 128.716C67.2352 128.716 67.3142 128.725 67.3958 128.739C67.7196 128.803 68.2527 128.889 68.7858 128.889C69.3716 128.889 69.9521 128.783 70.2614 128.437C70.8932 129.376 72.1753 129.524 72.074 130.002L71.737 131.611C71.9607 131.6 72.1753 131.586 72.3793 131.558L72.7005 129.885C72.7265 129.743 72.7494 129.6 72.769 129.457C72.6452 129.331 72.3464 129.066 72.1766 128.744C71.9515 128.308 72.074 128.08 71.8633 127.514C71.8633 127.514 71.9292 127.383 72.0766 127.383V127.384Z" fill="white"/>
<path fill-rule="evenodd" clip-rule="evenodd" d="M63.1613 128.904C63.1613 128.904 63.7405 128.668 63.7931 128.496L63.7142 128.304C63.6602 128.178 63.6668 128.041 63.7734 127.967L64.3973 127.534L65.4412 127.736C65.4412 127.736 65.2516 127.499 65.27 127.183L64.2749 126.972L63.3351 127.545C63.1711 127.666 63.0526 127.839 62.9984 128.036C62.9442 128.233 62.9576 128.442 63.0363 128.631L63.1613 128.906V128.904ZM70.5418 131.632C70.7274 131.624 70.9354 131.621 71.1605 131.621C71.1605 131.621 71.6976 130.048 71.7278 129.998C71.329 129.812 70.9397 129.606 70.5616 129.381C70.7209 129.621 71.1079 129.893 71.0315 130.104L70.5418 131.632Z" fill="white"/>
<path fill-rule="evenodd" clip-rule="evenodd" d="M75.6518 122.303H60.8104V127.896C60.8104 130.184 62.4624 131.615 64.9015 131.615C66.9378 131.615 67.4749 131.694 68.2317 132.448C68.7543 131.925 69.1861 131.732 70.0746 131.658L70.0943 131.573L70.5616 130.123C70.5353 130.09 69.7718 129.22 69.7718 129.22C69.4691 129.322 69.2137 129.339 68.7846 129.339C68.3463 129.339 67.85 129.286 67.3116 129.186C67.2612 129.174 67.2095 129.168 67.1576 129.168C67.0918 129.168 67.0879 129.173 67.0694 129.206L66.9773 129.36L66.8062 129.642L66.4863 129.567L65.0621 129.231L64.8659 129.553L64.8962 129.589L65.0687 129.78L64.9923 130.03C64.887 130.355 64.5474 130.735 64.4434 130.841L64.088 131.222L63.7629 130.813L63.5194 130.506C63.2627 130.219 63.2035 129.78 63.3482 129.319C63.344 129.322 63.339 129.324 63.3338 129.324L62.9323 129.491L62.752 129.097L62.6243 128.819C62.5017 128.535 62.4796 128.217 62.5617 127.919C62.6438 127.62 62.8251 127.359 63.0758 127.177L64.221 126.528L65.3135 126.743C65.3398 126.638 65.3793 126.264 65.4096 126.168C65.3885 126.165 65.3688 126.161 65.3477 126.161L64.7185 126.396L64.113 125.977C64.113 125.977 63.8761 125.748 64.0906 125.519L64.6764 124.628L63.189 122.759L65.4754 123.698L65.6281 123.51L65.9361 123.139L66.2862 123.473C66.3783 123.563 66.4423 123.678 66.4705 123.804C67.0997 124.05 68.2291 124.775 68.3291 125.955L67.9764 126.095V126.105C68.0567 126.201 68.1238 126.24 68.1449 126.244L69.7771 126.405C69.8192 126.397 69.8692 126.378 69.9271 126.363C70.1312 126.293 70.4352 126.192 70.7959 126.192C71.0908 126.192 71.3751 126.26 71.6476 126.389C71.7658 126.345 71.8901 126.319 72.0161 126.313L72.0951 126.31C72.9678 126.31 73.4022 126.964 73.751 127.487C73.8089 127.578 73.8668 127.662 73.9274 127.746C74.2328 128.178 74.6316 128.808 74.6474 128.836L74.8277 129.116L74.6066 129.374C74.4381 129.572 74.1814 129.802 73.7444 129.802C73.6454 129.801 73.5467 129.791 73.4496 129.772C73.36 129.755 73.2726 129.728 73.1889 129.692C73.1755 129.784 73.1602 129.877 73.1429 129.969L72.8572 131.466C74.5684 131.045 75.6557 129.749 75.6557 127.896L75.6518 122.303V122.303ZM60.8104 121.853H72.3544C71.7779 121.255 71.7871 120.501 71.9332 120.01C71.7775 119.935 71.6327 119.84 71.5028 119.726C71.0513 120.059 69.6744 121.063 69.3151 121.316L69.2374 121.369L64.7067 120.547H64.6145C64.5066 120.547 64.3473 120.543 64.1736 120.521C64.155 120.604 64.1127 120.68 64.0518 120.74C63.9909 120.799 63.914 120.84 63.8304 120.857C63.7468 120.874 63.6602 120.866 63.5809 120.835C63.5016 120.803 63.4332 120.75 63.3838 120.68C63.3491 120.633 63.3242 120.579 63.3107 120.522C63.2971 120.464 63.2951 120.405 63.3048 120.347L63.3219 120.248C62.8559 119.919 62.4229 119.182 62.6151 118.406L62.6335 118.324L62.6993 118.277C62.7657 118.231 62.8343 118.189 62.9047 118.15L62.5756 118.098C62.5171 118.088 62.4649 118.055 62.43 118.007C62.3951 117.959 62.3803 117.9 62.3887 117.841C62.393 117.811 62.4031 117.783 62.4185 117.758C62.4339 117.732 62.4541 117.71 62.4782 117.693C62.5022 117.675 62.5295 117.663 62.5584 117.656C62.5873 117.649 62.6173 117.648 62.6467 117.653L63.4299 117.776L63.5023 115.011L64.6685 113.773L65.3977 115.31L64.629 117.971L65.3214 118.08C65.3805 118.09 65.4334 118.123 65.4684 118.171C65.5035 118.22 65.5178 118.281 65.5083 118.34C65.4998 118.392 65.4729 118.44 65.4323 118.474C65.3917 118.508 65.3403 118.527 65.2872 118.527L65.2516 118.525L64.6869 118.433C64.6948 118.452 64.7054 118.461 64.7133 118.479C64.7761 118.588 64.8707 118.676 64.9844 118.729L68.4371 118.786C68.5832 118.642 68.9452 118.287 69.319 117.911C68.9936 117.791 68.708 117.583 68.4941 117.311C68.2801 117.038 68.1465 116.711 68.108 116.367C67.6341 116.164 67.3051 115.861 67.1234 115.466C66.9023 114.977 66.9812 114.487 67.0405 114.249C66.5798 114.082 66.0954 113.773 65.6004 113.281H60.3984C60.6222 113.881 60.8104 114.532 60.8104 115.178V121.852V121.853Z" fill="#FFDD2D"/>
<path fill-rule="evenodd" clip-rule="evenodd" d="M65.5636 124.729C65.5436 124.727 65.5234 124.73 65.5043 124.736C65.4853 124.743 65.4677 124.753 65.4526 124.766C65.4375 124.779 65.4252 124.795 65.4164 124.813C65.4077 124.832 65.4027 124.851 65.4017 124.871C65.4001 124.891 65.4026 124.912 65.409 124.931C65.4154 124.95 65.4256 124.967 65.439 124.982C65.4525 124.997 65.4688 125.009 65.487 125.018C65.5053 125.026 65.525 125.031 65.5452 125.032C65.5854 125.034 65.625 125.021 65.6555 124.995C65.6861 124.968 65.705 124.931 65.7084 124.891C65.7106 124.85 65.6965 124.811 65.6694 124.78C65.6423 124.75 65.6042 124.731 65.5636 124.729V124.729ZM72.4426 136.457L71.7647 134.588C72.5716 134.342 73.9577 133.813 74.5803 133.461L74.1657 134.821L75.5702 135.288C74.7198 135.715 73.6905 136.114 72.4426 136.456V136.457ZM68.2331 138.136C66.5995 138.136 64.7356 137.759 64.1854 137.563L65.02 135.302C65.7123 135.504 67.1524 135.719 68.1988 135.712H68.2647C69.3098 135.719 70.7485 135.503 71.4449 135.302L72.2781 137.563C71.7279 137.761 69.864 138.136 68.2331 138.136ZM60.8934 135.288L62.2992 134.821L61.8832 133.461C62.5032 133.813 63.8932 134.343 64.6975 134.588L64.0196 136.457C62.7757 136.115 61.7424 135.715 60.8934 135.288ZM75.6333 134.874L74.7777 134.545L75.0147 133.66L75.274 132.695C75.274 132.695 73.7602 133.519 71.6239 134.137C71.0184 134.31 70.5603 134.391 70.5603 134.391V135.048C70.5603 135.048 69.4177 135.245 68.2647 135.245H68.1988C67.0431 135.245 65.9032 135.048 65.9032 135.048V134.389C65.9032 134.389 65.4438 134.31 64.8383 134.137C62.7046 133.518 61.1908 132.695 61.1908 132.695L61.4462 133.66L61.6884 134.545L60.8302 134.874L59.8785 135.229C60.9684 135.757 62.4795 136.524 63.8616 136.904L63.5365 137.796C63.5365 137.796 65.2898 138.596 68.2107 138.604V138.606H68.2502V138.604C71.175 138.596 72.9283 137.796 72.9283 137.796L72.5993 136.904C73.9827 136.524 75.4964 135.758 76.5811 135.229L75.6333 134.874V134.874ZM64.6619 98.8637L65.0502 98.9058L65.2174 98.5504L65.7071 97.5013L66.6153 97.9726L66.9681 98.1529L68.2291 96.8998L69.2124 97.8738L69.4941 98.1529L69.8469 97.9726L70.7498 97.5013L71.2474 98.5504L71.4119 98.9058L71.8003 98.8637L72.1715 98.8203C72.0211 99.162 71.8923 99.5128 71.7858 99.8707C70.8051 99.3218 69.5309 99.0111 68.2304 99.0111C66.9352 99.0111 65.661 99.3218 64.6764 99.8707C64.5702 99.5129 64.4418 99.1621 64.292 98.8203L64.6606 98.8637H64.6619ZM68.2291 99.5574C69.9706 99.5574 71.3619 100.137 72.132 100.751C72.132 100.751 72.361 99.3731 73.1403 98.1582L71.7384 98.3161L71.0052 96.7563L69.5968 97.4842L68.2291 96.131L66.8667 97.4842L65.4557 96.7563L64.7238 98.3174L63.3219 98.1568C64.1025 99.3731 64.3302 100.75 64.3302 100.75C65.1042 100.135 66.4916 99.5574 68.2291 99.5574V99.5574ZM90.2878 122.739C90.2878 122.739 89.6823 123.796 88.2922 123.796H88.2751C86.6061 123.785 85.9321 122.765 85.9321 122.765C85.9321 122.765 86.0295 124.092 85.4293 125.883C84.7053 128.042 85.4345 129.582 85.4345 129.582C85.4345 129.582 85.0449 129.689 84.5961 129.689C84.4249 129.689 84.2459 129.672 84.0761 129.627C82.6822 129.297 82.3346 128.025 82.3346 128.025C82.3346 128.025 82.4636 132.318 77.4656 132.318H77.4261C77.4261 132.318 77.8671 131.719 77.9974 129.992C78.2344 126.806 80.3878 126.368 80.3878 126.368C80.3878 126.368 79.2387 126.223 78.7398 125.777C77.9619 125.07 78.0158 124.253 78.0158 124.253C79.7744 124.228 80.9275 123.629 81.8055 122.611C82.3713 121.96 82.753 121.17 82.9112 120.322C82.9112 120.322 81.9661 121.182 80.1377 121.182C79.9771 121.182 79.806 121.174 79.6296 121.157C78.7635 121.087 78.1659 120.535 78.1659 120.535C80.0693 119.312 81.404 117.179 80.2207 113.967C79.2729 111.394 76.9931 109.47 74.6988 108.023C73.9353 107.545 73.5088 107.013 73.5088 106.556C73.5088 105.481 75.0357 105.447 75.6623 104.724C76.3863 103.884 75.9321 102.522 75.3056 101.702C75.3056 101.702 75.5162 101.658 75.8492 101.658C76.51 101.658 77.6525 101.824 78.5924 102.801C79.8389 104.093 79.3216 105.502 79.3216 105.502L79.656 105.568C79.856 105.608 80.0548 105.618 80.2615 105.628L80.3957 105.629C82.2083 105.629 83.0178 103.731 83.0178 103.731C83.0178 103.731 84.9449 106.106 82.1082 107.967C81.6199 108.284 81.404 108.581 81.4606 108.894L81.5054 109.101L81.7068 109.136C83.7628 109.696 84.804 111.117 86.0743 112.731C88.004 115.189 90.734 115.267 91.0696 115.267H91.1065C91.1065 115.267 90.4839 117.238 88.6476 117.238C88.6174 117.238 88.591 117.238 88.5608 117.235C87.7183 117.205 87.284 116.881 87.284 116.881C87.284 116.881 86.9562 121.353 90.2878 122.739V122.739ZM88.6476 117.841C90.8985 117.841 91.6515 115.547 91.683 115.449L91.9331 114.64L91.0907 114.666H91.0881C90.7893 114.666 88.3067 114.6 86.5468 112.358L86.3797 112.15C85.2292 110.685 84.138 109.291 82.1872 108.656C82.2652 108.587 82.3484 108.525 82.436 108.47C83.4706 107.788 84.0735 106.96 84.2235 105.998C84.446 104.551 83.5233 103.398 83.4838 103.351L82.8572 102.574L82.465 103.496C82.4386 103.552 81.7805 105.027 80.3957 105.027H80.2931C80.2012 105.023 80.1095 105.018 80.0179 105.011C80.0667 104.353 79.9469 103.336 79.0255 102.381C77.9184 101.232 76.56 101.059 75.8492 101.059C75.4701 101.059 75.2174 101.107 75.1897 101.109L74.2433 101.298L74.8264 102.068C75.2845 102.663 75.7005 103.759 75.2082 104.332C75.0502 104.516 74.7264 104.662 74.4171 104.811C73.78 105.104 72.9086 105.515 72.9086 106.556C72.9086 107.23 73.4312 107.937 74.3789 108.536C77.18 110.301 78.9096 112.144 79.656 114.178C80.8117 117.305 79.3045 119.09 77.8395 120.03L77.1839 120.452L77.7592 120.982C77.8368 121.05 78.5384 121.67 79.577 121.76C79.7744 121.773 79.9627 121.783 80.1391 121.783C80.8038 121.783 81.3711 121.678 81.8318 121.538C81.6941 121.779 81.5337 122.005 81.3527 122.215C80.5168 123.186 79.4875 123.629 78.0066 123.652L77.4564 123.66L77.4143 124.213C77.409 124.325 77.3682 125.35 78.3357 126.222C78.4845 126.356 78.6635 126.468 78.8517 126.557C78.1936 127.15 77.5275 128.182 77.3985 129.948C77.2892 131.423 76.9378 131.969 76.9338 131.975L76.3257 132.905L77.4248 132.919C79.24 132.919 80.63 132.419 81.5923 131.424C82.0906 130.901 82.4626 130.271 82.6795 129.582C83.214 130.038 83.8936 130.288 84.5961 130.288C85.1094 130.288 85.5385 130.179 85.5859 130.168L86.2875 129.981L85.9782 129.326C85.9545 129.273 85.37 127.957 85.9992 126.078C86.229 125.394 86.3887 124.689 86.4757 123.972C86.918 124.204 87.509 124.393 88.2738 124.396C90.0113 124.396 90.7761 123.097 90.8103 123.043L91.1526 122.445L90.5181 122.185C88.4489 121.324 87.9908 119.012 87.8987 117.762C88.0869 117.797 88.3001 117.83 88.541 117.837L88.6476 117.841V117.841Z" fill="#002A3A"/>
<path fill-rule="evenodd" clip-rule="evenodd" d="M86.119 108.028C86.5376 108.028 87.0273 108.171 87.488 108.649C88.9385 110.123 90.2878 110.206 90.2878 110.206C90.0429 110.75 89.3321 111.228 88.5963 111.228C88.4265 111.228 88.2541 111.201 88.0869 111.142C87.0878 110.805 86.7311 109.306 84.9791 108.373C84.9791 108.373 85.4661 108.028 86.119 108.028V108.028ZM84.6935 108.904C85.5319 109.352 86.0216 109.954 86.4507 110.485C86.8719 111.005 87.2708 111.505 87.8987 111.713C88.1198 111.79 88.3554 111.827 88.5963 111.827C89.5348 111.827 90.4786 111.25 90.8367 110.452L91.196 109.655L90.3259 109.602C90.2851 109.602 89.165 109.498 87.9197 108.224C87.4064 107.7 86.7864 107.426 86.119 107.426C85.3029 107.426 84.6974 107.834 84.6316 107.876L83.8313 108.441L84.6935 108.904V108.904ZM85.087 116.869V116.9C84.5816 112.817 81.6225 109.868 78.3278 108.075C78.0251 107.912 77.7421 107.772 77.4696 107.641C78.4713 107.796 80.0864 107.815 81.3343 106.733C81.3343 106.733 79.4256 108.137 75.5201 106.86C76.5995 107.563 78.7016 108.556 80.6208 110.162C85.4161 114.384 81.9858 118.502 81.9858 118.502C83.7102 116.7 83.7813 114.77 83.2732 113.193C84.1814 114.707 84.7606 116.543 84.6711 118.808C84.5395 122.053 82.7585 124.859 80.8854 127.114C79.985 128.207 79.785 129.552 79.785 129.552C79.785 129.552 80.1483 128.366 81.1895 127.146C83.1968 124.79 84.9146 122.345 85.1384 118.82C85.3464 119.461 86.2019 121.238 87.5577 121.908C87.5577 121.908 85.8531 120.879 85.087 116.869V116.869ZM58.9979 132.318C53.9999 132.318 54.1275 128.025 54.1275 128.025C54.1275 128.025 53.7774 129.297 52.3861 129.627C52.2161 129.67 52.0414 129.691 51.8661 129.689C51.4186 129.689 51.029 129.584 51.029 129.584C51.029 129.584 51.7569 128.041 51.0316 125.883C50.434 124.093 50.5314 122.765 50.5314 122.765C50.5314 122.765 49.8588 123.785 48.1884 123.796H48.1713C46.7826 123.796 46.1757 122.739 46.1757 122.739C49.506 121.353 49.1795 116.881 49.1795 116.881C49.1795 116.881 48.7452 117.205 47.9027 117.237H47.8145C45.977 117.237 45.3544 115.267 45.3544 115.267H45.3925C45.7321 115.267 48.4582 115.189 50.3866 112.731C51.6568 111.116 52.6993 109.696 54.7515 109.137L54.9581 109.101L55.0016 108.894C55.0595 108.581 54.8436 108.284 54.3566 107.967C51.5199 106.106 53.4457 103.733 53.4457 103.733C53.4457 103.733 54.2513 105.63 56.0691 105.63L56.2007 105.628C56.4061 105.618 56.6075 105.608 56.8062 105.566L57.1406 105.502C57.1406 105.502 56.6219 104.093 57.8724 102.801C58.8123 101.824 59.9535 101.658 60.613 101.658C60.9486 101.658 61.1553 101.702 61.1553 101.702C60.5314 102.522 60.0786 103.884 60.7999 104.724C61.4264 105.447 62.952 105.481 62.952 106.556C62.952 107.013 62.5269 107.545 61.7647 108.023C59.4678 109.47 57.1893 111.392 56.2415 113.968C55.0595 117.18 56.3942 119.313 58.2989 120.537C58.2989 120.537 57.7 121.087 56.8339 121.157C56.6641 121.173 56.4937 121.181 56.3231 121.182C54.4961 121.182 53.551 120.323 53.551 120.323C53.551 120.323 53.709 121.509 54.6541 122.612C55.536 123.629 56.6877 124.228 58.445 124.253C58.445 124.253 58.5016 125.069 57.7237 125.777C57.2248 126.224 56.0757 126.369 56.0757 126.369C56.0757 126.369 58.2305 126.806 58.4674 129.992C58.5964 131.719 59.0334 132.318 59.0334 132.318H58.9979ZM59.5283 131.975C59.527 131.969 59.1782 131.423 59.0663 129.948C58.9347 128.182 58.2686 127.15 57.6092 126.557C57.8 126.468 57.9777 126.356 58.1252 126.222C59.0926 125.35 59.0518 124.326 59.0453 124.213L59.0084 123.66L58.4542 123.652C56.9773 123.629 55.9467 123.186 55.1108 122.215C54.9306 122.005 54.7702 121.778 54.6317 121.538C55.0924 121.679 55.6558 121.783 56.3231 121.783C56.5008 121.783 56.6877 121.773 56.8839 121.76C57.5557 121.692 58.1909 121.421 58.7043 120.983L59.2796 120.452L58.624 120.031C57.155 119.09 55.6531 117.306 56.8075 114.178C57.5539 112.144 59.2796 110.302 62.0859 108.536C63.0337 107.937 63.5523 107.23 63.5523 106.556C63.5523 105.515 62.6835 105.104 62.0464 104.811C61.7358 104.662 61.412 104.515 61.2553 104.332C60.7617 103.759 61.1764 102.663 61.6357 102.068L62.2228 101.298L61.2711 101.109C61.2448 101.105 60.9947 101.059 60.613 101.059C59.9035 101.059 58.5464 101.232 57.4407 102.381C56.5179 103.337 56.3968 104.354 56.4442 105.011C56.3531 105.018 56.2618 105.023 56.1704 105.027H56.0691C54.6791 105.027 54.0235 103.552 53.9985 103.496L53.6076 102.574L52.9758 103.351C52.9402 103.398 52.0149 104.551 52.2413 105.998C52.39 106.959 52.9929 107.788 54.0275 108.47C54.1407 108.542 54.2184 108.604 54.275 108.656C52.3216 109.291 51.233 110.685 50.0825 112.15L49.9167 112.358C48.1581 114.6 45.669 114.667 45.3715 114.667L44.5238 114.641L44.7818 115.449C44.812 115.547 45.5623 117.841 47.8145 117.841L47.9225 117.837C48.1607 117.83 48.3753 117.797 48.5648 117.761C48.4727 119.011 48.012 121.324 45.9428 122.183L45.3109 122.447L45.6532 123.043C45.9274 123.465 46.3044 123.811 46.7488 124.047C47.1931 124.284 47.6903 124.404 48.1936 124.396C48.8165 124.402 49.4315 124.258 49.9864 123.975C50.0536 124.541 50.1931 125.266 50.4643 126.078C51.0935 127.955 50.5077 129.273 50.4853 129.326L50.1747 129.981L50.8763 130.167C50.9236 130.18 51.3554 130.288 51.8661 130.288C52.5688 130.29 53.2489 130.039 53.7827 129.582C53.9996 130.271 54.3711 130.901 54.8686 131.424C55.8348 132.418 57.2235 132.919 59.0374 132.919L60.1365 132.905L59.5283 131.975V131.975Z" fill="#002A3A"/>
<path fill-rule="evenodd" clip-rule="evenodd" d="M48.9728 108.649C49.4362 108.171 49.9245 108.027 50.3458 108.027C50.9934 108.027 51.4844 108.373 51.4844 108.373C49.7337 109.307 49.373 110.805 48.3726 111.144C48.2097 111.2 48.0383 111.228 47.8658 111.226C47.13 111.226 46.4179 110.75 46.1757 110.206C46.1757 110.206 47.5236 110.123 48.9728 108.649V108.649ZM47.8658 111.827C48.1067 111.827 48.3423 111.79 48.5661 111.713C49.1927 111.506 49.5928 111.007 50.014 110.485C50.4445 109.955 50.9289 109.353 51.7687 108.906L52.6322 108.441L51.8292 107.875C51.7634 107.834 51.1619 107.428 50.3458 107.428C49.6771 107.428 49.0558 107.7 48.5437 108.224C47.2972 109.499 46.1796 109.602 46.1388 109.603L45.2701 109.655L45.6255 110.454C45.9862 111.25 46.9286 111.827 47.8658 111.827V111.827ZM51.7924 118.808C51.7002 116.543 52.2794 114.707 53.1877 113.193C52.6822 114.77 52.7506 116.7 54.4776 118.503C54.4776 118.503 51.0447 114.383 55.8426 110.163C57.7618 108.556 59.8613 107.563 60.9407 106.86C57.0365 108.137 55.1292 106.731 55.1292 106.731C56.3757 107.815 57.9909 107.797 58.9926 107.64C58.7214 107.772 58.4371 107.911 58.1343 108.075C54.8396 109.867 51.8819 112.817 51.3738 116.9V116.869C50.609 120.879 48.9057 121.908 48.9057 121.908C50.2615 121.237 51.1145 119.46 51.3225 118.82C51.5489 122.345 53.2653 124.791 55.2714 127.146C56.3139 128.366 56.6798 129.552 56.6798 129.552C56.6798 129.552 56.4771 128.208 55.5728 127.114C53.7036 124.859 51.924 122.053 51.7924 118.808V118.808ZM67.1023 110.546V111.357C67.3814 111.016 67.9184 111.086 67.9184 111.086V112.253C67.9184 112.253 67.9013 112.827 67.6973 113.076H68.8635C68.6608 112.827 68.6411 112.253 68.6411 112.253V111.086C68.6411 111.086 69.1808 111.016 69.4572 111.357V110.546H67.101H67.1023ZM66.6021 105.744C66.9746 106.04 67.1905 106.09 67.1971 106.094L67.3419 106.161V105.399L65.9729 104.823C65.9729 104.823 65.9848 105.265 66.6021 105.744V105.744ZM69.8587 105.744C70.4773 105.265 70.4905 104.823 70.4905 104.823L69.1202 105.399V106.163L69.265 106.094C69.2716 106.09 69.4861 106.04 69.8587 105.744Z" fill="#002A3A"/>
<path fill-rule="evenodd" clip-rule="evenodd" d="M68.2304 103.713L64.9304 102.407C65.2108 101.741 66.5047 101.175 68.2304 101.174C69.9574 101.175 71.2513 101.741 71.5317 102.407L68.2304 103.713ZM70.6906 107.805L68.4726 108.977V104.233L71.483 103.209L70.6906 107.803V107.805ZM72.0648 109.064L73.0783 109.653H73.0928L73.3482 109.802C72.7756 109.96 72.3373 110.248 71.97 110.625L71.9305 110.664C71.8439 110.757 71.7609 110.852 71.6817 110.951L71.6357 111.012C71.5567 111.113 71.4817 111.217 71.4119 111.325L71.3737 111.379C71.2884 111.509 71.2071 111.642 71.1302 111.778C70.4062 113.024 69.2545 113.77 68.2304 113.772C67.2063 113.77 66.0532 113.024 65.3319 111.778C65.2552 111.645 65.1749 111.514 65.091 111.386L65.0436 111.316C64.9748 111.214 64.9037 111.114 64.8304 111.016C64.8119 110.989 64.7948 110.97 64.7764 110.947C64.6991 110.851 64.6188 110.758 64.5355 110.667C64.5184 110.654 64.5066 110.637 64.4908 110.622C64.1147 110.228 63.6381 109.945 63.1126 109.802L63.3706 109.653H63.3811L64.3986 109.064L65.4398 108.465L68.2251 109.984L68.2304 109.979L68.2383 109.984L71.0223 108.465L72.0648 109.064ZM76.0664 113.281C75.8386 113.881 75.6504 114.532 75.6504 115.178L75.653 119.351C74.783 119.206 74.679 118.266 74.6763 118.225L74.6605 118.034L74.4723 118.017C74.1531 117.989 73.8548 117.847 73.6325 117.616C73.2047 117.188 73.2047 116.496 73.2047 116.489C73.1994 116.525 72.7361 117.173 73.2732 117.884C73.4996 118.184 73.8286 118.37 74.2525 118.442C74.3525 118.962 74.7395 119.698 75.653 119.811V121.852H73.0849C71.9002 121.192 72.4018 120.031 72.4255 119.981L72.5255 119.76L72.2991 119.674C71.0157 119.198 71.3698 117.916 71.3869 117.861L71.4395 117.674L71.2632 117.592C70.2048 117.1 70.3483 115.776 70.3628 115.72C70.0364 115.985 69.9192 116.523 70.143 117.054C70.0219 117.193 69.8587 117.36 69.681 117.545C69.3718 117.477 69.0934 117.31 68.8888 117.068C68.6842 116.827 68.5648 116.525 68.5489 116.209L68.5476 116.053L68.4028 115.998C67.975 115.84 67.6815 115.6 67.5354 115.281C67.4163 114.994 67.395 114.676 67.4748 114.376C67.7208 114.427 67.9713 114.454 68.2225 114.455H68.2396C68.3673 114.455 68.4923 114.447 68.6161 114.436C69.3005 114.367 70.064 114.074 70.8617 113.281H76.0664V113.281ZM72.8572 131.466L73.1442 129.969L73.1902 129.693C73.3674 129.762 73.5555 129.799 73.7457 129.802C74.1827 129.802 74.4381 129.57 74.6079 129.374L74.8264 129.118L74.6474 128.836C74.6316 128.808 74.2327 128.178 73.9274 127.746C73.8667 127.661 73.8083 127.574 73.7523 127.485C73.4035 126.964 72.9678 126.31 72.0937 126.31L72.0161 126.313C71.8902 126.319 71.766 126.345 71.6475 126.388C71.3816 126.26 71.0907 126.194 70.7959 126.193C70.4993 126.2 70.2061 126.257 69.9284 126.361C69.8705 126.378 69.8179 126.397 69.777 126.405L68.1448 126.244C68.0784 126.212 68.0207 126.164 67.9763 126.105V126.095L68.3291 125.955C68.2304 124.775 67.0997 124.05 66.4705 123.804C66.4426 123.678 66.3786 123.562 66.2862 123.472L65.9361 123.139L65.6281 123.509L65.4767 123.698L63.1889 122.757L64.6764 124.628L64.0906 125.519C63.8747 125.747 64.113 125.977 64.113 125.977L64.7185 126.396L65.3477 126.16C65.3687 126.16 65.3872 126.165 65.4095 126.168C65.3793 126.264 65.3398 126.639 65.3135 126.743L64.2222 126.528L63.0771 127.177C62.486 127.612 62.4057 128.328 62.6256 128.819L62.7519 129.098L62.9323 129.491L63.3337 129.326C63.3403 129.323 63.3456 129.322 63.3495 129.318C63.2047 129.78 63.264 130.218 63.5206 130.506L63.7642 130.813L64.088 131.224L64.4434 130.841C64.5487 130.735 64.8883 130.355 64.9923 130.029L65.0686 129.78L64.8962 129.589L64.8672 129.553L65.062 129.231L66.4863 129.568L66.8075 129.642L66.9786 129.359L67.0707 129.206C67.0878 129.173 67.0918 129.168 67.1576 129.168C67.2089 129.168 67.259 129.173 67.3129 129.186C67.7986 129.282 68.2921 129.333 68.7872 129.337C69.2124 129.337 69.469 129.322 69.7718 129.22C69.7718 129.22 70.5366 130.089 70.5629 130.123L70.0943 131.571L70.0732 131.658C69.1873 131.731 68.7556 131.925 68.233 132.448C67.4748 131.695 66.9391 131.615 64.9028 131.615C62.4637 131.615 60.8104 130.184 60.8104 127.895V122.303H75.653L75.6557 127.895C75.6557 129.749 74.5684 131.043 72.8572 131.466V131.466ZM63.7155 128.304L63.7931 128.498C63.7405 128.666 63.1613 128.906 63.1613 128.906L63.0376 128.631C62.9585 128.442 62.945 128.232 62.9992 128.035C63.0534 127.838 63.1721 127.665 63.3364 127.543L64.2749 126.971L65.2713 127.181C65.2639 127.38 65.3237 127.575 65.4411 127.736L64.3986 127.535L63.7734 127.967C63.6681 128.041 63.6602 128.178 63.7155 128.304V128.304ZM72.6992 129.884L72.3794 131.557C72.174 131.586 71.9582 131.602 71.737 131.609L72.074 130.004C72.174 129.524 70.8946 129.376 70.2614 128.437C69.9521 128.785 69.3716 128.889 68.7872 128.889C68.2528 128.889 67.721 128.803 67.3959 128.739C67.3176 128.725 67.2384 128.717 67.1589 128.716C66.9707 128.716 66.8009 128.774 66.6824 128.973L66.5903 129.131L64.8449 128.719L64.4105 129.439C64.3499 129.556 64.3447 129.653 64.4434 129.763L64.5618 129.892C64.4802 130.146 64.1169 130.531 64.1169 130.531L63.8576 130.206C63.6523 129.977 63.6865 129.556 63.8997 129.166L64.5921 127.995L66.0703 128.209L65.8413 127.684C65.532 126.99 66.0032 126.109 66.0532 125.6C66.0361 125.754 65.8953 125.789 65.732 125.789C65.582 125.789 65.4161 125.761 65.3056 125.761C65.2621 125.761 65.2239 125.765 65.2042 125.779L64.804 126.023L64.4881 125.744C64.45 125.691 64.4381 125.564 64.5303 125.469L65.2621 124.647L64.3986 123.637L65.607 124.246L65.9769 123.797C66.0782 123.897 66.0335 124.156 66.0335 124.156C66.4113 124.167 67.4709 124.753 67.5262 126.122C67.5301 126.164 67.5301 126.21 67.5301 126.256L67.5578 126.301C67.6328 126.405 67.8394 126.669 68.1014 126.693L69.7731 126.859H69.7797C69.964 126.859 70.3286 126.643 70.7959 126.643C71.0525 126.643 71.3356 126.709 71.6383 126.9C71.6383 126.9 71.791 126.779 72.0371 126.765C72.0556 126.763 72.0766 126.763 72.0937 126.763C72.844 126.763 73.156 127.442 73.5588 128.007C73.8615 128.436 74.2656 129.073 74.2656 129.073C74.1169 129.251 73.9774 129.349 73.7444 129.349C73.6719 129.35 73.5996 129.343 73.5285 129.328C72.7256 129.18 72.6084 127.525 72.1503 127.393C72.1263 127.387 72.1015 127.384 72.0766 127.384C71.9292 127.384 71.8647 127.516 71.8647 127.516C72.0753 128.08 71.9516 128.308 72.178 128.744C72.3465 129.066 72.6453 129.331 72.769 129.457C72.769 129.457 72.7361 129.702 72.6992 129.885V129.884ZM71.1605 131.621C70.9367 131.621 70.7287 131.624 70.5418 131.632L71.0315 130.104C71.1078 129.892 70.7208 129.619 70.5616 129.38C70.8024 129.532 71.4277 129.867 71.7291 129.998C71.5338 130.537 71.3442 131.078 71.1605 131.621V131.621ZM63.8787 117.85L63.9484 115.194L64.5434 114.563L64.9172 115.348L64.1801 117.897L63.8774 117.851L63.8787 117.85ZM64.3065 118.674C64.3968 118.847 64.5336 118.992 64.7014 119.091C64.6968 119.344 64.6726 119.596 64.629 119.844C64.6158 119.902 64.6027 119.956 64.5855 120.01C64.5776 120.044 64.5671 120.072 64.5605 120.094C64.3776 120.094 64.0208 120.072 63.7299 119.965C63.4061 119.847 62.923 119.252 63.0349 118.596C63.1745 118.511 63.4983 118.328 63.8023 118.328C64.0353 118.328 64.1946 118.438 64.3065 118.674V118.674ZM71.1987 119.388C70.7419 119.726 69.5625 120.588 69.1347 120.888L65.0173 120.146L65.0462 120.036C65.0989 119.822 65.1555 119.53 65.1581 119.186L68.6187 119.241L68.6845 119.176C68.7372 119.123 69.8336 118.061 70.3918 117.451C70.5247 117.618 70.6906 117.776 70.9091 117.916C70.8354 118.324 70.8656 118.9 71.1987 119.388V119.388ZM65.6004 113.281C66.0967 113.773 66.5797 114.08 67.0404 114.249C66.9812 114.486 66.9022 114.978 67.1234 115.466C67.305 115.861 67.6341 116.164 68.1093 116.367C68.1619 116.854 68.4686 117.587 69.3203 117.911C68.9465 118.287 68.5832 118.642 68.4384 118.785L64.9844 118.731C64.8703 118.676 64.7757 118.588 64.7132 118.478C64.7066 118.461 64.6948 118.452 64.6869 118.433L65.2516 118.525L65.2871 118.527C65.3402 118.527 65.3917 118.508 65.4323 118.474C65.4728 118.44 65.4998 118.392 65.5083 118.34C65.5178 118.281 65.5036 118.22 65.4689 118.172C65.4341 118.123 65.3816 118.09 65.3227 118.08L64.629 117.97L65.3977 115.31L64.6698 113.773L63.5022 115.011L63.4311 117.776L62.6466 117.651C62.5255 117.628 62.4097 117.717 62.3873 117.84C62.3785 117.899 62.3933 117.959 62.4285 118.008C62.4637 118.056 62.5165 118.089 62.5755 118.099L62.9046 118.149C62.8343 118.188 62.7657 118.231 62.6993 118.277L62.6335 118.324L62.615 118.406C62.4242 119.182 62.8559 119.919 63.3219 120.248L63.3048 120.347C63.2863 120.466 63.3127 120.584 63.3838 120.68C63.4242 120.738 63.4784 120.786 63.5415 120.819C63.6046 120.851 63.6747 120.868 63.7457 120.867C63.8455 120.866 63.942 120.832 64.0197 120.769C64.0974 120.706 64.1516 120.619 64.1735 120.522C64.3473 120.542 64.5066 120.547 64.6145 120.547H64.708L69.2374 121.367L69.315 121.316C69.6757 121.063 71.0525 120.059 71.5027 119.726C71.6278 119.832 71.766 119.93 71.9332 120.01C71.787 120.501 71.7778 121.255 72.3544 121.853H60.8104V115.179C60.8104 114.532 60.6221 113.881 60.3984 113.281H65.6004V113.281ZM64.9765 103.211L67.9895 104.234V108.976L65.7715 107.804L64.9765 103.21V103.211ZM72.3267 102.639C72.3267 101.482 70.3825 100.441 68.237 100.441H68.2238C66.0782 100.441 64.1354 101.482 64.1354 102.639L64.1775 102.923L65.0344 107.85L64.1735 108.35L61.9477 109.653H61.9556C61.9556 109.653 61.4554 109.911 61.2224 110.069C60.3747 110.659 60.1943 111.52 60.6866 111.875C60.8077 111.174 61.3619 110.441 62.3978 110.441C63.1455 110.441 63.7141 110.828 64.1749 111.405C64.2933 111.552 64.4052 111.708 64.5092 111.875C64.6382 112.087 64.7685 112.274 64.8962 112.453H59.1597C59.5809 113.302 59.9824 114.201 59.9824 115.178V127.896C59.9824 130.974 62.3452 132.443 64.9015 132.443C66.8772 132.443 67.1431 132.353 68.233 133.44C69.3177 132.353 69.5849 132.443 71.562 132.443C74.1195 132.443 76.4784 130.974 76.4784 127.896V115.178C76.4784 114.201 76.8798 113.302 77.3037 112.453H71.5646C71.6936 112.274 71.8226 112.087 71.9516 111.875C72.0569 111.708 72.1688 111.552 72.2846 111.405C72.7479 110.825 73.3166 110.441 74.0643 110.441C75.1002 110.441 75.653 111.174 75.7755 111.875C76.2677 111.52 76.09 110.659 75.2358 110.069C74.9994 109.919 74.7561 109.78 74.5065 109.653H74.5157L72.2846 108.35L71.429 107.85L72.2846 102.923L72.3267 102.639V102.639Z" fill="#002A3A"/>
<g filter="url(#filter4_dii_1029_34303)">
<rect x="5.0607" y="45.7098" width="54.804" height="54.5698" rx="14.71" fill="#EB5F0A"/>
</g>
<path fill-rule="evenodd" clip-rule="evenodd" d="M38.1724 62.3571C36.371 62.3571 34.5696 62.838 33.0183 63.8C31.4671 62.838 29.6657 62.3036 27.8642 62.3036C22.1597 62.3036 17.506 67.2737 17.506 73.3662C17.506 79.4586 22.1597 84.4287 27.8642 84.4287C29.6657 84.4287 31.4671 83.8943 33.0183 82.9323C34.5696 83.8943 36.371 84.3753 38.1724 84.3753C43.8769 84.3753 48.5306 79.4051 48.5306 73.3127C48.5306 67.2737 43.8769 62.3571 38.1724 62.3571ZM24.6143 73.3661C24.4641 73.8471 24.4141 74.3281 24.4141 74.8091C24.4141 77.4277 26.4157 79.5654 28.8676 79.5654C30.4689 79.5654 31.92 78.6569 32.7207 77.214L32.7707 77.1605L32.9208 76.8399L35.623 71.2284L35.673 71.1215C35.9732 70.5337 36.5237 70.1596 37.1742 70.1596C38.0749 70.1596 38.8255 70.9612 38.8255 71.9232V71.9766V72.0301C38.8255 72.7783 38.4752 74.3815 36.2234 76.7864C33.7968 79.4236 31.515 80.5134 30.8881 80.8128L30.8881 80.8128C30.7781 80.8653 30.7191 80.8935 30.7191 80.9015C29.8184 81.329 28.8176 81.4893 27.8168 81.4893C23.6135 81.4893 20.2108 77.8553 20.2108 73.3661C20.2108 68.877 23.6135 65.2429 27.8168 65.2429C28.6174 65.2429 29.368 65.3498 30.1186 65.617C27.2664 68.0753 25.4149 70.694 24.6143 73.3661ZM41.5736 71.9233C41.5736 72.4577 41.5236 72.9387 41.3735 73.4197C40.6229 76.1452 38.7714 78.7104 35.9191 81.2222C36.6697 81.4894 37.4704 81.5963 38.271 81.5963C42.4743 81.5963 45.877 77.9622 45.877 73.4731C45.877 68.9839 42.4743 65.3499 38.271 65.3499C37.2202 65.3499 36.2694 65.5636 35.3187 65.9912C35.2686 65.9912 32.6666 66.8997 29.8143 69.9993C27.6126 72.4577 27.2122 74.061 27.2122 74.8092V74.8626C27.2122 75.8246 27.9628 76.6262 28.8636 76.6262C29.464 76.6262 30.0145 76.3055 30.3147 75.7177L33.1169 69.8925C33.1169 69.839 33.167 69.7321 33.217 69.6787L33.267 69.5184C34.0677 68.0754 35.5689 67.1669 37.1201 67.1669C39.572 67.1669 41.5736 69.3046 41.5736 71.9233Z" fill="white"/>
<defs>
<filter id="filter0_dii_1029_34303" x="129.676" y="124.296" width="93.9829" height="93.7158" filterUnits="userSpaceOnUse" color-interpolation-filters="sRGB">
<feFlood flood-opacity="0" result="BackgroundImageFix"/>
<feColorMatrix in="SourceAlpha" type="matrix" values="0 0 0 0 0 0 0 0 0 0 0 0 0 0 0 0 0 0 127 0" result="hardAlpha"/>
<feOffset dx="10.488" dy="10.488"/>
<feGaussianBlur stdDeviation="7.86599"/>
<feComposite in2="hardAlpha" operator="out"/>
<feColorMatrix type="matrix" values="0 0 0 0 0 0 0 0 0 0 0 0 0 0 0 0 0 0 0.07 0"/>
<feBlend mode="normal" in2="BackgroundImageFix" result="effect1_dropShadow_1029_34303"/>
<feBlend mode="normal" in="SourceGraphic" in2="effect1_dropShadow_1029_34303" result="shape"/>
<feColorMatrix in="SourceAlpha" type="matrix" values="0 0 0 0 0 0 0 0 0 0 0 0 0 0 0 0 0 0 127 0" result="hardAlpha"/>
<feOffset dx="1.0488" dy="1.0488"/>
<feGaussianBlur stdDeviation="2.0976"/>
<feComposite in2="hardAlpha" operator="arithmetic" k2="-1" k3="1"/>
<feColorMatrix type="matrix" values="0 0 0 0 1 0 0 0 0 1 0 0 0 0 1 0 0 0 0.47 0"/>
<feBlend mode="normal" in2="shape" result="effect2_innerShadow_1029_34303"/>
<feColorMatrix in="SourceAlpha" type="matrix" values="0 0 0 0 0 0 0 0 0 0 0 0 0 0 0 0 0 0 127 0" result="hardAlpha"/>
<feOffset dx="-1.0488" dy="-1.0488"/>
<feGaussianBlur stdDeviation="5.76839"/>
<feComposite in2="hardAlpha" operator="arithmetic" k2="-1" k3="1"/>
<feColorMatrix type="matrix" values="0 0 0 0 0 0 0 0 0 0 0 0 0 0 0 0 0 0 0.09 0"/>
<feBlend mode="normal" in2="effect2_innerShadow_1029_34303" result="effect3_innerShadow_1029_34303"/>
</filter>
<filter id="filter1_dii_1029_34303" x="151.529" y="0.547266" width="110.09" height="109.777" filterUnits="userSpaceOnUse" color-interpolation-filters="sRGB">
<feFlood flood-opacity="0" result="BackgroundImageFix"/>
<feColorMatrix in="SourceAlpha" type="matrix" values="0 0 0 0 0 0 0 0 0 0 0 0 0 0 0 0 0 0 127 0" result="hardAlpha"/>
<feOffset dx="12.2855" dy="12.2855"/>
<feGaussianBlur stdDeviation="9.2141"/>
<feComposite in2="hardAlpha" operator="out"/>
<feColorMatrix type="matrix" values="0 0 0 0 0 0 0 0 0 0 0 0 0 0 0 0 0 0 0.07 0"/>
<feBlend mode="normal" in2="BackgroundImageFix" result="effect1_dropShadow_1029_34303"/>
<feBlend mode="normal" in="SourceGraphic" in2="effect1_dropShadow_1029_34303" result="shape"/>
<feColorMatrix in="SourceAlpha" type="matrix" values="0 0 0 0 0 0 0 0 0 0 0 0 0 0 0 0 0 0 127 0" result="hardAlpha"/>
<feOffset dx="1.22855" dy="1.22855"/>
<feGaussianBlur stdDeviation="2.45709"/>
<feComposite in2="hardAlpha" operator="arithmetic" k2="-1" k3="1"/>
<feColorMatrix type="matrix" values="0 0 0 0 1 0 0 0 0 1 0 0 0 0 1 0 0 0 0.47 0"/>
<feBlend mode="normal" in2="shape" result="effect2_innerShadow_1029_34303"/>
<feColorMatrix in="SourceAlpha" type="matrix" values="0 0 0 0 0 0 0 0 0 0 0 0 0 0 0 0 0 0 127 0" result="hardAlpha"/>
<feOffset dx="-1.22855" dy="-1.22855"/>
<feGaussianBlur stdDeviation="6.75701"/>
<feComposite in2="hardAlpha" operator="arithmetic" k2="-1" k3="1"/>
<feColorMatrix type="matrix" values="0 0 0 0 0 0 0 0 0 0 0 0 0 0 0 0 0 0 0.09 0"/>
<feBlend mode="normal" in2="effect2_innerShadow_1029_34303" result="effect3_innerShadow_1029_34303"/>
</filter>
<filter id="filter2_dii_1029_34303" x="115.119" y="46.5648" width="77.6255" height="77.4049" filterUnits="userSpaceOnUse" color-interpolation-filters="sRGB">
<feFlood flood-opacity="0" result="BackgroundImageFix"/>
<feColorMatrix in="SourceAlpha" type="matrix" values="0 0 0 0 0 0 0 0 0 0 0 0 0 0 0 0 0 0 127 0" result="hardAlpha"/>
<feOffset dx="8.66259" dy="8.66259"/>
<feGaussianBlur stdDeviation="6.49694"/>
<feComposite in2="hardAlpha" operator="out"/>
<feColorMatrix type="matrix" values="0 0 0 0 0 0 0 0 0 0 0 0 0 0 0 0 0 0 0.07 0"/>
<feBlend mode="normal" in2="BackgroundImageFix" result="effect1_dropShadow_1029_34303"/>
<feBlend mode="normal" in="SourceGraphic" in2="effect1_dropShadow_1029_34303" result="shape"/>
<feColorMatrix in="SourceAlpha" type="matrix" values="0 0 0 0 0 0 0 0 0 0 0 0 0 0 0 0 0 0 127 0" result="hardAlpha"/>
<feOffset dx="0.866259" dy="0.866259"/>
<feGaussianBlur stdDeviation="1.73252"/>
<feComposite in2="hardAlpha" operator="arithmetic" k2="-1" k3="1"/>
<feColorMatrix type="matrix" values="0 0 0 0 1 0 0 0 0 1 0 0 0 0 1 0 0 0 0.47 0"/>
<feBlend mode="normal" in2="shape" result="effect2_innerShadow_1029_34303"/>
<feColorMatrix in="SourceAlpha" type="matrix" values="0 0 0 0 0 0 0 0 0 0 0 0 0 0 0 0 0 0 127 0" result="hardAlpha"/>
<feOffset dx="-0.866259" dy="-0.866259"/>
<feGaussianBlur stdDeviation="4.76442"/>
<feComposite in2="hardAlpha" operator="arithmetic" k2="-1" k3="1"/>
<feColorMatrix type="matrix" values="0 0 0 0 0 0 0 0 0 0 0 0 0 0 0 0 0 0 0.09 0"/>
<feBlend mode="normal" in2="effect2_innerShadow_1029_34303" result="effect3_innerShadow_1029_34303"/>
</filter>
<filter id="filter3_dii_1029_34303" x="26.4786" y="76.2673" width="106.94" height="106.636" filterUnits="userSpaceOnUse" color-interpolation-filters="sRGB">
<feFlood flood-opacity="0" result="BackgroundImageFix"/>
<feColorMatrix in="SourceAlpha" type="matrix" values="0 0 0 0 0 0 0 0 0 0 0 0 0 0 0 0 0 0 127 0" result="hardAlpha"/>
<feOffset dx="11.9339" dy="11.9339"/>
<feGaussianBlur stdDeviation="8.95044"/>
<feComposite in2="hardAlpha" operator="out"/>
<feColorMatrix type="matrix" values="0 0 0 0 0 0 0 0 0 0 0 0 0 0 0 0 0 0 0.07 0"/>
<feBlend mode="normal" in2="BackgroundImageFix" result="effect1_dropShadow_1029_34303"/>
<feBlend mode="normal" in="SourceGraphic" in2="effect1_dropShadow_1029_34303" result="shape"/>
<feColorMatrix in="SourceAlpha" type="matrix" values="0 0 0 0 0 0 0 0 0 0 0 0 0 0 0 0 0 0 127 0" result="hardAlpha"/>
<feOffset dx="1.19339" dy="1.19339"/>
<feGaussianBlur stdDeviation="2.38678"/>
<feComposite in2="hardAlpha" operator="arithmetic" k2="-1" k3="1"/>
<feColorMatrix type="matrix" values="0 0 0 0 1 0 0 0 0 1 0 0 0 0 1 0 0 0 0.47 0"/>
<feBlend mode="normal" in2="shape" result="effect2_innerShadow_1029_34303"/>
<feColorMatrix in="SourceAlpha" type="matrix" values="0 0 0 0 0 0 0 0 0 0 0 0 0 0 0 0 0 0 127 0" result="hardAlpha"/>
<feOffset dx="-1.19339" dy="-1.19339"/>
<feGaussianBlur stdDeviation="6.56366"/>
<feComposite in2="hardAlpha" operator="arithmetic" k2="-1" k3="1"/>
<feColorMatrix type="matrix" values="0 0 0 0 0 0 0 0 0 0 0 0 0 0 0 0 0 0 0.09 0"/>
<feBlend mode="normal" in2="effect2_innerShadow_1029_34303" result="effect3_innerShadow_1029_34303"/>
</filter>
<filter id="filter4_dii_1029_34303" x="0.463821" y="41.1129" width="82.3853" height="82.1511" filterUnits="userSpaceOnUse" color-interpolation-filters="sRGB">
<feFlood flood-opacity="0" result="BackgroundImageFix"/>
<feColorMatrix in="SourceAlpha" type="matrix" values="0 0 0 0 0 0 0 0 0 0 0 0 0 0 0 0 0 0 127 0" result="hardAlpha"/>
<feOffset dx="9.19375" dy="9.19375"/>
<feGaussianBlur stdDeviation="6.89532"/>
<feComposite in2="hardAlpha" operator="out"/>
<feColorMatrix type="matrix" values="0 0 0 0 0 0 0 0 0 0 0 0 0 0 0 0 0 0 0.07 0"/>
<feBlend mode="normal" in2="BackgroundImageFix" result="effect1_dropShadow_1029_34303"/>
<feBlend mode="normal" in="SourceGraphic" in2="effect1_dropShadow_1029_34303" result="shape"/>
<feColorMatrix in="SourceAlpha" type="matrix" values="0 0 0 0 0 0 0 0 0 0 0 0 0 0 0 0 0 0 127 0" result="hardAlpha"/>
<feOffset dx="0.919375" dy="0.919375"/>
<feGaussianBlur stdDeviation="1.83875"/>
<feComposite in2="hardAlpha" operator="arithmetic" k2="-1" k3="1"/>
<feColorMatrix type="matrix" values="0 0 0 0 1 0 0 0 0 1 0 0 0 0 1 0 0 0 0.47 0"/>
<feBlend mode="normal" in2="shape" result="effect2_innerShadow_1029_34303"/>
<feColorMatrix in="SourceAlpha" type="matrix" values="0 0 0 0 0 0 0 0 0 0 0 0 0 0 0 0 0 0 127 0" result="hardAlpha"/>
<feOffset dx="-0.919375" dy="-0.919375"/>
<feGaussianBlur stdDeviation="5.05656"/>
<feComposite in2="hardAlpha" operator="arithmetic" k2="-1" k3="1"/>
<feColorMatrix type="matrix" values="0 0 0 0 0 0 0 0 0 0 0 0 0 0 0 0 0 0 0.09 0"/>
<feBlend mode="normal" in2="effect2_innerShadow_1029_34303" result="effect3_innerShadow_1029_34303"/>
</filter>
<clipPath id="clip0_1029_34303">
<rect width="63.0993" height="63.0993" fill="white" transform="translate(134.92 129.54)"/>
</clipPath>
</defs>
</svg>
