<svg width="286" height="247" viewBox="0 0 286 247" fill="none" xmlns="http://www.w3.org/2000/svg">
<g filter="url(#filter0_dii_1029_30537)">
<rect x="159.679" y="149.23" width="68.7022" height="68.4086" rx="18.4404" fill="#9E0918"/>
</g>
<g clip-path="url(#clip0_1029_30537)">
<path d="M229.019 149.23H159.679V218.57H229.019V149.23Z" fill="#990032"/>
<path d="M166.613 168.307V199.502H173.21V191.576H181.794L186.759 187.067V172.817L182.016 168.307H166.613ZM180.02 185.565H173.21V174.327H180.02V185.565Z" fill="white"/>
<path d="M223.762 174.327H214.204L214.206 193.475H223.818V199.502H212.202L207.457 194.984V172.819L212.201 168.308H223.762V174.327Z" fill="white"/>
<path d="M196.242 199.486H189.495V168.299H204.818V174.321H196.242V199.486Z" fill="white"/>
</g>
<g filter="url(#filter1_dii_1029_30537)">
<rect x="185.479" y="7.3125" width="80.4767" height="80.1328" rx="21.6008" fill="#0047BB"/>
</g>
<path d="M240.955 64.1691H233.962V42.8506L218.613 64.1691H211.876V31.6797H218.954V52.9982L234.389 31.6797H240.955V64.1691Z" fill="white"/>
<g filter="url(#filter2_dii_1029_30537)">
<rect x="143.477" y="55.8906" width="56.7448" height="56.5023" rx="15.2309" fill="#CE253D"/>
</g>
<path d="M182.432 89.0999V89.2098C182.432 89.8635 181.996 90.4091 181.343 90.4091C180.907 90.4091 180.471 90.4091 180.143 89.8635C179.816 89.4277 179.38 88.882 179.054 87.9006L183.088 73.4H177.091L176.001 78.3056C175.674 77.2161 174.912 76.0167 173.93 75.2531C172.469 73.8393 170.512 73.0549 168.479 73.0723C165.427 73.0723 162.92 74.1618 160.847 76.3427C158.884 78.5235 157.795 81.2482 157.795 84.3007C157.795 87.789 158.884 90.5155 160.847 92.6963C162.831 94.9225 165.719 96.1253 168.697 95.9667C170.55 95.9667 172.403 95.313 173.93 94.2217C175.02 93.5679 176.001 92.5865 176.983 91.1692C177.31 92.4767 177.746 93.35 178.182 94.0038C178.946 95.0933 180.145 95.6389 181.452 95.6389C182.76 95.6389 183.851 94.9852 184.397 94.0038C184.943 93.1321 185.16 92.0408 185.16 89.9698V88.8803L182.326 88.9901L182.432 89.0999ZM172.619 91.2808C171.638 92.698 170.548 93.3518 169.239 93.3518C167.604 93.3518 166.514 92.6981 165.641 91.171C164.66 89.7537 164.224 87.5728 164.224 84.6302C164.224 82.0135 164.66 79.8327 165.751 78.4154C166.45 77.155 167.799 76.395 169.239 76.4525C170.547 76.4525 171.528 76.9982 172.51 78.1975C173.491 79.3969 174.255 81.4679 174.798 84.3025C174.574 86.757 173.831 89.1348 172.619 91.2808Z" fill="white"/>
<g filter="url(#filter3_dii_1029_30537)">
<rect x="35.3907" y="92.5156" width="78.1738" height="77.8398" rx="20.9827" fill="#FFDD2D"/>
</g>
<path fill-rule="evenodd" clip-rule="evenodd" d="M101.479 129.327L102.192 127.04L99.8315 127.115C99.6333 127.115 98.1825 127.071 96.778 126.052C96.8836 126.06 96.9863 126.076 97.0962 126.076C98.5427 126.076 99.9443 125.203 100.504 123.953L101.52 121.696C100.247 121.714 99.0822 121.553 99.0822 121.553C99.0721 121.553 98.155 121.433 97.0947 120.347C96.3339 119.57 95.3922 119.158 94.3725 119.158C93.9687 119.159 93.5677 119.223 93.1834 119.347C93.237 119.165 93.2876 118.978 93.318 118.787C93.6405 116.676 92.2852 115.067 92.2852 115.067L90.5103 112.865L89.4095 115.452C89.4052 115.46 89.1275 116.068 88.6313 116.363C88.4809 115.602 88.112 114.747 87.3252 113.93C85.8396 112.391 84.033 112.16 83.0869 112.16C82.6487 112.16 82.3348 112.209 82.2596 112.22L80.1173 112.643C80.2403 112.164 80.505 111.326 80.9852 110.576L82.1684 108.731L79.193 109.071L78.2455 107.055L76.41 108.002L74.7132 106.323L73.0208 108.001L71.1823 107.055L70.2363 109.07L67.2624 108.73L68.447 110.577C68.9287 111.328 69.1905 112.161 69.3135 112.64L67.2696 112.235L67.1987 112.225C66.9164 112.18 66.631 112.158 66.3453 112.16C65.3993 112.16 63.5926 112.391 62.1114 113.93C61.3231 114.746 60.9528 115.602 60.8023 116.363C60.3091 116.069 60.0328 115.473 60.0328 115.473L58.9306 112.87L57.1268 115.089C56.9069 115.374 55.8206 116.887 56.1143 118.792C56.1461 118.981 56.1953 119.166 56.2488 119.349C55.8657 119.224 55.4655 119.16 55.0627 119.159C54.0414 119.159 53.0998 119.571 52.3375 120.348C51.2815 121.43 50.3688 121.553 50.376 121.553C50.376 121.553 49.4112 121.727 47.917 121.698L48.9281 123.954C49.4893 125.204 50.8924 126.078 52.336 126.078C52.446 126.078 52.5487 126.062 52.6557 126.053C51.2526 127.074 49.8032 127.116 49.6282 127.116L47.2256 127.04L47.9532 129.325C48.3206 130.505 49.5443 132.457 51.8876 132.666C51.633 133.737 51.0675 134.937 49.8264 135.455L48.0356 136.193L49.012 137.897C49.5631 138.815 50.8577 139.89 52.6991 139.89C53.0969 139.89 53.4817 139.848 53.8534 139.77C53.9474 140.19 54.066 140.609 54.2063 141.029C54.7531 142.663 54.2816 143.803 54.2758 143.816L53.3934 145.67L55.365 146.191C55.3896 146.2 55.987 146.365 56.7319 146.365C57.2903 146.368 57.8436 146.259 58.3592 146.045C58.6152 146.504 58.9248 146.923 59.2864 147.298C60.5506 148.598 62.3443 149.256 64.6124 149.256H64.6196L66.2397 149.235L62.8925 150.629L65.434 151.86C66.3583 152.311 67.4518 152.844 68.5685 153.251L68.2503 154.121L69.1254 154.521C69.2035 154.558 70.8902 155.311 73.6891 155.472C73.6891 155.472 74.3646 155.504 74.7364 155.504C75.1096 155.504 75.7778 155.47 75.7778 155.47C78.558 155.305 80.2301 154.558 80.3082 154.521L81.1863 154.121L80.8666 153.25C82.0122 152.831 83.1477 152.275 84.0344 151.843L86.5281 150.628L83.1911 149.235L84.8184 149.256C87.0894 149.256 88.883 148.597 90.1458 147.296C90.506 146.923 90.8141 146.505 91.0716 146.045C91.5879 146.259 92.1416 146.367 92.7003 146.363C93.4337 146.363 94.0369 146.201 94.0528 146.195L96.0345 145.67L95.1709 143.849C95.1507 143.803 94.6791 142.663 95.2259 141.026C95.3662 140.609 95.4834 140.188 95.5788 139.77C95.9506 139.848 96.3397 139.889 96.7404 139.89C99.0866 139.89 100.212 138.237 100.429 137.878L101.397 136.192L99.6059 135.455C98.3619 134.939 97.7977 133.738 97.5461 132.669C99.859 132.467 101.099 130.514 101.481 129.328L101.479 129.327Z" fill="white"/>
<path fill-rule="evenodd" clip-rule="evenodd" d="M74.7132 113.328C72.8183 113.33 71.3964 113.952 71.0869 114.685L74.7132 116.117L78.341 114.685C78.0344 113.952 76.6125 113.33 74.7132 113.328ZM74.7523 151.283H74.68C73.5315 151.29 71.9476 151.054 71.1867 150.83L70.2696 153.317C70.8743 153.532 72.9225 153.946 74.7176 153.946C76.5098 153.946 78.5595 153.532 79.1626 153.317L78.247 150.831C77.4818 151.054 75.9008 151.29 74.7523 151.283ZM81.6911 148.809C81.0084 149.197 79.4852 149.778 78.5985 150.047L79.342 152.102C80.5277 151.788 81.6794 151.358 82.7803 150.817L81.2355 150.304L81.6911 148.809ZM67.7397 148.809L68.1968 150.304L66.6505 150.817C67.5835 151.287 68.7204 151.725 70.0874 152.1L70.8323 150.046C69.9471 149.777 68.421 149.197 67.7397 148.809ZM74.7132 110.952C76.1438 110.952 77.544 111.295 78.6231 111.895C78.7215 111.565 78.8589 111.163 79.0455 110.742L78.6376 110.791L78.2109 110.835L78.03 110.446L77.4833 109.293L76.491 109.81L76.1033 110.007L75.7938 109.703L74.7132 108.633L73.6356 109.703L73.3275 110.007L72.9413 109.81L71.9432 109.293L71.4037 110.446L71.22 110.836L70.7918 110.791L70.3868 110.742C70.5511 111.117 70.6922 111.502 70.8092 111.895C71.8911 111.295 73.2913 110.952 74.7147 110.952H74.7132ZM96.5335 124.284C96.7201 124.348 96.9082 124.377 97.0948 124.377C97.9048 124.377 98.6859 123.852 98.9535 123.253C98.9535 123.253 97.4709 123.163 95.8768 121.542C95.3706 121.018 94.8325 120.86 94.3725 120.86C93.6565 120.86 93.1184 121.238 93.1184 121.238C95.0451 122.265 95.4371 123.914 96.5335 124.284ZM52.3361 124.375C52.5241 124.375 52.7121 124.348 52.893 124.283C53.9923 123.912 54.3886 122.265 56.311 121.239C56.311 121.239 55.7729 120.86 55.0612 120.86C54.5984 120.86 54.0617 121.016 53.5526 121.543C51.96 123.163 50.4788 123.254 50.4788 123.254C50.7449 123.852 51.5275 124.377 52.3361 124.377V124.375Z" fill="white"/>
<path fill-rule="evenodd" clip-rule="evenodd" d="M95.9536 136.113C94.4637 135.376 93.5235 133.423 93.2949 132.72C93.049 136.594 91.1614 139.281 88.9555 141.868C87.8098 143.21 87.4106 144.515 87.4106 144.515C87.4106 144.515 87.6319 143.036 88.6213 141.833C90.6797 139.356 92.6353 136.273 92.7814 132.705C92.8812 130.217 92.2433 128.2 91.2453 126.536C91.8036 128.268 91.724 130.39 89.8306 132.37C89.8306 132.37 93.6016 127.845 88.3306 123.205C86.2216 121.44 83.913 120.35 82.7254 119.577C87.0172 120.98 89.1146 119.435 89.1146 119.435C87.7433 120.626 85.9685 120.606 84.8677 120.433C85.1671 120.58 85.4781 120.733 85.8108 120.911C89.4314 122.881 92.6831 126.122 93.2385 130.609V130.575C94.0789 134.982 95.9536 136.113 95.9536 136.113ZM97.0558 130.978C97.0876 130.981 97.1194 130.982 97.1513 130.981C99.1691 130.981 99.8519 128.816 99.8519 128.816H99.8128C99.4425 128.816 96.4425 128.729 94.3219 126.028C92.9275 124.254 91.7833 122.693 89.5239 122.08L89.3012 122.039L89.2534 121.812C89.1912 121.466 89.427 121.142 89.9651 120.794C93.0823 118.748 90.9632 116.139 90.9632 116.139C90.9632 116.139 90.075 118.225 88.0832 118.225L87.9342 118.222C87.7086 118.21 87.4902 118.203 87.2703 118.155L86.9029 118.083C86.9029 118.083 87.4714 116.535 86.1001 115.116C85.0687 114.043 83.8117 113.861 83.0871 113.861C82.7211 113.861 82.4897 113.908 82.4897 113.908C83.1782 114.809 83.6758 116.307 82.8802 117.229C82.1931 118.022 80.5152 118.061 80.5152 119.244C80.5152 119.745 80.9824 120.329 81.8214 120.854C84.3441 122.446 86.8479 124.557 87.8894 127.388C89.1912 130.918 87.7245 133.261 85.6329 134.605C85.6329 134.605 86.2896 135.209 87.2399 135.287C87.4338 135.306 87.6232 135.315 87.7997 135.315C89.8089 135.315 90.8475 134.37 90.8475 134.37C90.8475 134.37 90.6753 135.675 89.6324 136.886C88.6662 138.003 87.4005 138.662 85.4694 138.69C85.4694 138.69 85.4087 139.586 86.2635 140.365C86.8118 140.855 88.0745 141.016 88.0745 141.016C88.0745 141.016 85.7081 141.494 85.4463 144.996C85.3045 146.894 84.8214 147.552 84.8214 147.552H84.8633C90.3542 147.552 90.2139 142.834 90.2139 142.834C90.2139 142.834 90.5958 144.231 92.1276 144.596C92.3128 144.645 92.5109 144.664 92.699 144.664C93.1908 144.664 93.6204 144.548 93.6204 144.548C93.6204 144.548 92.8176 142.853 93.6132 140.482C94.2742 138.513 94.1672 137.055 94.1672 137.055C94.1672 137.055 94.9063 138.176 96.7419 138.186H96.7607C97.1943 138.193 97.6226 138.09 98.0059 137.887C98.3892 137.685 98.7152 137.388 98.9536 137.026C95.2925 135.503 95.6541 130.589 95.6541 130.589C95.6541 130.589 96.1286 130.945 97.0558 130.98V130.978ZM60.4755 141.868C58.2696 139.281 56.382 136.594 56.1332 132.72C55.9061 133.424 54.9673 135.377 53.4789 136.113C53.4789 136.113 55.3506 134.982 56.191 130.575V130.609C56.7479 126.122 59.9996 122.881 63.6202 120.912C63.9529 120.731 64.2653 120.58 64.5619 120.435C63.4625 120.606 61.6862 120.626 60.3164 119.437C60.3164 119.437 62.4138 120.98 66.7041 119.577C65.518 120.35 63.2094 121.44 61.1019 123.205C55.8294 127.845 59.6004 132.37 59.6004 132.37C57.7055 130.388 57.6274 128.269 58.1857 126.536C57.1877 128.2 56.5483 130.217 56.6525 132.707C56.7957 136.273 58.7499 139.356 60.8039 141.834C61.7991 143.035 62.0233 144.513 62.0233 144.513C62.0233 144.513 61.6183 143.21 60.4755 141.868ZM61.3579 141.014C61.3579 141.014 62.6207 140.855 63.1689 140.363C64.0223 139.586 63.963 138.69 63.963 138.69C62.0305 138.662 60.7663 138.003 59.7957 136.886C58.7571 135.675 58.5835 134.37 58.5835 134.37C58.5835 134.37 59.6221 135.315 61.6284 135.315C61.8092 135.315 61.9972 135.306 62.1896 135.287C62.7832 135.227 63.3449 134.989 63.801 134.605C61.7065 133.261 60.2398 130.918 61.5401 127.387C62.5816 124.559 65.084 122.446 67.6096 120.853C68.4471 120.329 68.9129 119.745 68.9129 119.244C68.9129 118.061 67.2379 118.022 66.5508 117.229C65.7552 116.307 66.2543 114.809 66.9413 113.908C66.9413 113.908 66.7113 113.861 66.3439 113.861C65.6207 113.861 64.3637 114.043 63.3309 115.116C61.9567 116.537 62.5281 118.084 62.5281 118.084L62.1607 118.157C61.9423 118.202 61.721 118.21 61.4953 118.223L61.3507 118.225C59.3545 118.225 58.4678 116.14 58.4678 116.14C58.4678 116.14 56.3516 118.748 59.4688 120.794C60.004 121.142 60.2398 121.468 60.1776 121.812L60.1298 122.038L59.9027 122.078C57.6476 122.693 56.5035 124.254 55.1062 126.028C52.9856 128.729 49.9885 128.816 49.6167 128.816H49.5762C49.5762 128.816 50.2604 130.981 52.2797 130.981C52.3115 130.981 52.3405 130.981 52.3752 130.978C53.3024 130.945 53.7783 130.589 53.7783 130.589C53.7783 130.589 54.137 135.503 50.4774 137.026C50.4774 137.026 51.1442 138.188 52.6717 138.188H52.6891C54.5261 138.176 55.2638 137.055 55.2638 137.055C55.2638 137.055 55.1568 138.515 55.8149 140.482C56.6105 142.854 55.812 144.546 55.812 144.546C55.812 144.546 56.2388 144.662 56.732 144.662C56.923 144.662 57.1182 144.645 57.3019 144.596C58.8323 144.231 59.2156 142.834 59.2156 142.834C59.2156 142.834 59.0753 147.552 64.5676 147.552H64.6082C64.6082 147.552 64.1265 146.894 63.9862 144.996C63.7258 141.496 61.3564 141.014 61.3564 141.014H61.3579ZM73.4751 123.627H76.0643V124.517C75.7606 124.144 75.1675 124.22 75.1675 124.22V125.503C75.1675 125.503 75.1878 126.134 75.4105 126.407H74.1289C74.3531 126.134 74.372 125.503 74.372 125.503V124.22C74.372 124.22 73.7818 124.144 73.4751 124.517V123.627ZM70.6545 123.76C70.7442 123.857 70.8324 123.963 70.9177 124.068C70.938 124.093 70.9568 124.115 70.977 124.144C71.0566 124.248 71.1362 124.361 71.2128 124.473L71.2649 124.55C71.356 124.689 71.4428 124.832 71.5296 124.981C72.3223 126.351 73.5894 127.17 74.7133 127.171C75.8401 127.17 77.1058 126.351 77.8999 124.981C77.9851 124.832 78.0748 124.686 78.169 124.543C78.2746 124.381 78.3875 124.224 78.5075 124.073C78.5957 123.963 78.6868 123.856 78.7794 123.757C78.7953 123.743 78.8083 123.727 78.8242 123.714C79.2293 123.3 79.7081 122.985 80.3387 122.81L80.0581 122.647H80.0436L78.9269 121.999L77.7828 121.34L74.722 123.01L74.7133 123.002L74.709 123.01L71.6482 121.34L70.5026 121.999L69.3859 122.647H69.3729L69.0908 122.81C69.72 122.984 70.2003 123.296 70.6053 123.711C70.6227 123.726 70.6342 123.746 70.6545 123.76Z" fill="white"/>
<path fill-rule="evenodd" clip-rule="evenodd" d="M73.7398 117.971V118.81L73.5792 118.735C73.572 118.729 73.3348 118.677 72.9254 118.35C72.247 117.824 72.234 117.338 72.234 117.338L73.7383 117.971H73.7398ZM74.4486 121.902V116.691L71.139 115.566L72.0127 120.614L74.45 121.902H74.4486ZM75.6925 117.971L77.1969 117.338C77.1969 117.338 77.1853 117.824 76.504 118.35C76.0947 118.676 75.8589 118.729 75.8517 118.735L75.6925 118.809V117.971ZM77.4182 120.616L78.2875 115.567L74.9794 116.691V121.902L77.4182 120.614V120.616ZM69.7677 133.98C70.0903 134.095 70.4808 134.12 70.6819 134.12C70.6891 134.095 70.7007 134.065 70.7108 134.027C70.7267 133.97 70.7441 133.909 70.7571 133.845C70.8135 133.556 70.8323 133.23 70.8381 133.019C70.6531 132.909 70.5024 132.75 70.4027 132.559C70.2798 132.3 70.1048 132.179 69.8487 132.179C69.516 132.179 69.1588 132.381 69.004 132.474C68.8825 133.194 69.4133 133.848 69.7677 133.978V133.98ZM77.0899 131.215C76.4765 131.885 75.2716 133.053 75.2138 133.11L75.1414 133.183L71.3372 133.123C71.334 133.438 71.2932 133.751 71.2157 134.056L71.1853 134.176L75.7085 134.992C76.1786 134.662 77.4732 133.715 77.9766 133.343C77.6106 132.808 77.5759 132.173 77.6583 131.728C77.4412 131.59 77.2489 131.417 77.0899 131.215Z" fill="white"/>
<path fill-rule="evenodd" clip-rule="evenodd" d="M77.6063 126.633C76.7298 127.504 75.8894 127.826 75.1386 127.902C75.0012 127.917 74.8631 127.924 74.7249 127.925H74.7061C74.43 127.925 74.1546 127.896 73.8845 127.838C73.8353 128.033 73.7731 128.443 73.9511 128.83C74.1102 129.182 74.4327 129.444 74.9043 129.619L75.0634 129.681L75.0649 129.851C75.0649 129.902 75.1025 131.01 76.3088 131.318C76.5056 131.116 76.6849 130.932 76.8151 130.777C76.5692 130.197 76.6994 129.604 77.0567 129.313C77.0422 129.376 76.8831 130.829 78.0475 131.37L78.2399 131.461L78.182 131.665C78.1632 131.728 77.7756 133.135 79.1859 133.659L79.4347 133.754L79.3233 133.996C79.2987 134.049 78.7462 135.326 80.048 136.053H82.8701V133.806C81.8662 133.683 81.4424 132.875 81.3325 132.302C80.8653 132.222 80.5051 132.021 80.2578 131.693C79.6647 130.912 80.1739 130.196 80.1811 130.157C80.1796 130.162 80.1811 130.923 80.6497 131.395C80.8826 131.621 81.1575 131.797 81.5755 131.836L81.7795 131.855L81.7968 132.065C81.8012 132.109 81.9125 133.141 82.8701 133.303L82.8687 128.717C82.8687 128.006 83.0755 127.291 83.3243 126.632H77.6063V126.633ZM70.0079 128.735L69.9327 131.654L70.2654 131.706L71.0754 128.904L70.6632 128.042L70.0094 128.735H70.0079ZM71.764 139.546C71.7417 139.545 71.7198 139.54 71.6997 139.53C71.6795 139.521 71.6615 139.508 71.6468 139.491C71.632 139.474 71.6208 139.455 71.6138 139.434C71.6069 139.412 71.6043 139.39 71.6063 139.368C71.6076 139.346 71.6132 139.325 71.6229 139.305C71.6326 139.285 71.6461 139.268 71.6627 139.253C71.6793 139.239 71.6986 139.228 71.7194 139.221C71.7403 139.214 71.7623 139.211 71.7842 139.213C71.8797 139.217 71.9462 139.3 71.9433 139.39C71.94 139.434 71.9193 139.475 71.8857 139.505C71.8521 139.534 71.8084 139.549 71.764 139.546ZM78.9414 142.131C78.966 142.131 78.995 142.134 79.021 142.141C79.5273 142.285 79.6531 144.105 80.5369 144.267C80.6237 144.286 80.7047 144.29 80.7741 144.29C81.0302 144.29 81.1821 144.182 81.347 143.987C81.347 143.987 80.9014 143.288 80.5687 142.815C80.1276 142.196 79.7847 141.448 78.9617 141.448C78.9414 141.448 78.9183 141.448 78.8966 141.451C78.7399 141.457 78.5882 141.508 78.4598 141.598C78.185 141.417 77.8634 141.319 77.534 141.316C77.0205 141.316 76.6184 141.554 76.4173 141.554H76.4101L74.573 141.371C74.2852 141.342 74.0581 141.053 73.9756 140.94L73.9438 140.891C73.9438 140.84 73.9438 140.79 73.9409 140.745C73.8787 139.239 72.7158 138.596 72.3006 138.584C72.3006 138.584 72.3498 138.298 72.2384 138.189L71.8334 138.681L70.5026 138.013L71.4515 139.123L70.6487 140.028C70.5475 140.13 70.5605 140.269 70.6024 140.328L70.9496 140.635L71.3893 140.367C71.411 140.352 71.4515 140.346 71.5007 140.346C71.6222 140.346 71.8045 140.378 71.9679 140.378C72.1487 140.378 72.3035 140.34 72.3223 140.171C72.2673 140.729 71.7495 141.7 72.0894 142.462L72.3411 143.038L70.7167 142.803L69.9559 144.089C69.7215 144.517 69.6839 144.98 69.9096 145.232L70.1945 145.589C70.1945 145.589 70.5938 145.165 70.682 144.886L70.5533 144.745C70.4448 144.624 70.4506 144.517 70.5171 144.389L70.9944 143.596L72.911 144.049L73.0123 143.875C73.1425 143.658 73.3305 143.595 73.5359 143.595C73.6213 143.595 73.708 143.605 73.7977 143.619C74.1536 143.69 74.7394 143.784 75.3252 143.784C75.9689 143.784 76.6068 143.668 76.9467 143.288C77.6411 144.319 79.0499 144.483 78.9386 145.008L78.5682 146.775C78.8142 146.764 79.0499 146.748 79.2741 146.718L79.6271 144.879C79.6557 144.723 79.6808 144.566 79.7023 144.409C79.5663 144.27 79.238 143.979 79.0514 143.625C78.804 143.146 78.9386 142.896 78.7071 142.274C78.7071 142.274 78.7794 142.129 78.9414 142.129V142.131Z" fill="white"/>
<path fill-rule="evenodd" clip-rule="evenodd" d="M69.1443 143.801C69.1443 143.801 69.7807 143.541 69.8386 143.353L69.7518 143.142C69.6925 143.003 69.6997 142.853 69.8169 142.772L70.5025 142.296L71.6496 142.517C71.6496 142.517 71.4413 142.257 71.4615 141.909L70.368 141.678L69.3352 142.307C69.155 142.441 69.0247 142.631 68.9652 142.847C68.9057 143.064 68.9204 143.294 69.0068 143.501L69.1443 143.803V143.801ZM77.2547 146.799C77.4587 146.79 77.6872 146.787 77.9346 146.787C77.9346 146.787 78.5247 145.058 78.558 145.003C78.1197 144.799 77.692 144.573 77.2764 144.325C77.4515 144.588 77.8767 144.888 77.7928 145.119L77.2547 146.799Z" fill="white"/>
<path fill-rule="evenodd" clip-rule="evenodd" d="M82.87 136.547H66.5608V142.693C66.5608 145.207 68.3762 146.78 71.0565 146.78C73.2943 146.78 73.8844 146.867 74.7161 147.695C75.2904 147.121 75.7649 146.908 76.7412 146.827L76.7629 146.733L77.2764 145.141C77.2475 145.105 76.4085 144.149 76.4085 144.149C76.0758 144.26 75.7952 144.279 75.3237 144.279C74.842 144.279 74.2967 144.221 73.7051 144.111C73.6496 144.098 73.5928 144.091 73.5358 144.091C73.4635 144.091 73.4591 144.097 73.4389 144.133L73.3376 144.302L73.1496 144.611L72.7981 144.529L71.233 144.16L71.0175 144.515L71.0507 144.554L71.2402 144.763L71.1563 145.038C71.0406 145.395 70.6674 145.814 70.5532 145.929L70.1626 146.349L69.8053 145.899L69.5377 145.562C69.2557 145.246 69.1906 144.763 69.3497 144.257C69.345 144.26 69.3395 144.262 69.3338 144.263L68.8926 144.447L68.6944 144.013L68.5541 143.707C68.4194 143.395 68.3952 143.046 68.4854 142.718C68.5756 142.39 68.7748 142.103 69.0503 141.904L70.3087 141.191L71.5093 141.426C71.5382 141.311 71.5816 140.9 71.6149 140.794C71.5917 140.791 71.57 140.787 71.5469 140.787L70.8555 141.044L70.1901 140.584C70.1901 140.584 69.9297 140.333 70.1655 140.081L70.8092 139.102L69.1746 137.048L71.6872 138.081L71.855 137.874L72.1935 137.466L72.5782 137.833C72.6794 137.932 72.7498 138.058 72.7807 138.196C73.4722 138.467 74.7133 139.264 74.8232 140.56L74.4355 140.715V140.725C74.5238 140.83 74.5975 140.874 74.6207 140.878L76.4143 141.055C76.4606 141.046 76.5156 141.026 76.5792 141.008C76.8034 140.932 77.1376 140.82 77.5339 140.82C77.8579 140.82 78.1704 140.895 78.4698 141.037C78.5997 140.989 78.7363 140.96 78.8748 140.953L78.9616 140.95C79.9206 140.95 80.398 141.669 80.7813 142.244C80.8449 142.343 80.9086 142.436 80.9751 142.529C81.3107 143.003 81.749 143.696 81.7663 143.726L81.9645 144.034L81.7215 144.318C81.5363 144.535 81.2543 144.788 80.774 144.788C80.6652 144.787 80.5568 144.776 80.45 144.755C80.3516 144.736 80.2556 144.706 80.1636 144.666C80.1489 144.769 80.132 144.87 80.113 144.972L79.7991 146.616C81.6795 146.153 82.8743 144.73 82.8743 142.693L82.87 136.547ZM66.5608 136.053H79.2466C78.613 135.396 78.6231 134.567 78.7837 134.028C78.6126 133.945 78.4534 133.84 78.3107 133.715C77.8145 134.081 76.3015 135.185 75.9066 135.462L75.8213 135.52L70.8425 134.618H70.7412C70.6226 134.618 70.4476 134.613 70.2566 134.589C70.2362 134.68 70.1897 134.764 70.1228 134.829C70.0558 134.895 69.9713 134.94 69.8795 134.958C69.7877 134.977 69.6924 134.968 69.6053 134.934C69.5182 134.899 69.443 134.84 69.3887 134.764C69.3506 134.712 69.3233 134.652 69.3084 134.59C69.2935 134.527 69.2913 134.462 69.3019 134.398L69.3207 134.289C68.8087 133.928 68.3328 133.118 68.544 132.264L68.5642 132.175L68.6366 132.122C68.7095 132.073 68.7848 132.026 68.8622 131.984L68.5006 131.926C68.4364 131.915 68.379 131.879 68.3406 131.826C68.3023 131.774 68.286 131.708 68.2952 131.644C68.2999 131.611 68.3111 131.58 68.328 131.552C68.3449 131.524 68.3671 131.5 68.3935 131.481C68.4199 131.462 68.4499 131.448 68.4817 131.44C68.5135 131.433 68.5465 131.432 68.5787 131.437L69.4394 131.573L69.5189 128.534L70.8005 127.174L71.6019 128.862L70.7571 131.787L71.518 131.907C71.5829 131.918 71.641 131.954 71.6795 132.007C71.718 132.06 71.7338 132.127 71.7234 132.192C71.714 132.25 71.6844 132.302 71.6399 132.34C71.5953 132.377 71.5387 132.398 71.4804 132.397L71.4413 132.396L70.8208 132.295C70.8294 132.315 70.841 132.325 70.8497 132.345C70.9188 132.465 71.0227 132.561 71.1477 132.62L74.9418 132.682C75.1024 132.525 75.5001 132.134 75.9109 131.72C75.5534 131.589 75.2395 131.361 75.0044 131.061C74.7693 130.761 74.6224 130.402 74.5802 130.024C74.0594 129.801 73.6978 129.468 73.4982 129.034C73.2552 128.496 73.342 127.958 73.4071 127.696C72.9008 127.513 72.3685 127.174 71.8246 126.633H66.1081C66.354 127.293 66.5608 128.007 66.5608 128.717V136.051V136.053Z" fill="#FFDD2D"/>
<path fill-rule="evenodd" clip-rule="evenodd" d="M71.7843 139.213C71.7622 139.212 71.7401 139.214 71.7191 139.221C71.6982 139.228 71.6788 139.239 71.6622 139.254C71.6456 139.268 71.6321 139.286 71.6225 139.306C71.6129 139.326 71.6074 139.347 71.6063 139.37C71.6046 139.392 71.6073 139.414 71.6143 139.435C71.6214 139.456 71.6326 139.475 71.6474 139.492C71.6621 139.508 71.6801 139.521 71.7001 139.531C71.7201 139.54 71.7419 139.545 71.764 139.546C71.8082 139.549 71.8517 139.534 71.8853 139.505C71.9188 139.476 71.9397 139.435 71.9434 139.391C71.9457 139.347 71.9303 139.303 71.9005 139.269C71.8707 139.236 71.8289 139.216 71.7843 139.213ZM79.3436 152.102L78.5987 150.047C79.4854 149.777 81.0085 149.196 81.6927 148.809L81.2371 150.304L82.7805 150.817C81.846 151.286 80.7149 151.724 79.3436 152.1V152.102ZM74.7177 153.946C72.9226 153.946 70.8744 153.532 70.2698 153.317L71.1869 150.831C71.9477 151.054 73.5302 151.29 74.6801 151.283H74.7524C75.901 151.29 77.482 151.053 78.2472 150.831L79.1628 153.317C78.5582 153.534 76.5099 153.946 74.7177 153.946ZM66.6521 150.817L68.197 150.304L67.7399 148.809C68.4212 149.196 69.9487 149.778 70.8325 150.047L70.0875 152.102C68.7206 151.725 67.5851 151.286 66.6521 150.817ZM82.8499 150.361L81.9097 150L82.17 149.028L82.455 147.967C82.455 147.967 80.7915 148.873 78.4439 149.551C77.7785 149.742 77.2751 149.831 77.2751 149.831V150.552C77.2751 150.552 76.0196 150.769 74.7524 150.769H74.6801C73.4101 150.769 72.1574 150.552 72.1574 150.552V149.829C72.1574 149.829 71.6526 149.742 70.9872 149.551C68.6425 148.871 66.979 147.967 66.979 147.967L67.2596 149.028L67.5258 150L66.5827 150.361L65.5369 150.752C66.7346 151.332 68.3951 152.175 69.9139 152.592L69.5567 153.573C69.5567 153.573 71.4834 154.452 74.6931 154.461V154.462H74.7365V154.461C77.9506 154.452 79.8774 153.573 79.8774 153.573L79.5157 152.592C81.036 152.175 82.6995 151.333 83.8914 150.752L82.8499 150.361ZM70.7934 110.79L71.2201 110.836L71.4038 110.446L71.9419 109.293L72.94 109.811L73.3277 110.009L74.7134 108.632L75.7939 109.702L76.1035 110.009L76.4911 109.811L77.4834 109.293L78.0302 110.446L78.211 110.836L78.6377 110.79L79.0456 110.742C78.8804 111.118 78.7389 111.503 78.6218 111.896C77.5442 111.293 76.144 110.952 74.7148 110.952C73.2915 110.952 71.8913 111.293 70.8093 111.896C70.6926 111.503 70.5516 111.118 70.3869 110.742L70.792 110.79H70.7934ZM74.7134 111.552C76.6271 111.552 78.156 112.189 79.0022 112.864C79.0022 112.864 79.2539 111.35 80.1102 110.014L78.5697 110.188L77.764 108.474L76.2163 109.274L74.7134 107.787L73.2163 109.274L71.6656 108.474L70.8614 110.189L69.3209 110.013C70.1786 111.35 70.4289 112.863 70.4289 112.863C71.2794 112.187 72.804 111.552 74.7134 111.552ZM98.9537 137.026C98.9537 137.026 98.2883 138.188 96.7608 138.188H96.742C94.9078 138.176 94.1672 137.055 94.1672 137.055C94.1672 137.055 94.2743 138.513 93.6147 140.482C92.8191 142.854 93.6205 144.546 93.6205 144.546C93.6205 144.546 93.1923 144.664 92.699 144.664C92.511 144.664 92.3143 144.645 92.1277 144.596C90.5958 144.233 90.214 142.835 90.214 142.835C90.214 142.835 90.3557 147.552 84.8634 147.552H84.82C84.82 147.552 85.3046 146.894 85.4478 144.996C85.7082 141.496 88.0746 141.014 88.0746 141.014C88.0746 141.014 86.8118 140.855 86.2636 140.365C85.4087 139.588 85.468 138.69 85.468 138.69C87.4006 138.662 88.6677 138.004 89.6325 136.886C90.2542 136.171 90.6737 135.302 90.8475 134.37C90.8475 134.37 89.809 135.315 87.7998 135.315C87.6233 135.315 87.4353 135.306 87.2414 135.288C86.2896 135.211 85.6329 134.605 85.6329 134.605C87.7246 133.261 89.1913 130.916 87.8909 127.387C86.8494 124.559 84.3441 122.446 81.8229 120.854C80.9839 120.329 80.5153 119.745 80.5153 119.243C80.5153 118.061 82.1932 118.024 82.8817 117.23C83.6773 116.307 83.1782 114.81 82.4897 113.908C82.4897 113.908 82.7212 113.861 83.0871 113.861C83.8133 113.861 85.0688 114.043 86.1016 115.116C87.4714 116.537 86.903 118.084 86.903 118.084L87.2704 118.157C87.4902 118.202 87.7087 118.212 87.9358 118.223L88.0833 118.225C90.0751 118.225 90.9647 116.139 90.9647 116.139C90.9647 116.139 93.0824 118.748 89.9652 120.794C89.4285 121.142 89.1913 121.468 89.2535 121.812L89.3027 122.039L89.524 122.078C91.7834 122.693 92.9276 124.255 94.3235 126.029C96.444 128.729 99.444 128.816 99.8129 128.816H99.8534C99.8534 128.816 99.1692 130.981 97.1513 130.981C97.1181 130.981 97.0891 130.981 97.0559 130.978C96.1301 130.945 95.6528 130.589 95.6528 130.589C95.6528 130.589 95.2926 135.503 98.9537 137.026ZM97.1513 131.644C99.6248 131.644 100.452 129.123 100.487 129.016L100.762 128.126L99.836 128.155H99.8331C99.5048 128.155 96.7767 128.083 94.8427 125.619L94.659 125.391C93.3948 123.781 92.1957 122.249 90.052 121.55C90.1376 121.475 90.229 121.407 90.3254 121.346C91.4623 120.597 92.1248 119.687 92.2897 118.63C92.5341 117.04 91.5202 115.773 91.4768 115.721L90.7882 114.867L90.3572 115.88C90.3282 115.942 89.605 117.562 88.0833 117.562H87.9705C87.8696 117.559 87.7688 117.553 87.6682 117.545C87.7217 116.822 87.59 115.705 86.5775 114.655C85.361 113.392 83.8682 113.203 83.0871 113.203C82.6705 113.203 82.3928 113.255 82.3624 113.257L81.3224 113.464L81.9632 114.311C82.4666 114.964 82.9237 116.169 82.3827 116.798C82.2091 117.001 81.8533 117.162 81.5133 117.325C80.8132 117.648 79.8557 118.099 79.8557 119.243C79.8557 119.984 80.4299 120.76 81.4714 121.419C84.5495 123.358 86.4502 125.383 87.2704 127.618C88.5404 131.055 86.8842 133.017 85.2742 134.049L84.5539 134.514L85.186 135.095C85.2713 135.17 86.0423 135.852 87.1836 135.95C87.4006 135.964 87.6074 135.976 87.8012 135.976C88.5317 135.976 89.1551 135.86 89.6614 135.707C89.5101 135.971 89.3338 136.22 89.1349 136.45C88.2164 137.518 87.0852 138.004 85.4579 138.03L84.8533 138.039L84.807 138.646C84.8012 138.769 84.7564 139.896 85.8195 140.854C85.983 141.001 86.1797 141.124 86.3866 141.222C85.6633 141.873 84.9314 143.007 84.7896 144.949C84.6696 146.569 84.2834 147.169 84.279 147.176L83.6107 148.197L84.8186 148.213C86.8133 148.213 88.3408 147.664 89.3982 146.57C89.9458 145.996 90.3546 145.303 90.593 144.546C91.1803 145.047 91.9271 145.322 92.699 145.322C93.2632 145.322 93.7347 145.202 93.7868 145.19L94.5578 144.985L94.2179 144.264C94.1918 144.207 93.5496 142.76 94.241 140.696C94.4935 139.944 94.669 139.169 94.7646 138.382C95.2507 138.636 95.9001 138.844 96.7405 138.847C98.6499 138.847 99.4903 137.42 99.5279 137.36L99.904 136.704L99.2068 136.417C96.9329 135.471 96.4295 132.931 96.3283 131.557C96.5351 131.596 96.7695 131.632 97.0342 131.639L97.1513 131.644Z" fill="#002A3A"/>
<path fill-rule="evenodd" clip-rule="evenodd" d="M94.3725 120.86C94.8325 120.86 95.3706 121.018 95.8769 121.543C97.4709 123.163 98.9535 123.254 98.9535 123.254C98.6845 123.851 97.9034 124.377 97.0948 124.377C96.9082 124.377 96.7187 124.348 96.535 124.283C95.4371 123.912 95.0451 122.265 93.1199 121.239C93.1199 121.239 93.6551 120.86 94.3725 120.86ZM92.806 121.823C93.7274 122.315 94.2655 122.976 94.737 123.561C95.1999 124.132 95.6382 124.682 96.3282 124.91C96.5712 124.994 96.8301 125.035 97.0948 125.035C98.1262 125.035 99.1633 124.401 99.5567 123.525L99.9516 122.648L98.9955 122.59C98.9507 122.59 97.7197 122.476 96.3513 121.076C95.7872 120.5 95.1059 120.199 94.3725 120.199C93.4757 120.199 92.8103 120.647 92.738 120.694L91.8585 121.314L92.806 121.823ZM93.2385 130.576V130.609C92.683 126.122 89.4313 122.882 85.8107 120.912C85.4781 120.733 85.1671 120.579 84.8676 120.435C85.9684 120.606 87.7433 120.626 89.1145 119.437C89.1145 119.437 87.0171 120.98 82.7254 119.577C83.9115 120.349 86.2215 121.44 88.3305 123.205C93.6001 127.845 89.8305 132.37 89.8305 132.37C91.7254 130.39 91.8035 128.269 91.2452 126.536C92.2433 128.2 92.8797 130.217 92.7814 132.707C92.6367 136.272 90.6796 139.356 88.6213 141.834C87.6319 143.035 87.412 144.513 87.412 144.513C87.412 144.513 87.8112 143.21 88.9554 141.869C91.1613 139.28 93.049 136.594 93.2949 132.72C93.5234 133.424 94.4636 135.377 95.9535 136.113C95.9535 136.113 94.0803 134.982 93.2385 130.576ZM64.569 147.552C59.0767 147.552 59.217 142.835 59.217 142.835C59.217 142.835 58.8323 144.232 57.3033 144.596C57.1166 144.643 56.9245 144.665 56.732 144.664C56.2402 144.664 55.812 144.548 55.812 144.548C55.812 144.548 56.6119 142.853 55.8149 140.482C55.1582 138.515 55.2652 137.055 55.2652 137.055C55.2652 137.055 54.5261 138.176 52.6905 138.188H52.6717C51.1456 138.188 50.4788 137.026 50.4788 137.026C54.1384 135.503 53.7797 130.589 53.7797 130.589C53.7797 130.589 53.3023 130.945 52.3766 130.98H52.2797C50.2604 130.98 49.5762 128.816 49.5762 128.816H49.6181C49.9913 128.816 52.987 128.729 55.1061 126.028C56.502 124.254 57.6476 122.693 59.9027 122.079L60.1298 122.039L60.1775 121.812C60.2412 121.468 60.0039 121.142 59.4687 120.794C56.3515 118.748 58.4678 116.14 58.4678 116.14C58.4678 116.14 59.353 118.225 61.3506 118.225L61.4953 118.223C61.7209 118.212 61.9422 118.201 62.1606 118.155L62.5281 118.084C62.5281 118.084 61.9581 116.537 63.3323 115.116C64.3651 114.043 65.6192 113.861 66.3439 113.861C66.7127 113.861 66.9398 113.908 66.9398 113.908C66.2542 114.809 65.7566 116.307 66.5493 117.229C67.2378 118.024 68.9143 118.061 68.9143 119.243C68.9143 119.745 68.4471 120.329 67.6096 120.854C65.0854 122.445 62.5816 124.557 61.5401 127.388C60.2412 130.918 61.7079 133.261 63.801 134.606C63.801 134.606 63.1428 135.211 62.191 135.287C62.0045 135.305 61.8172 135.315 61.6298 135.315C59.6221 135.315 58.5835 134.372 58.5835 134.372C58.5835 134.372 58.7571 135.675 59.7956 136.887C60.7648 138.004 62.0305 138.662 63.9615 138.69C63.9615 138.69 64.0237 139.586 63.1688 140.365C62.6206 140.856 61.3578 141.015 61.3578 141.015C61.3578 141.015 63.7257 141.496 63.9861 144.996C64.1279 146.894 64.6081 147.552 64.6081 147.552H64.569ZM65.152 147.176C65.1505 147.169 64.7672 146.569 64.6443 144.948C64.4996 143.007 63.7677 141.873 63.043 141.222C63.2527 141.124 63.448 141.001 63.61 140.853C64.6732 139.896 64.6284 138.771 64.6211 138.646L64.5806 138.039L63.9716 138.03C62.3487 138.004 61.2161 137.518 60.2976 136.45C60.0996 136.219 59.9233 135.97 59.771 135.707C60.2773 135.862 60.8964 135.976 61.6298 135.976C61.8251 135.976 62.0305 135.964 62.246 135.95C62.9843 135.876 63.6823 135.578 64.2465 135.096L64.8786 134.514L64.1582 134.051C62.544 133.016 60.8935 131.056 62.1621 127.618C62.9822 125.383 64.8786 123.36 67.9625 121.418C69.004 120.76 69.5739 119.984 69.5739 119.243C69.5739 118.099 68.6192 117.647 67.9191 117.325C67.5777 117.161 67.2219 116.999 67.0498 116.798C66.5073 116.169 66.963 114.964 67.4678 114.31L68.1129 113.464L67.0671 113.257C67.0382 113.253 66.7634 113.202 66.3439 113.202C65.5642 113.202 64.0729 113.392 62.8579 114.655C61.8439 115.705 61.7108 116.823 61.7629 117.545C61.6627 117.553 61.5624 117.559 61.462 117.562H61.3506C59.8231 117.562 59.1028 115.942 59.0753 115.88L58.6457 114.867L57.9514 115.721C57.9123 115.773 56.8954 117.04 57.1442 118.63C57.3077 119.686 57.9702 120.597 59.1071 121.346C59.2315 121.426 59.3168 121.494 59.379 121.55C57.2325 122.249 56.0362 123.781 54.772 125.391L54.5897 125.619C52.6572 128.082 49.9219 128.156 49.595 128.156L48.6635 128.127L48.947 129.015C48.9802 129.122 49.8047 131.644 52.2797 131.644L52.3983 131.639C52.6601 131.632 52.8959 131.596 53.1042 131.555C53.0029 132.93 52.4966 135.471 50.2228 136.416L49.5285 136.705L49.9045 137.36C50.2059 137.824 50.6202 138.204 51.1085 138.464C51.5968 138.724 52.1431 138.856 52.6963 138.847C53.3807 138.854 54.0566 138.695 54.6664 138.384C54.7402 139.006 54.8935 139.803 55.1915 140.696C55.8829 142.759 55.2392 144.206 55.2146 144.264L54.8732 144.985L55.6442 145.189C55.6963 145.203 56.1707 145.322 56.732 145.322C57.5042 145.324 58.2515 145.049 58.8381 144.546C59.0765 145.303 59.4847 145.995 60.0314 146.57C61.0931 147.662 62.6192 148.213 64.6124 148.213L65.8203 148.197L65.152 147.176Z" fill="#002A3A"/>
<path fill-rule="evenodd" clip-rule="evenodd" d="M53.5525 121.543C54.0617 121.018 54.5983 120.859 55.0612 120.859C55.7729 120.859 56.3124 121.239 56.3124 121.239C54.3886 122.266 53.9922 123.912 52.8929 124.284C52.7139 124.346 52.5255 124.377 52.336 124.375C51.5274 124.375 50.7449 123.851 50.4787 123.254C50.4787 123.254 51.9599 123.163 53.5525 121.543ZM52.336 125.035C52.6007 125.035 52.8596 124.994 53.1055 124.91C53.7941 124.682 54.2338 124.133 54.6967 123.561C55.1697 122.978 55.702 122.317 56.6248 121.825L57.5737 121.314L56.6914 120.692C56.6191 120.647 55.958 120.2 55.0612 120.2C54.3264 120.2 53.6436 120.5 53.0809 121.076C51.7111 122.477 50.483 122.59 50.4382 122.592L49.4835 122.648L49.8741 123.526C50.2704 124.401 51.3061 125.035 52.336 125.035ZM56.6509 132.707C56.5496 130.217 57.1861 128.2 58.1842 126.536C57.6287 128.269 57.7039 130.39 59.6017 132.371C59.6017 132.371 55.8293 127.844 61.1017 123.206C63.2107 121.44 65.5179 120.349 66.704 119.577C62.4137 120.98 60.3177 119.435 60.3177 119.435C61.6875 120.626 63.4624 120.607 64.5632 120.433C64.2652 120.579 63.9528 120.731 63.6201 120.912C59.9995 122.881 56.7492 126.122 56.1909 130.609V130.576C55.3505 134.982 53.4787 136.113 53.4787 136.113C54.9686 135.376 55.9059 133.423 56.1345 132.72C56.3833 136.594 58.2695 139.281 60.4739 141.869C61.6196 143.21 62.0217 144.513 62.0217 144.513C62.0217 144.513 61.7989 143.036 60.8052 141.834C58.7512 139.356 56.7955 136.272 56.6509 132.707ZM73.475 123.627V124.518C73.7816 124.144 74.3718 124.22 74.3718 124.22V125.503C74.3718 125.503 74.353 126.134 74.1288 126.407H75.4104C75.1876 126.134 75.1659 125.503 75.1659 125.503V124.22C75.1659 124.22 75.759 124.144 76.0628 124.518V123.627H73.4735H73.475ZM72.9253 118.35C73.3347 118.676 73.5719 118.731 73.5791 118.735L73.7382 118.809V117.971L72.2339 117.338C72.2339 117.338 72.2469 117.824 72.9253 118.35ZM76.5039 118.35C77.1838 117.824 77.1983 117.338 77.1983 117.338L75.6925 117.971V118.81L75.8516 118.735C75.8588 118.731 76.0946 118.676 76.5039 118.35Z" fill="#002A3A"/>
<path fill-rule="evenodd" clip-rule="evenodd" d="M74.7146 116.119L71.0883 114.684C71.3964 113.952 72.8183 113.33 74.7146 113.328C76.6124 113.33 78.0343 113.952 78.3424 114.684L74.7146 116.119ZM77.4181 120.616L74.9808 121.903V116.69L78.2889 115.565L77.4181 120.613V120.616ZM78.9283 121.999L80.0421 122.647H80.058L80.3386 122.81C79.7094 122.984 79.2277 123.3 78.8241 123.714L78.7807 123.758C78.6856 123.859 78.5944 123.964 78.5073 124.073L78.4567 124.139C78.3699 124.251 78.2875 124.365 78.2108 124.484L78.1689 124.543C78.075 124.686 77.9858 124.832 77.9013 124.981C77.1057 126.351 75.84 127.17 74.7146 127.173C73.5893 127.17 72.3222 126.351 71.5295 124.981C71.4452 124.835 71.3569 124.691 71.2648 124.55L71.2127 124.474C71.1371 124.362 71.059 124.252 70.9784 124.144C70.9581 124.115 70.9393 124.093 70.9191 124.069C70.8341 123.963 70.7459 123.86 70.6543 123.76C70.6355 123.746 70.6225 123.727 70.6052 123.711C70.1919 123.279 69.6682 122.967 69.0907 122.81L69.3742 122.647H69.3858L70.5039 121.999L71.6481 121.341L74.7089 123.01L74.7146 123.004L74.7233 123.01L77.7826 121.341L78.9283 121.999ZM83.3256 126.633C83.0754 127.293 82.8685 128.007 82.8685 128.718L82.8714 133.303C81.9153 133.144 81.801 132.111 81.7981 132.066L81.7807 131.856L81.5739 131.838C81.2231 131.807 80.8954 131.65 80.651 131.396C80.1809 130.926 80.1809 130.166 80.1809 130.158C80.1751 130.197 79.666 130.91 80.2561 131.692C80.5049 132.021 80.8666 132.225 81.3323 132.305C81.4423 132.876 81.8675 133.685 82.8714 133.809V136.051H80.0493C78.7475 135.327 79.2986 134.051 79.3246 133.996L79.4345 133.753L79.1857 133.659C77.7754 133.135 78.1645 131.726 78.1833 131.666L78.2412 131.46L78.0474 131.37C76.8844 130.829 77.042 129.374 77.058 129.314C76.6992 129.604 76.5705 130.196 76.8164 130.779C76.6833 130.932 76.504 131.116 76.3087 131.318C75.9689 131.244 75.663 131.06 75.4382 130.795C75.2133 130.53 75.0821 130.198 75.0647 129.85L75.0632 129.68L74.9041 129.619C74.434 129.445 74.1115 129.182 73.9509 128.83C73.82 128.516 73.7967 128.166 73.8844 127.837C74.1547 127.893 74.4299 127.922 74.706 127.923H74.7248C74.8651 127.923 75.0025 127.915 75.1385 127.902C75.8906 127.827 76.7296 127.504 77.6062 126.633H83.3256ZM79.7991 146.616L80.1144 144.972L80.165 144.668C80.3597 144.744 80.5664 144.785 80.7754 144.788C81.2557 144.788 81.5363 144.534 81.7229 144.318L81.963 144.036L81.7663 143.726C81.7489 143.696 81.3106 143.003 80.975 142.529C80.9084 142.435 80.8442 142.339 80.7827 142.242C80.3993 141.669 79.9206 140.951 78.9601 140.951L78.8747 140.953C78.7364 140.961 78.6 140.989 78.4697 141.036C78.1775 140.896 77.8578 140.823 77.5339 140.822C77.208 140.83 76.8857 140.892 76.5806 141.007C76.517 141.026 76.4591 141.046 76.4143 141.055L74.6206 140.878C74.5476 140.842 74.4842 140.79 74.4355 140.725V140.715L74.8231 140.56C74.7146 139.264 73.4721 138.467 72.7807 138.196C72.75 138.058 72.6797 137.931 72.5782 137.832L72.1934 137.466L71.8549 137.872L71.6886 138.081L69.1746 137.046L70.8091 139.102L70.1654 140.081C69.9282 140.331 70.19 140.585 70.19 140.585L70.8554 141.045L71.5468 140.786C71.57 140.786 71.5902 140.791 71.6148 140.794C71.5815 140.9 71.5382 141.312 71.5092 141.426L70.3101 141.191L69.0516 141.904C68.4022 142.381 68.3139 143.168 68.5555 143.708L68.6944 144.014L68.8925 144.447L69.3337 144.264C69.3409 144.262 69.3467 144.26 69.3511 144.256C69.1919 144.764 69.257 145.245 69.5391 145.562L69.8067 145.899L70.1625 146.35L70.5531 145.929C70.6688 145.814 71.042 145.396 71.1563 145.037L71.2402 144.764L71.0507 144.554L71.0189 144.515L71.2329 144.16L72.798 144.531L73.151 144.612L73.339 144.301L73.4403 144.133C73.4591 144.097 73.4634 144.091 73.5358 144.091C73.5922 144.091 73.6471 144.097 73.7064 144.111C74.2402 144.216 74.7825 144.272 75.3265 144.277C75.7937 144.277 76.0758 144.26 76.4085 144.149C76.4085 144.149 77.2489 145.103 77.2778 145.141L76.7629 146.732L76.7397 146.828C75.7662 146.907 75.2918 147.121 74.7175 147.696C73.8844 146.868 73.2956 146.78 71.0579 146.78C68.3776 146.78 66.5608 145.208 66.5608 142.692V136.547H82.8714L82.8743 142.692C82.8743 144.73 81.6795 146.152 79.7991 146.616ZM69.7532 143.142L69.8385 143.355C69.7807 143.54 69.1442 143.803 69.1442 143.803L69.0082 143.501C68.9214 143.294 68.9066 143.063 68.9661 142.847C69.0256 142.63 69.1561 142.44 69.3366 142.306L70.3679 141.677L71.4629 141.908C71.4548 142.126 71.5205 142.341 71.6495 142.517L70.5039 142.297L69.8168 142.772C69.7011 142.853 69.6924 143.003 69.7532 143.142ZM79.6255 144.878L79.274 146.716C79.0483 146.748 78.8111 146.765 78.5681 146.774L78.9384 145.009C79.0483 144.483 77.6423 144.319 76.9466 143.288C76.6067 143.67 75.9688 143.784 75.3265 143.784C74.7392 143.784 74.1549 143.69 73.7976 143.619C73.7116 143.604 73.6245 143.596 73.5372 143.595C73.3304 143.595 73.1438 143.658 73.0136 143.877L72.9123 144.05L70.9943 143.598L70.5169 144.389C70.4504 144.518 70.4446 144.625 70.5531 144.745L70.6833 144.886C70.5936 145.166 70.1944 145.589 70.1944 145.589L69.9094 145.232C69.6838 144.98 69.7214 144.518 69.9557 144.089L70.7165 142.802L72.341 143.038L72.0893 142.461C71.7493 141.698 72.2672 140.729 72.3222 140.171C72.3033 140.34 72.1486 140.378 71.9692 140.378C71.8043 140.378 71.622 140.347 71.5005 140.347C71.4528 140.347 71.4109 140.352 71.3892 140.368L70.9494 140.635L70.6023 140.329C70.5603 140.271 70.5473 140.13 70.6486 140.026L71.4528 139.124L70.5039 138.013L71.8318 138.682L72.2383 138.189C72.3496 138.299 72.3005 138.584 72.3005 138.584C72.7156 138.596 73.88 139.239 73.9408 140.744C73.9451 140.79 73.9451 140.841 73.9451 140.891L73.9755 140.94C74.0579 141.055 74.285 141.345 74.5729 141.371L76.4099 141.554H76.4172C76.6197 141.554 77.0203 141.317 77.5339 141.317C77.8159 141.317 78.1269 141.389 78.4596 141.599C78.4596 141.599 78.6274 141.466 78.8979 141.451C78.9181 141.448 78.9413 141.448 78.9601 141.448C79.7846 141.448 80.1274 142.195 80.57 142.815C80.9027 143.287 81.3468 143.987 81.3468 143.987C81.1833 144.182 81.03 144.29 80.774 144.29C80.6943 144.291 80.6149 144.283 80.5368 144.267C79.6544 144.104 79.5257 142.286 79.0223 142.141C78.9959 142.134 78.9686 142.131 78.9413 142.131C78.7793 142.131 78.7084 142.276 78.7084 142.276C78.9398 142.896 78.8039 143.146 79.0527 143.625C79.2378 143.98 79.5662 144.27 79.7021 144.409C79.7021 144.409 79.666 144.678 79.6255 144.879V144.878ZM77.9345 146.787C77.6886 146.787 77.4601 146.79 77.2547 146.799L77.7928 145.119C77.8767 144.886 77.4514 144.587 77.2764 144.324C77.5411 144.492 78.2282 144.859 78.5594 145.004C78.3447 145.596 78.1364 146.19 77.9345 146.787ZM69.9326 131.654L70.0092 128.735L70.663 128.042L71.0738 128.904L70.2638 131.706L69.9311 131.655L69.9326 131.654ZM70.4027 132.559C70.502 132.75 70.6522 132.908 70.8366 133.018C70.8316 133.295 70.805 133.572 70.757 133.845C70.7426 133.909 70.7281 133.968 70.7093 134.028C70.7006 134.065 70.6891 134.096 70.6818 134.12C70.4808 134.12 70.0888 134.096 69.7691 133.978C69.4133 133.848 68.8824 133.194 69.0054 132.474C69.1587 132.38 69.5145 132.179 69.8487 132.179C70.1047 132.179 70.2797 132.301 70.4027 132.559ZM77.9765 133.343C77.4745 133.715 76.1785 134.663 75.7084 134.992L71.1838 134.177L71.2156 134.057C71.2734 133.821 71.3356 133.5 71.3385 133.122L75.1414 133.183L75.2137 133.111C75.2715 133.053 76.4765 131.885 77.0898 131.216C77.2359 131.399 77.4181 131.573 77.6582 131.726C77.5772 132.175 77.6105 132.808 77.9765 133.343ZM71.8246 126.633C72.3699 127.174 72.9007 127.511 73.407 127.696C73.3419 127.957 73.2551 128.498 73.4981 129.034C73.6978 129.468 74.0594 129.801 74.5816 130.024C74.6394 130.559 74.9765 131.365 75.9123 131.721C75.5015 132.134 75.1023 132.525 74.9432 132.681L71.1476 132.622C71.0222 132.562 70.9182 132.465 70.8496 132.344C70.8424 132.325 70.8294 132.315 70.8207 132.295L71.4412 132.396L71.4803 132.397C71.5386 132.398 71.5952 132.377 71.6398 132.34C71.6844 132.302 71.714 132.25 71.7233 132.192C71.7338 132.127 71.7182 132.061 71.68 132.008C71.6418 131.954 71.5841 131.918 71.5194 131.907L70.757 131.786L71.6018 128.862L70.8019 127.174L69.5189 128.534L69.4407 131.573L68.5786 131.436C68.4456 131.41 68.3183 131.508 68.2937 131.642C68.284 131.708 68.3003 131.774 68.339 131.827C68.3776 131.88 68.4356 131.916 68.5005 131.927L68.8621 131.982C68.7848 132.026 68.7095 132.072 68.6365 132.123L68.5642 132.175L68.5439 132.264C68.3342 133.118 68.8086 133.928 69.3207 134.289L69.3019 134.398C69.2816 134.528 69.3106 134.658 69.3887 134.764C69.4331 134.828 69.4926 134.88 69.562 134.916C69.6313 134.952 69.7084 134.97 69.7865 134.969C69.8961 134.968 70.0022 134.93 70.0875 134.862C70.1728 134.793 70.2324 134.697 70.2566 134.59C70.4475 134.612 70.6225 134.618 70.7411 134.618H70.8438L75.8212 135.519L75.9066 135.463C76.3029 135.185 77.8159 134.081 78.3106 133.715C78.448 133.832 78.5999 133.939 78.7836 134.028C78.6231 134.567 78.6129 135.396 79.2465 136.053H66.5608V128.719C66.5608 128.007 66.3539 127.293 66.108 126.633H71.8246ZM71.1389 115.568L74.4499 116.691V121.902L72.0126 120.614L71.1389 115.566V115.568ZM79.2161 114.938C79.2161 113.667 77.0797 112.523 74.7219 112.523H74.7074C72.3496 112.523 70.2146 113.667 70.2146 114.938L70.2609 115.251L71.2026 120.665L70.2566 121.215L67.8106 122.647H67.8192C67.8192 122.647 67.2696 122.93 67.0135 123.104C66.082 123.752 65.8838 124.698 66.4248 125.088C66.5579 124.317 67.1669 123.512 68.3053 123.512C69.1269 123.512 69.7517 123.937 70.258 124.572C70.3882 124.733 70.5111 124.905 70.6254 125.088C70.7672 125.321 70.9104 125.527 71.0507 125.723H64.7469C65.2098 126.656 65.6509 127.644 65.6509 128.718V142.694C65.6509 146.075 68.2474 147.69 71.0565 147.69C73.2277 147.69 73.5198 147.591 74.7175 148.786C75.9094 147.591 76.2031 147.69 78.3757 147.69C81.1862 147.69 83.7783 146.075 83.7783 142.694V128.718C83.7783 127.644 84.2195 126.656 84.6853 125.723H78.3786C78.5204 125.527 78.6621 125.321 78.8039 125.088C78.9196 124.905 79.0425 124.733 79.1698 124.572C79.679 123.934 80.3039 123.512 81.1255 123.512C82.2639 123.512 82.8714 124.317 83.0059 125.088C83.5469 124.698 83.3516 123.752 82.4129 123.104C82.1531 122.939 81.8857 122.786 81.6115 122.647H81.6216L79.1698 121.215L78.2296 120.665L79.1698 115.251L79.2161 114.938Z" fill="#002A3A"/>
<g filter="url(#filter4_dii_1029_30537)">
<rect x="5.29749" y="52.3789" width="60.2242" height="59.9669" rx="16.1648" fill="#EB5F0A"/>
</g>
<path fill-rule="evenodd" clip-rule="evenodd" d="M41.684 70.6727C39.7045 70.6727 37.7249 71.2013 36.0202 72.2584C34.3156 71.2013 32.336 70.614 30.3564 70.614C24.0877 70.614 18.9738 76.0757 18.9738 82.7707C18.9738 89.4656 24.0877 94.9273 30.3564 94.9273C32.336 94.9273 34.3156 94.34 36.0202 93.2829C37.7249 94.34 39.7045 94.8686 41.684 94.8686C47.9527 94.8686 53.0667 89.4069 53.0667 82.7119C53.0667 76.0757 47.9527 70.6727 41.684 70.6727ZM26.785 82.7706C26.6201 83.2991 26.5651 83.8277 26.5651 84.3562C26.5651 87.2339 28.7646 89.583 31.4591 89.583C33.2187 89.583 34.8134 88.5846 35.6932 86.999L35.7482 86.9402L35.9131 86.5879L38.8825 80.4215L38.9375 80.304C39.2674 79.658 39.8723 79.2469 40.5872 79.2469C41.577 79.2469 42.4018 80.1278 42.4018 81.1849V81.2437V81.3024C42.4018 82.1246 42.0169 83.8864 39.5424 86.5292C36.8757 89.4271 34.3683 90.6247 33.6793 90.9537C33.5585 91.0114 33.4936 91.0424 33.4936 91.0512C32.5038 91.521 31.4041 91.6972 30.3043 91.6972C25.6852 91.6972 21.946 87.7037 21.946 82.7706C21.946 77.8374 25.6852 73.844 30.3043 73.844C31.1841 73.844 32.0089 73.9614 32.8338 74.2551C29.6994 76.9565 27.6648 79.8342 26.785 82.7706ZM45.4216 81.1851C45.4216 81.7724 45.3667 82.3009 45.2017 82.8295C44.3769 85.8246 42.3423 88.6435 39.2079 91.4037C40.0328 91.6974 40.9126 91.8148 41.7924 91.8148C46.4114 91.8148 50.1507 87.8213 50.1507 82.8882C50.1507 77.9551 46.4114 73.9616 41.7924 73.9616C40.6376 73.9616 39.5929 74.1965 38.5481 74.6663C38.4931 74.6663 35.6337 75.6647 32.4993 79.0709C30.0798 81.7724 29.6399 83.5342 29.6399 84.3564V84.4151C29.6399 85.4722 30.4647 86.3531 31.4545 86.3531C32.1144 86.3531 32.7193 86.0008 33.0492 85.3548L36.1286 78.9535C36.1286 78.8947 36.1836 78.7773 36.2386 78.7185L36.2935 78.5424C37.1734 76.9567 38.823 75.9583 40.5277 75.9583C43.2221 75.9583 45.4216 78.3074 45.4216 81.1851Z" fill="white"/>
<g filter="url(#filter5_b_1029_30537)">
<g filter="url(#filter6_b_1029_30537)">
<path d="M162.345 117.848C160.782 118.789 163.695 125.599 165.2 128.452C165.223 128.496 165.234 128.543 165.235 128.592C165.249 131.864 165.951 135.131 167.164 137.86C165.167 139.793 162.123 144.474 165.918 147.734C169.638 150.928 179.271 150.414 183.889 149.726C184.046 149.703 184.19 149.804 184.265 149.944C185.126 151.539 190.125 152.875 192.282 151.121C193.12 161.914 188.839 161.261 188.06 169.555C187.281 177.849 192.81 177.71 194.123 175.47C195.118 173.773 194.379 170.723 193.812 169.363C193.76 169.237 193.791 169.092 193.889 168.997C194.678 168.239 196.525 166.037 198.844 162.038C201.372 157.68 202.381 152.295 202.882 149.133L212.284 149.12C212.388 150.591 212.95 152.05 214.233 153.33C219.242 158.325 221.348 158.586 220.297 160.298C219.247 162.011 208.856 168.343 212.945 175.051C214.971 178.373 220.037 177.183 218.036 171.106C217.986 170.954 218.055 170.782 218.203 170.723C220.757 169.698 226.368 168.551 230.174 163.971C232.917 160.671 233.97 157.691 234.157 155.031C233.988 160.09 232.102 167.362 227.685 172.53C219.152 182.512 210.451 179.793 208.477 180.322C206.503 180.851 205.322 183.748 209.141 184.796C212.96 185.844 226.515 183.589 233.477 173.181C240.44 162.773 242.767 143.947 236.319 132.24C228.668 119.351 210.5 117.005 197.869 121.497C197.281 119.998 196.484 119.285 195.646 117.784C193.792 114.46 187.684 106.875 185.204 108.045C183.285 108.95 183.797 114.398 184.093 117.892C184.108 118.077 183.958 118.233 183.772 118.235C180.948 118.278 174.929 120.522 172.578 121.832C172.473 121.89 172.348 121.885 172.249 121.816C169.631 119.992 163.887 116.919 162.345 117.848Z" fill="white"/>
<path d="M197.869 121.497C197.281 119.998 196.484 119.285 195.646 117.784C193.792 114.46 187.684 106.875 185.204 108.045C183.285 108.95 183.797 114.398 184.093 117.892C184.108 118.077 183.958 118.233 183.772 118.235C180.948 118.278 174.929 120.522 172.578 121.832C172.473 121.89 172.348 121.885 172.249 121.816C169.631 119.992 163.887 116.919 162.345 117.848C160.782 118.789 163.695 125.599 165.2 128.452C165.223 128.496 165.234 128.543 165.235 128.592C165.249 131.864 165.951 135.131 167.164 137.86M197.869 121.497C199.017 124.424 199.561 127.987 199.402 129.722M197.869 121.497C210.5 117.005 228.668 119.351 236.319 132.24C242.767 143.947 240.44 162.773 233.477 173.181C226.515 183.589 212.96 185.844 209.141 184.796C205.322 183.748 206.503 180.851 208.477 180.322C210.451 179.793 219.152 182.512 227.685 172.53C232.102 167.362 233.988 160.09 234.157 155.031M167.164 137.86C168.418 140.681 170.219 142.927 172.374 144.008C172.416 144.029 172.46 144.039 172.506 144.039C177.382 144.032 187.883 143.922 190.925 145.595C193.981 147.275 193.431 149.452 192.774 150.594C192.634 150.794 192.469 150.969 192.282 151.121M167.164 137.86C165.167 139.793 162.123 144.474 165.918 147.734C169.638 150.928 179.271 150.414 183.889 149.726C184.046 149.703 184.19 149.804 184.265 149.944C185.126 151.539 190.125 152.875 192.282 151.121M204.217 143.998C203.998 144.305 203.482 145.394 203.168 147.29C203.093 147.747 203.002 148.376 202.882 149.133M192.282 151.121C193.12 161.914 188.839 161.261 188.06 169.555C187.281 177.849 192.81 177.71 194.123 175.47C195.118 173.773 194.379 170.723 193.812 169.363C193.76 169.237 193.791 169.092 193.889 168.997C194.678 168.239 196.525 166.037 198.844 162.038C201.372 157.68 202.381 152.295 202.882 149.133M202.882 149.133L212.284 149.12M212.284 149.12C212.063 146.001 213.901 142.831 215.27 141.219M212.284 149.12C212.388 150.591 212.95 152.05 214.233 153.33C219.242 158.325 221.348 158.586 220.297 160.298C219.247 162.011 208.856 168.343 212.945 175.051C214.971 178.373 220.037 177.183 218.036 171.106C217.986 170.954 218.055 170.782 218.203 170.723C220.757 169.698 226.368 168.551 230.174 163.971C232.917 160.671 233.97 157.691 234.157 155.031M234.157 155.031C234.239 153.868 234.155 152.766 233.975 151.725M234.157 155.031C234.199 153.769 234.134 152.644 233.975 151.725M233.975 151.725L233.577 149.224" stroke="#002A3A" stroke-linecap="round" stroke-linejoin="round"/>
</g>
<path d="M197.869 121.497C197.281 119.998 196.484 119.285 195.646 117.784C193.792 114.46 187.684 106.875 185.204 108.045C183.285 108.95 183.797 114.398 184.093 117.892C184.108 118.077 183.958 118.233 183.772 118.235C180.948 118.278 174.929 120.522 172.578 121.832C172.473 121.89 172.348 121.885 172.249 121.816C169.631 119.992 163.887 116.919 162.345 117.848C160.782 118.789 163.695 125.599 165.2 128.452C165.223 128.496 165.234 128.543 165.235 128.592C165.249 131.864 165.951 135.131 167.164 137.86M197.869 121.497C199.017 124.424 199.561 127.987 199.402 129.722M197.869 121.497C210.5 117.005 228.668 119.351 236.319 132.24C242.767 143.947 240.44 162.773 233.477 173.181C226.515 183.589 212.96 185.844 209.141 184.796C205.322 183.748 206.503 180.851 208.477 180.322C210.451 179.793 219.152 182.512 227.685 172.53C232.102 167.362 233.988 160.09 234.157 155.031M167.164 137.86C168.418 140.681 170.219 142.927 172.374 144.008C172.416 144.029 172.46 144.039 172.506 144.039C177.382 144.032 187.883 143.922 190.925 145.595C193.981 147.275 193.431 149.452 192.774 150.594C192.634 150.794 192.469 150.969 192.282 151.121M167.164 137.86C165.167 139.793 162.123 144.474 165.918 147.734C169.638 150.928 179.271 150.414 183.889 149.726C184.046 149.703 184.19 149.804 184.265 149.944C185.126 151.539 190.125 152.875 192.282 151.121M204.217 143.998C203.998 144.305 203.482 145.394 203.168 147.29C203.093 147.747 203.002 148.376 202.882 149.133M192.282 151.121C193.12 161.914 188.839 161.261 188.06 169.555C187.281 177.849 192.81 177.71 194.123 175.47C195.118 173.773 194.379 170.723 193.812 169.363C193.76 169.237 193.791 169.092 193.889 168.997C194.678 168.239 196.525 166.037 198.844 162.038C201.372 157.68 202.381 152.295 202.882 149.133M202.882 149.133L212.284 149.12M212.284 149.12C212.063 146.001 213.901 142.831 215.27 141.219M212.284 149.12C212.388 150.591 212.95 152.05 214.233 153.33C219.242 158.325 221.348 158.586 220.297 160.298C219.247 162.011 208.856 168.343 212.945 175.051C214.971 178.373 220.037 177.183 218.036 171.106C217.986 170.954 218.055 170.782 218.203 170.723C220.757 169.698 226.368 168.551 230.174 163.971C232.917 160.671 233.97 157.691 234.157 155.031M234.157 155.031C234.239 153.868 234.155 152.766 233.975 151.725M234.157 155.031C234.199 153.769 234.134 152.644 233.975 151.725M233.975 151.725L233.577 149.224" stroke="#002A3A" stroke-linecap="round" stroke-linejoin="round"/>
<path d="M187.511 128.742C187.081 129.358 185.645 130.436 184.063 130.13" stroke="#002A3A" stroke-linecap="round" stroke-linejoin="round"/>
<path d="M176.303 132.496C175.837 132.989 174.281 133.851 172.567 133.608" stroke="#002A3A" stroke-linecap="round" stroke-linejoin="round"/>
<path d="M182.585 134.797L181.683 136.05M181.683 136.05L180.558 135.582M181.683 136.05L182.315 137.982M182.315 137.982C182.315 137.982 182.919 138.221 183.337 138.281C183.755 138.341 184.457 138.288 184.457 138.288M182.315 137.982C182.315 137.982 182.176 138.583 182.02 138.86C181.864 139.138 181.517 139.402 181.517 139.402" stroke="#002A3A" stroke-linecap="round" stroke-linejoin="round"/>
<path d="M164.3 119.865C165.736 119.576 168.828 121.942 170.194 123.161L166.328 125.816C164.2 121.944 164.089 120.235 164.3 119.865Z" fill="#002A3A" stroke="#002A3A" stroke-linecap="round" stroke-linejoin="round"/>
<path fill-rule="evenodd" clip-rule="evenodd" d="M197.47 120.986C197.14 120.338 196.764 119.702 196.382 119.054C196.136 118.637 195.887 118.216 195.646 117.784C193.791 114.46 187.684 106.875 185.203 108.045C183.425 108.884 183.734 113.622 184.024 117.092C184.075 117.7 183.575 118.221 182.97 118.294C182.508 118.35 181.997 118.442 181.453 118.564C183.674 123.097 189.499 124.954 194.676 122.705C195.715 122.253 196.652 121.669 197.47 120.986Z" fill="#002A3A"/>
<path d="M197.47 120.986L197.916 120.759C198.022 120.967 197.97 121.221 197.791 121.37L197.47 120.986ZM196.382 119.054L196.813 118.8L196.813 118.8L196.382 119.054ZM195.646 117.784L196.082 117.54L196.082 117.54L195.646 117.784ZM185.203 108.045L185.417 108.497L185.203 108.045ZM184.024 117.092L183.526 117.134L183.526 117.134L184.024 117.092ZM182.97 118.294L183.03 118.79L182.97 118.294ZM181.453 118.564L181.004 118.784C180.937 118.647 180.936 118.486 181.002 118.348C181.069 118.21 181.195 118.11 181.344 118.076L181.453 118.564ZM197.025 121.213C196.703 120.581 196.335 119.958 195.952 119.309L196.813 118.8C197.193 119.445 197.577 120.095 197.916 120.759L197.025 121.213ZM195.952 119.309C195.706 118.893 195.454 118.466 195.209 118.027L196.082 117.54C196.32 117.966 196.566 118.382 196.813 118.8L195.952 119.309ZM195.209 118.027C194.305 116.407 192.341 113.714 190.298 111.575C189.275 110.504 188.254 109.596 187.354 109.029C186.904 108.746 186.505 108.561 186.167 108.477C185.831 108.393 185.59 108.416 185.417 108.497L184.99 107.593C185.437 107.382 185.929 107.387 186.409 107.506C186.887 107.626 187.387 107.868 187.887 108.183C188.888 108.813 189.974 109.789 191.021 110.884C193.114 113.075 195.132 115.836 196.082 117.54L195.209 118.027ZM185.417 108.497C185.148 108.624 184.897 108.929 184.7 109.49C184.505 110.044 184.39 110.772 184.337 111.613C184.231 113.295 184.377 115.312 184.523 117.051L183.526 117.134C183.381 115.403 183.228 113.315 183.339 111.55C183.395 110.669 183.518 109.838 183.756 109.159C183.992 108.488 184.37 107.885 184.99 107.593L185.417 108.497ZM184.523 117.051C184.6 117.971 183.854 118.691 183.03 118.79L182.91 117.798C183.295 117.751 183.551 117.428 183.526 117.134L184.523 117.051ZM183.03 118.79C182.589 118.844 182.094 118.933 181.562 119.052L181.344 118.076C181.899 117.952 182.428 117.856 182.91 117.798L183.03 118.79ZM181.902 118.344C183.987 122.598 189.503 124.406 194.476 122.246L194.875 123.163C189.494 125.501 183.362 123.595 181.004 118.784L181.902 118.344ZM194.476 122.246C195.472 121.814 196.368 121.255 197.15 120.602L197.791 121.37C196.936 122.084 195.959 122.693 194.875 123.163L194.476 122.246Z" fill="white"/>
<mask id="path-33-inside-1_1029_30537" fill="white">
<path fill-rule="evenodd" clip-rule="evenodd" d="M229.867 139.892C216.763 139.909 206.129 132.071 206.117 122.385C206.115 121.44 206.215 120.512 206.409 119.607C217.666 118.455 230.274 122.057 236.319 132.241C237.389 134.184 238.218 136.323 238.823 138.587C236.06 139.424 233.037 139.888 229.867 139.892Z"/>
</mask>
<path fill-rule="evenodd" clip-rule="evenodd" d="M229.867 139.892C216.763 139.909 206.129 132.071 206.117 122.385C206.115 121.44 206.215 120.512 206.409 119.607C217.666 118.455 230.274 122.057 236.319 132.241C237.389 134.184 238.218 136.323 238.823 138.587C236.06 139.424 233.037 139.888 229.867 139.892Z" fill="#002A3A"/>
<path d="M206.409 119.607L205.431 119.397C205.522 118.973 205.876 118.656 206.307 118.612L206.409 119.607ZM236.319 132.241L237.179 131.73C237.184 131.739 237.19 131.749 237.195 131.758L236.319 132.241ZM238.823 138.587L239.789 138.329C239.929 138.85 239.63 139.388 239.113 139.544L238.823 138.587ZM207.117 122.384C207.123 126.835 209.567 130.943 213.676 133.972C217.785 137.001 223.506 138.9 229.866 138.892L229.869 140.892C223.124 140.901 216.976 138.89 212.489 135.582C208.002 132.275 205.124 127.621 205.117 122.387L207.117 122.384ZM207.387 119.816C207.208 120.653 207.116 121.51 207.117 122.384L205.117 122.387C205.115 121.369 205.223 120.371 205.431 119.397L207.387 119.816ZM235.459 132.751C229.689 123.03 217.553 119.472 206.511 120.601L206.307 118.612C217.779 117.439 230.86 121.085 237.179 131.73L235.459 132.751ZM237.857 138.846C237.27 136.648 236.469 134.586 235.443 132.723L237.195 131.758C238.309 133.781 239.166 135.997 239.789 138.329L237.857 138.846ZM229.866 138.892C232.939 138.888 235.866 138.439 238.533 137.63L239.113 139.544C236.255 140.41 233.134 140.888 229.869 140.892L229.866 138.892Z" fill="white" mask="url(#path-33-inside-1_1029_30537)"/>
<mask id="path-35-inside-2_1029_30537" fill="white">
<path fill-rule="evenodd" clip-rule="evenodd" d="M210.138 180.259C209.396 180.237 208.829 180.228 208.476 180.322C206.502 180.851 205.322 183.749 209.14 184.797C209.68 184.945 210.414 185.027 211.297 185.03C212.178 184.437 212.693 183.72 212.692 182.949C212.69 181.886 211.708 180.929 210.138 180.259Z"/>
</mask>
<path fill-rule="evenodd" clip-rule="evenodd" d="M210.138 180.259C209.396 180.237 208.829 180.228 208.476 180.322C206.502 180.851 205.322 183.749 209.14 184.797C209.68 184.945 210.414 185.027 211.297 185.03C212.178 184.437 212.693 183.72 212.692 182.949C212.69 181.886 211.708 180.929 210.138 180.259Z" fill="#002A3A"/>
<path d="M210.138 180.259L210.168 179.259C210.293 179.263 210.416 179.29 210.531 179.339L210.138 180.259ZM208.476 180.322L208.217 179.356L208.217 179.356L208.476 180.322ZM209.14 184.797L209.405 183.832L209.405 183.832L209.14 184.797ZM211.297 185.03L211.856 185.859C211.69 185.971 211.494 186.03 211.294 186.03L211.297 185.03ZM210.109 181.258C209.735 181.247 209.433 181.241 209.185 181.247C208.927 181.253 208.794 181.273 208.735 181.288L208.217 179.356C208.511 179.278 208.838 179.254 209.137 179.247C209.446 179.24 209.799 179.248 210.168 179.259L210.109 181.258ZM208.735 181.288C208.083 181.463 207.663 182.013 207.634 182.435C207.621 182.612 207.668 182.82 207.882 183.051C208.112 183.299 208.566 183.602 209.405 183.832L208.876 185.761C207.805 185.467 206.975 185.015 206.414 184.409C205.837 183.786 205.586 183.04 205.638 182.295C205.738 180.874 206.895 179.711 208.217 179.356L208.735 181.288ZM209.405 183.832C209.828 183.949 210.466 184.027 211.3 184.03L211.294 186.03C210.363 186.027 209.532 185.941 208.876 185.761L209.405 183.832ZM210.739 184.2C211.496 183.69 211.692 183.239 211.692 182.951L213.692 182.948C213.693 184.202 212.86 185.183 211.856 185.859L210.739 184.2ZM211.692 182.951C211.692 182.748 211.602 182.48 211.285 182.153C210.964 181.821 210.452 181.48 209.746 181.178L210.531 179.339C211.395 179.708 212.159 180.181 212.721 180.761C213.288 181.346 213.691 182.087 213.692 182.948L211.692 182.951Z" fill="#002A3A" mask="url(#path-35-inside-2_1029_30537)"/>
<path d="M190.959 174.403C191.24 175.18 192.135 176.629 193.466 176.211" stroke="#002A3A" stroke-linecap="round" stroke-linejoin="round"/>
<path d="M214.916 174.37C215.197 175.147 216.091 176.596 217.422 176.177" stroke="#002A3A" stroke-linecap="round" stroke-linejoin="round"/>
<path d="M191.247 147.978C191.955 148.404 193.204 149.561 192.536 150.786" stroke="#002A3A" stroke-linecap="round" stroke-linejoin="round"/>
<path d="M191.748 173.085C192.028 173.862 192.923 175.311 194.254 174.892" stroke="#002A3A" stroke-linecap="round" stroke-linejoin="round"/>
<path d="M215.704 173.053C215.985 173.83 216.88 175.28 218.21 174.861" stroke="#002A3A" stroke-linecap="round" stroke-linejoin="round"/>
<path d="M189.892 148.832C190.6 149.257 191.849 150.415 191.181 151.64" stroke="#002A3A" stroke-linecap="round" stroke-linejoin="round"/>
</g>
<g filter="url(#filter7_b_1029_30537)">
<path d="M84.6095 69.9326C85.3002 68.0643 87.5106 64.5147 90.8262 65.262C92.6568 65.6746 94.3256 67.2717 95.6542 69.9326" stroke="white"/>
<path d="M77.6417 69.249C78.2407 67.1859 79.6353 63.9017 81.9702 60.1602" stroke="white"/>
<path d="M76.5949 37.291C75.2955 42.8286 74.4576 59.5386 75.2955 69.2491" stroke="white"/>
<path fill-rule="evenodd" clip-rule="evenodd" d="M86.5214 65.8514C85.3916 66.8292 84.6039 68.1326 84.2337 69.021L83.0162 68.5137C83.4476 67.4784 84.3432 65.9923 85.6582 64.8541C86.9846 63.706 88.7878 62.8752 90.9684 63.3113C93.3504 63.7877 95.4217 65.6099 97.0163 68.444L95.8669 69.0908C94.3781 66.4449 92.5761 64.978 90.7097 64.6047C89.0428 64.2713 87.6398 64.8833 86.5214 65.8514Z" fill="#002A3A"/>
<path d="M94.205 82.9342C91.0952 79.8664 94.1052 72.3338 96.441 68.7676C100.186 71.041 102.319 73.4194 103.343 75.6088C105.437 80.0892 102.884 83.7783 99.9762 84.1576C97.1169 84.5305 95.2891 84.0037 94.205 82.9342Z" fill="white" stroke="#002A3A"/>
<path fill-rule="evenodd" clip-rule="evenodd" d="M81.2987 60.0264C78.9896 63.7267 77.6231 66.9557 77.0441 68.95L75.7775 68.5823C76.3964 66.4504 77.8192 63.1108 80.1798 59.3281L81.2987 60.0264Z" fill="#002A3A"/>
<path d="M98.5329 53.376C95.8396 60.3015 85.5476 60.4624 80.7382 59.6772C75.3517 47.7891 83.6153 42.5074 88.4204 41.3526C96.1027 40.3907 101.899 44.7192 98.5329 53.376Z" fill="white" stroke="#002A3A"/>
<path d="M60.9772 73.8277V70.6921C60.9772 69.6335 61.8353 68.7754 62.8938 68.7754H86.7585C87.817 68.7754 88.6751 69.6335 88.6751 70.6921V73.8277C88.6751 74.7548 87.9236 75.5063 86.9965 75.5063L83.1594 91.0589C82.9482 91.915 82.1803 92.5165 81.2985 92.5165H67.9706C67.0721 92.5165 66.2943 91.8924 66.0995 91.0153L62.6558 75.5063C61.7287 75.5063 60.9772 74.7548 60.9772 73.8277Z" fill="white"/>
<path d="M62.6558 75.5063V75.5063C61.7287 75.5063 60.9772 74.7548 60.9772 73.8277V70.6921C60.9772 69.6335 61.8353 68.7754 62.8938 68.7754H86.7585C87.817 68.7754 88.6751 69.6335 88.6751 70.6921V73.8277C88.6751 74.7548 87.9236 75.5063 86.9965 75.5063V75.5063M62.6558 75.5063L66.0995 91.0153C66.2943 91.8924 67.0721 92.5165 67.9706 92.5165H81.2985C82.1803 92.5165 82.9482 91.915 83.1594 91.0589L86.9965 75.5063M62.6558 75.5063H86.9965" stroke="#002A3A"/>
<path d="M53.78 61.5164C55.7544 61.1833 60.2585 60.9755 62.4794 62.8087C64.7003 64.6419 65.3952 67.657 65.465 68.9353" stroke="#002A3A"/>
<path d="M49.2628 64.4654C52.469 66.5011 54.0613 64.1903 54.6114 62.3109C54.7407 61.8694 54.656 61.3851 54.3531 61.0389C51.4849 57.7611 44.9655 61.737 49.2628 64.4654Z" fill="#002A3A" stroke="#002A3A"/>
<path d="M70.0782 48.6804C72.2138 53.4402 70.671 58.5932 66.8766 60.2957C63.0821 61.9982 58.2072 59.7247 56.0716 54.9648C53.9359 50.205 55.4788 45.052 59.2732 43.3495C63.0676 41.647 67.9426 43.9205 70.0782 48.6804Z" fill="white" stroke="#002A3A"/>
<path d="M58.5319 43.2773C61.2572 47.7661 67.2849 59.1483 69.5934 68.767" stroke="#002A3A"/>
<path d="M75.3586 37.291C74.0591 42.8286 73.2212 59.5386 74.0591 69.2491" stroke="#002A3A"/>
<path d="M56.1256 54.8194H64.3016M62.3778 50.01L65.7444 43.7578" stroke="#002A3A"/>
<path d="M76.4103 68.7661C77.0092 66.703 78.4039 63.4187 80.7387 59.6772M96.6097 43.2764C93.4892 45.3567 90.7696 47.6539 88.421 50.0095M88.421 50.0095V41.3526M88.421 50.0095C86.1694 52.2677 84.2587 54.5796 82.6625 56.8055M88.421 41.3526C96.1032 40.3907 101.9 44.7192 98.5334 53.376C95.8402 60.3015 85.5481 60.4624 80.7387 59.6772M88.421 41.3526C83.6158 42.5074 75.3522 47.7891 80.7387 59.6772M82.6625 56.8055C84.5862 56.6242 89.6842 56.5502 94.6859 57.7045M82.6625 56.8055C81.9613 57.7832 81.3208 58.7444 80.7387 59.6772" stroke="#002A3A"/>
<path d="M83.6241 68.7677C84.4257 66.844 86.9907 63.1889 90.8382 63.9584C92.9625 64.3832 94.899 66.0278 96.4408 68.7677M99.976 84.1577C97.1167 84.5307 95.2889 84.0038 94.2048 82.9344M99.976 84.1577C99.8552 81.1369 99.5219 78.4197 99.0142 76.029M99.976 84.1577C102.884 83.7785 105.437 80.0893 103.343 75.609M96.4408 68.7677C94.105 72.3339 91.095 79.8666 94.2048 82.9344M96.4408 68.7677C97.0421 69.8364 97.5834 71.0718 98.0523 72.4664M96.4408 68.7677C100.185 71.0411 102.319 73.4195 103.343 75.609M94.2048 82.9344C95.4873 81.7705 98.2447 78.76 99.0142 76.029M99.0142 76.029C98.7418 74.7463 98.4192 73.5576 98.0523 72.4664M98.0523 72.4664L103.343 75.609" stroke="#002A3A"/>
<path d="M81.1345 29.3142C82.2027 30.1494 82.7053 31.1106 82.7258 32.1228C82.7458 33.1101 82.3045 34.0522 81.6843 34.8695C80.4488 36.4977 78.3518 37.8328 76.8548 38.362C76.2555 38.5738 75.6009 38.4559 75.1068 38.0778C72.4618 36.0536 72.4885 32.6951 73.862 30.4667C74.5536 29.3447 75.6117 28.459 76.904 28.1607C78.2108 27.859 79.6785 28.176 81.1345 29.3142Z" fill="#002A3A" stroke="white"/>
</g>
<defs>
<filter id="filter0_dii_1029_30537" x="153.916" y="143.468" width="103.278" height="102.984" filterUnits="userSpaceOnUse" color-interpolation-filters="sRGB">
<feFlood flood-opacity="0" result="BackgroundImageFix"/>
<feColorMatrix in="SourceAlpha" type="matrix" values="0 0 0 0 0 0 0 0 0 0 0 0 0 0 0 0 0 0 127 0" result="hardAlpha"/>
<feOffset dx="11.5253" dy="11.5253"/>
<feGaussianBlur stdDeviation="8.64395"/>
<feComposite in2="hardAlpha" operator="out"/>
<feColorMatrix type="matrix" values="0 0 0 0 0 0 0 0 0 0 0 0 0 0 0 0 0 0 0.07 0"/>
<feBlend mode="normal" in2="BackgroundImageFix" result="effect1_dropShadow_1029_30537"/>
<feBlend mode="normal" in="SourceGraphic" in2="effect1_dropShadow_1029_30537" result="shape"/>
<feColorMatrix in="SourceAlpha" type="matrix" values="0 0 0 0 0 0 0 0 0 0 0 0 0 0 0 0 0 0 127 0" result="hardAlpha"/>
<feOffset dx="1.15253" dy="1.15253"/>
<feGaussianBlur stdDeviation="2.30505"/>
<feComposite in2="hardAlpha" operator="arithmetic" k2="-1" k3="1"/>
<feColorMatrix type="matrix" values="0 0 0 0 1 0 0 0 0 1 0 0 0 0 1 0 0 0 0.47 0"/>
<feBlend mode="normal" in2="shape" result="effect2_innerShadow_1029_30537"/>
<feColorMatrix in="SourceAlpha" type="matrix" values="0 0 0 0 0 0 0 0 0 0 0 0 0 0 0 0 0 0 127 0" result="hardAlpha"/>
<feOffset dx="-1.15253" dy="-1.15253"/>
<feGaussianBlur stdDeviation="6.33889"/>
<feComposite in2="hardAlpha" operator="arithmetic" k2="-1" k3="1"/>
<feColorMatrix type="matrix" values="0 0 0 0 0 0 0 0 0 0 0 0 0 0 0 0 0 0 0.09 0"/>
<feBlend mode="normal" in2="effect2_innerShadow_1029_30537" result="effect3_innerShadow_1029_30537"/>
</filter>
<filter id="filter1_dii_1029_30537" x="178.728" y="0.562241" width="120.978" height="120.634" filterUnits="userSpaceOnUse" color-interpolation-filters="sRGB">
<feFlood flood-opacity="0" result="BackgroundImageFix"/>
<feColorMatrix in="SourceAlpha" type="matrix" values="0 0 0 0 0 0 0 0 0 0 0 0 0 0 0 0 0 0 127 0" result="hardAlpha"/>
<feOffset dx="13.5005" dy="13.5005"/>
<feGaussianBlur stdDeviation="10.1254"/>
<feComposite in2="hardAlpha" operator="out"/>
<feColorMatrix type="matrix" values="0 0 0 0 0 0 0 0 0 0 0 0 0 0 0 0 0 0 0.07 0"/>
<feBlend mode="normal" in2="BackgroundImageFix" result="effect1_dropShadow_1029_30537"/>
<feBlend mode="normal" in="SourceGraphic" in2="effect1_dropShadow_1029_30537" result="shape"/>
<feColorMatrix in="SourceAlpha" type="matrix" values="0 0 0 0 0 0 0 0 0 0 0 0 0 0 0 0 0 0 127 0" result="hardAlpha"/>
<feOffset dx="1.35005" dy="1.35005"/>
<feGaussianBlur stdDeviation="2.7001"/>
<feComposite in2="hardAlpha" operator="arithmetic" k2="-1" k3="1"/>
<feColorMatrix type="matrix" values="0 0 0 0 1 0 0 0 0 1 0 0 0 0 1 0 0 0 0.47 0"/>
<feBlend mode="normal" in2="shape" result="effect2_innerShadow_1029_30537"/>
<feColorMatrix in="SourceAlpha" type="matrix" values="0 0 0 0 0 0 0 0 0 0 0 0 0 0 0 0 0 0 127 0" result="hardAlpha"/>
<feOffset dx="-1.35005" dy="-1.35005"/>
<feGaussianBlur stdDeviation="7.42528"/>
<feComposite in2="hardAlpha" operator="arithmetic" k2="-1" k3="1"/>
<feColorMatrix type="matrix" values="0 0 0 0 0 0 0 0 0 0 0 0 0 0 0 0 0 0 0.09 0"/>
<feBlend mode="normal" in2="effect2_innerShadow_1029_30537" result="effect3_innerShadow_1029_30537"/>
</filter>
<filter id="filter2_dii_1029_30537" x="138.717" y="51.131" width="85.3028" height="85.0602" filterUnits="userSpaceOnUse" color-interpolation-filters="sRGB">
<feFlood flood-opacity="0" result="BackgroundImageFix"/>
<feColorMatrix in="SourceAlpha" type="matrix" values="0 0 0 0 0 0 0 0 0 0 0 0 0 0 0 0 0 0 127 0" result="hardAlpha"/>
<feOffset dx="9.51933" dy="9.51933"/>
<feGaussianBlur stdDeviation="7.1395"/>
<feComposite in2="hardAlpha" operator="out"/>
<feColorMatrix type="matrix" values="0 0 0 0 0 0 0 0 0 0 0 0 0 0 0 0 0 0 0.07 0"/>
<feBlend mode="normal" in2="BackgroundImageFix" result="effect1_dropShadow_1029_30537"/>
<feBlend mode="normal" in="SourceGraphic" in2="effect1_dropShadow_1029_30537" result="shape"/>
<feColorMatrix in="SourceAlpha" type="matrix" values="0 0 0 0 0 0 0 0 0 0 0 0 0 0 0 0 0 0 127 0" result="hardAlpha"/>
<feOffset dx="0.951933" dy="0.951933"/>
<feGaussianBlur stdDeviation="1.90387"/>
<feComposite in2="hardAlpha" operator="arithmetic" k2="-1" k3="1"/>
<feColorMatrix type="matrix" values="0 0 0 0 1 0 0 0 0 1 0 0 0 0 1 0 0 0 0.47 0"/>
<feBlend mode="normal" in2="shape" result="effect2_innerShadow_1029_30537"/>
<feColorMatrix in="SourceAlpha" type="matrix" values="0 0 0 0 0 0 0 0 0 0 0 0 0 0 0 0 0 0 127 0" result="hardAlpha"/>
<feOffset dx="-0.951933" dy="-0.951933"/>
<feGaussianBlur stdDeviation="5.23563"/>
<feComposite in2="hardAlpha" operator="arithmetic" k2="-1" k3="1"/>
<feColorMatrix type="matrix" values="0 0 0 0 0 0 0 0 0 0 0 0 0 0 0 0 0 0 0.09 0"/>
<feBlend mode="normal" in2="effect2_innerShadow_1029_30537" result="effect3_innerShadow_1029_30537"/>
</filter>
<filter id="filter3_dii_1029_30537" x="28.8336" y="85.9585" width="117.516" height="117.182" filterUnits="userSpaceOnUse" color-interpolation-filters="sRGB">
<feFlood flood-opacity="0" result="BackgroundImageFix"/>
<feColorMatrix in="SourceAlpha" type="matrix" values="0 0 0 0 0 0 0 0 0 0 0 0 0 0 0 0 0 0 127 0" result="hardAlpha"/>
<feOffset dx="13.1142" dy="13.1142"/>
<feGaussianBlur stdDeviation="9.83565"/>
<feComposite in2="hardAlpha" operator="out"/>
<feColorMatrix type="matrix" values="0 0 0 0 0 0 0 0 0 0 0 0 0 0 0 0 0 0 0.07 0"/>
<feBlend mode="normal" in2="BackgroundImageFix" result="effect1_dropShadow_1029_30537"/>
<feBlend mode="normal" in="SourceGraphic" in2="effect1_dropShadow_1029_30537" result="shape"/>
<feColorMatrix in="SourceAlpha" type="matrix" values="0 0 0 0 0 0 0 0 0 0 0 0 0 0 0 0 0 0 127 0" result="hardAlpha"/>
<feOffset dx="1.31142" dy="1.31142"/>
<feGaussianBlur stdDeviation="2.62284"/>
<feComposite in2="hardAlpha" operator="arithmetic" k2="-1" k3="1"/>
<feColorMatrix type="matrix" values="0 0 0 0 1 0 0 0 0 1 0 0 0 0 1 0 0 0 0.47 0"/>
<feBlend mode="normal" in2="shape" result="effect2_innerShadow_1029_30537"/>
<feColorMatrix in="SourceAlpha" type="matrix" values="0 0 0 0 0 0 0 0 0 0 0 0 0 0 0 0 0 0 127 0" result="hardAlpha"/>
<feOffset dx="-1.31142" dy="-1.31142"/>
<feGaussianBlur stdDeviation="7.21281"/>
<feComposite in2="hardAlpha" operator="arithmetic" k2="-1" k3="1"/>
<feColorMatrix type="matrix" values="0 0 0 0 0 0 0 0 0 0 0 0 0 0 0 0 0 0 0.09 0"/>
<feBlend mode="normal" in2="effect2_innerShadow_1029_30537" result="effect3_innerShadow_1029_30537"/>
</filter>
<filter id="filter4_dii_1029_30537" x="0.245972" y="47.3274" width="90.5333" height="90.2759" filterUnits="userSpaceOnUse" color-interpolation-filters="sRGB">
<feFlood flood-opacity="0" result="BackgroundImageFix"/>
<feColorMatrix in="SourceAlpha" type="matrix" values="0 0 0 0 0 0 0 0 0 0 0 0 0 0 0 0 0 0 127 0" result="hardAlpha"/>
<feOffset dx="10.103" dy="10.103"/>
<feGaussianBlur stdDeviation="7.57727"/>
<feComposite in2="hardAlpha" operator="out"/>
<feColorMatrix type="matrix" values="0 0 0 0 0 0 0 0 0 0 0 0 0 0 0 0 0 0 0.07 0"/>
<feBlend mode="normal" in2="BackgroundImageFix" result="effect1_dropShadow_1029_30537"/>
<feBlend mode="normal" in="SourceGraphic" in2="effect1_dropShadow_1029_30537" result="shape"/>
<feColorMatrix in="SourceAlpha" type="matrix" values="0 0 0 0 0 0 0 0 0 0 0 0 0 0 0 0 0 0 127 0" result="hardAlpha"/>
<feOffset dx="1.0103" dy="1.0103"/>
<feGaussianBlur stdDeviation="2.02061"/>
<feComposite in2="hardAlpha" operator="arithmetic" k2="-1" k3="1"/>
<feColorMatrix type="matrix" values="0 0 0 0 1 0 0 0 0 1 0 0 0 0 1 0 0 0 0.47 0"/>
<feBlend mode="normal" in2="shape" result="effect2_innerShadow_1029_30537"/>
<feColorMatrix in="SourceAlpha" type="matrix" values="0 0 0 0 0 0 0 0 0 0 0 0 0 0 0 0 0 0 127 0" result="hardAlpha"/>
<feOffset dx="-1.0103" dy="-1.0103"/>
<feGaussianBlur stdDeviation="5.55666"/>
<feComposite in2="hardAlpha" operator="arithmetic" k2="-1" k3="1"/>
<feColorMatrix type="matrix" values="0 0 0 0 0 0 0 0 0 0 0 0 0 0 0 0 0 0 0.09 0"/>
<feBlend mode="normal" in2="effect2_innerShadow_1029_30537" result="effect3_innerShadow_1029_30537"/>
</filter>
<filter id="filter5_b_1029_30537" x="157.397" y="103.424" width="87.2131" height="86.1052" filterUnits="userSpaceOnUse" color-interpolation-filters="sRGB">
<feFlood flood-opacity="0" result="BackgroundImageFix"/>
<feGaussianBlur in="BackgroundImageFix" stdDeviation="2"/>
<feComposite in2="SourceAlpha" operator="in" result="effect1_backgroundBlur_1029_30537"/>
<feBlend mode="normal" in="SourceGraphic" in2="effect1_backgroundBlur_1029_30537" result="shape"/>
</filter>
<filter id="filter6_b_1029_30537" x="156.397" y="102.424" width="89.2131" height="88.1052" filterUnits="userSpaceOnUse" color-interpolation-filters="sRGB">
<feFlood flood-opacity="0" result="BackgroundImageFix"/>
<feGaussianBlur in="BackgroundImageFix" stdDeviation="2.5"/>
<feComposite in2="SourceAlpha" operator="in" result="effect1_backgroundBlur_1029_30537"/>
<feBlend mode="normal" in="SourceGraphic" in2="effect1_backgroundBlur_1029_30537" result="shape"/>
</filter>
<filter id="filter7_b_1029_30537" x="43.5041" y="23.7196" width="64.9361" height="73.1303" filterUnits="userSpaceOnUse" color-interpolation-filters="sRGB">
<feFlood flood-opacity="0" result="BackgroundImageFix"/>
<feGaussianBlur in="BackgroundImageFix" stdDeviation="1.91667"/>
<feComposite in2="SourceAlpha" operator="in" result="effect1_backgroundBlur_1029_30537"/>
<feBlend mode="normal" in="SourceGraphic" in2="effect1_backgroundBlur_1029_30537" result="shape"/>
</filter>
<clipPath id="clip0_1029_30537">
<rect width="69.3398" height="69.3398" fill="white" transform="translate(159.679 149.23)"/>
</clipPath>
</defs>
</svg>
