<svg width="155" height="99" viewBox="0 0 155 99" fill="none" xmlns="http://www.w3.org/2000/svg">
<g id="Group 1077241796">
<g id="Group 1077241795">
<path id="Union" d="M129.668 85.0821C128.903 84.8341 128.453 84.0746 128.483 83.2707C128.931 71.2164 127.037 54.8745 118.777 43.4503C117.658 41.9032 116.887 38.2616 116.573 36.378C114.37 23.1434 106.185 6.40958 100.731 7.24912C97.967 8.0393 96.9318 14.0191 96.4143 17.0084C96.3408 17.4328 96.2778 17.7969 96.2218 18.0773C93.5163 18.0773 87.7447 18.6187 84.4981 20.7843C83.1454 18.9797 77.2836 14.7387 75.48 15.8214C73.2927 17.1345 73.977 25.1456 74.5782 28.4542C74.2299 30.8941 73.8815 38.1814 75.8203 43.4503C75.9307 43.7503 76.0366 44.0219 76.1357 44.2757C76.7621 45.8815 77.1115 46.7771 76.5568 49.667C76.4839 50.0464 76.4087 50.4257 76.333 50.808C75.5409 54.8039 74.6867 59.1131 75.8203 67.0742C76.1482 69.377 76.6639 71.5118 77.3047 73.5409C75.2416 75.4503 72.8885 78.951 74.8329 85.2516C74.9106 85.503 74.7261 85.766 74.4632 85.779C72.052 85.8985 70.5287 86.833 69.6288 88.2149C68.2146 90.3864 70.6214 92.7087 73.2128 92.7087L127.116 92.7086C127.34 92.7086 127.496 92.4259 127.602 92.0963C132.397 92.5026 140.063 92.7086 143.895 85.7226C147.764 78.67 143.76 72.2455 140.965 65.5703C138.554 59.8117 135.551 54.6839 138.559 49.0273C141.278 43.914 144.273 41.5078 142.168 39.7031C139.16 37.125 133.253 43.9779 132.254 50.832C131.641 55.0429 132.112 59.8028 136.249 68.5285C143.491 83.8044 136.009 87.1369 129.668 85.0821Z" fill="white" stroke="#002A3A" stroke-width="0.64893" stroke-linecap="round" stroke-linejoin="round"/>
<path id="Vector 1926" d="M70.5711 42.7414C64.4365 52.1536 71.7986 62.0784 75.8974 65.6214L81.3114 51.5103C78.8399 49.9979 78.6989 47.7353 78.8753 46.4468C79.8984 46.5058 80.6877 46.5685 82.428 45.8096C88.3796 43.2141 78.2394 30.9762 70.5711 42.7414Z" fill="white"/>
<path id="Vector 1924" d="M75.8974 65.6214C71.7986 62.0784 64.4365 52.1536 70.5711 42.7414C78.2394 30.9762 88.3796 43.2141 82.428 45.8096C80.6877 46.5685 79.8984 46.5058 78.8753 46.4468M75.9758 43.911C76.1732 44.6512 77.0992 46.3445 78.8753 46.4468M78.8753 46.4468C78.6989 47.7353 78.8399 49.9979 81.3114 51.5103" stroke="#002A3A" stroke-width="0.64893" stroke-linecap="round" stroke-linejoin="round"/>
<path id="Vector 1925" d="M79.65 46.2663C80.167 45.5251 81.0304 43.8134 80.3477 42.8965M81.8284 45.8756C82.3217 45.218 82.9145 43.4755 82.2318 42.5586" stroke="#002A3A" stroke-width="0.64893" stroke-linecap="round" stroke-linejoin="round"/>
<g id="Group 1077241792">
<path id="Vector 1927" d="M113.222 57.4368L111.183 54.8938C110.988 54.6502 110.626 54.6252 110.399 54.8397L105.84 59.1499C105.223 59.7333 104.258 59.734 103.64 59.1515L100.802 56.4775C100.684 56.3655 100.488 56.4174 100.441 56.5736C99.8639 58.4709 100.352 60.5319 101.72 61.9683L102.205 62.4788C103.759 64.1109 106.028 64.8546 108.246 64.4587L111.022 63.9632C112.495 63.7004 114.012 63.8749 115.386 64.4652L129.038 70.3288C130.803 71.0871 132.841 70.1856 133.467 68.3693C134.088 66.5682 133.062 64.6164 131.226 64.1069L117.606 60.3268C115.877 59.8472 114.344 58.8362 113.222 57.4368Z" fill="#00AFFF" stroke="#002A3A" stroke-width="0.64893" stroke-linecap="round" stroke-linejoin="round"/>
<path id="Vector 1928" d="M129.09 68.5975L118.334 64.1671C117.84 63.9636 117.591 63.4096 117.767 62.9051C117.943 62.4014 118.481 62.1223 118.994 62.2689L130.179 65.467C131.117 65.7353 131.623 66.7518 131.27 67.6621C130.934 68.5298 129.951 68.9519 129.09 68.5975Z" fill="#002A3A" stroke="#002A3A" stroke-width="0.64893" stroke-linecap="round" stroke-linejoin="round"/>
<path id="Vector 1929" d="M103.335 53.5248L107.399 57.7113L110.19 55.0025C107.124 51.7598 104.343 52.6662 103.335 53.5248Z" fill="#002A3A" stroke="#002A3A" stroke-width="0.64893" stroke-linecap="round" stroke-linejoin="round"/>
</g>
<path id="Vector 549" d="M74.8285 85.6945C72.1043 85.6945 70.4229 86.6618 69.4581 88.1434C68.0439 90.3149 70.4507 92.6372 73.0421 92.6372L104.394 92.6372C101.195 92.6372 99.958 90.6332 100.129 89.438M121.567 70.6519C111.283 70.6519 108.056 80.8056 108.127 85.2495C108.131 85.4907 107.941 85.6942 107.7 85.6971C103.448 85.7478 100.541 86.5521 100.129 89.438M100.129 89.438C92.7754 87.104 86.7717 81.4534 85.4124 77.0678" stroke="#002A3A" stroke-width="0.64893" stroke-linecap="round" stroke-linejoin="round"/>
<g id="Group 1077241791">
<path id="Vector 1910" d="M97.3018 15.0907L99.2619 18.0403L84.5303 20.487L71.7175 25.4767C70.5523 22.804 67.5688 11.7796 78.6313 6.95655C87.6622 3.0193 93.8827 8.23381 96.6072 13.8461C96.815 14.2741 97.0385 14.6944 97.3018 15.0907Z" fill="#0DD149"/>
<path id="Vector" d="M81.6537 15.4284C80.9683 13.1771 80.9918 9.48418 83.771 7.35461C87.7662 4.29328 91.8395 7.66794 93.5701 9.59054M71.9675 20.2964C71.1771 18.4833 71.3795 14.3255 72.9963 11.7176" stroke="#002A3A" stroke-width="0.64893" stroke-linecap="round" stroke-linejoin="round"/>
<path id="Vector 1911" d="M72.3868 23.4612C81.09 18.2072 93.4414 16.844 99.2619 18.041C84.7325 21.3345 76.5784 25.3437 74.3529 28.2737C67.2735 28.8753 67.2735 26.5481 72.3868 23.4612Z" fill="#002A3A"/>
<path id="Union_2" d="M77.1092 21.898L74.6018 22.8817C73.5247 20.4112 71.4611 8.94294 80.6778 4.72591C85.6213 2.76947 89.2836 4.75128 91.7404 7.95219C89.8987 6.55395 87.0985 5.7965 84.2794 5.75685C82.892 5.73733 81.5318 6.22268 80.5056 7.15671C75.3758 11.8261 76.2625 18.6119 77.1092 21.898Z" fill="#002A3A"/>
</g>
<g id="Group 1077241794">
<path id="Vector_2" d="M99.2912 53.2277C97.1297 52.7557 92.7589 48.5121 92.5516 48.3169C92.8034 48.3769 98.9152 49.5014 100.237 51.5297C100.464 51.8843 100.545 52.2468 100.467 52.6047C100.394 52.9387 100.218 53.1502 99.9396 53.2344C99.7576 53.2896 99.5393 53.2819 99.2912 53.2277Z" stroke="#002A3A" stroke-width="0.64893" stroke-linecap="round" stroke-linejoin="round"/>
<path id="Vector_3" d="M92.5515 48.3163C91.1785 48.4914 86.2741 49.459 84.9182 52.8522C84.6568 53.4999 84.7612 53.6627 84.818 53.7001C85.4575 54.1597 89.8522 50.6962 92.5515 48.3163Z" stroke="#002A3A" stroke-width="0.64893" stroke-linecap="round" stroke-linejoin="round"/>
<path id="Vector_4" d="M88.9307 57.268C89.2278 56.3881 92.0628 48.3684 92.5515 48.316C92.5515 48.316 92.7801 48.7221 92.6754 49.934C92.4109 53.0455 92.0064 60.3292 97.1726 62.5622" stroke="#002A3A" stroke-width="0.64893" stroke-linecap="round" stroke-linejoin="round"/>
</g>
<path id="Vector 404" d="M71.2831 88.8818C70.6652 89.2446 69.5713 90.2373 70.1394 91.3056" stroke="#002A3A" stroke-width="0.64893" stroke-linecap="round" stroke-linejoin="round"/>
<path id="Vector 582" d="M101.995 88.8818C101.377 89.2446 100.284 90.2373 100.852 91.3056" stroke="#002A3A" stroke-width="0.64893" stroke-linecap="round" stroke-linejoin="round"/>
<path id="Vector 583" d="M103.275 89.7343C102.657 90.0971 101.563 91.0898 102.131 92.1582" stroke="#002A3A" stroke-width="0.64893" stroke-linecap="round" stroke-linejoin="round"/>
<path id="Vector 405" d="M72.5627 89.7343C71.9448 90.0971 70.851 91.0898 71.419 92.1582" stroke="#002A3A" stroke-width="0.64893" stroke-linecap="round" stroke-linejoin="round"/>
<path id="Intersect" fill-rule="evenodd" clip-rule="evenodd" d="M93.5818 18.2066C94.6039 18.114 95.5168 18.0773 96.2216 18.0773C96.2776 17.797 96.3406 17.4333 96.414 17.0093L96.4141 17.0086L96.4141 17.0084C96.9316 14.0191 97.9668 8.0393 100.731 7.24912C104.883 6.60996 110.618 16.1566 114.092 26.5902C109.123 28.5369 102.646 27.3154 97.6076 22.9863C95.951 21.563 94.6031 19.9354 93.5818 18.2066Z" fill="#002A3A"/>
<path id="Vector 1921" d="M129.538 58.4447C132.558 50.8404 123.531 45.076 119.213 44.2577L116.675 56.2766C114.631 57.3025 112.921 58.8329 112.672 61.0205C112.042 66.5354 119.165 67.5378 121.513 65.5817C122.198 65.0113 122.545 64.434 122.682 63.9011C125.363 63.4279 128.145 61.9516 129.538 58.4447Z" fill="white"/>
<path id="Vector 1922" d="M121.875 65.0867C120.984 64.9365 119.158 64.3537 118.982 63.2242M118.902 66.4183C118.333 66.1697 117.15 65.39 116.974 64.2605" stroke="#002A3A" stroke-width="0.64893" stroke-linecap="round" stroke-linejoin="round"/>
<path id="Vector 1923" d="M119.213 44.2577C123.531 45.076 132.558 50.8404 129.538 58.4447C128.145 61.9516 125.363 63.4279 122.682 63.9011M122.772 54.5517C119.615 54.8696 113.175 56.6085 112.672 61.0205C112.042 66.5354 119.165 67.5378 121.513 65.5817C122.198 65.0113 122.545 64.434 122.682 63.9011M122.161 61.788C122.521 62.1773 122.921 62.9719 122.682 63.9011" stroke="#002A3A" stroke-width="0.64893" stroke-linecap="round" stroke-linejoin="round"/>
<ellipse id="Ellipse 791" cx="82.4903" cy="34.1074" rx="0.902344" ry="2.70703" transform="rotate(-10.509 82.4903 34.1074)" fill="#002A3A"/>
<ellipse id="Ellipse 792" cx="95.7247" cy="31.7011" rx="0.902344" ry="2.70703" transform="rotate(-10.509 95.7247 31.7011)" fill="#002A3A"/>
<path id="Vector 1931" d="M80.8086 29.7772C81.3099 29.5767 82.6133 29.3561 83.8164 30.078" stroke="#002A3A" stroke-width="0.64893" stroke-linecap="round" stroke-linejoin="round"/>
<path id="Vector 1932" d="M93.4414 25.5664C94.043 25.5664 95.4867 25.7469 96.4492 26.4688" stroke="#002A3A" stroke-width="0.64893" stroke-linecap="round" stroke-linejoin="round"/>
<path id="Intersect_2" fill-rule="evenodd" clip-rule="evenodd" d="M135.87 42.4434C136.535 43.7348 137.939 45.0343 140.891 44.5326C141.173 44.3239 141.444 44.1183 141.7 43.9141C142.885 42.0224 143.401 40.7596 142.168 39.703C140.513 38.2842 137.98 39.7216 135.87 42.4434Z" fill="#002A3A"/>
<g id="Group 1077241793">
<path id="Vector_5" d="M88.9005 36.6847C88.9037 36.7246 88.9583 37.6925 89.3664 38.9572M89.3664 38.9572C90.0229 39.005 91.5164 39.1608 92.2382 39.4014M89.3664 38.9572L88.3281 39.7022" stroke="#002A3A" stroke-width="0.64893" stroke-linecap="round" stroke-linejoin="round"/>
<path id="Vector_6" d="M90.0994 35.4897L89.0768 36.6757C89.0643 36.6948 89.0435 36.7106 89.0202 36.7205C88.9677 36.7428 88.9087 36.7336 88.8622 36.7052L87.6709 35.8156" stroke="#002A3A" stroke-width="0.64893" stroke-linecap="round" stroke-linejoin="round"/>
</g>
</g>
<path id="Subtract" d="M10.2218 44.9656L10.5456 44.9453L10.2218 44.9656ZM10.3452 41.4323L10.0236 41.3894L10.3452 41.4323ZM9.56968 39.9972L9.4377 40.2936L9.56968 39.9972ZM9.13529 39.8038L9.26728 39.5073L9.13529 39.8038ZM8.14875 37.2334L7.85234 37.1014L8.14875 37.2334ZM10.1143 32.8191L10.4108 32.9511L10.1143 32.8191ZM12.6847 31.8325L12.5527 32.1289L12.6847 31.8325ZM13.2294 32.0751L13.3614 31.7787L13.2294 32.0751ZM14.7956 31.714L14.553 31.4985L14.7956 31.714ZM17.3012 29.3807L17.499 29.6379L17.3012 29.3807ZM17.537 27.2278L17.8399 27.1116L17.8399 27.1116L17.537 27.2278ZM18.6569 24.7127L18.5406 24.4098L18.5406 24.4098L18.6569 24.7127ZM23.1682 22.9812L23.2844 23.2841L23.2844 23.2841L23.1682 22.9812ZM25.6833 24.1011L25.9862 23.9848L25.9862 23.9848L25.6833 24.1011ZM25.9413 24.7732L25.6383 24.8895L25.6383 24.8895L25.9413 24.7732ZM27.3086 25.6248L27.3289 25.9487L27.3086 25.6248ZM30.6515 25.724L30.6911 25.4019L30.6515 25.724ZM34.9404 23.2903L35.0724 22.9939L34.9404 23.2903ZM39.3547 25.2559L39.2228 25.5523L39.3547 25.2559ZM40.4155 30.0717L40.6284 29.8269L40.4155 30.0717ZM42.7259 32.4899L42.9801 32.2884L42.7259 32.4899ZM44.2737 32.9364L44.3899 33.2393L44.2737 32.9364ZM44.9456 32.6785L44.8293 32.3756L44.9456 32.6785ZM47.4607 33.7984L47.1578 33.9147L47.4607 33.7984ZM49.1922 38.3097L49.4951 38.1934L49.4951 38.1934L49.1922 38.3097ZM48.0723 40.8248L48.1886 41.1277L48.1886 41.1277L48.0723 40.8248ZM47.4799 41.0522L47.5962 41.3551L47.4799 41.0522ZM46.63 42.4404L46.3066 42.4655L46.3066 42.4655L46.63 42.4404ZM46.5724 45.8634L46.2499 45.8274L46.2499 45.8274L46.5724 45.8634ZM44.3476 55.483L44.2156 55.7794L44.3476 55.483ZM43.9128 55.2894L44.0448 54.9929L43.9128 55.2894ZM42.3273 55.6732L42.0803 55.4629L42.3273 55.6732ZM39.7842 58.1288L39.9858 58.3831L39.7842 58.1288ZM39.4953 60.0868L39.1923 60.2031L39.4953 60.0868ZM31.3489 63.2135L31.046 63.3298L31.046 63.3298L31.3489 63.2135ZM31.2221 62.883L31.525 62.7667L31.525 62.7667L31.2221 62.883ZM29.8338 62.0331L29.859 62.3566L29.8338 62.0331ZM26.2195 61.9531L26.259 61.631L26.2195 61.9531ZM24.7992 62.7307L24.5027 62.5987L24.7992 62.7307ZM24.6621 63.0385L24.9585 63.1705L24.6621 63.0385ZM16.4555 57.6055L16.2425 57.8503L16.2425 57.8503L16.4555 57.6055ZM13.9778 54.973L13.7205 55.1707L13.7205 55.1707L13.9778 54.973ZM12.4173 54.5098L12.301 54.2069L12.4173 54.5098ZM12.0866 54.6368L12.2028 54.9397L12.2028 54.9397L12.0866 54.6368ZM9.57147 53.5169L9.26855 53.6331L9.57147 53.5169ZM7.83995 49.0056L8.14287 48.8893L8.14287 48.8893L7.83995 49.0056ZM8.95987 46.4905L9.07613 46.7934L9.07613 46.7934L8.95987 46.4905ZM9.89792 44.9859C9.92689 45.4478 9.66624 45.8718 9.25389 46.0301L9.48642 46.6359C10.183 46.3686 10.591 45.6689 10.5456 44.9453L9.89792 44.9859ZM10.0236 41.3894C9.86311 42.592 9.82329 43.7962 9.89792 44.9859L10.5456 44.9453C10.4736 43.7973 10.512 42.6354 10.6668 41.4752L10.0236 41.3894ZM9.4377 40.2936C9.84738 40.476 10.0858 40.9233 10.0236 41.3894L10.6668 41.4752C10.7642 40.7457 10.3939 40.009 9.70166 39.7008L9.4377 40.2936ZM9.00331 40.1002L9.4377 40.2936L9.70166 39.7008L9.26728 39.5073L9.00331 40.1002ZM7.85234 37.1014C7.34209 38.2473 7.8574 39.5899 9.00331 40.1002L9.26728 39.5073C8.44877 39.1429 8.08069 38.1839 8.44516 37.3654L7.85234 37.1014ZM9.81794 32.6871L7.85234 37.1014L8.44516 37.3654L10.4108 32.9511L9.81794 32.6871ZM12.8167 31.5361C11.6708 31.0259 10.3282 31.5412 9.81794 32.6871L10.4108 32.9511C10.7752 32.1325 11.7342 31.7645 12.5527 32.1289L12.8167 31.5361ZM13.3614 31.7787L12.8167 31.5361L12.5527 32.1289L13.0974 32.3715L13.3614 31.7787ZM14.553 31.4985C14.2464 31.8435 13.7637 31.9578 13.3614 31.7787L13.0974 32.3715C13.7771 32.6741 14.558 32.4699 15.0381 31.9295L14.553 31.4985ZM17.1035 29.1234C16.1877 29.8274 15.3326 30.621 14.553 31.4985L15.0381 31.9295C15.7902 31.0829 16.6153 30.3172 17.499 29.6379L17.1035 29.1234ZM17.4614 27.9365C17.6217 28.3541 17.4752 28.8377 17.1035 29.1234L17.499 29.6379C18.0811 29.1904 18.3381 28.4095 18.0673 27.704L17.4614 27.9365ZM17.234 27.3441L17.4614 27.9365L18.0673 27.704L17.8399 27.1116L17.234 27.3441ZM18.5406 24.4098C17.3695 24.8593 16.7846 26.173 17.234 27.3441L17.8399 27.1116C17.5188 26.2751 17.9367 25.3367 18.7731 25.0156L18.5406 24.4098ZM23.0519 22.6783L18.5406 24.4098L18.7731 25.0156L23.2844 23.2841L23.0519 22.6783ZM25.9862 23.9848C25.5367 22.8138 24.223 22.2288 23.0519 22.6783L23.2844 23.2841C24.1209 22.9631 25.0593 23.3809 25.3804 24.2174L25.9862 23.9848ZM26.2442 24.657L25.9862 23.9848L25.3804 24.2174L25.6383 24.8895L26.2442 24.657ZM27.2883 25.301C26.8264 25.33 26.4024 25.0693 26.2442 24.657L25.6383 24.8895C25.9057 25.5861 26.6053 25.994 27.3289 25.9487L27.2883 25.301ZM30.6911 25.4019C29.553 25.2623 28.4141 25.2304 27.2883 25.301L27.3289 25.9487C28.4153 25.8805 29.514 25.9113 30.612 26.046L30.6911 25.4019ZM31.7755 24.8144C31.5947 25.2204 31.1535 25.4587 30.6911 25.4019L30.612 26.046C31.336 26.1348 32.0629 25.7643 32.3683 25.0784L31.7755 24.8144ZM32.0736 24.1448L31.7755 24.8144L32.3683 25.0784L32.6665 24.4088L32.0736 24.1448ZM35.0724 22.9939C33.9265 22.4836 32.5839 22.9989 32.0736 24.1448L32.6665 24.4088C33.0309 23.5903 33.9899 23.2222 34.8084 23.5867L35.0724 22.9939ZM39.4867 24.9595L35.0724 22.9939L34.8084 23.5867L39.2228 25.5523L39.4867 24.9595ZM40.6377 27.9582C41.1479 26.8123 40.6326 25.4697 39.4867 24.9595L39.2228 25.5523C40.0413 25.9167 40.4093 26.8757 40.0449 27.6942L40.6377 27.9582ZM40.3395 28.6278L40.6377 27.9582L40.0449 27.6942L39.7467 28.3639L40.3395 28.6278ZM40.6284 29.8269C40.2769 29.5212 40.1587 29.0338 40.3395 28.6278L39.7467 28.3639C39.4413 29.0498 39.6522 29.8379 40.2026 30.3165L40.6284 29.8269ZM42.9801 32.2884C42.2793 31.4044 41.4937 30.5793 40.6284 29.8269L40.2026 30.3165C41.0374 31.0425 41.7954 31.8385 42.4716 32.6915L42.9801 32.2884ZM44.1574 32.6335C43.745 32.7917 43.2676 32.651 42.9801 32.2884L42.4716 32.6915C42.922 33.2596 43.6934 33.5066 44.3899 33.2393L44.1574 32.6335ZM44.8293 32.3756L44.1574 32.6335L44.3899 33.2393L45.0618 32.9814L44.8293 32.3756ZM47.7636 33.6821C47.3141 32.511 46.0004 31.9261 44.8293 32.3756L45.0618 32.9814C45.8983 32.6603 46.8367 33.0782 47.1578 33.9147L47.7636 33.6821ZM49.4951 38.1934L47.7636 33.6821L47.1578 33.9147L48.8893 38.426L49.4951 38.1934ZM48.1886 41.1277C49.3596 40.6782 49.9446 39.3645 49.4951 38.1934L48.8893 38.426C49.2103 39.2624 48.7925 40.2008 47.956 40.5219L48.1886 41.1277ZM47.5962 41.3551L48.1886 41.1277L47.956 40.5219L47.3637 40.7492L47.5962 41.3551ZM46.9535 42.4153C46.9172 41.9478 47.1786 41.5154 47.5962 41.3551L47.3637 40.7492C46.6581 41.0201 46.2497 41.7335 46.3066 42.4655L46.9535 42.4153ZM46.8948 45.8995C47.0254 44.7331 47.043 43.5668 46.9535 42.4153L46.3066 42.4655C46.3929 43.5767 46.3759 44.7021 46.2499 45.8274L46.8948 45.8995ZM47.4839 46.9726C47.0816 46.7934 46.8435 46.3582 46.8948 45.8995L46.2499 45.8274C46.1695 46.5457 46.5403 47.2628 47.2199 47.5654L47.4839 46.9726ZM48.029 47.2153L47.4839 46.9726L47.2199 47.5654L47.765 47.8081L48.029 47.2153ZM49.1799 50.2141C49.6902 49.0681 49.1749 47.7256 48.029 47.2153L47.765 47.8081C48.5835 48.1726 48.9516 49.1316 48.5871 49.9501L49.1799 50.2141ZM47.2143 54.6284L49.1799 50.2141L48.5871 49.9501L46.6215 54.3644L47.2143 54.6284ZM44.2156 55.7794C45.3615 56.2896 46.7041 55.7743 47.2143 54.6284L46.6215 54.3644C46.2571 55.1829 45.2981 55.551 44.4796 55.1865L44.2156 55.7794ZM43.7808 55.5858L44.2156 55.7794L44.4796 55.1865L44.0448 54.9929L43.7808 55.5858ZM42.5744 55.8835C42.8792 55.5254 43.3712 55.4033 43.7808 55.5858L44.0448 54.9929C43.3526 54.6847 42.5573 54.9024 42.0803 55.4629L42.5744 55.8835ZM39.9858 58.3831C40.9199 57.6425 41.7881 56.8073 42.5744 55.8835L42.0803 55.4629C41.3217 56.3541 40.484 57.16 39.5826 57.8746L39.9858 58.3831ZM39.6407 59.5603C39.4825 59.1479 39.6232 58.6706 39.9858 58.3831L39.5826 57.8746C39.0145 58.325 38.7675 59.0963 39.0349 59.7928L39.6407 59.5603ZM39.7982 59.9706L39.6407 59.5603L39.0349 59.7928L39.1923 60.2031L39.7982 59.9706ZM38.4916 62.9049C39.6627 62.4554 40.2477 61.1416 39.7982 59.9706L39.1923 60.2031C39.5134 61.0396 39.0956 61.978 38.2591 62.299L38.4916 62.9049ZM33.9803 64.6364L38.4916 62.9049L38.2591 62.299L33.7478 64.0305L33.9803 64.6364ZM31.046 63.3298C31.4955 64.5009 32.8092 65.0859 33.9803 64.6364L33.7478 64.0305C32.9113 64.3516 31.9729 63.9338 31.6519 63.0973L31.046 63.3298ZM30.9192 62.9993L31.046 63.3298L31.6519 63.0973L31.525 62.7667L30.9192 62.9993ZM29.859 62.3566C30.3264 62.3203 30.7589 62.5816 30.9192 62.9993L31.525 62.7667C31.2542 62.0612 30.5407 61.6527 29.8087 61.7096L29.859 62.3566ZM26.18 62.2751C27.4113 62.4262 28.6434 62.4511 29.859 62.3566L29.8087 61.7096C28.6357 61.8008 27.4469 61.7768 26.259 61.631L26.18 62.2751ZM25.0956 62.8627C25.2763 62.4567 25.7176 62.2184 26.18 62.2751L26.259 61.631C25.535 61.5422 24.8082 61.9128 24.5027 62.5987L25.0956 62.8627ZM24.9585 63.1705L25.0956 62.8627L24.5027 62.5987L24.3657 62.9065L24.9585 63.1705ZM21.9598 64.3215C23.1057 64.8317 24.4483 64.3164 24.9585 63.1705L24.3657 62.9065C24.0012 63.725 23.0422 64.0931 22.2237 63.7286L21.9598 64.3215ZM17.5454 62.3559L21.9598 64.3215L22.2237 63.7286L17.8094 61.763L17.5454 62.3559ZM16.3945 59.3571C15.8842 60.503 16.3995 61.8456 17.5454 62.3559L17.8094 61.763C16.9909 61.3986 16.6228 60.4396 16.9873 59.6211L16.3945 59.3571ZM16.5315 59.0494L16.3945 59.3571L16.9873 59.6211L17.1243 59.3133L16.5315 59.0494ZM16.2425 57.8503C16.5941 58.156 16.7123 58.6434 16.5315 59.0494L17.1243 59.3133C17.4297 58.6274 17.2188 57.8393 16.6684 57.3606L16.2425 57.8503ZM13.7205 55.1707C14.4636 56.1373 15.3065 57.0363 16.2425 57.8503L16.6684 57.3606C15.7653 56.5753 14.952 55.708 14.235 54.7752L13.7205 55.1707ZM12.5336 54.8128C12.9512 54.6525 13.4348 54.799 13.7205 55.1707L14.235 54.7752C13.7875 54.1931 13.0066 53.9361 12.301 54.2069L12.5336 54.8128ZM12.2028 54.9397L12.5336 54.8128L12.301 54.2069L11.9703 54.3339L12.2028 54.9397ZM9.26855 53.6331C9.71803 54.8042 11.0318 55.3892 12.2028 54.9397L11.9703 54.3339C11.1338 54.6549 10.1954 54.2371 9.87439 53.4006L9.26855 53.6331ZM7.53703 49.1218L9.26855 53.6331L9.87439 53.4006L8.14287 48.8893L7.53703 49.1218ZM8.8436 46.1875C7.67252 46.637 7.08755 47.9508 7.53703 49.1218L8.14287 48.8893C7.82181 48.0528 8.23965 47.1144 9.07613 46.7934L8.8436 46.1875ZM9.25389 46.0301L8.8436 46.1875L9.07613 46.7934L9.48642 46.6359L9.25389 46.0301ZM38.2843 48.2239C35.8623 53.6633 29.4894 56.1093 24.05 53.6873L23.7861 54.2801C29.5528 56.8479 36.3093 54.2547 38.8771 48.4879L38.2843 48.2239ZM32.8209 33.9897C38.2602 36.4117 40.7063 42.7846 38.2843 48.2239L38.8771 48.4879C41.4449 42.7212 38.8516 35.9647 33.0849 33.3969L32.8209 33.9897ZM18.5867 39.4531C21.0087 34.0137 27.3816 31.5677 32.8209 33.9897L33.0849 33.3969C27.3181 30.8291 20.5616 33.4224 17.9938 39.1891L18.5867 39.4531ZM24.05 53.6873C18.6107 51.2653 16.1646 44.8924 18.5867 39.4531L17.9938 39.1891C15.426 44.9558 18.0193 51.7123 23.7861 54.2801L24.05 53.6873Z" fill="#171D23"/>
<path id="Subtract_2" d="M17.1143 79.7914L16.7912 79.8208L17.1143 79.7914ZM16.6358 80.6103L16.5111 80.3108L16.5111 80.3108L16.6358 80.6103ZM17.1284 77.7097L16.8057 77.6759L17.1284 77.7097ZM18.3457 72.0208L18.2222 72.3208L18.3457 72.0208ZM18.6707 72.1547L18.7942 71.8546L18.6707 72.1547ZM19.5864 71.9162L19.3379 71.7076L19.3379 71.7076L19.5864 71.9162ZM21.0221 70.5016L20.8172 70.25L21.0221 70.5016ZM21.2688 69.5755L21.5683 69.4507L21.5683 69.4507L21.2688 69.5755ZM21.1251 69.2305L20.8256 69.3553L21.1251 69.2305ZM21.7424 67.7317L21.6177 67.4321L21.6177 67.4321L21.7424 67.7317ZM24.3688 66.6376L24.244 66.3381L24.244 66.3381L24.3688 66.6376ZM25.8677 67.255L25.5681 67.3797L25.8677 67.255ZM26.0307 67.6463L26.3302 67.5216L26.0307 67.6463ZM26.8496 68.1248L26.8201 67.8017L26.8496 68.1248ZM28.8185 68.1276L28.8489 67.8046L28.8185 68.1276ZM34.6374 70.5242L34.8433 70.2735L34.6374 70.5242ZM36.0372 71.9089L36.2857 71.7002L36.2857 71.7002L36.0372 71.9089ZM36.9556 72.1459L36.8308 71.8464L36.8308 71.8464L36.9556 72.1459ZM37.347 71.9829L37.4718 72.2824L37.4718 72.2824L37.347 71.9829ZM38.8459 72.6002L39.1454 72.4754L39.1454 72.4754L38.8459 72.6002ZM39.9399 75.2266L39.6404 75.3513L39.6404 75.3513L39.9399 75.2266ZM39.3226 76.7254L39.1978 76.4259L39.3226 76.7254ZM38.9776 76.8691L38.8529 76.5696L38.8529 76.5696L38.9776 76.8691ZM38.5005 77.7003L38.8232 77.6661L38.8232 77.6661L38.5005 77.7003ZM38.5235 79.7158L38.2002 79.6889L38.2002 79.6889L38.5235 79.7158ZM39.9538 82.1603L39.6538 82.0367L39.9538 82.1603ZM38.8702 84.791L39.1703 84.9145L38.8702 84.791ZM36.1883 85.56L35.9354 85.3567L35.9354 85.3567L36.1883 85.56ZM34.7321 87.0478L34.9408 87.2963L34.9408 87.2963L34.7321 87.0478ZM29.852 90.1805L29.5524 90.3053L29.852 90.1805ZM29.7718 89.9881L30.0713 89.8634L29.7718 89.9881ZM28.9406 89.511L28.9064 89.1884L28.9064 89.1884L28.9406 89.511ZM26.8119 89.5239L26.8423 89.2009L26.8423 89.2009L26.8119 89.5239ZM25.9889 90.0052L25.6889 89.8816L25.9889 90.0052ZM25.9135 90.1881L26.2135 90.3117L25.9135 90.1881ZM24.4171 90.8114L24.2936 91.1115L24.4171 90.8114ZM21.7864 89.7279L21.91 89.4279L21.7864 89.7279ZM20.9931 87.1273L21.199 86.8765L21.199 86.8765L20.9931 87.1273ZM19.491 85.6189L19.2394 85.8238L19.2394 85.8238L19.491 85.6189ZM18.5649 85.3722L18.4401 85.0727L18.4401 85.0727L18.5649 85.3722ZM18.3726 85.4523L18.4974 85.7518L18.3726 85.4523ZM16.8737 84.835L17.1733 84.7102L17.1733 84.7102L16.8737 84.835ZM15.7797 82.2086L16.0792 82.0838L16.0792 82.0838L15.7797 82.2086ZM16.3971 80.7097L16.2723 80.4102L16.3971 80.7097ZM16.7912 79.8208C16.811 80.0385 16.6933 80.2348 16.5111 80.3108L16.7606 80.9098C17.2239 80.7168 17.4811 80.2407 17.4375 79.762L16.7912 79.8208ZM16.8057 77.6759C16.7303 78.3951 16.7268 79.1132 16.7912 79.8208L17.4375 79.762C17.3768 79.096 17.3801 78.4202 17.4511 77.7436L16.8057 77.6759ZM16.5245 77.1779C16.7099 77.2543 16.8289 77.4549 16.8057 77.6759L17.4511 77.7436C17.502 77.2582 17.243 76.772 16.7717 76.5779L16.5245 77.1779ZM16.2656 77.0713L16.5245 77.1779L16.7717 76.5779L16.5127 76.4713L16.2656 77.0713ZM15.4658 75.1513C15.1565 75.9024 15.5146 76.762 16.2656 77.0713L16.5127 76.4713C16.0931 76.2984 15.893 75.8181 16.0658 75.3985L15.4658 75.1513ZM16.5493 72.5206L15.4658 75.1513L16.0658 75.3985L17.1494 72.7677L16.5493 72.5206ZM18.4693 71.7208C17.7183 71.4115 16.8587 71.7696 16.5493 72.5206L17.1494 72.7677C17.3222 72.3481 17.8025 72.148 18.2222 72.3208L18.4693 71.7208ZM18.7942 71.8546L18.4693 71.7208L18.2222 72.3208L18.5471 72.4547L18.7942 71.8546ZM19.3379 71.7076C19.1977 71.8746 18.9763 71.9296 18.7942 71.8546L18.5471 72.4547C19.0098 72.6453 19.5268 72.4919 19.8349 72.1247L19.3379 71.7076ZM20.8172 70.25C20.2835 70.6847 19.7875 71.1718 19.3379 71.7076L19.8349 72.1247C20.258 71.6206 20.7248 71.1623 21.227 70.7531L20.8172 70.25ZM20.9692 69.7002C21.0461 69.8848 20.9889 70.1101 20.8172 70.25L21.227 70.7531C21.6045 70.4456 21.7638 69.92 21.5683 69.4507L20.9692 69.7002ZM20.8256 69.3553L20.9692 69.7002L21.5683 69.4507L21.4246 69.1058L20.8256 69.3553ZM21.6177 67.4321C20.8679 67.7445 20.5132 68.6055 20.8256 69.3553L21.4246 69.1058C21.2501 68.6868 21.4482 68.2057 21.8672 68.0312L21.6177 67.4321ZM24.244 66.3381L21.6177 67.4321L21.8672 68.0312L24.4936 66.9371L24.244 66.3381ZM26.1672 67.1302C25.8548 66.3804 24.9938 66.0258 24.244 66.3381L24.4936 66.9371C24.9125 66.7626 25.3936 66.9608 25.5681 67.3797L26.1672 67.1302ZM26.3302 67.5216L26.1672 67.1302L25.5681 67.3797L25.7312 67.7711L26.3302 67.5216ZM26.8201 67.8017C26.6025 67.8215 26.4061 67.7039 26.3302 67.5216L25.7312 67.7711C25.9242 68.2344 26.4002 68.4916 26.879 68.448L26.8201 67.8017ZM28.8489 67.8046C28.1686 67.7406 27.4896 67.7407 26.8201 67.8017L26.879 68.448C27.5091 68.3906 28.148 68.3904 28.7881 68.4507L28.8489 67.8046ZM29.3415 67.5228C29.2659 67.7065 29.0681 67.8252 28.8489 67.8046L28.7881 68.4507C29.2697 68.496 29.7492 68.237 29.9416 67.77L29.3415 67.5228ZM29.5061 67.1233L29.3415 67.5228L29.9416 67.77L30.1061 67.3704L29.5061 67.1233ZM31.4261 66.3235C30.675 66.0142 29.8154 66.3722 29.5061 67.1233L30.1061 67.3704C30.279 66.9508 30.7593 66.7507 31.1789 66.9235L31.4261 66.3235ZM34.0568 67.407L31.4261 66.3235L31.1789 66.9235L33.8097 68.007L34.0568 67.407ZM34.8566 69.327C35.1659 68.5759 34.8078 67.7163 34.0568 67.407L33.8097 68.007C34.2293 68.1799 34.4294 68.6602 34.2565 69.0799L34.8566 69.327ZM34.692 69.7265L34.8566 69.327L34.2565 69.0799L34.092 69.4793L34.692 69.7265ZM34.8433 70.2735C34.6732 70.1338 34.6164 69.9102 34.692 69.7265L34.092 69.4793C33.8996 69.9464 34.0577 70.468 34.4315 70.775L34.8433 70.2735ZM36.2857 71.7002C35.8533 71.1854 35.3714 70.7072 34.8433 70.2735L34.4315 70.775C34.9284 71.183 35.3818 71.6331 35.7888 72.1176L36.2857 71.7002ZM36.8308 71.8464C36.6485 71.9223 36.4262 71.8676 36.2857 71.7002L35.7888 72.1176C36.0979 72.4857 36.617 72.6384 37.0803 72.4454L36.8308 71.8464ZM37.2222 71.6834L36.8308 71.8464L37.0803 72.4454L37.4718 72.2824L37.2222 71.6834ZM39.1454 72.4754C38.8331 71.7257 37.972 71.371 37.2222 71.6834L37.4718 72.2824C37.8907 72.1079 38.3718 72.306 38.5464 72.725L39.1454 72.4754ZM40.2394 75.1018L39.1454 72.4754L38.5464 72.725L39.6404 75.3513L40.2394 75.1018ZM39.4473 77.025C40.1971 76.7126 40.5518 75.8516 40.2394 75.1018L39.6404 75.3513C39.8149 75.7703 39.6168 76.2514 39.1978 76.4259L39.4473 77.025ZM39.1024 77.1687L39.4473 77.025L39.1978 76.4259L38.8529 76.5696L39.1024 77.1687ZM38.8232 77.6661C38.7998 77.4458 38.9178 77.2455 39.1024 77.1687L38.8529 76.5696C38.3835 76.7651 38.1264 77.2504 38.1779 77.7346L38.8232 77.6661ZM38.8469 79.7428C38.905 79.0457 38.8959 78.3505 38.8232 77.6661L38.1779 77.7346C38.2463 78.3789 38.2549 79.033 38.2002 79.6889L38.8469 79.7428ZM39.1292 80.2301C38.9472 80.1551 38.8287 79.9601 38.8469 79.7428L38.2002 79.6889C38.1603 80.1665 38.4193 80.6395 38.8821 80.8301L39.1292 80.2301ZM39.454 80.3639L39.1292 80.2301L38.8821 80.8301L39.2069 80.9639L39.454 80.3639ZM40.2538 82.2838C40.5631 81.5328 40.205 80.6732 39.454 80.3639L39.2069 80.9639C39.6265 81.1367 39.8266 81.617 39.6538 82.0367L40.2538 82.2838ZM39.1703 84.9145L40.2538 82.2838L39.6538 82.0367L38.5702 84.6674L39.1703 84.9145ZM37.2503 85.7143C38.0013 86.0237 38.8609 85.6656 39.1703 84.9145L38.5702 84.6674C38.3974 85.0871 37.9171 85.2871 37.4974 85.1143L37.2503 85.7143ZM36.9915 85.6077L37.2503 85.7143L37.4974 85.1143L37.2386 85.0077L36.9915 85.6077ZM36.4412 85.7632C36.5804 85.59 36.8061 85.5314 36.9915 85.6077L37.2386 85.0077C36.7673 84.8136 36.241 84.9763 35.9354 85.3567L36.4412 85.7632ZM34.9408 87.2963C35.4849 86.8393 35.9882 86.327 36.4412 85.7632L35.9354 85.3567C35.5091 85.8871 35.0355 86.3693 34.5234 86.7993L34.9408 87.2963ZM34.7946 87.8414C34.7186 87.6591 34.7734 87.4368 34.9408 87.2963L34.5234 86.7993C34.1553 87.1085 34.0026 87.6276 34.1955 88.0909L34.7946 87.8414ZM34.894 88.0802L34.7946 87.8414L34.1955 88.0909L34.295 88.3297L34.894 88.0802ZM34.102 90.0033C34.8518 89.691 35.2064 88.83 34.894 88.0802L34.295 88.3297C34.4695 88.7487 34.2714 89.2298 33.8524 89.4043L34.102 90.0033ZM31.4756 91.0974L34.102 90.0033L33.8524 89.4043L31.2261 90.4983L31.4756 91.0974ZM29.5524 90.3053C29.8648 91.0551 30.7258 91.4097 31.4756 91.0974L31.2261 90.4983C30.8071 90.6728 30.326 90.4747 30.1515 90.0557L29.5524 90.3053ZM29.4723 90.1129L29.5524 90.3053L30.1515 90.0557L30.0713 89.8634L29.4723 90.1129ZM28.9749 89.8337C29.1952 89.8103 29.3954 89.9283 29.4723 90.1129L30.0713 89.8634C29.8758 89.3941 29.3905 89.1369 28.9064 89.1884L28.9749 89.8337ZM26.7815 89.847C27.5177 89.9163 28.2522 89.9104 28.9749 89.8337L28.9064 89.1884C28.2262 89.2606 27.535 89.2661 26.8423 89.2009L26.7815 89.847ZM26.2889 90.1288C26.3645 89.9451 26.5624 89.8263 26.7815 89.847L26.8423 89.2009C26.3608 89.1556 25.8812 89.4146 25.6889 89.8816L26.2889 90.1288ZM26.2135 90.3117L26.2889 90.1288L25.6889 89.8816L25.6135 90.0645L26.2135 90.3117ZM24.2936 91.1115C25.0446 91.4208 25.9042 91.0627 26.2135 90.3117L25.6135 90.0645C25.4407 90.4842 24.9604 90.6843 24.5407 90.5114L24.2936 91.1115ZM21.6629 90.0279L24.2936 91.1115L24.5407 90.5114L21.91 89.4279L21.6629 90.0279ZM20.8631 88.108C20.5537 88.859 20.9118 89.7186 21.6629 90.0279L21.91 89.4279C21.4903 89.2551 21.2903 88.7748 21.4631 88.3551L20.8631 88.108ZM20.9384 87.925L20.8631 88.108L21.4631 88.3551L21.5385 88.1721L20.9384 87.925ZM20.7872 87.378C20.9573 87.5177 21.0141 87.7413 20.9384 87.925L21.5385 88.1721C21.7308 87.7051 21.5728 87.1835 21.199 86.8765L20.7872 87.378ZM19.2394 85.8238C19.6984 86.3872 20.2157 86.9087 20.7872 87.378L21.199 86.8765C20.6614 86.435 20.1746 85.9443 19.7426 85.414L19.2394 85.8238ZM18.6896 85.6717C18.8742 85.5948 19.0995 85.6521 19.2394 85.8238L19.7426 85.414C19.4351 85.0365 18.9094 84.8772 18.4401 85.0727L18.6896 85.6717ZM18.4974 85.7518L18.6896 85.6717L18.4401 85.0727L18.2478 85.1528L18.4974 85.7518ZM16.5742 84.9597C16.8866 85.7095 17.7476 86.0642 18.4974 85.7518L18.2478 85.1528C17.8289 85.3273 17.3478 85.1292 17.1733 84.7102L16.5742 84.9597ZM15.4802 82.3334L16.5742 84.9597L17.1733 84.7102L16.0792 82.0838L15.4802 82.3334ZM16.2723 80.4102C15.5225 80.7226 15.1679 81.5836 15.4802 82.3334L16.0792 82.0838C15.9047 81.6649 16.1029 81.1838 16.5218 81.0093L16.2723 80.4102ZM16.5111 80.3108L16.2723 80.4102L16.5218 81.0093L16.7606 80.9098L16.5111 80.3108ZM33.5613 81.1932C32.2542 84.3667 28.6221 85.8797 25.4487 84.5726L25.2015 85.1726C28.7064 86.6162 32.7178 84.9452 34.1613 81.4404L33.5613 81.1932ZM30.1819 73.0806C33.3553 74.3877 34.8683 78.0198 33.5613 81.1932L34.1613 81.4404C35.6049 77.9356 33.9339 73.9241 30.4291 72.4806L30.1819 73.0806ZM22.0693 76.46C23.3763 73.2866 27.0085 71.7736 30.1819 73.0806L30.4291 72.4806C26.9242 71.037 22.9128 72.708 21.4693 76.2129L22.0693 76.46ZM25.4487 84.5726C22.2752 83.2656 20.7622 79.6334 22.0693 76.46L21.4693 76.2129C20.0257 79.7177 21.6967 83.7291 25.2015 85.1726L25.4487 84.5726Z" fill="#171D23"/>
<path id="Subtract_3" d="M43.1078 74.299L43.4217 74.2165L43.1078 74.299ZM42.6698 75.4532L42.8424 75.728L42.8424 75.728L42.6698 75.4532ZM42.6778 71.6239L43.0017 71.6039L42.6778 71.6239ZM43.0164 64.0593L43.0886 63.743L43.0164 64.0593ZM43.4619 64.1611L43.3896 64.4774L43.4619 64.1611ZM44.5861 63.6578L44.8657 63.8224L44.8657 63.8224L44.5861 63.6578ZM46.125 61.5325L46.3686 61.7467L46.125 61.5325ZM46.2423 60.2906L45.9675 60.4632L46.2423 60.2906ZM45.9836 59.8788L46.2584 59.7062L46.2584 59.7062L45.9836 59.8788ZM46.4536 57.8219L46.6261 58.0966L46.6261 58.0966L46.4536 57.8219ZM49.5895 55.8523L49.417 55.5776L49.417 55.5776L49.5895 55.8523ZM51.9399 56.7895L52.2147 56.617L52.2147 56.617L51.9399 56.7895ZM53.0941 57.2275L53.0116 56.9137L53.0116 56.9137L53.0941 57.2275ZM55.6223 56.8074L55.5989 56.4838L55.5989 56.4838L55.6223 56.8074ZM58.4872 54.3424L58.4149 54.6587L58.4872 54.3424ZM62.0973 55.1672L62.1696 54.8509L62.0973 55.1672ZM63.6075 58.6318L63.4459 58.9131L63.6075 58.6318ZM65.7027 60.1083L65.4922 60.3552L65.7027 60.1083ZM66.9326 60.215L67.1052 60.4897L67.1052 60.4897L66.9326 60.215ZM67.3997 59.9216L67.2271 59.6469L67.2271 59.6469L67.3997 59.9216ZM69.4566 60.3916L69.7313 60.219L69.4566 60.3916ZM71.4261 63.5276L71.1513 63.7001L71.1513 63.7001L71.4261 63.5276ZM70.9562 65.5845L70.7836 65.3097L70.7836 65.3097L70.9562 65.5845ZM70.5444 65.8431L70.717 66.1178L70.5444 65.8431ZM70.1108 67.0127L70.4233 66.9256L70.4233 66.9256L70.1108 67.0127ZM70.5739 69.5951L70.8973 69.5682L70.8973 69.5682L70.5739 69.5951ZM70.3244 77.1575L70.2521 77.4738L70.3244 77.1575ZM69.9689 77.0763L70.0412 76.76L69.9689 77.0763ZM68.8335 77.5995L68.5505 77.4409L68.5505 77.4409L68.8335 77.5995ZM67.2847 79.8223L67.5315 80.0328L67.2847 79.8223ZM67.178 81.0521L67.4528 80.8796L67.178 81.0521ZM67.3571 81.3373L67.0823 81.5099L67.3571 81.3373ZM66.8872 83.3942L67.0598 83.669L66.8872 83.3942ZM63.7512 85.3637L63.5786 85.089L63.7512 85.3637ZM60.3804 84.2305L60.2932 83.9179L60.3804 84.2305ZM57.6507 84.7051L57.6273 84.3815L57.6507 84.7051ZM49.6654 82.8808L49.5038 83.1621L49.6654 82.8808ZM47.413 81.268L47.6272 81.0243L47.413 81.268ZM46.1711 81.1507L46.3437 81.4255L46.3437 81.4255L46.1711 81.1507ZM43.8842 80.8252L44.159 80.6526L44.159 80.6526L43.8842 80.8252ZM41.9147 77.6892L41.6399 77.8618L41.9147 77.6892ZM42.3846 75.6323L42.2121 75.3575L42.2121 75.3575L42.3846 75.6323ZM42.794 74.3815C42.8764 74.6948 42.7538 75.0173 42.4973 75.1784L42.8424 75.728C43.3567 75.4049 43.5706 74.7835 43.4217 74.2165L42.794 74.3815ZM42.354 71.6439C42.4116 72.5769 42.5606 73.4932 42.794 74.3815L43.4217 74.2165C43.1989 73.3687 43.0566 72.4942 43.0017 71.6039L42.354 71.6439ZM41.8101 70.9758C42.1099 71.0443 42.3337 71.3152 42.354 71.6439L43.0017 71.6039C42.965 71.0099 42.5559 70.4806 41.9546 70.3432L41.8101 70.9758ZM41.4547 70.8946L41.8101 70.9758L41.9546 70.3432L41.5993 70.262L41.4547 70.8946ZM40.0885 68.7193C39.8651 69.6973 40.4768 70.6712 41.4547 70.8946L41.5993 70.262C40.9707 70.1184 40.5775 69.4924 40.7211 68.8639L40.0885 68.7193ZM40.9133 65.1092L40.0885 68.7193L40.7211 68.8639L41.5459 65.2537L40.9133 65.1092ZM43.0886 63.743C42.1107 63.5195 41.1367 64.1312 40.9133 65.1092L41.5459 65.2537C41.6895 64.6251 42.3155 64.232 42.9441 64.3756L43.0886 63.743ZM43.5342 63.8447L43.0886 63.743L42.9441 64.3756L43.3896 64.4774L43.5342 63.8447ZM44.3065 63.4932C44.1425 63.7717 43.8286 63.912 43.5342 63.8447L43.3896 64.4774C43.9801 64.6123 44.5692 64.3261 44.8657 63.8224L44.3065 63.4932ZM45.8813 61.3183C45.2937 61.9867 44.7653 62.7138 44.3065 63.4932L44.8657 63.8224C45.3036 63.0787 45.8078 62.3848 46.3686 61.7467L45.8813 61.3183ZM45.9675 60.4632C46.1307 60.723 46.098 61.0717 45.8813 61.3183L46.3686 61.7467C46.7606 61.3008 46.8443 60.639 46.5171 60.1181L45.9675 60.4632ZM45.7089 60.0514L45.9675 60.4632L46.5171 60.1181L46.2584 59.7062L45.7089 60.0514ZM46.281 57.5471C45.4315 58.0806 45.1753 59.2018 45.7089 60.0514L46.2584 59.7062C45.9155 59.1602 46.0801 58.4396 46.6261 58.0966L46.281 57.5471ZM49.417 55.5776L46.281 57.5471L46.6261 58.0966L49.7621 56.1271L49.417 55.5776ZM51.9212 56.1497C51.3877 55.3002 50.2665 55.044 49.417 55.5776L49.7621 56.1271C50.3081 55.7842 51.0288 55.9488 51.3717 56.4948L51.9212 56.1497ZM52.2147 56.617L51.9212 56.1497L51.3717 56.4948L51.6652 56.9621L52.2147 56.617ZM53.0116 56.9137C52.6982 56.9961 52.3758 56.8735 52.2147 56.617L51.6652 56.9621C51.9882 57.4764 52.6095 57.6903 53.1765 57.5414L53.0116 56.9137ZM55.5989 56.4838C54.7178 56.5476 53.8522 56.6929 53.0116 56.9137L53.1765 57.5414C53.9788 57.3306 54.8049 57.1919 55.6457 57.131L55.5989 56.4838ZM56.2589 55.9403C56.191 56.2374 55.9243 56.4603 55.5989 56.4838L55.6457 57.131C56.234 57.0885 56.7554 56.6807 56.8916 56.0848L56.2589 55.9403ZM56.3841 55.3923L56.2589 55.9403L56.8916 56.0848L57.0167 55.5368L56.3841 55.3923ZM58.5594 54.0261C57.5815 53.8027 56.6075 54.4143 56.3841 55.3923L57.0167 55.5368C57.1604 54.9083 57.7863 54.5151 58.4149 54.6587L58.5594 54.0261ZM62.1696 54.8509L58.5594 54.0261L58.4149 54.6587L62.0251 55.4835L62.1696 54.8509ZM63.5358 57.0262C63.7592 56.0482 63.1476 55.0743 62.1696 54.8509L62.0251 55.4835C62.6536 55.6271 63.0468 56.2531 62.9032 56.8817L63.5358 57.0262ZM63.4106 57.5742L63.5358 57.0262L62.9032 56.8817L62.778 57.4296L63.4106 57.5742ZM63.7692 58.3504C63.4863 58.1879 63.3427 57.8713 63.4106 57.5742L62.778 57.4296C62.6418 58.0255 62.9345 58.6193 63.4459 58.9131L63.7692 58.3504ZM65.9133 59.8614C65.252 59.2974 64.5352 58.7905 63.7692 58.3504L63.4459 58.9131C64.1769 59.3331 64.8609 59.8168 65.4922 60.3552L65.9133 59.8614ZM66.76 59.9402C66.5035 60.1013 66.1598 60.0717 65.9133 59.8614L65.4922 60.3552C65.9382 60.7356 66.5908 60.8128 67.1052 60.4897L66.76 59.9402ZM67.2271 59.6469L66.76 59.9402L67.1052 60.4897L67.5722 60.1964L67.2271 59.6469ZM69.7313 60.219C69.1978 59.3695 68.0766 59.1133 67.2271 59.6469L67.5722 60.1964C68.1182 59.8535 68.8389 60.0181 69.1818 60.5641L69.7313 60.219ZM71.7009 63.355L69.7313 60.219L69.1818 60.5641L71.1513 63.7001L71.7009 63.355ZM71.1287 65.8592C71.9783 65.3257 72.2344 64.2045 71.7009 63.355L71.1513 63.7001C71.4943 64.2461 71.3296 64.9668 70.7836 65.3097L71.1287 65.8592ZM70.717 66.1178L71.1287 65.8592L70.7836 65.3097L70.3718 65.5683L70.717 66.1178ZM70.4233 66.9256C70.3352 66.6093 70.4572 66.281 70.717 66.1178L70.3718 65.5683C69.8509 65.8955 69.6388 66.528 69.7982 67.0998L70.4233 66.9256ZM70.8973 69.5682C70.8224 68.6671 70.6623 67.7827 70.4233 66.9256L69.7982 67.0998C70.0263 67.918 70.1792 68.762 70.2506 69.6219L70.8973 69.5682ZM71.4403 70.2203C71.1459 70.153 70.924 69.8903 70.8973 69.5682L70.2506 69.6219C70.299 70.2044 70.7054 70.7181 71.2958 70.8529L71.4403 70.2203ZM71.886 70.3221L71.4403 70.2203L71.2958 70.8529L71.7415 70.9548L71.886 70.3221ZM73.2523 72.4975C73.4757 71.5195 72.864 70.5456 71.886 70.3221L71.7415 70.9548C72.3701 71.0984 72.7632 71.7244 72.6196 72.3529L73.2523 72.4975ZM72.4275 76.1076L73.2523 72.4975L72.6196 72.3529L71.7948 75.9631L72.4275 76.1076ZM70.2521 77.4738C71.2301 77.6973 72.204 77.0856 72.4275 76.1076L71.7948 75.9631C71.6512 76.5917 71.0252 76.9848 70.3967 76.8412L70.2521 77.4738ZM69.8966 77.3926L70.2521 77.4738L70.3967 76.8412L70.0412 76.76L69.8966 77.3926ZM69.1166 77.7582C69.2776 77.4709 69.5968 77.3241 69.8966 77.3926L70.0412 76.76C69.4398 76.6226 68.8415 76.9218 68.5505 77.4409L69.1166 77.7582ZM67.5315 80.0328C68.1275 79.3341 68.6596 78.5735 69.1166 77.7582L68.5505 77.4409C68.1144 78.2189 67.6066 78.9448 67.0378 79.6117L67.5315 80.0328ZM67.4528 80.8796C67.2917 80.623 67.3213 80.2794 67.5315 80.0328L67.0378 79.6117C66.6574 80.0578 66.5802 80.7104 66.9033 81.2247L67.4528 80.8796ZM67.6319 81.1647L67.4528 80.8796L66.9033 81.2247L67.0823 81.5099L67.6319 81.1647ZM67.0598 83.669C67.9093 83.1354 68.1654 82.0142 67.6319 81.1647L67.0823 81.5099C67.4253 82.0559 67.2606 82.7765 66.7146 83.1194L67.0598 83.669ZM63.9238 85.6385L67.0598 83.669L66.7146 83.1194L63.5786 85.089L63.9238 85.6385ZM61.4195 85.0664C61.9531 85.9159 63.0743 86.1721 63.9238 85.6385L63.5786 85.089C63.0326 85.4319 62.312 85.2673 61.9691 84.7212L61.4195 85.0664ZM61.2753 84.8367L61.4195 85.0664L61.9691 84.7212L61.8248 84.4915L61.2753 84.8367ZM60.4675 84.543C60.7838 84.4549 61.1121 84.5769 61.2753 84.8367L61.8248 84.4915C61.4976 83.9705 60.8651 83.7585 60.2932 83.9179L60.4675 84.543ZM57.6741 85.0288C58.6274 84.9598 59.5626 84.7953 60.4675 84.543L60.2932 83.9179C59.4295 84.1588 58.537 84.3157 57.6273 84.3815L57.6741 85.0288ZM57.014 85.5723C57.0819 85.2751 57.3487 85.0523 57.6741 85.0288L57.6273 84.3815C57.039 84.4241 56.5176 84.8319 56.3814 85.4278L57.014 85.5723ZM56.9566 85.8236L57.014 85.5723L56.3814 85.4278L56.324 85.6791L56.9566 85.8236ZM54.7813 87.1898C55.7593 87.4133 56.7332 86.8016 56.9566 85.8236L56.324 85.6791C56.1804 86.3077 55.5544 86.7008 54.9258 86.5572L54.7813 87.1898ZM51.1711 86.3651L54.7813 87.1898L54.9258 86.5572L51.3157 85.7324L51.1711 86.3651ZM49.8049 84.1897C49.5815 85.1677 50.1932 86.1416 51.1711 86.3651L51.3157 85.7324C50.6871 85.5888 50.294 84.9628 50.4376 84.3343L49.8049 84.1897ZM49.8624 83.9384L49.8049 84.1897L50.4376 84.3343L50.495 84.0829L49.8624 83.9384ZM49.5038 83.1621C49.7867 83.3246 49.9302 83.6412 49.8624 83.9384L50.495 84.0829C50.6311 83.487 50.3385 82.8932 49.8271 82.5994L49.5038 83.1621ZM47.1988 81.5117C47.9043 82.1319 48.6751 82.686 49.5038 83.1621L49.8271 82.5994C49.0363 82.1451 48.3006 81.6163 47.6272 81.0243L47.1988 81.5117ZM46.3437 81.4255C46.6035 81.2623 46.9522 81.295 47.1988 81.5117L47.6272 81.0243C47.1813 80.6324 46.5195 80.5487 45.9985 80.8759L46.3437 81.4255ZM46.1137 81.5699L46.3437 81.4255L45.9985 80.8759L45.7686 81.0204L46.1137 81.5699ZM43.6095 80.9978C44.143 81.8473 45.2642 82.1034 46.1137 81.5699L45.7686 81.0204C45.2226 81.3633 44.5019 81.1986 44.159 80.6526L43.6095 80.9978ZM41.6399 77.8618L43.6095 80.9978L44.159 80.6526L42.1895 77.5167L41.6399 77.8618ZM42.2121 75.3575C41.3625 75.8911 41.1064 77.0123 41.6399 77.8618L42.1895 77.5167C41.8465 76.9706 42.0112 76.25 42.5572 75.9071L42.2121 75.3575ZM42.4973 75.1784L42.2121 75.3575L42.5572 75.9071L42.8424 75.728L42.4973 75.1784ZM64.6172 72.5793C63.6102 76.9869 59.2208 79.7436 54.8132 78.7366L54.6687 79.3693C59.4257 80.4561 64.163 77.4808 65.2498 72.7238L64.6172 72.5793ZM58.4598 62.7753C62.8674 63.7823 65.6242 68.1717 64.6172 72.5793L65.2498 72.7238C66.3366 67.9668 63.3614 63.2295 58.6044 62.1427L58.4598 62.7753ZM48.6559 68.9327C49.6628 64.5251 54.0522 61.7683 58.4598 62.7753L58.6044 62.1427C53.8474 61.0559 49.11 64.0311 48.0232 68.7881L48.6559 68.9327ZM54.8132 78.7366C50.4056 77.7297 47.6489 73.3403 48.6559 68.9327L48.0232 68.7881C46.9364 73.5451 49.9117 78.2825 54.6687 79.3693L54.8132 78.7366Z" fill="#171D23"/>
<path id="Vector 1930" d="M154.5 92.6406H4.41016" stroke="#002A3A" stroke-width="0.64893" stroke-linecap="round" stroke-linejoin="round"/>
</g>
</svg>
