<svg width="355" height="179" viewBox="0 0 355 179" fill="none" xmlns="http://www.w3.org/2000/svg">
<path d="M113.938 82.2816C114.187 82.5352 114.363 82.2134 114.521 82.1068C115.638 81.348 116.743 80.5689 117.838 79.7771C118.305 79.4393 118.791 79.2069 119.37 79.2954C120.843 79.5213 122.042 78.9714 123.278 78.154C127.463 75.3831 131.698 72.674 136.217 70.5159C139.501 68.9472 142.508 66.8956 145.659 65.102C150.952 62.0903 156.352 59.3247 161.948 56.9684C163.276 56.4099 164.599 55.8419 165.917 55.1918C164.314 54.9019 162.812 54.1314 161.107 54.4372C161.113 53.9364 161.913 53.8181 162.141 53.7243C164.697 52.6799 166.599 52.1587 169.281 51.5097C170.851 51.1303 172.713 50.4386 174.263 49.9846C176.12 49.4411 177.835 49.4209 179.725 49.0756C180.301 48.9701 186.354 48.2539 188.609 48.0354C190.409 47.8617 198.559 47.2553 200.311 47.1722C203.608 47.0166 206.904 46.8663 210.203 46.8162C213.402 46.7683 216.618 46.5796 219.798 46.8258C222.788 47.0571 225.774 47.0528 228.757 47.2095C230.461 47.299 232.168 47.4674 233.862 47.7647C234.836 47.9363 235.855 47.8127 236.848 47.8894C238.591 48.0248 240.334 48.1804 242.07 48.3871C243.416 48.548 244.673 48.1313 245.913 47.7658C247.791 47.2127 249.615 46.4624 251.418 45.677C253.102 44.9437 254.849 44.7199 256.66 44.8372C257.145 44.8691 257.26 45.1089 257.159 45.5267C256.975 46.2812 255.94 48.8315 255.737 49.5807C255.632 50.3246 256.771 49.9313 258.046 49.6351C261.559 48.8187 264.862 49.3654 268.096 50.7669C269.662 51.4457 271.302 51.8156 273.001 51.8379C274.233 51.8539 275.183 52.2472 275.784 53.4557C276.626 55.1502 277.966 56.4387 279.266 57.7549C280.149 58.649 281.014 59.5645 281.874 60.4831C282.217 60.8497 282.18 62.67 282.611 62.88C285.606 64.3411 287.979 66.1763 290.73 68.0551C293.366 69.8552 296.294 71.2598 298.941 73.0428C299.659 73.5255 300.985 72.6591 301.828 72.5813C302.684 72.5024 303.383 72.8563 304.023 73.3252C305.174 74.165 305.818 76.1824 306.514 77.5188C307.041 78.5313 308.286 78.2009 309.282 78.7615C310.254 79.3082 310.903 80.1682 311.379 81.1743C312.297 83.115 312.711 85.1569 312.794 87.3267C312.886 89.7321 313.211 92.1289 313.438 94.5289C313.465 94.8113 313.516 95.0916 313.534 95.3741C313.64 97.1336 313.857 98.5734 315.116 99.7382C317.143 101.615 318.474 103.648 318.905 106.426C319.217 108.44 318.899 111.198 319.125 113.204C319.185 113.732 319.209 116.422 319.258 116.952C319.413 118.591 313.023 130.123 312.432 131.694C312.209 132.288 311.109 134.296 309.982 137.028C309.257 138.788 305.783 136.899 304.948 136.673C304.203 136.472 252.51 143.729 250.955 142.673C249.709 141.827 249.61 140.755 249.542 142.297C246.485 142.297 245.787 142.781 245.025 142.673C244.446 142.591 244.572 145.397 243.983 145.413C236.106 145.625 228.225 145.559 220.347 145.656C213.053 145.746 205.759 145.766 198.466 145.897C193.581 145.984 188.694 145.938 183.811 146.06C177.482 146.22 171.151 146.199 164.821 146.302C157.734 146.418 150.646 146.42 143.558 146.51C138.777 146.57 133.995 146.619 129.215 146.75C126.532 146.823 123.85 146.824 121.166 146.826C119.718 146.826 118.385 146.44 117.267 145.432C116.511 144.751 115.566 144.572 114.63 144.377C113.401 144.123 77.0903 142.423 62.6419 142.55C58.9531 142.582 57.3773 145.283 57.3659 145.162C53.8962 145.28 41.007 144.366 39.0861 143.834C37.3347 143.349 36.3407 143.194 34.8496 142.149C33.9951 141.55 33.0393 141.138 32.0949 140.707C31.6754 140.515 31.1277 140.459 31.0688 139.808C31.0017 139.062 30.918 138.313 31.5018 137.715C31.7704 137.441 32.0432 137.17 32.3294 136.915C33.1364 136.2 33.4247 135.26 33.2418 134.233C32.9722 132.718 32.9422 131.201 32.9567 129.673C32.9618 129.104 32.9422 128.54 32.7221 128C32.5723 127.634 32.5888 127.235 32.5671 126.846C32.5506 126.563 32.6095 126.248 32.5103 126.002C31.9161 124.53 32.1631 122.995 32.1352 121.479C32.1104 120.169 32.0928 118.868 31.7673 117.576C31.6072 116.942 31.7188 116.238 31.694 115.565C31.6413 114.079 31.3964 112.605 31.4388 111.11C31.4574 110.45 31.6382 109.914 31.9895 109.34C33.3131 107.181 35.2454 105.606 36.9162 103.788C37.904 102.714 39.2359 102.026 40.481 101.271C44.0397 99.1094 47.7171 97.1975 51.5754 95.6671C55.4874 94.1154 59.3809 92.5019 63.4117 91.3019C66.6769 90.3289 69.8935 89.1779 73.2083 88.3797C76.7183 87.5335 80.2067 86.5733 83.7405 85.8475C86.6658 85.2464 89.561 84.5068 92.4976 83.9558C94.4536 83.5892 96.4148 83.2183 98.3605 82.7803C99.1613 82.6002 99.989 82.5256 100.799 82.4137C101.75 82.2826 102.667 82.0098 103.618 81.8766C105.315 81.6389 107.002 81.3277 108.713 81.2297C109.725 81.1711 111 81.834 111.014 82.3881C111.03 83.0063 113.125 82.3743 113.94 82.2816H113.938ZM155.229 82.3487C157.226 82.1057 159.112 82.0727 160.993 81.9533C164.446 81.7348 167.899 81.5036 171.353 81.3022C173.748 81.1625 176.137 80.9569 178.53 80.8002C180.818 80.6499 183.097 80.3643 185.386 80.2322C187.576 80.1064 189.755 79.8528 191.943 79.7227C192.411 79.695 192.644 79.5394 192.762 78.9991C193.405 76.0726 194.159 73.1717 194.778 70.2399C195.469 66.966 196.46 63.7581 196.785 60.4C196.905 59.1627 196.301 58.3432 195.133 58.259C193.513 58.1428 191.917 58.3261 190.309 58.4678C188.364 58.6384 186.426 58.8931 184.503 59.2085C182.004 59.6188 179.517 60.1133 177.048 60.7208C173.205 61.6672 169.452 62.8895 165.805 64.4349C159.565 67.08 153.715 70.4882 148.076 74.2929C147.914 74.4026 147.686 74.4708 147.669 74.7916C148.855 74.6414 150.038 74.5422 151.218 74.6733C152.65 74.8332 153.966 75.2691 154.945 76.4659C155.392 77.0115 155.579 77.5721 155.508 78.3117C155.385 79.6045 155.165 80.8961 155.229 82.3498V82.3487ZM214.762 77.5178C216.976 77.3195 219.145 77.0765 221.315 76.8314C222.607 76.6854 223.9 76.5437 225.191 76.3849C227.398 76.1121 229.608 75.8584 231.815 75.5781C233.684 75.3405 235.55 75.0879 237.414 74.8204C239.379 74.538 241.34 74.231 243.304 73.9348C243.821 73.857 244.091 73.6428 244.196 73.0172C244.569 70.7962 245.379 68.7372 246.648 66.8882C246.843 66.6047 246.995 66.2658 247.341 66.123C247.777 65.9429 247.886 65.5752 247.984 65.1318C248.452 63.0047 248.474 62.9844 246.459 62.2959C241.369 60.5556 236.121 59.5623 230.815 58.8622C227.827 58.4678 224.824 58.2334 221.82 58.017C220.383 57.9137 218.947 57.8391 217.504 57.8284C216.926 57.8241 216.695 58.0341 216.638 58.5733C216.622 58.713 216.571 58.8472 216.557 58.9868C216.188 62.5315 215.824 66.0761 215.456 69.6207C215.275 71.3749 215.046 73.1248 214.92 74.8822C214.858 75.7476 214.546 76.6087 214.763 77.5188L214.762 77.5178Z" fill="currentColor"/>
</svg>
